<!-- by TradingView --><svg width="56" height="56" fill="none" xmlns="http://www.w3.org/2000/svg"><path fill="#2B4373" d="M0 0h56v56H0z"/><path fill-rule="evenodd" clip-rule="evenodd" d="M43.97 29a16.242 16.242 0 0 0 0-2.001h-3.06L39.332 29h4.637Zm-.094 1h-5.449l-1.632 2h6.7c.169-.651.296-1.32.381-2Zm-.673 3H31.761a.3.3 0 0 1-.225-.498l5.42-6.162a1 1 0 0 1 .75-.34h6.17a15.96 15.96 0 0 0-.157-1h-6.087c-.794 0-1.552.33-2.092.913l-6.653 7.174a2.852 2.852 0 0 1-2.091.913H13.163C15.537 39.864 21.285 44 28 44c7.09 0 13.104-4.612 15.203-11Zm-30.699-1H22.87c.794 0 1.552-.33 2.092-.913l6.653-7.174A2.853 2.853 0 0 1 33.706 23h9.497a15.849 15.849 0 0 0-.366-1H31.73c-.805 0-1.572.34-2.113.936l-6.47 7.128a2.852 2.852 0 0 1-2.112.936H12.28c.064.337.138.67.223 1Zm-.473-3c-.02-.33-.031-.664-.031-1 0-8.837 7.163-16 16-16 5.922 0 11.093 3.218 13.86 8H28.284c-.816 0-1.594.35-2.136.962l-6.263 7.076A2.852 2.852 0 0 1 17.75 29h-5.72Z" fill="#fff"/></svg>