<!-- by TradingView --><svg width="56" height="56" fill="none" xmlns="http://www.w3.org/2000/svg"><path fill="#032775" d="M0 0h56v56H0z"/><path fill-rule="evenodd" clip-rule="evenodd" d="M19.278 34.126c-2.315-9.841-.964-16.738 0-18.956L30.4 11.5v.16h.003v6.74l-.06.059c-1.465 1.42-3.793 3.927-5.948 6.794-2.153 2.864-4.223 6.026-4.998 8.85v.023h-.119Zm.121-1.14c.885-2.677 2.673-5.314 4.674-7.975 2.14-2.846 4.446-5.34 5.927-6.782v-6.326c-3.73 2.372-10.368 9.475-10.6 21.082Zm11.237-14.672 11.14-3.144c.7 3.68.16 12.914-7.595 20.402-5.329 5.145-10.563 7.903-14.76 8.927h-.018v.003h-.404v-9.679l.17-.026c.357-.056 1.155-.284 1.912-.708.753-.422 1.67-1.04 2.705-1.877 2.033-1.644 4.514-4.132 7.088-7.644.075-3.203-.101-5.389-.238-6.254Zm.218 6.96c-2.47 3.293-4.844 5.659-6.814 7.252-1.05.849-1.986 1.48-2.761 1.915a7.864 7.864 0 0 1-1.877.72v9.025c3.596-3.033 10.794-9.866 11.234-15.195.11-1.345.18-2.588.218-3.718Z" fill="#fff"/></svg>