<!-- by TradingView --><svg width="56" height="56" viewBox="0 0 56 56" fill="none" xmlns="http://www.w3.org/2000/svg">
<rect width="56" height="56" fill="#2A8173"/>
<path d="M15 36H27V33.1605H19.4532V33.0319L22.7182 30.074C25.4102 27.6198 26.3075 26.3981 26.3075 24.5226V24.5011C26.3075 21.8648 24.0371 20 20.7397 20C17.4423 20 15 21.9355 15 24.8505V25.0152H18.0272L18.038 24.8398C18.0812 23.4466 19.1613 22.5185 20.7613 22.5185C22.1452 22.5185 23.1182 23.4187 23.129 24.6833V24.7048C23.129 25.7765 22.7073 26.5374 20.6965 28.4021L15 33.5141V36Z" fill="white"/>
<path d="M34.643 36C38.5999 36 41 32.9247 41 28.0056V27.9842C41 23.0651 38.5999 20 34.643 20C30.6861 20 28.286 23.0651 28.286 27.9842V28.0056C28.286 32.9247 30.6861 36 34.643 36ZM34.643 33.407C32.697 33.407 31.5834 31.4029 31.5834 28.0056V27.9842C31.5834 24.5869 32.697 22.5935 34.643 22.5935C36.589 22.5935 37.7026 24.5869 37.7026 27.9842V28.0056C37.7026 31.4029 36.589 33.407 34.643 33.407Z" fill="white"/>
</svg>
