<!-- by TradingView --><svg width="56" height="56" viewBox="0 0 56 56" fill="none" xmlns="http://www.w3.org/2000/svg">
<rect width="56" height="56" fill="#673028"/>
<path d="M19.4211 36H22.6586V20H19.2447L15 22.8229V25.7439L19.1878 23.0191H19.4211V36Z" fill="white"/>
<path d="M32.6501 36C36.4054 36 39 33.7657 39 30.4741V30.4523C39 27.4877 36.7468 25.3406 33.6287 25.3406C31.9673 25.3406 30.6131 25.9837 29.9303 27.0409H29.862L30.2603 22.6158H38V20H27.5292L26.7781 29.2316H29.771C29.9644 28.9046 30.2262 28.5995 30.5562 28.3597C31.1138 27.9346 31.8307 27.6948 32.6728 27.6948C34.4481 27.6948 35.7112 28.861 35.7226 30.5177V30.5395C35.7226 32.218 34.4595 33.3951 32.6615 33.3951C31.0797 33.3951 29.9303 32.4796 29.6913 31.2916L29.6686 31H26.4936L26.505 31.3787C26.7098 34.0055 29.0768 36 32.6501 36Z" fill="white"/>
</svg>
