<!-- by TradingView --><svg width="56" height="56" viewBox="0 0 56 56" fill="none" xmlns="http://www.w3.org/2000/svg">
<rect width="56" height="56" fill="#504F53"/>
<path fill-rule="evenodd" clip-rule="evenodd" d="M28.0711 14.8161L23.8871 19L28.0711 23.184L32.255 19L28.0711 14.8161ZM22.4436 17.5565L21 19L22.4436 20.4436L26.6275 24.6275L28.0711 26.0711L29.5146 24.6275L33.6986 20.4436L35.1421 19L33.6986 17.5565L29.5146 13.3725L28.0711 11.929L26.6275 13.3725L22.4436 17.5565ZM12 34H19.1779L25 28L19.1779 22H12V34ZM44 34H36.8221L31 28.0856L36.8221 22H44V34ZM28.0711 29.929L21 37L28.0711 44.0711L35.1421 37L28.0711 29.929Z" fill="white"/>
</svg>
