<!-- by TradingView --><svg width="56" height="56" fill="none" xmlns="http://www.w3.org/2000/svg"><path fill="#913132" d="M0 0h56v56H0z"/><path fill-rule="evenodd" clip-rule="evenodd" d="M29.111 12c.122.008.244.018.366.03-1.4 2.18-5.296 7.144-7.121 9.416-.24-.02-1.055-.156-2.4-.536 1.381-1.934 6.636-6.69 9.09-8.825l.065-.085Zm-2.762.047c-5.19.533-9.645 3.55-12.16 7.843 1.4.143 3.704.422 4.887.718 1.534-1.131 5.076-5.632 7.273-8.561Zm-12.892 9.247c-.196.425-.373.86-.532 1.305 3.765-.334 6.876.217 7.988.545.07-.11.31-.464.712-.99-3.475-.723-6.649-.875-8.168-.86Zm-1.008 2.902c-.11.46-.202.926-.273 1.4l.062-.02c2.817 2.195 8.58 6.896 9.097 8.146a130.16 130.16 0 0 0 2.564-6.092c.074.61.026 2.352-.759 4.44-.784 2.09-1.62 3.668-1.94 4.196l3.323 3.17c.788-1.975 2.408-6.213 2.586-7.365.321.839.03 3.266-.156 4.374l-2.742 6.584c2.668-1.835 8.624-6.148 11.103-8.727-1.052 1.875-3.144 3.876-4.058 4.642C30.9 40.218 30 42.971 29.25 43.81l-.137.152c5.413-.37 10.086-3.436 12.691-7.866a537.893 537.893 0 0 0-8.134-2.865c-.117.345-.5 1.26-1.094 2.151.125-.391.43-1.597.567-2.151-.228-.059-.758-.227-1.055-.43.562-.266 1.224-.333 1.484-.333.02-.104.086-.528.196-1.388-1.282-.642-3.7-1.467-4.748-1.8l-.82 1.35c.058-.293.219-1.001.39-1.486-.406-.172-1.146-.333-1.465-.391a8.274 8.274 0 0 1 1.72-.215c.218-.532.695-1.991.906-2.654-5.742-1.384-8.264-1.704-8.838-1.665-.537.254-1.525.61-1.186 0-2.825-.407-5.96-.17-7.175 0a14.107 14.107 0 0 1-.103-.023Zm30.806 8.65c.318-1 .54-2.042.657-3.116-3.571-5.296-5.33-7.363-6.55-8.604-.078.767-.944 3.892-1.367 5.358l1.153.939c-.118-.065-.536-.266-1.27-.548-.172 1.136-.866 2.794-1.192 3.481l2.676 1.174a87.727 87.727 0 0 1 2.677-2.543c-.375-.093-2.488-1.016-3.497-1.466 1.192.404 3.626 1.204 3.83 1.173.202-.031.657-.495.859-.723l-.391.86c.228.091 1.074.524 2.637 1.525-.355-.133-.83-.33-1.325-.533-.594-.244-1.214-.5-1.683-.67-.328.453-1.778 1.927-2.481 2.63.195.112.973.431 2.52.822 1.298.328 2.266.312 2.747.24ZM44 27.515a15.958 15.958 0 0 0-1.397-6.103c-.831-.882-3.238-3.012-4.537-4.139-.059.62-.239 2.116-.489 3.149 1.983 1.828 5.105 5.486 6.423 7.093Zm-2.797-8.593a16.104 16.104 0 0 0-2.92-3.218l-.217 1.257 3.137 1.96Zm-4.49-4.382c-.055 1.292-.169 3.39-.327 4.728-.563-.36-2.306-1.858-3.107-2.562.886.985 2.747 3.012 3.107 3.247-.188 1.814-.938 4.902-1.29 6.218l-3.287-1.277c1.053.41 3.112 1.28 3.19 1.59.078.313-.58 2.595-.919 3.696-1.285-.547-3.097-1.278-4.798-1.642a39.32 39.32 0 0 1 .86-2.318l.09-.222c1.181.288 2.564.64 4.013 1.02-.702-.461-2.12-1.012-3.79-1.562.886-1.45 2.64-5.942 2.822-12.604 1.22.426 2.372.996 3.436 1.688ZM28.93 43.974c.105-.2.238-.466.32-.722.09-.278.323-.812.585-1.412.453-1.04.993-2.278 1.02-2.717a611.048 611.048 0 0 1-5.524 4.655 16.095 16.095 0 0 0 3.599.196Zm-6.242-.879 1.524-2.79-3.456-2.923-1.564 3.973a15.939 15.939 0 0 0 3.496 1.74Zm-5.083-2.938 2.26-3.31c-.548-.541-2.782-2.285-7.401-5.025a16.02 16.02 0 0 0 5.141 8.335Zm-5.56-10.976 8.443 6.64.558-1.43c-2.368-2.108-7.143-6.207-9.02-7.3a16.317 16.317 0 0 0 .02 2.09Zm21.928 3.317.368-1.238c.825.32 3.204 1.413 6.12 3.212-2.678-1.175-5.44-1.805-6.488-1.974ZM22.18 23.145l.73-.779c.68.094 2.93.597 6.498 1.854-1.747-1.175-4.598-2.11-5.805-2.431 1.512-1.912 5.22-6.396 7.958-9.044.423 3.54-.144 8.409-1.648 12.536-2.675-.854-5.837-1.68-7.733-2.136Z" fill="#fff"/></svg>