<!-- by TradingView --><svg width="56" height="56" viewBox="0 0 56 56" fill="none" xmlns="http://www.w3.org/2000/svg">
<rect width="56" height="56" fill="black"/>
<path fill-rule="evenodd" clip-rule="evenodd" d="M28.5 12.0205V10.1293H27.5V12.0193C23.4799 12.2235 20.1216 14.9357 18.9589 18.6224L17.7736 17.4372L17.0665 18.1443L18.2806 19.3583C14.8443 20.5775 12.321 23.7253 12.0124 27.5H10.3418V28.5H11.983C12.075 32.5712 14.7374 36.0078 18.4111 37.2506L17.4132 38.3435L18.1517 39.0178L19.146 37.9288C20.4534 41.3396 23.6775 43.8012 27.5 43.9952V45.7909H28.5V43.9939C32.294 43.7917 35.495 41.3553 36.8113 37.9766L38.357 39.4569L39.0487 38.7347L37.516 37.2669C41.2148 36.038 43.9003 32.5891 43.9927 28.5H45.8381V27.5H43.9633C43.6413 23.5617 40.9085 20.3058 37.2432 19.2108L38.3097 18.1443L37.6026 17.4372L36.8639 18.1758C35.5818 14.7256 32.3455 12.2255 28.5 12.0205ZM27.5 13.0208C23.9213 13.2242 20.9374 15.6504 19.9074 18.9405C20.4083 18.8586 20.9224 18.816 21.4464 18.816C22.1265 18.816 22.7899 18.8877 23.4293 19.024L27.5 14.833V13.0208ZM28.5 14.833V13.0222C32.0681 13.235 35.041 15.6578 36.0687 18.9405C35.5677 18.8586 35.0535 18.816 34.5293 18.816C33.9068 18.816 33.2984 18.8761 32.7094 18.9908L28.5 14.833ZM27.5 16.2683L24.5274 19.3287C24.9556 19.476 25.3698 19.6532 25.7676 19.8576C25.3004 19.9846 24.8493 20.1508 24.4181 20.3522C24.1985 20.2699 23.9747 20.1965 23.7469 20.1323L23.074 19.9723C22.5473 19.8697 22.0031 19.816 21.4464 19.816C21.0362 19.816 20.6327 19.8452 20.238 19.9016L22.1974 21.8609C21.9546 22.0897 21.7253 22.3328 21.511 22.5888L19.5626 20.6403C19.5358 20.9142 19.5222 21.1919 19.5222 21.4728C19.5222 22.2105 19.6164 22.9255 19.7932 23.6066C19.8969 24.0059 20.029 24.3938 20.1872 24.768C20.0044 25.2077 19.8577 25.6662 19.7508 26.1397C19.4891 25.6787 19.2649 25.1936 19.0825 24.6885L16.1292 27.5H19.5586C19.5486 27.6678 19.5436 27.837 19.5436 28.0073C19.5436 28.1727 19.5484 28.337 19.5577 28.5H16.1417L19.0375 31.4526C19.2276 30.9017 19.4671 30.3739 19.7507 29.8744C19.8576 30.3481 20.0043 30.8067 20.1872 31.2465C20.0482 31.5752 19.9293 31.9145 19.8322 32.2629L19.6108 33.3107C19.5523 33.7125 19.522 34.1236 19.522 34.5417C19.522 35.0085 19.5598 35.4666 19.6324 35.9129L21.702 33.6462C21.925 33.8946 22.1626 34.1298 22.4133 34.3503L20.2952 36.6702C20.6716 36.7213 21.0559 36.7478 21.4464 36.7478C22.001 36.7478 22.5432 36.6944 23.0681 36.5926L23.7901 36.4192C24.2332 36.2918 24.6613 36.1292 25.0713 35.9347C25.5171 36.0988 25.9806 36.2263 26.4581 36.3137C25.8938 36.6666 25.2896 36.9616 24.6538 37.1906L27.5 39.7326V36.4381C27.6616 36.4473 27.8244 36.452 27.9883 36.452C28.1601 36.452 28.3307 36.4469 28.5 36.4368V39.7326L31.2494 37.1641C30.6403 36.9391 30.0606 36.6532 29.5178 36.3138C29.9954 36.2265 30.4589 36.0989 30.9048 35.9349C31.2854 36.1154 31.6816 36.2684 32.0908 36.3913L32.7456 36.5595C33.3206 36.6829 33.9174 36.7478 34.5293 36.7478C34.8485 36.7478 35.1637 36.7301 35.4738 36.6957L33.2766 34.5915C33.5374 34.3818 33.7854 34.1569 34.0194 33.9182L36.3086 36.1106C36.4039 35.6022 36.4537 35.0778 36.4537 34.5417C36.4537 33.3733 36.217 32.2601 35.789 31.2476C35.9719 30.8078 36.1187 30.3492 36.2256 29.8755C36.5499 30.4468 36.8165 31.0551 37.0174 31.6925L40.0695 28.5H36.4189C36.4282 28.337 36.433 28.1727 36.433 28.0073C36.433 27.837 36.428 27.6678 36.418 27.5H40.0695L36.9014 24.6667C36.7177 25.1794 36.491 25.6716 36.2256 26.1391C36.1187 25.6655 35.972 25.2071 35.7891 24.7674C35.9473 24.3934 36.0793 24.0057 36.1829 23.6066C36.3597 22.9255 36.4539 22.2105 36.4539 21.4728C36.4539 21.0086 36.4166 20.5532 36.3447 20.1093L34.1844 22.2696C33.9577 22.0249 33.7167 21.7936 33.4626 21.5771L35.1978 19.842C34.9772 19.8248 34.7543 19.816 34.5293 19.816C34.0677 19.816 33.6147 19.8529 33.1731 19.924L32.3976 20.0867C32.1116 20.1608 31.8315 20.2496 31.5581 20.352C31.1268 20.1506 30.6757 19.9845 30.2084 19.8575C30.6473 19.6319 31.1061 19.4396 31.5815 19.284L28.5 16.2357V19.5779C28.3307 19.5677 28.1601 19.5626 27.9883 19.5626C27.8244 19.5626 27.6616 19.5673 27.5 19.5765V16.2683ZM42.9595 27.5C42.6545 24.169 40.4199 21.3962 37.3831 20.3091C37.4299 20.6904 37.4539 21.0788 37.4539 21.4728C37.4539 22.1949 37.373 22.8987 37.2195 23.5753L41.4925 27.5H42.9595ZM41.453 28.5H42.9924C42.9011 32.1128 40.5464 35.1632 37.2933 36.2863C37.3987 35.7208 37.4537 35.1377 37.4537 34.5417C37.4537 33.9499 37.3994 33.3707 37.2955 32.809L37.3153 32.8279L41.453 28.5ZM28.5 42.9923C31.8542 42.7922 34.6824 40.6391 35.8631 37.6545C35.4273 37.716 34.982 37.7478 34.5293 37.7478C33.784 37.7478 33.0589 37.6617 32.3633 37.4988L28.5 41.0904V42.9923ZM27.5 41.0733V42.9937C24.1351 42.8026 21.2961 40.6463 20.1126 37.6545C20.5484 37.716 20.9937 37.7478 21.4464 37.7478C22.1591 37.7478 22.8534 37.669 23.5211 37.5197L27.5 41.0733ZM12.9833 28.5C13.0746 32.1128 15.4293 35.1632 18.6824 36.2863C18.577 35.7208 18.522 35.1377 18.522 34.5417C18.522 33.864 18.5932 33.203 18.7285 32.5657L14.741 28.5H12.9833ZM14.741 27.5H13.0161C13.3212 24.1688 15.556 21.3959 18.593 20.3089C18.5462 20.6903 18.5222 21.0788 18.5222 21.4728C18.5222 22.1978 18.6038 22.9043 18.7584 23.5834L14.741 27.5ZM27.1002 21.0344C28.4055 20.9074 29.8262 21.1249 31.3533 21.8065C30.5618 21.8126 29.7937 21.9221 29.0618 22.1225C28.4027 21.9993 27.7808 21.9769 27.1955 22.0339C25.9197 22.1579 24.783 22.6622 23.7867 23.3781C23.7606 24.0087 23.7605 24.6781 23.8621 25.3148C23.8885 25.4807 23.9216 25.6424 23.9622 25.7988C23.7211 26.1568 23.5046 26.5331 23.315 26.9254C23.0919 26.4611 22.9584 25.9647 22.8802 25.4745C22.7482 24.6467 22.7683 23.7993 22.8046 23.0889L22.8165 22.8543L23.0026 22.7132C24.1548 21.8395 25.5236 21.1877 27.1002 21.0344ZM24.8359 24.1726C27.3325 24.7438 29.0211 26.2363 29.84 27.1112C29.9152 27.1095 30.1449 26.8536 30.4617 25.8433C29.7401 24.8561 27.8093 23.7362 26.9341 23.2997C26.7644 23.2844 25.443 23.5316 24.8359 24.1726ZM24.0585 31.1034C24.6789 28.5959 26.1939 26.9243 27.0782 26.1169C27.0782 26.0409 26.8298 25.8035 25.8364 25.4616C24.8429 26.1682 23.6916 28.0925 23.2401 28.9664C23.2213 29.1373 23.4371 30.4765 24.0585 31.1034ZM28.8284 29.8176C29.709 29.0061 31.2162 27.3273 31.8249 24.8169C32.4492 25.4408 32.6712 26.779 32.6532 26.95C32.2058 27.826 31.0634 29.7557 30.0733 30.4671C29.0782 30.1299 28.8288 29.8936 28.8284 29.8176ZM30.9037 31.8739C28.4326 31.199 26.8065 29.6373 26.0241 28.729C25.9489 28.7275 25.7089 28.9736 25.3511 29.9698C26.0316 30.9863 27.9149 32.1858 28.7715 32.6585C28.9404 32.6808 30.2708 32.4889 30.9037 31.8739ZM28.7684 34.9481C27.4661 35.1038 26.0411 34.9178 24.4996 34.27C25.2907 34.2464 26.0562 34.1199 26.7834 33.9035C27.4451 34.0122 28.0674 34.0208 28.6514 33.951C29.9242 33.7988 31.0498 33.2696 32.0303 32.5319C32.0429 31.9009 32.0284 31.2317 31.9131 30.5973C31.883 30.4319 31.8465 30.2708 31.8024 30.1151C32.0356 29.7519 32.244 29.3709 32.4249 28.9745C32.6582 29.434 32.8025 29.9275 32.8913 30.4161C33.0412 31.2407 33.0394 32.0884 33.0185 32.7994L33.0117 33.0342L32.8287 33.1793C31.6956 34.0782 30.3413 34.7601 28.7684 34.9481ZM22.1257 23.873C21.3226 25.351 20.9866 26.7617 21.0004 28.0856C21.0171 29.6847 21.5435 31.1172 22.3073 32.3509L22.4306 32.5501L22.6611 32.5821C23.3591 32.6792 24.1937 32.7719 25.0218 32.7098C25.5123 32.673 26.0137 32.581 26.491 32.3962C26.12 32.1721 25.7672 31.9221 25.4345 31.649C25.2766 31.6765 25.1141 31.696 24.9481 31.7084C24.311 31.7562 23.6504 31.699 23.0304 31.6188C22.409 30.5556 22.0084 29.369 21.9949 28.0751C21.9887 27.4814 22.0639 26.8576 22.2419 26.205C22.1066 25.4517 22.0642 24.6697 22.1257 23.873ZM34.3844 31.2354C34.9751 29.659 35.1127 28.2151 34.916 26.9063C34.6785 25.3253 33.9592 23.981 33.0323 22.867L32.8827 22.6871L32.65 22.6878C31.9454 22.69 31.1062 22.7159 30.2947 22.8941C29.8142 22.9996 29.3305 23.1613 28.8835 23.4115C29.2818 23.5812 29.6658 23.779 30.033 24.0025C30.1855 23.9531 30.3435 23.9109 30.5061 23.8752C31.1304 23.7381 31.7924 23.7017 32.4175 23.6937C33.1798 24.659 33.7405 25.7775 33.9327 27.0569C34.0209 27.6437 34.0327 28.2717 33.9468 28.9426C34.1849 29.6695 34.3351 30.4378 34.3844 31.2354Z" fill="white"/>
</svg>
