<!-- by TradingView --><svg width="56" height="56" viewBox="0 0 56 56" fill="none" xmlns="http://www.w3.org/2000/svg">
<rect width="56" height="56" fill="#A08E5A"/>
<path d="M20.6508 36C24.3391 36 26.7906 34.1186 26.7906 31.3569V31.3355C26.7906 29.2375 25.2584 27.9102 22.9163 27.6962V27.6319C24.7659 27.2573 26.2106 26.0049 26.2106 24.0782V24.0568C26.2106 21.627 24.0217 20 20.618 20C17.3018 20 15.0801 21.7555 14.8612 24.4314L14.8502 24.5599H17.8818L17.8928 24.4636C18.0241 23.2647 19.0748 22.4833 20.618 22.4833C22.1721 22.4833 23.0805 23.2326 23.0805 24.485V24.5064C23.0805 25.7587 22.0079 26.6151 20.3553 26.6151H18.5932V28.9164H20.3991C22.3034 28.9164 23.4307 29.7299 23.4307 31.2071V31.2285C23.4307 32.4915 22.3362 33.38 20.6398 33.38C18.9325 33.38 17.8162 32.5558 17.6739 31.4533L17.652 31.3355H14.5L14.5109 31.4747C14.7298 34.14 17.0719 36 20.6508 36Z" fill="white"/>
<path d="M35.0647 36C39.0703 36 41.5 32.909 41.5 27.9959V27.9745C41.5 23.0613 39.0703 20 35.0647 20C31.059 20 28.6293 23.0613 28.6293 27.9745V27.9959C28.6293 32.909 31.059 36 35.0647 36ZM35.0647 33.3907C33.0946 33.3907 31.9674 31.389 31.9674 27.9959V27.9745C31.9674 24.5813 33.0946 22.5904 35.0647 22.5904C37.0347 22.5904 38.1619 24.5813 38.1619 27.9745V27.9959C38.1619 31.389 37.0347 33.3907 35.0647 33.3907Z" fill="white"/>
</svg>
