<!-- by TradingView --><svg width="56" height="56" fill="none" xmlns="http://www.w3.org/2000/svg"><path fill="#1F4593" d="M0 0h56v56H0z"/><path fill-rule="evenodd" clip-rule="evenodd" d="M22.52 19.346c6.584-6.933 15.247-9.393 19.352-5.496 2.203 2.092 2.644 5.59 1.563 9.454l-5.082 3.627c1.728-4.044 1.811-7.63-.154-9.497-3.355-3.186-11.411-.149-17.994 6.784a34.589 34.589 0 0 0-3.375 4.141c1.053-3.005 2.986-6.165 5.69-9.013Zm11.115 17.536c-6.78 6.854-15.558 9.164-19.606 5.16-2.173-2.15-2.542-5.681-1.368-9.552l5.196-3.553c-1.828 4.039-1.99 7.649-.052 9.566 3.31 3.273 11.488.371 18.268-6.483a34.97 34.97 0 0 0 3.49-4.105c-1.127 3.006-3.142 6.15-5.928 8.967Z" fill="#fff"/></svg>