<!-- by TradingView --><svg width="56" height="56" fill="none" xmlns="http://www.w3.org/2000/svg"><path fill="#511732" d="M0 0h56v56H0z"/><path fill-rule="evenodd" clip-rule="evenodd" d="M28 12c-8.837 0-16 7.163-16 16s7.163 16 16 16 16-7.163 16-16-7.163-16-16-16Zm-2 15h-2V16h7v2.007h-5v3.118h5v1.926h-5V27Zm0 13h-2V28h4.644c2.525 0 4.02 1.38 4.02 3.717v.016c0 1.531-.786 2.804-2.033 3.312L33 40h-2.665l-2.096-4.592H26V40Zm0-10v3.562h2.387c1.169 0 1.87-.685 1.87-1.829v-.016c0-1.112-.74-1.717-1.901-1.717H26Z" fill="#fff"/></svg>