<!-- by TradingView --><svg width="56" height="56" viewBox="0 0 56 56" fill="none" xmlns="http://www.w3.org/2000/svg">
<rect width="56" height="56" fill="#7D1C55"/>
<path fill-rule="evenodd" clip-rule="evenodd" d="M23.4002 19.3094C23.1494 17.5121 24.4241 16.2526 24.9814 15.9043C17.7716 15.1728 12.4284 17.4808 12.0629 20.929C11.5891 25.3997 13.6488 29.2667 23.4002 32.6129C16.8694 28.799 15.0058 25.1021 15.5021 22.5229C15.9402 20.2457 18.4107 19.1509 23.4002 19.3094ZM33 28C33 30.7614 30.7614 33 28 33C25.2386 33 23 30.7614 23 28C23 25.2386 25.2386 23 28 23C30.7614 23 33 25.2386 33 28ZM38.6735 23.8901C38.9578 24.7733 38.1292 27.3756 36.3589 27.7489C40.5827 30.6734 39.5876 33.6194 38.9578 34.7353C38.3281 35.8511 32.5083 39.9893 20.4735 36.1163C30.0619 42.2903 40.3659 40.1154 42.8981 36.4006C44.8511 33.5353 44.6431 27.9987 38.6735 23.8901Z" fill="white"/>
</svg>
