<!-- by TradingView --><svg width="56" height="56" viewBox="0 0 56 56" xmlns="http://www.w3.org/2000/svg"><path fill="#913132" d="M0 0h56v56H0z"/><path d="M20.65 36c3.69 0 6.14-1.88 6.14-4.64v-.02c0-2.1-1.53-3.43-3.87-3.64v-.07c1.85-.37 3.3-1.63 3.3-3.55v-.02c0-2.43-2.2-4.06-5.6-4.06-3.32 0-5.54 1.76-5.76 4.43l-.01.13h3.03l.01-.1c.13-1.2 1.18-1.98 2.73-1.98s2.46.75 2.46 2v.03c0 1.25-1.07 2.1-2.72 2.1h-1.77v2.3h1.8c1.91 0 3.04.82 3.04 2.3v.02c0 1.26-1.1 2.15-2.79 2.15-1.7 0-2.82-.82-2.97-1.93l-.02-.11H14.5l.01.13c.22 2.67 2.56 4.53 6.14 4.53ZM35.06 36c4.01 0 6.44-3.1 6.44-8v-.03c0-4.9-2.43-7.97-6.44-7.97-4 0-6.43 3.06-6.43 7.97V28c0 4.9 2.43 8 6.43 8Zm0-2.6c-1.97 0-3.1-2.01-3.1-5.4v-.03c0-3.39 1.13-5.38 3.1-5.38 1.97 0 3.1 2 3.1 5.38V28c0 3.39-1.13 5.4-3.1 5.4Z" fill="#fff"/></svg>