<!-- by TradingView --><svg width="56" height="56" viewBox="0 0 56 56" fill="none" xmlns="http://www.w3.org/2000/svg">
<rect width="56" height="56" fill="#C4162E"/>
<path d="M26.9422 19.5379L26.3183 14.3962C25.6263 14.4763 24.6828 14.6774 23.9967 14.8904L25.5206 19.8387C25.9791 19.699 26.4564 19.5984 26.9422 19.5379Z" fill="white"/>
<path d="M15.3751 22.6542C15.0981 23.2941 14.8006 24.2119 14.6421 24.9115L19.691 26.0661C19.801 25.5932 19.9518 25.1279 20.1393 24.6839L15.3751 22.6542Z" fill="white"/>
<path d="M18.6462 38.0223L22.1712 34.2269C21.8141 33.8929 21.4868 33.5307 21.1971 33.149L17.0566 36.2593C17.4717 36.8174 18.1177 37.534 18.6462 38.0223Z" fill="white"/>
<path d="M29.0576 36.4621L29.6815 41.6047C30.3744 41.5246 31.3179 41.3235 32.0031 41.1104L30.4792 36.1621C30.0207 36.301 29.5434 36.4016 29.0576 36.4621Z" fill="white"/>
<path d="M40.6249 33.3458C40.9019 32.7059 41.1993 31.7881 41.3579 31.0885L36.3098 29.9339C36.1998 30.4077 36.0481 30.8721 35.8606 31.3161L40.6249 33.3458Z" fill="white"/>
<path d="M37.3548 17.9785L33.8297 21.7739C34.1868 22.108 34.5141 22.4701 34.8039 22.8519L38.9443 19.7424C38.5267 19.1817 37.8815 18.4651 37.3548 17.9785Z" fill="white"/>
<path d="M26.9422 19.5379L26.3183 14.3962C25.6263 14.4763 24.6828 14.6774 23.9967 14.8904L25.5206 19.8387C25.9791 19.699 26.4564 19.5984 26.9422 19.5379Z" fill="white"/>
<path d="M15.3751 22.6542C15.0981 23.2941 14.8006 24.2119 14.6421 24.9115L19.691 26.0661C19.801 25.5932 19.9518 25.1279 20.1393 24.6839L15.3751 22.6542Z" fill="white"/>
<path d="M18.6462 38.0223L22.1712 34.2269C21.8141 33.8929 21.4868 33.5307 21.1971 33.149L17.0566 36.2593C17.4717 36.8174 18.1177 37.534 18.6462 38.0223Z" fill="white"/>
<path d="M29.0576 36.4621L29.6815 41.6047C30.3744 41.5246 31.3179 41.3235 32.0031 41.1104L30.4792 36.1621C30.0207 36.301 29.5434 36.4016 29.0576 36.4621Z" fill="white"/>
<path d="M40.6249 33.3458C40.9019 32.7059 41.1993 31.7881 41.3579 31.0885L36.3098 29.9339C36.1998 30.4077 36.0481 30.8721 35.8606 31.3161L40.6249 33.3458Z" fill="white"/>
<path d="M37.3548 17.9785L33.8297 21.7739C34.1868 22.108 34.5141 22.4701 34.8039 22.8519L38.9443 19.7424C38.5267 19.1817 37.8815 18.4651 37.3548 17.9785Z" fill="white"/>
<path d="M21.197 22.8553C21.4919 22.4658 21.8183 22.102 22.1678 21.7748L20.7479 20.2478L18.012 17.3403C17.4018 17.9121 16.8393 18.5367 16.3381 19.1996L17.3055 19.935L21.197 22.8553Z" fill="white"/>
<path d="M14.544 33.6986L15.6878 33.2189L20.1384 31.3195C19.9535 30.8798 19.8035 30.4154 19.6918 29.9365L17.6557 30.4034L13.7684 31.3195C13.9568 32.1298 14.2176 32.93 14.544 33.6986Z" fill="white"/>
<path d="M25.5233 36.1647L24.8934 38.2132L23.7599 41.9822C24.5559 42.2233 25.3792 42.3963 26.2085 42.4977L26.3687 41.2357L26.9449 36.4638C26.4582 36.4041 25.9801 36.3036 25.5233 36.1647Z" fill="white"/>
<path d="M34.803 33.1456C34.5081 33.535 34.1826 33.898 33.8323 34.2261L35.2795 35.7829L37.988 38.6597C38.5974 38.0888 39.1608 37.4633 39.6619 36.8004L38.6707 36.0471L34.803 33.1456Z" fill="white"/>
<path d="M41.4567 22.3014L40.3138 22.7811L35.8623 24.6805C36.0481 25.1202 36.1981 25.5855 36.3089 26.0635L38.4064 25.5829L42.2332 24.6805C42.0431 23.8702 41.7823 23.07 41.4567 22.3014Z" fill="white"/>
<path d="M30.4776 19.8353L31.0981 17.8166L32.241 14.017C31.445 13.7758 30.6217 13.6029 29.7924 13.5014L29.639 14.7047L29.056 19.5354C29.5418 19.5959 30.02 19.6964 30.4776 19.8353Z" fill="white"/>
<path d="M21.197 22.8553C21.4919 22.4658 21.8183 22.102 22.1678 21.7748L20.7479 20.2478L18.012 17.3403C17.4018 17.9121 16.8393 18.5367 16.3381 19.1996L17.3055 19.935L21.197 22.8553Z" fill="white"/>
<path d="M14.544 33.6986L15.6878 33.2189L20.1384 31.3195C19.9535 30.8798 19.8035 30.4154 19.6918 29.9365L17.6557 30.4034L13.7684 31.3195C13.9568 32.1298 14.2176 32.93 14.544 33.6986Z" fill="white"/>
<path d="M25.5233 36.1647L24.8934 38.2132L23.7599 41.9822C24.5559 42.2233 25.3792 42.3963 26.2085 42.4977L26.3687 41.2357L26.9449 36.4638C26.4582 36.4041 25.9801 36.3036 25.5233 36.1647Z" fill="white"/>
<path d="M34.803 33.1456C34.5081 33.535 34.1826 33.898 33.8323 34.2261L35.2795 35.7829L37.988 38.6597C38.5974 38.0888 39.1608 37.4633 39.6619 36.8004L38.6707 36.0471L34.803 33.1456Z" fill="white"/>
<path d="M41.4567 22.3014L40.3138 22.7811L35.8623 24.6805C36.0481 25.1202 36.1981 25.5855 36.3089 26.0635L38.4064 25.5829L42.2332 24.6805C42.0431 23.8702 41.7823 23.07 41.4567 22.3014Z" fill="white"/>
<path d="M30.4776 19.8353L31.0981 17.8166L32.241 14.017C31.445 13.7758 30.6217 13.6029 29.7924 13.5014L29.639 14.7047L29.056 19.5354C29.5418 19.5959 30.02 19.6964 30.4776 19.8353Z" fill="white"/>
<path d="M22.7822 12.8726C21.9069 13.1734 21.0521 13.5543 20.2416 14.0034L22.9723 18.9065C23.4896 18.6193 24.0343 18.3748 24.601 18.1779L22.7822 12.8726Z" fill="white"/>
<path d="M12.2864 24.9541C12.1116 25.859 12.0153 26.7895 12 27.7201L17.6311 27.807C17.6413 27.2028 17.7027 26.6115 17.8126 26.0363L12.2864 24.9541Z" fill="white"/>
<path d="M17.5083 40.0785C18.2106 40.6878 18.9666 41.2383 19.7575 41.7138L22.6519 36.8762C22.1422 36.5686 21.6606 36.2184 21.2132 35.8307L17.5083 40.0785Z" fill="white"/>
<path d="M33.2185 43.1274C34.0938 42.8266 34.9487 42.4457 35.7592 41.9958L33.0148 37.0696C32.4984 37.356 31.9554 37.5988 31.3904 37.794L33.2185 43.1274Z" fill="white"/>
<path d="M43.7136 31.0459C43.8883 30.141 43.9855 29.2105 44 28.2799L38.368 28.193C38.3561 28.7972 38.2922 29.3886 38.1814 29.9629L43.7136 31.0459Z" fill="white"/>
<path d="M38.4916 15.9215C37.7893 15.3122 37.0334 14.7618 36.2424 14.2863L33.3617 19.1008C33.8722 19.4101 34.3538 19.762 34.8021 20.1523L38.4916 15.9215Z" fill="white"/>
<path d="M19.7507 14.288C18.9563 14.766 18.2003 15.3165 17.5023 15.9241L21.1953 20.154C21.6427 19.7638 22.1251 19.4118 22.6348 19.1025L19.7507 14.288Z" fill="white"/>
<path d="M12.0009 28.2876C12.0094 28.7571 12.0384 29.2232 12.0852 29.6732C12.133 30.1248 12.202 30.5883 12.2915 31.0528L17.8186 29.9671C17.7078 29.3928 17.6439 28.8014 17.6319 28.1973L12.0009 28.2876Z" fill="white"/>
<path d="M20.2484 41.9975C21.0581 42.4466 21.9121 42.8275 22.7891 43.13L24.6138 37.7956C24.0488 37.6005 23.505 37.3577 22.9885 37.0713L20.2484 41.9975Z" fill="white"/>
<path d="M36.2502 41.712C37.0445 41.234 37.8005 40.6835 38.4994 40.0751L34.7911 35.8272C34.3436 36.2158 33.8621 36.566 33.3524 36.8737L36.2502 41.712Z" fill="white"/>
<path d="M43.9991 27.7133C43.9906 27.2437 43.9616 26.7776 43.9148 26.3277C43.867 25.8761 43.798 25.4125 43.7085 24.9481L38.1874 26.0329C38.2965 26.6081 38.3587 27.1994 38.3689 27.8036L43.9991 27.7133Z" fill="white"/>
<path d="M33.0684 18.8264L35.7523 14.0025C34.9426 13.5534 34.0878 13.1725 33.2116 12.87L31.3962 18.1771C31.963 18.3731 32.5076 18.6176 33.025 18.9048L33.0684 18.8264Z" fill="white"/>
<path d="M19.7507 14.288C18.9563 14.766 18.2003 15.3165 17.5023 15.9241L21.1953 20.154C21.6427 19.7638 22.1251 19.4118 22.6348 19.1025L19.7507 14.288Z" fill="white"/>
<path d="M12.0009 28.2876C12.0094 28.7571 12.0384 29.2232 12.0852 29.6732C12.133 30.1248 12.202 30.5883 12.2915 31.0528L17.8186 29.9671C17.7078 29.3928 17.6439 28.8014 17.6319 28.1973L12.0009 28.2876Z" fill="white"/>
<path d="M20.2484 41.9975C21.0581 42.4466 21.9121 42.8275 22.7891 43.13L24.6138 37.7956C24.0488 37.6005 23.505 37.3577 22.9885 37.0713L20.2484 41.9975Z" fill="white"/>
<path d="M36.2502 41.712C37.0445 41.234 37.8005 40.6835 38.4994 40.0751L34.7911 35.8272C34.3436 36.2158 33.8621 36.566 33.3524 36.8737L36.2502 41.712Z" fill="white"/>
<path d="M43.9991 27.7133C43.9906 27.2437 43.9616 26.7776 43.9148 26.3277C43.867 25.8761 43.798 25.4125 43.7085 24.9481L38.1874 26.0329C38.2965 26.6081 38.3587 27.1994 38.3689 27.8036L43.9991 27.7133Z" fill="white"/>
<path d="M33.0684 18.8264L35.7523 14.0025C34.9426 13.5534 34.0878 13.1725 33.2116 12.87L31.3962 18.1771C31.963 18.3731 32.5076 18.6176 33.025 18.9048L33.0684 18.8264Z" fill="white"/>
<path d="M14.8885 18.8307C14.3575 19.5891 13.8888 20.3986 13.4967 21.2379L18.5976 23.6034C18.8499 23.0615 19.1482 22.5451 19.4866 22.0594L14.8885 18.8307Z" fill="white"/>
<path d="M13.4974 34.7706C13.8878 35.6065 14.3565 36.416 14.8909 37.1778L19.5035 33.9346C19.1643 33.4506 18.8651 32.9359 18.612 32.3957L13.4974 34.7706Z" fill="white"/>
<path d="M41.1123 37.1702C41.6433 36.4118 42.1121 35.6023 42.5041 34.7629L37.3913 32.3914C37.1373 32.9317 36.839 33.4464 36.4998 33.9312L41.1123 37.1702Z" fill="white"/>
<path d="M42.5034 21.2303C42.1131 20.3943 41.6443 19.5848 41.1099 18.823L36.5118 22.056C36.8502 22.5417 37.1485 23.0581 37.4016 23.6L42.5034 21.2303Z" fill="white"/>
<path d="M28.8906 17.6454L29.3875 12.0588C28.9357 12.0205 28.4764 12 28.0221 12C27.5525 12 27.0769 12.0213 26.6064 12.0622L27.1059 17.6445C27.4008 17.6189 27.6991 17.6053 27.9999 17.6053C28.2999 17.607 28.5965 17.6206 28.8906 17.6454Z" fill="white"/>
<path d="M27.1128 38.324L26.6134 43.9386C27.0839 43.9795 27.5526 44 28.0086 44C28.462 44 28.9282 43.9795 29.3961 43.9395L28.8924 38.324C28.5984 38.3487 28.3009 38.3623 28.0009 38.3623C27.7009 38.3623 27.4052 38.3487 27.1128 38.324Z" fill="white"/>
</svg>
