<!-- by TradingView --><svg width="56" height="56" viewBox="0 0 56 56" xmlns="http://www.w3.org/2000/svg"><path fill="#57BFE2" d="M0 0h56v56H0z"/><path d="M13 30.44 8.69 24H7v10h2v-6.37L13.31 34H15V24h-2v6.44ZM25.74 24h-2.22l-2.4 4.13L18.64 24h-2.33l3.7 5.94V34H22v-4.03L25.74 24ZM30.87 28.19l-1.11-.26c-1.3-.29-1.58-.52-1.58-1.1 0-.54.57-1.05 1.64-1.05.95-.01 1.87.32 2.59.94l1.15-1.53A5.75 5.75 0 0 0 29.9 24c-2.23 0-3.78 1.31-3.78 3.05 0 1.37.91 2.25 2.78 2.63l1.1.21c1.26.26 1.73.72 1.73 1.27 0 .77-.64 1.12-1.72 1.14a3.86 3.86 0 0 1-2.92-1.27l-1.19 1.44c.92 1.06 2.54 1.53 4.05 1.53 2.32 0 3.77-1.14 3.77-2.97 0-1.59-1-2.41-2.85-2.84ZM36.93 30c.3 1.43 1.4 2.22 2.85 2.22 1.05 0 1.88-.48 2.48-1.32l1.38 1.17A4.68 4.68 0 0 1 39.78 34c-3.02 0-4.96-2.17-4.96-5s2.02-5 4.78-5c2.07 0 4.8 1.6 4.34 6h-7.01Zm5.13-1.7c-.21-1.95-1.47-2.54-2.32-2.54-1.85 0-2.5.92-2.84 2.54h5.16ZM41 21h6v6h3v-9h-9v3Z" fill="#fff"/></svg>