<!-- by TradingView --><svg width="56" height="56" viewBox="0 0 56 56" fill="none" xmlns="http://www.w3.org/2000/svg">
<rect width="56" height="56" fill="#0090BA"/>
<path d="M15.5 36H26.7685V33.5335H19.8552V33.4059L23.0476 30.1208C25.6797 27.6862 26.5571 26.4743 26.5571 24.6138V24.5925C26.5571 21.9772 24.3372 20.1273 21.1131 20.1273C17.889 20.1273 15.5157 21.9585 15.5157 24.8502V25H18.4756L18.4861 24.8396C18.5284 23.4575 19.5698 22.6257 21.1342 22.6257C22.4873 22.6257 23.4387 23.5187 23.4493 24.7732V24.7945C23.4493 25.8576 23.037 26.6125 21.0708 28.4623L15.5 33.5335V36Z" fill="white"/>
<path d="M34.6015 36C38.0899 36 40.5 33.8206 40.5 30.6099V30.5886C40.5 27.6969 38.407 25.6025 35.5106 25.6025C33.9672 25.6025 32.7093 26.2297 32.0751 27.261H32.0116L32.6564 22.5046H40V20H30.1195L29.1469 29.3979H31.9271C32.1068 29.0789 32.3499 28.7813 32.6564 28.5474C33.1744 28.1328 33.8404 27.8989 34.6226 27.8989C36.2717 27.8989 37.445 29.0364 37.4556 30.6524V30.6737C37.4556 32.3109 36.2822 33.4591 34.612 33.4591C33.1427 33.4591 32.0575 32.382 31.8356 31.2232L31.8144 31H28.8652L28.8757 31.3082C29.066 33.8704 31.2822 36 34.6015 36Z" fill="white"/>
</svg>
