<!-- by TradingView --><svg width="56" height="56" fill="none" xmlns="http://www.w3.org/2000/svg"><path fill="#511732" d="M0 0h56v56H0z"/><path d="M21.749 34.5c3.276 0 5.264-2.622 5.264-6.572v-.017c0-3.95-1.988-6.411-5.264-6.411-3.276 0-5.264 2.461-5.264 6.41v.018c0 3.95 1.988 6.572 5.264 6.572Zm0-2.235c-1.611 0-2.533-1.61-2.533-4.337v-.017c0-2.728.922-4.329 2.533-4.329 1.611 0 2.533 1.601 2.533 4.329v.017c0 2.728-.922 4.337-2.533 4.337ZM33.23 34.5c3.277 0 5.264-2.622 5.264-6.572v-.017c0-3.95-1.987-6.411-5.264-6.411-3.276 0-5.263 2.461-5.263 6.41v.018c0 3.95 1.987 6.572 5.263 6.572Zm0-2.235c-1.611 0-2.533-1.61-2.533-4.337v-.017c0-2.728.922-4.329 2.533-4.329 1.612 0 2.534 1.601 2.534 4.329v.017c0 2.728-.922 4.337-2.534 4.337ZM44.712 34.5c3.276 0 5.288-2.622 5.288-6.572v-.017c0-3.95-2.012-6.411-5.288-6.411-3.277 0-5.264 2.461-5.264 6.41v.018c0 3.95 1.987 6.572 5.264 6.572Zm0-2.235c-1.612 0-2.534-1.61-2.534-4.337v-.017c0-2.728.922-4.329 2.534-4.329 1.61 0 2.533 1.601 2.533 4.329v.017c0 2.728-.922 4.337-2.533 4.337ZM12.313 34.5H15v-13h-2.695L9 23.973v2.333l3.26-2.176h.053V34.5Z" fill="#fff"/></svg>