<!-- by TradingView --><svg width="56" height="56" viewBox="0 0 56 56" fill="none" xmlns="http://www.w3.org/2000/svg">
<rect width="56" height="56" fill="#2A8173"/>
<path d="M21.9684 36H25.2901V33H27V30.3094H25.2901V20H20.3597L13.3145 30.1915V33H21.9684V36ZM16.7023 30.3952V30.3094L21.9568 22.6041H22.0379V30.3952H16.7023Z" fill="white"/>
<path d="M35.8801 36C40.1161 36 42.6855 32.9243 42.6855 28.0053V27.9839C42.6855 23.065 40.1161 20 35.8801 20C31.6441 20 29.0747 23.065 29.0747 27.9839V28.0053C29.0747 32.9243 31.6441 36 35.8801 36ZM35.8801 33.4065C33.7968 33.4065 32.6047 31.4025 32.6047 28.0053V27.9839C32.6047 24.5867 33.7968 22.5934 35.8801 22.5934C37.9634 22.5934 39.1555 24.5867 39.1555 27.9839V28.0053C39.1555 31.4025 37.9634 33.4065 35.8801 33.4065Z" fill="white"/>
</svg>
