<!-- by TradingView --><svg width="56" height="56" viewBox="0 0 56 56" fill="none" xmlns="http://www.w3.org/2000/svg">
<rect width="56" height="56" fill="#C4162E"/>
<path fill-rule="evenodd" clip-rule="evenodd" d="M22.5229 34.9803C20.6135 34.9803 18.8535 34.2515 17.5735 32.9376C16.3041 31.6339 15.6108 29.8785 15.6108 27.9897C15.6108 26.1009 16.3041 24.3456 17.5735 23.0419C18.8535 21.7177 20.6135 20.9991 22.5229 20.9991C22.8216 20.9991 23.1416 21.0197 23.4616 21.0607L24.2268 21.1564L29.4131 27.9384L24.1902 34.8347L23.4402 34.929C23.1202 34.9598 22.8216 34.9803 22.5229 34.9803ZM20.293 40H20.2852C17.4264 39.5381 14.9601 38.1317 13.0614 36.0068C11.088 33.7998 10 30.9564 10 27.9897C10 25.0231 11.088 22.1796 13.0614 19.9726C14.9345 17.8833 17.4871 16.4889 20.2955 16.0033L20.293 16H20.3149H21.3069H27.2904L29.4665 18.7613L33.4985 23.8837L35.6959 26.6758L36.5599 27.7844L35.4079 29.2729L33.7332 31.4183L28.9758 37.5466L27.3758 39.5997L27.0664 40H21.3069H20.293ZM38.5861 25.3824L35.0767 20.9068L39.0874 16H45.9995L38.5861 25.3824ZM38.6083 30.5252L35.2056 34.8982L39.1096 40H45.8724L38.6083 30.5252Z" fill="white"/>
</svg>
