<!-- by TradingView --><svg width="56" height="56" viewBox="0 0 56 56" fill="none" xmlns="http://www.w3.org/2000/svg">
<rect width="56" height="56" fill="#1E487B"/>
<path d="M21.0206 36C24.6308 36 27.0305 34.1353 27.0305 31.3704V31.349C27.0305 29.2485 25.5307 27.9196 23.2382 27.7053V27.641C25.0486 27.2659 26.4627 26.0121 26.4627 24.0831V24.0616C26.4627 21.6289 24.3201 20 20.9885 20C17.7425 20 15.5678 21.7575 15.3535 24.4367L15.3428 24.5653H18.3103L18.321 24.4689C18.4495 23.2686 19.478 22.4863 20.9885 22.4863C22.5097 22.4863 23.3988 23.2364 23.3988 24.4903V24.5117C23.3988 25.7656 22.349 26.6229 20.7314 26.6229H19V28.927H20.7742C22.6382 28.927 23.7417 29.7415 23.7417 31.2204V31.2418C23.7417 32.5064 22.6704 33.3958 21.0099 33.3958C19.3387 33.3958 18.246 32.5707 18.1067 31.4668L18.0853 31.349H15L15.0107 31.4883C15.225 34.1567 17.5175 36 21.0206 36Z" fill="white"/>
<path d="M35.0223 36C38.5575 36 41 33.8031 41 30.5666V30.5452C41 27.6303 38.8789 25.5191 35.9436 25.5191C34.3795 25.5191 33.1047 26.1514 32.4619 27.1909H32.3976L32.7566 22.4615H40V20.0059H30.1855L29.4944 29.3449H32.3119C32.494 29.0234 32.7404 28.7234 33.0511 28.4876C33.576 28.0697 34.2509 27.8339 35.0437 27.8339C36.7149 27.8339 37.904 28.9806 37.9147 30.6095V30.6309C37.9147 32.2813 36.7256 33.4387 35.033 33.4387C33.5439 33.4387 32.4619 32.5385 32.2369 31.3704L32.2155 31H29.2266L29.2373 31.4561C29.4302 34.0388 31.6584 36 35.0223 36Z" fill="white"/>
</svg>
