<!-- by TradingView --><svg width="56" height="56" viewBox="0 0 56 56" xmlns="http://www.w3.org/2000/svg"><path fill="#0480CA" d="M0 0h56v56H0z"/><path d="M20 40v-3.6l8.1-7.81c.67-.7 1.23-1.32 1.68-1.87.46-.56.81-1.1 1.05-1.63.24-.54.36-1.12.36-1.75 0-.7-.15-1.29-.44-1.8-.3-.5-.7-.89-1.21-1.16a3.6 3.6 0 0 0-1.75-.41c-.67 0-1.26.14-1.77.43-.5.3-.9.72-1.17 1.26a6.17 6.17 0 0 0-.4 2.34H20c0-1.55.33-3.28.98-4.42a6.75 6.75 0 0 1 2.76-2.64 8.62 8.62 0 0 1 4.09-.94c1.58 0 2.96.3 4.14.9a6.7 6.7 0 0 1 2.75 2.48c.66 1.05.99 2.26.99 3.63 0 .89-.17 1.77-.5 2.64-.32.87-.9 1.84-1.74 2.9a41.72 41.72 0 0 1-3.53 3.8l-3.24 3.4V36H36v4H20Z" fill="#fff"/></svg>