<!-- by TradingView --><svg width="56" height="56" viewBox="0 0 56 56" xmlns="http://www.w3.org/2000/svg"><path fill="#0480CA" d="M0 0h56v56H0z"/><path d="M20.38 37c3.82 0 6.37-2.12 6.37-5.22v-.03c0-2.36-1.6-3.85-4.02-4.1v-.06c1.92-.43 3.41-1.83 3.41-4v-.03c0-2.73-2.27-4.56-5.8-4.56-3.43 0-5.74 2-5.97 5h3.15c.13-1.35 1.22-2.2 2.82-2.2 1.62 0 2.56.84 2.56 2.25v.02c0 1.4-1.11 2.37-2.83 2.37H18V29h2.12c1.97 0 3.14.95 3.14 2.6v.03c0 1.42-1.13 2.42-2.9 2.42-1.76 0-2.98-.8-3.13-2.05H14c.23 3 2.67 5 6.38 5Zm14.95 0c4.15 0 6.67-3.48 6.67-9v-.03c0-5.53-2.52-8.97-6.67-8.97-4.16 0-6.68 3.44-6.68 8.97V28c0 5.52 2.52 9 6.68 9Zm0-2.94c-2.05 0-3.22-2.25-3.22-6.06v-.03c0-3.82 1.17-6.06 3.22-6.06 2.04 0 3.2 2.24 3.2 6.06V28c0 3.81-1.16 6.06-3.2 6.06Z" fill="#fff"/></svg>