<!-- by TradingView --><svg width="56" height="56" viewBox="0 0 56 56" xmlns="http://www.w3.org/2000/svg"><path fill="#437EB6" d="M0 0h56v56H0z"/><path d="M8 36h11v-2.6h-6.59v-.12l3.22-3.2c2.66-2.46 3.54-3.68 3.54-5.56v-.02c0-2.64-2.24-4.5-5.49-4.5S8 21.93 8 24.84V25h2.99v-.17c.05-1.4 1.13-2.31 2.71-2.31 1.37 0 2.33.9 2.34 2.16v.02c0 1.08-.42 1.84-2.4 3.7L8 33.51V36Zm19.4 0c3.9 0 6.27-3.08 6.27-8v-.02c0-4.91-2.37-7.98-6.28-7.98-3.9 0-6.27 3.07-6.27 7.98V28c0 4.92 2.37 8 6.27 8Zm0-2.6c-1.92 0-3.02-2-3.02-5.4v-.02c0-3.4 1.1-5.39 3.02-5.39 1.91 0 3.01 2 3.01 5.4V28c0 3.4-1.1 5.4-3.02 5.4ZM41.72 36c3.9 0 6.27-3.08 6.27-8v-.02c0-4.91-2.37-7.98-6.27-7.98-3.9 0-6.27 3.07-6.27 7.98V28c0 4.92 2.37 8 6.27 8Zm0-2.6c-1.92 0-3.02-2-3.02-5.4v-.02c0-3.4 1.1-5.39 3.02-5.39s3.02 2 3.02 5.4V28c0 3.4-1.1 5.4-3.02 5.4Z" fill="#fff"/></svg>