<!-- by TradingView --><svg width="56" height="56" viewBox="0 0 56 56" xmlns="http://www.w3.org/2000/svg"><path fill="url(#acfm1y211)" d="M0 0h56v56H0z"/><path d="M49.44 33c-.43 0-.85-.06-1.25-.18-.4-.11-.73-.28-1-.51l.53-1.05a2.64 2.64 0 0 0 1.61.57c.47 0 .81-.12 1.02-.35.22-.23.33-.57.33-1.03v-.75l.08-1.27-.02-1.27V26H52v4.27c0 .93-.22 1.62-.66 2.07-.44.44-1.08.66-1.9.66Zm-.2-2.13c-.43 0-.82-.1-1.16-.3a2.35 2.35 0 0 1-1.13-2.14c0-.49.1-.92.3-1.28.21-.37.49-.65.83-.85a2.26 2.26 0 0 1 2.17-.04c.3.17.52.44.69.8.16.35.24.81.24 1.37s-.08 1.02-.24 1.38a1.74 1.74 0 0 1-1.7 1.06Zm.25-1.2a1.12 1.12 0 0 0 1.04-.59c.11-.19.16-.4.16-.65s-.05-.46-.15-.64a1.2 1.2 0 0 0-1.04-.59 1.2 1.2 0 0 0-1.06.59c-.1.18-.15.4-.15.64 0 .25.05.46.15.65.11.19.25.33.44.44.18.1.38.15.61.15ZM43.67 31v-5H45v1.47l-.24-.4c.13-.36.35-.62.65-.8.3-.18.67-.27 1.1-.27v1.32l-.16-.01-.14-.01c-.36 0-.66.11-.88.34-.22.22-.33.56-.33 1.03V31h-1.33ZM40.43 31c-.52 0-.98-.1-1.37-.32-.4-.22-.7-.52-.91-.89-.22-.38-.32-.8-.32-1.29s.1-.92.3-1.3a2.41 2.41 0 0 1 2.12-1.2c.46 0 .86.1 1.22.3.36.2.65.5.86.87a2.7 2.7 0 0 1 .3 1.54l-.02.29h-3.7v-1h3l-.5.32c0-.25-.05-.47-.15-.66a1.08 1.08 0 0 0-1-.6c-.22 0-.42.06-.6.17-.16.1-.3.25-.4.44-.09.19-.14.4-.14.67v.21c0 .27.06.5.17.7.1.2.26.36.46.47.2.1.44.15.72.15a1.54 1.54 0 0 0 1.15-.47l.7.81c-.21.26-.48.45-.8.6-.31.12-.67.19-1.09.19ZM34.7 31c-.4 0-.75-.09-1.04-.26a1.65 1.65 0 0 1-.66-.8 3.48 3.48 0 0 1-.23-1.35c0-.55.08-1 .24-1.35.16-.36.4-.62.68-.8.29-.17.63-.25 1.01-.25.43 0 .82.1 1.15.3.35.19.62.47.82.83.2.35.3.78.3 1.27s-.1.91-.3 1.27A2.18 2.18 0 0 1 34.7 31ZM32 31v-6.52h1.32v2.72l-.08 1.38.03 1.4V31H32Zm2.47-1.11a1.1 1.1 0 0 0 1-.6c.11-.2.16-.43.16-.7 0-.27-.05-.5-.16-.7a1.11 1.11 0 0 0-1-.6 1.11 1.11 0 0 0-1.01.6c-.1.2-.15.43-.15.7 0 .27.05.5.15.7a1.11 1.11 0 0 0 1.01.6ZM29.59 26c.34 0 .65.08.91.24.27.15.48.39.64.71.15.32.23.73.23 1.23V31h-1.26v-2.6c0-.4-.08-.7-.22-.88a.73.73 0 0 0-.62-.28.9.9 0 0 0-.84.57c-.08.18-.12.42-.12.72V31H27v-2.6c0-.4-.02-.7-.17-.88a.71.71 0 0 0-.6-.28.9.9 0 0 0-.84.57c-.08.18-.13.42-.13.72V31H24v-4.93h1.2v1.35l-.22-.4a1.67 1.67 0 0 1 1.6-1.02c.4 0 .75.12 1.04.35.3.22.5.57.6 1.04l-.44-.14a1.9 1.9 0 0 1 1.8-1.25ZM20.5 31a2.44 2.44 0 0 1-2.18-1.2c-.21-.39-.32-.82-.32-1.3 0-.49.1-.92.32-1.3.22-.37.52-.66.89-.88.38-.21.8-.32 1.3-.32.47 0 .9.1 1.28.32s.67.5.89.88c.21.37.32.8.32 1.3 0 .48-.1.91-.32 1.3-.22.36-.51.66-.89.88-.38.21-.8.32-1.29.32Zm0-1.16a1.1 1.1 0 0 0 1.01-.62c.1-.2.15-.44.15-.72 0-.28-.05-.52-.15-.72-.1-.2-.24-.35-.41-.46a1.1 1.1 0 0 0-.6-.16c-.22 0-.41.05-.59.16-.17.1-.31.26-.42.46-.1.2-.15.44-.15.72 0 .28.05.52.15.72a1.1 1.1 0 0 0 1.02.62ZM14.5 31a2.44 2.44 0 0 1-2.18-1.2c-.21-.39-.32-.82-.32-1.3 0-.49.1-.92.32-1.3.22-.37.52-.66.89-.88.38-.21.8-.32 1.3-.32.47 0 .9.1 1.28.32s.67.5.89.88c.21.37.32.8.32 1.3 0 .48-.1.91-.32 1.3-.22.36-.51.66-.89.88-.38.21-.8.32-1.29.32Zm0-1.16a1.1 1.1 0 0 0 1.01-.62c.1-.2.15-.44.15-.72 0-.28-.05-.52-.15-.72-.1-.2-.24-.35-.41-.46a1.1 1.1 0 0 0-.6-.16c-.22 0-.41.05-.59.16-.17.1-.31.26-.42.46-.1.2-.15.44-.15.72 0 .28.05.52.15.72a1.1 1.1 0 0 0 1.02.62ZM10 31v-7h1.32v7H10ZM4 31v-7h2.9c.75 0 1.31.17 1.69.5.37.33.56.77.56 1.32 0 .37-.07.69-.23.96a1.6 1.6 0 0 1-.62.62c-.27.15-.58.22-.92.22l.16-.41c.37 0 .7.07 1 .22.28.14.5.35.66.63a2 2 0 0 1 .25 1.03c0 .6-.2 1.07-.6 1.41-.4.33-1 .5-1.78.5H4Zm1.37-1.22h1.6c.36 0 .63-.07.8-.2.2-.14.29-.36.29-.66 0-.3-.1-.51-.28-.65-.18-.15-.45-.22-.8-.22H5.26v-1.18h1.46c.34 0 .6-.07.77-.2.18-.14.27-.35.27-.63 0-.27-.1-.48-.27-.61a1.2 1.2 0 0 0-.77-.21H5.37v4.56Z" fill="#fff"/><defs><linearGradient id="acfm1y211" x1="10.42" y1="9.71" x2="68.15" y2="76.02" gradientUnits="userSpaceOnUse"><stop stop-color="#1A1E21"/><stop offset="1" stop-color="#06060A"/></linearGradient></defs></svg>