<!-- by TradingView --><svg width="56" height="56" xmlns="http://www.w3.org/2000/svg"><path fill="#C26A44" d="M0 0h56v56H0z"/><path d="M39.378 21a5.943 5.943 0 00-.152-.184 5.674 5.674 0 001.502-3.854 5.67 5.67 0 00-1.1-3.365c-.263-.36-.8-.128-.87.312-.304 1.91-1.58 3.604-3.397 4.378C33.307 17.479 30.759 17 28 17c-2.76 0-5.307.479-7.36 1.287-1.819-.774-3.094-2.468-3.397-4.378-.07-.44-.608-.672-.871-.312a5.67 5.67 0 00-1.1 3.365c0 1.486.57 2.84 1.502 3.854-.052.06-.103.122-.152.184h-4.615c-.552 0-1.006.45-.94.998a8.327 8.327 0 006.811 7.197c.246 3.32 1.813 6.228 4.122 8.09V40a4 4 0 004 4h4a4 4 0 004-4v-2.715c2.309-1.862 3.876-4.77 4.122-8.09a8.327 8.327 0 006.812-7.197c.065-.548-.389-.998-.941-.998h-4.615z" fill="#fff"/></svg>