<!-- by TradingView --><svg width="56" height="56" viewBox="0 0 56 56" xmlns="http://www.w3.org/2000/svg"><path fill="#272555" d="M0 0h56v56H0z"/><path d="M15.47 19.53A15.08 15.08 0 0 1 28 12.83c5.2 0 9.81 2.66 12.53 6.7h.97A15.9 15.9 0 0 0 28 12a15.9 15.9 0 0 0-13.5 7.53h.97ZM40.23 36.88a15.06 15.06 0 0 1-24.46 0h-1A15.9 15.9 0 0 0 28 44a15.9 15.9 0 0 0 13.23-7.12h-1Z" fill="#BA8C5D"/><path d="M31.17 15.28a.66.66 0 0 0-.49-.27.98.98 0 0 0-.7.2c-.22.15-.52.47-.92.95l-1.94 2.34-.04.05.43.05 1.83-1.17c.93-.6 1.47-.98 1.64-1.14a.9.9 0 0 0 .32-.56.62.62 0 0 0-.13-.45ZM14.35 27.47c1.7.15 3 .6 3.85 1.32.9.76 1.36 1.73 1.36 2.87 0 1-.31 1.87-.92 2.6a4.35 4.35 0 0 1-2.37 1.41c-.95.22-2.23.33-3.83.33H6v-.6h.66c.7 0 1.17-.1 1.43-.26s.43-.42.5-.76c.07-.36.1-1.21.1-2.52v-7.67c0-1.27-.03-2.1-.11-2.47-.07-.36-.23-.61-.47-.75-.23-.13-.76-.2-1.58-.2h-.35V20h5.78c4.47 0 6.73 1.26 6.73 3.76 0 1.03-.4 1.86-1.17 2.49-.71.58-1.78.99-3.17 1.22Zm1.72-3.55c0-.81-.13-1.45-.37-1.9a2.44 2.44 0 0 0-1.1-1.01 6.23 6.23 0 0 0-2.54-.37l-.93.03v6.55l.47.01c1.72 0 2.9-.26 3.53-.78.62-.52.94-1.37.94-2.53Zm-.13 10.52c.64-.63.96-1.58.96-2.84 0-1.28-.37-2.24-1.09-2.84-.7-.61-1.99-.92-3.8-.92-.27 0-.57 0-.88.02v3.48c0 1.49.03 2.44.09 2.84.05.4.2.7.43.9.24.2.72.3 1.43.3 1.27 0 2.23-.32 2.86-.94Zm18.41-3.47V31a7.63 7.63 0 0 1-1.2 2.76c-.49.65-1.02 1.1-1.56 1.31-.55.21-1.26.32-2.12.32h-1.22c-1.08 0-1.74-.16-1.99-.48-.24-.33-.26-1.44-.26-3.32v-3.73h1.66c.7 0 1.53.06 1.81.15.29.08.5.28.66.57.15.3.22.88.22 1.76v.03H31v-5.52h-.65v.04c0 .77-.05 1.3-.15 1.57a1 1 0 0 1-.61.58c-.3.13-1.2.18-1.99.18H26v-6.6h2.13c1.14 0 1.97.06 2.48.18.5.11.95.4 1.31.87.37.45.7 1.24.95 2.34v.03h.64L33.12 20H21.34v.61h.04c.77 0 1.29.08 1.52.23.24.15.4.4.46.78.07.38.1 1.18.1 2.39v7.8c0 1.33-.03 2.17-.1 2.49-.05.31-.2.57-.44.78-.22.2-.74.3-1.54.3H21V36h13.64l.36-5v-.03h-.65ZM49.92 20H36.08L36 24h.61v-.13c.17-1 .4-1.75.71-2.24.31-.48.64-.77.99-.87.35-.1 1.05-.15 2.07-.15H42v11.2c0 1.33-.1 2.19-.17 2.55-.07.35-.24.6-.5.77-.25.17-.72.26-1.4.26h-.86V36h8.07v-.61h-.82c-.7 0-1.19-.1-1.44-.28-.25-.18-.41-.46-.47-.84-.06-.39-.08-1.21-.08-2.45v-11.2h1.5c.87 0 1.5.05 1.85.16.35.1.69.38 1 .84a6 6 0 0 1 .74 2.25V24H50l-.08-4Z" fill="#fff"/></svg>