<!-- by TradingView --><svg width="56" height="56" viewBox="0 0 56 56" xmlns="http://www.w3.org/2000/svg"><path fill="#364C73" d="M0 0h56v56H0z"/><path d="M13 13h30v19h-4V17H17v22h5v4h-9V13Z" fill="#fff"/><path d="M25 34h2v9h-2v-9Zm10 .54v1.69c-1.4-.74-3.28-1.03-4.61.13a3.12 3.12 0 0 0 0 4.21c1.19 1.32 3.2 1.04 4.61.3v1.58a6.09 6.09 0 0 1-2.65.55c-1.33 0-2.39-.4-3.17-1.22A4.52 4.52 0 0 1 28 38.5c0-1.4.4-2.5 1.18-3.3.8-.8 1.89-1.2 3.27-1.2a6.2 6.2 0 0 1 2.55.54ZM44 39v-.86c0-1.27-.26-2.28-.94-3.02A3.52 3.52 0 0 0 40.31 34a4 4 0 0 0-3.09 1.24 4.72 4.72 0 0 0-1.14 3.34c0 1.35.4 2.43 1.2 3.23.81.8 1.9 1.19 3.28 1.19a7.88 7.88 0 0 0 3-.62v-1.6a5.63 5.63 0 0 1-2.92.76c-1.53 0-2.97-.92-3.08-2.54H44Zm-1.98-2.89c.43.46.47.9.47 1.38h-4.71c.1-.55.19-.96.66-1.4a2.68 2.68 0 0 1 1.9-.67c.7 0 1.26.23 1.68.7Z" fill="#fff"/></svg>