<!-- by TradingView --><svg width="18" height="18" viewBox="0 0 18 18" xmlns="http://www.w3.org/2000/svg"><path fill="#FF0508" d="M0 0h18v18H0z"/><path d="M2 13.5V8.1h5.25V4.5H16v9H2Zm8.17-1.35h1.94v-.55H10.7v-.77h1.02v-.53H10.7v-.74h1.41V9h-1.94v3.15Zm-1.9-.55c-.59 0-.87-.38-.87-1 0-.61.28-1.04.88-1.04s.88.43.88 1.04c0 .62-.28 1-.88 1Zm0-2.58c-.89 0-1.42.58-1.42 1.56 0 1 .53 1.57 1.43 1.57.9 0 1.42-.6 1.42-1.57 0-.96-.52-1.56-1.42-1.56Zm4.1 3.13h.57l.65-1.23.68 1.23h.56l-.91-1.64.86-1.51h-.56l-.6 1.13L13.01 9h-.57l.84 1.5-.9 1.65Zm-7.6-.55h-.12L4.12 9h-.95v3.15h.5V9.58h.12l.5 2.57h.86l.5-2.59h.12v2.59h.5V9h-.96l-.55 2.6Z" fill="#fff"/></svg>