<!-- by TradingView --><svg width="56" height="56" viewBox="0 0 56 56" xmlns="http://www.w3.org/2000/svg"><path fill="#9D704F" d="M0 0h56v56H0z"/><ellipse cx="28" cy="29.66" rx="12" ry="18.34" fill="#fff"/><path d="M27.62 21.43V47.7h1.54c-.04-7.06-.1-22.2 0-26.27.13-5.1 1.36-8.12 2.77-8.72 1.14-.48 2.22-.73 2.59-1.99.3-1.06-.45-2.3-2-2.64-1.75-.37-3.27 1.1-4 1.76l-2.77-1.52c-1.76-.83-3.8 0-3.8 1.86 0 1.57 1.32 1.97 2.2 2.38 2.83 1.32 3.5 6.46 3.47 8.87Z" fill="#fff"/><path d="M22.7 38.26c-2.83-8.33-1.62-15.37.05-18.33.24-.42.67-.17.57.3-1.17 5.3-.35 12.86.16 17.85.05.56-.6.7-.79.18ZM33.31 38.26c2.82-8.33 1.62-15.37-.05-18.33-.24-.42-.68-.17-.57.3 1.17 5.3.34 12.86-.16 17.85-.06.56.6.7.78.18ZM27 30c.04-4.83.02-9.64.39-13.4.1-1.03 1.12-1.03 1.22 0 .36 3.88.34 8.94.39 13.4.05 4.83.03 9.96-.36 13.95-.1 1.04-1.17 1.04-1.27 0A144 144 0 0 1 27 30Z" fill="#9D704F"/></svg>