<!-- by TradingView --><svg width="56" height="56" xmlns="http://www.w3.org/2000/svg"><path fill="#BCAC92" d="M0 0h56v56H0z"/><circle cx="28" cy="19.924" r="8.924" fill="#fff"/><circle cx="20.924" cy="29.699" r="8.924" fill="#fff"/><circle cx="35.076" cy="29.699" r="8.924" fill="#fff"/><path d="M28 32.194a2 2 0 012 2V44a2 2 0 11-4 0v-9.806a2 2 0 012-2z" fill="#fff"/><ellipse cx="28" cy="34.877" rx="13.81" ry="4.699" fill="#fff"/><path d="M22.12 29.954c-3.085.039-5.299 1.058-6.779 2.546-1.652 1.662-2.237 3.76-2.237 5.238h3c0-.791.341-2.093 1.365-3.123.973-.979 2.724-1.872 5.869-1.62l.54.043a1 1 0 001.08-.996V31.5c0-1.558.84-2.902 1.848-3.941 1.04-1.073 1.3-1.097 2.33-.012.983 1.037 1.812 2.384 1.812 3.953v.542a1 1 0 001.08.996l.54-.043c3.143-.251 4.925.641 5.925 1.63 1.05 1.037 1.403 2.34 1.403 3.113h3c0-1.497-.62-3.593-2.294-5.247-1.497-1.48-3.725-2.498-6.814-2.537-.627-2.994-2.824-5.072-5.278-6.665a.949.949 0 00-1.013-.014C25 24.81 22.753 26.984 22.12 29.954z" fill="#BCAC92"/></svg>