<!-- by TradingView --><svg width="56" height="56" viewBox="0 0 56 56" xmlns="http://www.w3.org/2000/svg"><path fill="#FF0308" d="M0 0h56v56H0z"/><path d="M33 15h2.27l2.18 4.74h.1L39.73 15H42l-3.5 7.11V26h-1.9V22.1L33 15ZM34 41V30h4.15c.77 0 1.4.12 1.91.36a2.58 2.58 0 0 1 1.54 2.46c0 .43-.09.8-.25 1.13-.16.32-.38.59-.67.8-.28.2-.6.35-.96.43v.1c.4.03.77.15 1.11.36.35.22.63.53.85.92.21.4.32.86.32 1.4a2.82 2.82 0 0 1-1.61 2.64c-.53.27-1.18.4-1.96.4H34Zm2-2h1.98c1.23 0 1.94-.44 1.94-1.27 0-.99-1-1.55-1.89-1.55H36V39Zm0-4.4h1.82c.8 0 1.68-.5 1.68-1.4 0-.79-.67-1.2-1.64-1.2H36v2.6ZM14 41V30h4c.77 0 1.42.15 1.96.45.55.29.96.7 1.25 1.25.28.53.43 1.17.43 1.9 0 2.27-1.55 3.4-3.7 3.4h-2.67v-2h2.33c1.05 0 1.83-.36 1.83-1.4 0-1.12-.77-1.6-1.84-1.6h-1.6v9h-2Zm5.48-5L22 41h-2.37l-2.47-5h2.32ZM30 30h2v7.04a3.83 3.83 0 0 1-2.14 3.47 5.2 5.2 0 0 1-2.33.49c-.89 0-1.67-.17-2.33-.5a3.76 3.76 0 0 1-1.56-1.38 3.9 3.9 0 0 1-.64-2.08V30h2v6.85c0 1.15 1 2.1 2.43 2.15 1.42.04 2.57-.92 2.57-2.15V30ZM22 19h-1.98a2.33 2.33 0 0 0-2.31-2C15.82 17 15 18.96 15 20.5s.8 3.5 2.7 3.5a2.28 2.28 0 0 0 2.33-2H22a4.25 4.25 0 0 1-2.62 3.7c-.5.2-1.08.3-1.72.3-.9 0-1.7-.22-2.4-.65a4.48 4.48 0 0 1-1.66-1.88c-.4-.81-.6-1.8-.6-2.97 0-1.17.2-2.16.61-2.98A4.44 4.44 0 0 1 17.65 15c.59 0 1.12.09 1.62.26a4.01 4.01 0 0 1 2.26 1.98c.24.48.4 1.14.47 1.76ZM32 15v11h-2.18L25 18.46V26h-2V15h2.22L30 22.64V15h2Z" fill="#fff"/></svg>