<!-- by TradingView --><svg width="56" height="56" viewBox="0 0 56 56" xmlns="http://www.w3.org/2000/svg"><path fill="#112656" d="M0 0h56v56H0z"/><path fill-rule="evenodd" d="M17.5 21H11c.25-.25.57-.45.94-.57l25.13-8.3c1.23-.4 2.57.18 3.01 1.31L43 21h-2.31l-1.77-4.59c-.16.1-.34.2-.54.26-1.19.4-2.5-.18-2.93-1.28a2 2 0 0 1-.08-.3L17.49 21Zm19.67-.28c.04.09.06.18.08.28H33.9c.1-.55.5-1.03 1.1-1.23.88-.29 1.85.13 2.16.95Zm-11.2-.7c1.5-.5 3.14-.07 4.29.98h-5.88c.42-.44.96-.78 1.58-.99ZM14.4 24a2.34 2.34 0 0 0-2.4 2.28v12.44A2.34 2.34 0 0 0 14.4 41h27.2c1.33 0 2.4-1.02 2.4-2.28V26.28A2.34 2.34 0 0 0 41.6 24H14.4Zm24.55 2H16.9c.07.22.11.45.11.69a2.28 2.28 0 0 1-2.33 2.21c-.24 0-.47-.03-.68-.1v7.4c.21-.07.44-.1.68-.1 1.29 0 2.33.99 2.33 2.21 0 .24-.04.47-.11.69h22.05a2.11 2.11 0 0 1-.11-.69 2.28 2.28 0 0 1 2.33-2.21c.3 0 .57.05.83.14v-7.48c-.26.1-.54.14-.83.14-1.29 0-2.33-.99-2.33-2.21 0-.24.04-.47.11-.69Zm-17.99 6.5c0 .9-.77 1.63-1.72 1.63s-1.72-.73-1.72-1.63c0-.9.77-1.63 1.72-1.63s1.72.73 1.72 1.63Zm15.83 1.63c.95 0 1.72-.73 1.72-1.63 0-.9-.77-1.63-1.72-1.63s-1.72.73-1.72 1.63c0 .9.77 1.63 1.72 1.63Zm-4.52-1.51c0 2.46-1.9 4.46-4.26 4.46-2.35 0-4.25-2-4.25-4.46 0-2.47 1.9-4.46 4.25-4.46s4.26 2 4.26 4.46Z" fill="#fff"/></svg>