<!-- by TradingView --><svg width="56" height="56" viewBox="0 0 56 56" xmlns="http://www.w3.org/2000/svg"><path fill="#B69053" d="M0 0h56v56H0z"/><path d="M39 31.64C39 38.44 34.05 44 28 44s-11-5.56-11-12.36C17 15.94 28 10 28 10s11 5.26 11 21.64Z" fill="#fff"/><path d="M27 27.6c.03-4.83.02-9.64.38-13.4.1-1.03 1.12-1.03 1.22 0 .37 3.89.35 8.94.4 13.4.05 4.84.02 9.96-.37 13.95-.1 1.05-1.16 1.04-1.26 0-.4-4.03-.41-9.13-.37-13.95ZM33.56 38.43c2.82-8.33 1.62-15.37-.05-18.33-.24-.42-.68-.17-.57.3 1.17 5.3.35 12.86-.16 17.85-.05.56.6.7.78.18ZM23.2 38.43c-2.81-8.33-1.6-15.37.06-18.33.24-.42.68-.17.57.3-1.17 5.3-.34 12.86.16 17.85.06.56-.6.7-.78.18Z" fill="#B69052"/></svg>