<!-- by TradingView --><svg width="56" height="56" xmlns="http://www.w3.org/2000/svg"><path fill="#6A6D78" d="M0 0h56v56H0z"/><path d="M38.093 27.557c.897-4.347-3.732-7.699-7.657-5.718C29.573 19.04 26.929 17 23.8 17c-4.06 0-7.267 3.42-6.905 7.43-3.299.253-5.895 2.966-5.895 6.275C11 34.172 13.856 37 17.4 37h20.8c2.651 0 4.8-2.114 4.8-4.721 0-2.493-1.994-4.722-4.907-4.722z" fill="#fff"/><circle transform="matrix(-1 0 0 1 44 23)" fill="#fff" r="2"/><ellipse rx="2" ry="1.998" transform="matrix(-1 0 0 1 38 15.998)" fill="#fff"/></svg>