<!-- by TradingView --><svg width="56" height="56" viewBox="0 0 56 56" xmlns="http://www.w3.org/2000/svg"><path fill="#C84D3C" d="M0 0h56v56H0z"/><path d="M34 26V15h4c.77 0 1.42.15 1.96.45.55.29.96.7 1.25 1.25.28.53.43 1.17.43 1.9 0 2.27-1.55 3.4-3.7 3.4h-2.67v-2h2.33c1.06 0 1.83-.36 1.83-1.4 0-1.12-.77-1.6-1.84-1.6H36v9h-2Zm5.48-5L42 26h-2.37l-2.46-5h2.3ZM30 15h2v7.04a3.83 3.83 0 0 1-2.14 3.47 5.2 5.2 0 0 1-2.33.49c-.89 0-1.67-.17-2.33-.5a3.76 3.76 0 0 1-1.56-1.38 3.9 3.9 0 0 1-.64-2.08V15h2v6.85c0 1.15 1 2.1 2.43 2.15 1.42.04 2.57-.92 2.57-2.15V15ZM21 30h2v7.04a3.83 3.83 0 0 1-2.14 3.47 5.2 5.2 0 0 1-2.33.49c-.89 0-1.67-.17-2.33-.5a3.76 3.76 0 0 1-1.56-1.38 3.9 3.9 0 0 1-.64-2.08V30h2v6.85c0 1.15 1 2.1 2.43 2.15 1.42.04 2.57-.92 2.57-2.15V30ZM14 26V15h7v2h-5v2.54h4.62v1.91H16V24h5v2h-7ZM36.82 41H33V30h3.85c3.23 0 5.15 2.4 5.15 5.49 0 3.11-1.93 5.5-5.18 5.5ZM35 39h1.73c2.15 0 3.27-1.53 3.27-3.51C40 33.5 38.87 32 36.73 32H35v7ZM29.81 33.22c-.04-.42-.2-.75-.5-.98-.3-.23-.71-.35-1.23-.35-.73 0-1.77.3-1.77 1.18-.02.6.62.96 1.13 1.16.2.07.4.13.62.18l.9.23c.45.1.85.25 1.22.42.37.18.7.4.96.65.27.25.48.55.63.9.15.34.23.73.23 1.18 0 .66-.16 1.22-.47 1.7-.31.48-.76.85-1.35 1.12-.58.26-1.28.39-2.1.39a5.3 5.3 0 0 1-2.14-.4 3.16 3.16 0 0 1-1.41-1.17 3.66 3.66 0 0 1-.53-1.94h2.07c.02.36.12.66.29.9.18.23.4.41.7.53.29.12.62.18.99.18.8 0 1.95-.37 1.95-1.32 0-.88-1.19-1.16-1.88-1.33l-1.1-.3A4.52 4.52 0 0 1 25 35.13c-.5-.47-.74-1.1-.73-1.9 0-.64.16-1.2.49-1.69.33-.48.78-.86 1.36-1.13A4.6 4.6 0 0 1 28.1 30c.75 0 1.4.14 1.96.4.57.28 1 .66 1.32 1.14.31.49.47 1.05.48 1.68h-2.05Z" fill="#fff"/></svg>