<!-- by TradingView --><svg width="56" height="56" viewBox="0 0 56 56" xmlns="http://www.w3.org/2000/svg"><path fill="#FF0308" d="M0 0h56v56H0z"/><path d="M34 41V30h4.15c.77 0 1.4.12 1.91.36a2.58 2.58 0 0 1 1.54 2.46c0 .43-.09.8-.25 1.13-.16.33-.38.59-.67.8-.28.2-.6.35-.96.43v.11c.4.02.77.14 1.11.35.35.22.63.53.85.92.21.4.32.86.32 1.4a2.81 2.81 0 0 1-1.61 2.64c-.53.27-1.18.4-1.96.4H34Zm2-2h1.98c1.23 0 1.94-.44 1.94-1.27 0-.99-1-1.55-1.89-1.55H36V39Zm0-4.4h1.82c.8 0 1.68-.5 1.68-1.4 0-.79-.67-1.2-1.64-1.2H36v2.6ZM34 26V15h4c.77 0 1.42.15 1.96.45.55.29.96.7 1.25 1.25.29.53.43 1.17.43 1.9 0 2.27-1.54 3.4-3.7 3.4h-2.67v-2h2.33c1.06 0 1.83-.36 1.83-1.4 0-1.12-.77-1.6-1.84-1.6H36v9h-2Zm5.48-5L42 26h-2.37l-2.46-5h2.31ZM14 41V30h4c.77 0 1.42.15 1.96.45.55.29.96.7 1.25 1.25.28.53.43 1.17.43 1.9 0 2.27-1.55 3.4-3.7 3.4h-2.67v-2h2.33c1.05 0 1.83-.36 1.83-1.4 0-1.12-.77-1.6-1.84-1.6h-1.6v9h-2Zm5.48-5L22 41h-2.37l-2.47-5h2.32ZM30 15h2v7.04a3.83 3.83 0 0 1-2.14 3.47 5.2 5.2 0 0 1-2.33.49c-.89 0-1.67-.17-2.33-.5a3.76 3.76 0 0 1-1.56-1.38 3.9 3.9 0 0 1-.64-2.08V15h2v6.85c0 1.15 1 2.11 2.43 2.15 1.42.04 2.57-.91 2.57-2.15V15ZM30 30h2v7.04a3.83 3.83 0 0 1-2.14 3.47 5.2 5.2 0 0 1-2.33.49c-.89 0-1.67-.17-2.33-.5a3.76 3.76 0 0 1-1.56-1.38 3.9 3.9 0 0 1-.64-2.08V30h2v6.85c0 1.15 1 2.11 2.43 2.15 1.42.04 2.57-.91 2.57-2.15V30ZM14 26V15h7v2h-5v2.54h4.62v1.92H16V24h5v2h-7Z" fill="#fff"/></svg>