<!-- by TradingView --><svg width="56" height="56" viewBox="0 0 56 56" xmlns="http://www.w3.org/2000/svg"><path fill="#0098B4" d="M0 0h56v56H0z"/><path d="M33 30h2.27l2.18 4.74h.1L39.73 30H42l-3.5 7.11V41h-2V37.1l-3.5-7.1ZM14 32v-2h8v2h-3v9h-2v-9h-3ZM34 26V15h4c.77 0 1.42.15 1.96.45.55.29.96.7 1.25 1.25.29.53.43 1.17.43 1.9 0 2.27-1.54 3.4-3.7 3.4h-2.67v-2h2.33c1.06 0 1.83-.36 1.83-1.4 0-1.12-.77-1.6-1.84-1.6H36v9h-2Zm5.48-5L42 26h-2.37l-2.46-5h2.3ZM24 41V30h4c.77 0 1.42.15 1.96.45.55.29.96.7 1.25 1.25.29.53.43 1.17.43 1.9 0 2.27-1.54 3.4-3.7 3.4h-2.67v-2h2.33c1.06 0 1.83-.36 1.83-1.4 0-1.12-.77-1.6-1.84-1.6H26v9h-2Zm5.48-5L32 41h-2.37l-2.46-5h2.3ZM30 15h2v7.04a3.83 3.83 0 0 1-2.14 3.47 5.2 5.2 0 0 1-2.33.49c-.89 0-1.67-.17-2.33-.5a3.76 3.76 0 0 1-1.56-1.38 3.9 3.9 0 0 1-.64-2.08V15h2v6.85c0 1.15 1 2.11 2.43 2.15 1.42.04 2.57-.91 2.57-2.15V15ZM14 26V15h7v2h-5v2.54h4.62v1.92H16V24h5v2h-7Z" fill="#fff"/></svg>