<!-- by TradingView --><svg width="56" height="56" viewBox="0 0 56 56" xmlns="http://www.w3.org/2000/svg"><path fill="#201750" d="M0 0h56v56H0z"/><path d="M14.4 20a2.34 2.34 0 0 0-2.4 2.28v12.44A2.34 2.34 0 0 0 14.4 37h17.18c.21-.71.45-1.38.7-2H16.9c.07-.22.11-.45.11-.69a2.28 2.28 0 0 0-2.33-2.21c-.24 0-.46.03-.68.1v-7.4c.22.07.44.1.68.1 1.29 0 2.33-.99 2.33-2.21 0-.24-.04-.47-.11-.69h22.05c-.07.22-.11.45-.11.69a2.28 2.28 0 0 0 2.33 2.21c.3 0 .57-.05.83-.14v1.8c.7-.15 1.37-.24 2-.29v-4A2.34 2.34 0 0 0 41.6 20H14.4Zm23.98 7.87c-.26-.59-.88-1-1.6-1-.94 0-1.71.73-1.71 1.63 0 .53.26 1 .67 1.3a12.4 12.4 0 0 1 2.64-1.93Zm-17.42.63c0 .9-.77 1.63-1.72 1.63s-1.72-.73-1.72-1.63c0-.9.77-1.63 1.72-1.63s1.72.73 1.72 1.63Zm11.3.12c0 2.46-1.9 4.46-4.25 4.46-2.34 0-4.25-2-4.25-4.46 0-2.47 1.9-4.46 4.25-4.46s4.26 2 4.26 4.46Z" fill="#fff"/><path d="M41.32 39.67v-.53c0-.42.09-.8.27-1.16.18-.35.44-.64.8-.85.34-.22.76-.32 1.26-.32.51 0 .94.1 1.29.32.35.21.61.5.79.85.18.35.27.73.27 1.16v.53c0 .42-.09.8-.27 1.16a2.1 2.1 0 0 1-.8.85 2.4 2.4 0 0 1-1.28.32c-.5 0-.93-.1-1.28-.32s-.6-.5-.79-.85a2.54 2.54 0 0 1-.26-1.16Zm1.6-.53v.53c0 .21.04.42.15.61.1.2.3.3.58.3.3 0 .49-.1.59-.29.1-.2.15-.4.15-.62v-.53c0-.23-.05-.43-.15-.63-.09-.2-.29-.3-.59-.3-.28 0-.47.1-.58.3-.1.2-.16.4-.16.63ZM36 33.86v-.53c0-.42.1-.81.28-1.16.18-.35.45-.64.8-.85.34-.21.76-.32 1.26-.32s.94.1 1.28.32c.35.21.62.5.8.85.18.35.27.74.27 1.16v.53c0 .43-.1.81-.28 1.16-.18.35-.44.63-.8.84-.34.2-.77.31-1.27.31s-.93-.1-1.28-.31a2.1 2.1 0 0 1-.8-.85 2.51 2.51 0 0 1-.26-1.15Zm1.61-.53v.53c0 .23.05.43.16.62.1.2.3.29.57.29.3 0 .49-.1.58-.29.1-.19.15-.4.15-.62v-.53c0-.22-.04-.43-.14-.63-.09-.2-.29-.3-.6-.3-.27 0-.46.1-.57.3-.1.21-.15.42-.15.63ZM36.76 42l6.64-11h1.77l-6.62 11h-1.8Z" fill="#fff"/></svg>