<!-- by TradingView --><svg width="56" height="56" fill="none" xmlns="http://www.w3.org/2000/svg"><path fill="#168CD1" d="M0 0h56v56H0z"/><path d="M15 36h12v-2.84h-7.547v-.128l3.265-2.958c2.692-2.454 3.59-3.676 3.59-5.551V24.5c0-2.636-2.27-4.501-5.568-4.501-3.298 0-5.74 1.936-5.74 4.85v.165h3.027l.011-.175c.043-1.393 1.123-2.322 2.723-2.322 1.384 0 2.357.9 2.368 2.165v.022c0 1.072-.422 1.832-2.433 3.697L15 33.514V36ZM34.643 36C38.6 36 41 32.925 41 28.006v-.022C41 23.065 38.6 20 34.643 20c-3.957 0-6.357 3.065-6.357 7.984v.022c0 4.919 2.4 7.994 6.357 7.994Zm0-2.593c-1.946 0-3.06-2.004-3.06-5.401v-.022c0-3.397 1.114-5.39 3.06-5.39s3.06 1.993 3.06 5.39v.022c0 3.397-1.114 5.401-3.06 5.401Z" fill="#fff"/></svg>