<!-- by TradingView --><svg width="56" height="56" viewBox="0 0 56 56" xmlns="http://www.w3.org/2000/svg"><path fill="#201750" d="M0 0h56v56H0z"/><path d="M10.89 35.6a6.99 6.99 0 0 0 5.34-.28 5.1 5.1 0 0 0 2.04-1.94c.49-.82.73-1.76.73-2.81 0-.97-.2-1.84-.62-2.6a4.63 4.63 0 0 0-4.15-2.43 4.87 4.87 0 0 0-2.97 1.02c-.4.33-.71.72-.94 1.18h-.1c0-1.51.27-2.71.79-3.6a2.53 2.53 0 0 1 2.3-1.32c.6 0 1.1.16 1.5.47.4.3.67.73.8 1.27h3.23a4.98 4.98 0 0 0-2.79-3.95c-.79-.4-1.7-.61-2.74-.61a5.57 5.57 0 0 0-4.6 2.21c-.54.72-.97 1.6-1.26 2.63A13 13 0 0 0 7 28.35c0 1.42.17 2.63.5 3.6.35.98.82 1.77 1.4 2.36.59.6 1.25 1.02 1.99 1.29Zm3.65-2.55c-.4.24-.85.36-1.36.36-.5 0-.96-.12-1.35-.37a2.73 2.73 0 0 1-1.28-2.37 2.85 2.85 0 0 1 .77-1.94c.23-.25.51-.45.83-.6a2.6 2.6 0 0 1 1.05-.2 2.51 2.51 0 0 1 2.28 1.34c.22.41.34.87.34 1.4 0 .5-.12.98-.34 1.4a2.6 2.6 0 0 1-.94.98Zm19.48-5.01c0 4.94-2.47 7.96-6.55 7.96s-6.55-3.02-6.55-7.96v-.02c0-4.94 2.47-8.02 6.55-8.02s6.55 3.08 6.55 8.02v.02Zm-9.7 0c0 3.4 1.14 5.42 3.15 5.42 2 0 3.15-2.01 3.15-5.42v-.02c0-3.41-1.14-5.42-3.15-5.42-2 0-3.15 2-3.15 5.42v.02Zm24.68 0c0 4.94-2.47 7.96-6.55 7.96s-6.55-3.02-6.55-7.96v-.02c0-4.94 2.47-8.02 6.55-8.02S49 23.08 49 28.02v.02Zm-9.7 0c0 3.4 1.14 5.42 3.15 5.42 2 0 3.15-2.01 3.15-5.42v-.02c0-3.41-1.15-5.42-3.15-5.42s-3.16 2-3.16 5.42v.02Z" fill="#fff"/></svg>