<!-- by TradingView --><svg width="56" height="56" viewBox="0 0 56 56" xmlns="http://www.w3.org/2000/svg"><path fill="#1664C0" d="M0 0h56v56H0z"/><path fill-rule="evenodd" d="M20.52 40h15.96c1.07 0 1.52-.38 1.52-1.42V22h-5.6c-.78 0-1.4-.59-1.4-1.31v-5.5l-.2-.19H20.53c-1.07 0-1.52.38-1.52 1.42v22.16c0 1.04.45 1.42 1.52 1.42Zm15.96 3H20.52A4.47 4.47 0 0 1 16 38.58V16.42A4.47 4.47 0 0 1 20.52 12h10.29c.68 0 1.34.27 1.83.74l7.6 7.44c.49.47.76 1.11.76 1.78v16.62A4.47 4.47 0 0 1 36.48 43Zm-7.12-13.35a3.48 3.48 0 0 0-1.03-2.7 3.57 3.57 0 0 0-2.47-.95c-.88 0-1.79.31-2.46.96a3.48 3.48 0 0 0-1.03 2.69c.03 1.06.42 2.2.97 3.23.14.26.3.52.46.78-.8.52-1.58.94-2.17 1.21a1 1 0 0 0-.52 1.38c.27.5.93.72 1.48.48.7-.32 1.62-.8 2.55-1.43l.39.36a4.9 4.9 0 0 0 3.1 1.34c1.31 0 2.36-.75 3.05-2 .4-.75.7-.93.78-.96a.5.5 0 0 1 .11.06c.2.13.43.4.69.8.24.39.44.83.58 1.23.2.54.83.83 1.4.64.59-.18.9-.76.7-1.3a8.87 8.87 0 0 0-.77-1.6 4.73 4.73 0 0 0-1.3-1.44 2.4 2.4 0 0 0-2.3-.28 4 4 0 0 0-1.86 1.9c-.43.8-.84.89-1.08.89-.36 0-.93-.22-1.6-.8a5.8 5.8 0 0 1-.17-.15c1.26-1.12 2.45-2.62 2.5-4.34Zm-4.04 2.3.2.37c1-.94 1.6-1.88 1.63-2.73.02-.62-.19-.99-.4-1.2a1.27 1.27 0 0 0-.89-.33c-.33 0-.65.12-.87.34-.22.2-.43.57-.41 1.2.02.66.28 1.5.74 2.36Z" fill="#fff"/></svg>