<!-- by TradingView --><svg width="56" height="56" viewBox="0 0 56 56" xmlns="http://www.w3.org/2000/svg"><path fill="#6A1B9A" d="M0 0h56v56H0z"/><path fill-rule="evenodd" d="M33.33 33.33a10.67 10.67 0 1 0-21.33 0 10.67 10.67 0 0 0 21.33 0ZM18 39h9v-2h-5.84c1.17-.65 1.38-1.84 1.18-3H26v-1.55h-3.94c-.1-.45-.2-1-.2-1.5 0-1.26.9-1.7 2.46-1.7.92 0 1.87.1 2.3.19v-2.25c-.4-.1-1.57-.19-2.7-.19-2.79 0-4.55 1.34-4.55 3.68 0 .55.1 1.21.23 1.77H18V34h1.8c.03.15.07.23.1.29.04.08.07.14.07.3 0 .75-.5 1.92-1.97 2.16V39Zm4.83-18.19a10.67 10.67 0 1 1 12.4 12.35 12.88 12.88 0 0 0-12.4-12.35ZM38.84 19l-.42 1.5h-1.27c-.06.39-.16.75-.32 1.08-.24.53-.62.96-1.15 1.3-.52.34-1.2.57-2.05.68l-.08.02 3.8 4.31V28h-2.5l-4.1-4.71V22h1.96c.5 0 .91-.14 1.25-.3a1.76 1.76 0 0 0 .95-1.2h-4.45l.43-1.5h3.92c-.08-.21-.2-.4-.37-.57-.36-.38-.93-.43-1.73-.43h-2.25l.47-2h7.92l-.43 1.5h-1.9l.18.29c.21.36.36.77.44 1.21h1.7Z" fill="#fff"/></svg>