<!-- by TradingView --><svg width="56" height="56" viewBox="0 0 56 56" xmlns="http://www.w3.org/2000/svg"><path fill="#6A1B9A" d="M0 0h56v56H0z"/><path fill-rule="evenodd" d="M33.33 33.33a10.67 10.67 0 1 0-21.33 0 10.67 10.67 0 0 0 21.33 0ZM18 39h9v-2h-5.84c1.17-.65 1.38-1.84 1.18-3H26v-1.55h-3.94c-.1-.45-.2-1-.2-1.5 0-1.26.9-1.7 2.46-1.7.92 0 1.87.1 2.3.19v-2.25c-.4-.1-1.57-.19-2.7-.19-2.79 0-4.55 1.34-4.55 3.68 0 .55.1 1.21.23 1.77H18V34h1.8c.03.15.07.23.1.29.04.08.07.14.07.3 0 .75-.5 1.92-1.97 2.16V39Zm4.83-18.19a10.67 10.67 0 1 1 12.4 12.35c-.06-1.75-.48-3.42-1.19-4.92a5.17 5.17 0 0 0 1.45-.37 3.29 3.29 0 0 0 2.09-3.05v-.02c0-.89-.3-1.59-.84-2.1a5.12 5.12 0 0 0-2.43-1.11l-.31-.07v-2.88l.28.09c.6.23.9.62 1.04 1.27h2.08c-.15-1.38-.8-2.37-2.05-2.9-.4-.17-.85-.29-1.35-.34V16h-1v.72c-.7.03-1.32.16-1.87.4a3.18 3.18 0 0 0-1.95 2.95v.01c0 1.95 1.52 2.88 3.15 3.24l.67.15v2.94a12.87 12.87 0 0 0-10.17-5.6ZM34 23.71v2.68c.2-.03.36-.08.51-.13.5-.2.87-.62.87-1.2v-.03c0-.35-.13-.64-.37-.85-.2-.18-.53-.34-1.01-.47Zm-1.03-2.42H33v-2.72c-.3.02-.57.08-.8.18-.45.19-.84.58-.84 1.14v.01c0 .91.9 1.22 1.6 1.39Z" fill="#fff"/></svg>