<!-- by TradingView --><svg width="56" height="56" viewBox="0 0 56 56" xmlns="http://www.w3.org/2000/svg"><path fill="#056636" d="M0 0h56v56H0z"/><path d="M19.04 28.91c-.7-14.22 7.1-17.13 11.3-16.9 4.82.26 7.14 4.5 6.58 6.92-3.58 7.84-1.28 12.45 0 16.36.38 5.1-2.43 7.66-5.12 8.43-3.84 1.11-12.06-.6-12.76-14.8Z" fill="#fff"/><path d="M33.25 20.57a1.5 1.5 0 0 1 .72 1.99 11.6 11.6 0 0 0-.87 5.19 10.3 10.3 0 0 0 1.3 4.9 1.5 1.5 0 1 1-2.53 1.61 13.25 13.25 0 0 1-1.77-6.39c-.1-2.27.26-4.67 1.16-6.58a1.5 1.5 0 0 1 2-.72Z" fill="#056636"/></svg>