<!-- by TradingView --><svg width="56" height="56" viewBox="0 0 56 56" xmlns="http://www.w3.org/2000/svg"><path fill="#D92221" d="M0 0h56v56H0z"/><path fill-rule="evenodd" d="M22.67 22.67a10.67 10.67 0 1 1 0 21.33 10.67 10.67 0 0 1 0-21.33Zm4.77 13.36v.35h.77v-.36c.3-.02.6-.09.85-.19.7-.27 1.18-.84 1.18-1.58 0-.47-.17-.83-.47-1.1a3 3 0 0 0-1.38-.57l-.18-.04v-1.49l.17.05c.34.12.56.44.59.81h1.17c-.09-.71-.45-1.38-1.16-1.65-.23-.1-.49-.16-.77-.19v-.39h-.77v.39c-.3.03-.59.1-.84.2-.65.27-1.1.82-1.1 1.52 0 1.02.86 1.5 1.78 1.68l.16.04v1.54c-.1-.01-.18-.03-.25-.06-.34-.12-.54-.5-.6-.85H25.4c0 .8.42 1.41 1.2 1.7.25.1.53.16.83.19Zm.77-.97v-1.39c.27.07.47.15.58.25.14.1.2.26.2.44v.01c0 .3-.2.52-.48.62-.09.04-.19.06-.3.07Zm-.77-2.68c-.35-.1-.71-.28-.71-.68 0-.3.22-.5.48-.6l.23-.06v1.34ZM15 36v-6h1v2.66h3V30h1v6h-1v-2.6h-3V36h-1Zm6 0v-6h1v2.9l2.56-2.9h1.2l-2.28 2.72 2.3 3.28h-1.14l-1.84-2.54-.8.77V36h-1Zm1.83-15.19a10.67 10.67 0 1 1 12.4 12.35 12.81 12.81 0 0 0-1.85-6.15H35V25h-3v-.59h2.3c2.34 0 4.6-1.13 4.6-3.69 0-2.39-2.04-3.72-4.23-3.72H30v5.56h-1.14a12.81 12.81 0 0 0-6.03-1.75ZM32 19v3.56h2.63c1.21 0 2.07-.46 2.05-1.82.02-1.32-.78-1.74-2-1.74H32Z" fill="#fff"/></svg>