<!-- by TradingView --><svg width="56" height="56" viewBox="0 0 56 56" xmlns="http://www.w3.org/2000/svg"><path fill="#00BCD4" d="M0 0h56v56H0z"/><path fill-rule="evenodd" d="M33.33 33.33a10.67 10.67 0 1 0-21.33 0 10.67 10.67 0 0 0 21.33 0ZM18 38.5h3.36V40h2.28v-1.5H27v-1.13h-3.36v-1.12H27V35h-2.94L28 28h-2.74l-2.7 5.18h-.06L19.79 28H17l3.94 7H18v1.25h3.36v1.13H18v1.12Zm4.83-17.69a10.67 10.67 0 1 1 12.4 12.35 12.88 12.88 0 0 0-12.4-12.35ZM38.84 19l-.42 1.5h-1.27c-.06.39-.16.75-.32 1.08-.24.53-.62.96-1.15 1.3-.52.34-1.2.57-2.05.68l-.08.02 3.8 4.31V28h-2.5l-4.1-4.71V22h1.96c.5 0 .91-.14 1.25-.3a1.76 1.76 0 0 0 .95-1.2h-4.45l.43-1.5h3.92c-.08-.21-.2-.4-.37-.57-.36-.38-.93-.43-1.73-.43h-2.25l.47-2h7.92l-.43 1.5h-1.9l.18.29c.21.36.36.77.44 1.21h1.7Z" fill="#fff"/></svg>