<!-- by TradingView --><svg width="56" height="56" xmlns="http://www.w3.org/2000/svg"><path d="M0 0h56v56H0V0z" fill="#2F0E13"/><path d="M25.744 10.936c.7-.187 1.385.248 1.634.933l1.104 3.002a12.974 12.974 0 01-1.726 12.211 16.083 16.083 0 00-2.163 15.136c.436 1.182-.622 2.286-1.695 1.618-4.325-2.707-7.342-8.79-7.342-15.836 0-8.509 4.386-15.587 10.188-17.064zm7.358 1.229c-1.089-.67-2.13.435-1.71 1.617a15.995 15.995 0 01-2.148 15.136 12.974 12.974 0 00-1.726 12.21l1.104 3.019c.25.669.934 1.089 1.634.933 5.802-1.509 10.188-8.571 10.188-17.08 0-7.047-3.017-13.129-7.342-15.835z" fill="#fff"/></svg>