<!-- by TradingView --><svg width="56" height="56" viewBox="0 0 56 56" xmlns="http://www.w3.org/2000/svg"><path fill="#0099E5" d="M0 0h56v56H0z"/><path d="M33.33 33.33a10.67 10.67 0 1 0-21.33 0 10.67 10.67 0 0 0 21.33 0ZM29 32v1h-1.07l-.27 1H29v1h-1.6l-1.07 4h-1.84l-1.11-4h-1.75l-1.11 4h-1.85l-1.07-4H16v-1h1.34l-.27-1H16v-1h.8l-.8-3h1.7l.77 3h2.37l.8-3h1.73l.79 3h2.37l.78-3H29l-.8 3h.8Zm-2.99 2 .26-1h-1.85l.27 1H26Zm-2.91 0-.28-1h-.63l-.28 1h1.19Zm-2.79 0 .26-1h-1.84l.26 1h1.32Zm-.26 1h-.8l.35 1.35h.09l.36-1.35Zm5.7 0h-.8l.36 1.35h.1l.34-1.35Zm-2.92-14.19a10.67 10.67 0 1 1 12.4 12.35c-.06-1.74-.48-3.4-1.18-4.9a5.81 5.81 0 0 0 1.76-.39c1.29-.52 2.2-1.62 2.2-3.05v-.02c0-.89-.32-1.59-.88-2.1a5.5 5.5 0 0 0-2.56-1.12l-.57-.11V18.6c.2.03.37.07.53.13.65.23.96.62 1.1 1.27h2.2a3.29 3.29 0 0 0-2.16-2.9 5.37 5.37 0 0 0-1.67-.36V16h-1v.73c-.66.04-1.25.18-1.77.4a3.19 3.19 0 0 0-2.05 2.94v.01c0 1.95 1.6 2.88 3.3 3.24l.52.1v2.98h-.01a12.87 12.87 0 0 0-10.16-5.59ZM34 23.64v2.77c.3-.02.56-.07.78-.15.53-.2.91-.62.91-1.2v-.03c0-.35-.13-.64-.39-.85-.23-.21-.67-.39-1.3-.54Zm-2.53-3.74c0 .85.82 1.18 1.53 1.35V18.6c-.24.03-.45.08-.64.16-.48.19-.9.58-.9 1.14v.01Z" fill="#fff"/></svg>