<!-- by TradingView --><svg width="56" height="56" viewBox="0 0 56 56" xmlns="http://www.w3.org/2000/svg"><path fill="#1A25AB" d="M0 0h56v56H0z"/><path d="M20.25 37c3.8 0 6.44-2.7 6.44-6.28v-.03c0-3.23-2.29-6-5.45-6-1.69 0-3.06.7-3.75 1.85h-.07l.4-4.54H26v-3H15.05l-.76 10h3.04c.2-.36.46-.76.8-1.02.56-.47 1.29-.73 2.14-.73 1.8 0 3.08 1.71 3.1 3.52v.02a2.98 2.98 0 0 1-3.11 3.11c-1.6 0-2.77-1-3.02-2.29l-.02-.61H14l.01.7c.2 2.87 2.61 5.3 6.24 5.3Zm14.96 0c4.23 0 6.79-3.67 6.79-9.12v-.03C42 22.4 39.44 19 35.21 19s-6.79 3.4-6.79 8.85v.03c0 5.45 2.56 9.12 6.8 9.12Zm0-3.13c-2.08 0-3.27-2.22-3.27-6v-.02c0-3.76 1.2-5.97 3.27-5.97 2.08 0 3.27 2.2 3.27 5.97v.03c0 3.77-1.2 5.99-3.27 5.99Z" fill="#fff"/></svg>