<!-- by TradingView --><svg width="56" height="56" viewBox="0 0 56 56" xmlns="http://www.w3.org/2000/svg"><path fill="#13426B" d="M0 0h56v56H0z"/><path d="m31 21.01-1.14.06a9.8 9.8 0 0 0-8.76 8.91L21 31h10v-9.99ZM31 10h-1.14C19.6 10 10 16.69 10 29.92V31h3.29c-.3-13.98 9.78-17.88 17.71-17.88V10Z" fill="#fff"/><path d="m18.52 31-.15-.99-.06-1.08.06-1.02.15-1.11c2.85-11.52 19.03-10.68 20.55 1.11l.06 1.02-.06 1.08a10.48 10.48 0 0 1-9.87 9.15 10.42 10.42 0 0 1-10.68-8.19V31Zm13.01-15.93-1.31-.21-1.5-.09-1.43.09-1.44.21a14.05 14.05 0 0 0-11.3 14.56 14.12 14.12 0 0 0 12.74 13.31l1.43.06 1.5-.06a14.04 14.04 0 0 0 12.76-13.38 14.13 14.13 0 0 0-11.45-14.52v.03Z" fill="#fff"/></svg>