<!-- by TradingView --><svg width="56" height="56" xmlns="http://www.w3.org/2000/svg"><path fill="#F57F17" d="M0 0h56v56H0z"/><path d="M26 11.302c0-.167.135-.302.302-.302h3.255c.245 0 .443.198.443.443v5.329c0 1.538.665 3 1.824 4.012A6.352 6.352 0 0134 25.57V28H22v-3.127c0-1.645.774-3.193 2.09-4.18a4.775 4.775 0 001.91-3.82v-5.57zM26.302 8A3.302 3.302 0 0023 11.302v5.57c0 .56-.263 1.086-.71 1.42a8.225 8.225 0 00-3.29 6.58v18.025A4.104 4.104 0 0023.104 47h9.621A4.275 4.275 0 0037 42.725V25.57a9.352 9.352 0 00-3.204-7.047A2.324 2.324 0 0133 16.772v-5.329A3.443 3.443 0 0029.557 8h-3.255z" fill="#fff"/></svg>