<!-- by TradingView --><svg width="56" height="56" xmlns="http://www.w3.org/2000/svg"><path fill="#E57373" d="M0 0h56v56H0z"/><path fill-rule="evenodd" d="M19.973 18.806c3.998-5.382 12.056-5.382 16.054 0l.11.149A4.002 4.002 0 0140 16h5v5a4 4 0 01-4 4h-.371l1.513 2.037C47.043 33.635 42.333 43 34.114 43H21.886c-8.22 0-12.929-9.365-8.028-15.963L15.371 25H15a4 4 0 01-4-4v-5h5a4.002 4.002 0 013.862 2.955l.11-.149zM23 34.5a3.5 3.5 0 013.5-3.5h3a3.5 3.5 0 110 7h-3a3.5 3.5 0 01-3.5-3.5zm2-.5a1 1 0 112 0v1a1 1 0 11-2 0v-1zm4 0a1 1 0 112 0v1a1 1 0 11-2 0v-1z" fill="#fff"/></svg>