<!-- by TradingView --><svg width="56" height="56" viewBox="0 0 56 56" xmlns="http://www.w3.org/2000/svg"><path fill="#143EB2" d="M0 0h56v56H0z"/><path d="M33.33 33.33a10.67 10.67 0 1 0-21.33 0 10.67 10.67 0 0 0 21.33 0ZM17.93 36h-1.9v-1.27h1.72c-.06-.66-.08-1.34-.02-2H16v-1.37h1.94c.84-2.9 3.52-4.36 7.11-4.36.72 0 1.46.08 1.95.2v2.44c-.47-.08-1.23-.2-1.84-.2-2 0-3.63.53-4.35 1.92H26v1.37h-5.72a8.22 8.22 0 0 0 0 2H26V36h-5.18c.7 1.41 2.3 1.56 4.34 1.56.6 0 1.37-.12 1.84-.2v2.44c-.49.12-1.22.2-1.95.2-3.61 0-6.3-1.29-7.13-4Zm4.9-15.19a10.67 10.67 0 1 1 12.4 12.35c-.08-2.15-.7-4.17-1.72-5.93H35V26h-2.3c-.22-.3-.45-.59-.7-.86V24h5v-2h-5v-3h6v-2h-8v6.31a12.82 12.82 0 0 0-7.17-2.5Z" fill="#fff"/></svg>