<!-- by TradingView --><svg width="56" height="56" viewBox="0 0 56 56" xmlns="http://www.w3.org/2000/svg"><path fill="#143EB2" d="M0 0h56v56H0z"/><path d="M33.33 33.33a10.67 10.67 0 1 0-21.33 0 10.67 10.67 0 0 0 21.33 0ZM17.93 36h-1.9v-1.27h1.72c-.06-.66-.08-1.34-.02-2H16v-1.37h1.94c.84-2.9 3.52-4.36 7.11-4.36.72 0 1.46.08 1.95.2v2.44c-.47-.08-1.23-.2-1.84-.2-2 0-3.63.53-4.35 1.92H26v1.37h-5.72a8.22 8.22 0 0 0 0 2H26V36h-5.18c.7 1.41 2.3 1.56 4.34 1.56.6 0 1.37-.12 1.84-.2v2.44c-.49.12-1.22.2-1.95.2-3.61 0-6.3-1.29-7.13-4Zm4.9-15.19a10.67 10.67 0 1 1 12.4 12.35c-.07-1.84-.53-3.6-1.3-5.16H38v-2h-5.3l-.2-.26c.84-.68.98-1.72.8-2.74H37v-1.55h-3.98c-.1-.45-.2-1-.2-1.5 0-1.26.9-1.7 2.46-1.7.92 0 1.87.1 2.3.19v-2.25c-.4-.1-1.56-.19-2.69-.19-2.8 0-4.56 1.34-4.56 3.68 0 .55.1 1.21.24 1.77h-1.61v1.17a12.81 12.81 0 0 0-6.13-1.8ZM29.56 23c.46.31.9.65 1.32 1.02.03-.15.05-.3.05-.42a.57.57 0 0 0-.07-.31 1.04 1.04 0 0 1-.1-.29h-1.2Z" fill="#fff"/></svg>