<!-- by TradingView --><svg width="56" height="56" viewBox="0 0 56 56" xmlns="http://www.w3.org/2000/svg"><path fill="#143EB2" d="M0 0h56v56H0z"/><path d="M33.33 33.33a10.67 10.67 0 1 0-21.33 0 10.67 10.67 0 0 0 21.33 0ZM17.93 36h-1.9v-1.27h1.72c-.06-.66-.08-1.34-.02-2H16v-1.37h1.94c.84-2.9 3.52-4.36 7.11-4.36.72 0 1.46.08 1.95.2v2.44c-.47-.08-1.23-.2-1.84-.2-2 0-3.63.53-4.35 1.92H26v1.37h-5.72a8.22 8.22 0 0 0 0 2H26V36h-5.18c.7 1.41 2.3 1.56 4.34 1.56.6 0 1.37-.12 1.84-.2v2.44c-.49.12-1.22.2-1.95.2-3.61 0-6.3-1.29-7.13-4Zm4.9-15.19a10.67 10.67 0 1 1 12.4 12.35 12.83 12.83 0 0 0-.86-4.16h.27v-1.5H38v-1.12h-3.36v-1.13H38V24h-2.94L39 17h-2.74l-2.7 5.18h-.06L30.79 17H28l3.94 7h-1.08a12.83 12.83 0 0 0-8.03-3.19Zm9.27 4.44.26.31v-.31h-.26Z" fill="#fff"/></svg>