<!-- by TradingView --><svg width="56" height="56" viewBox="0 0 56 56" xmlns="http://www.w3.org/2000/svg"><path fill="#3ABFE6" d="M0 0h56v56H0z"/><path d="M33.33 33.33a10.67 10.67 0 1 0-21.33 0 10.67 10.67 0 0 0 21.33 0ZM27.11 31l-.42 1.5h-1.27c-.06.39-.16.75-.32 1.08-.24.53-.62.96-1.15 1.3-.52.34-1.2.57-2.05.68l-.08.02 3.8 4.31V40h-2.5L19 35.29V34h1.99c.5 0 .9-.14 1.24-.3a1.76 1.76 0 0 0 .95-1.2h-4.45l.43-1.5h3.93c-.1-.21-.22-.4-.38-.57-.36-.38-.93-.43-1.72-.43h-2.26l.47-2h7.93l-.44 1.5h-1.9l.18.29c.22.36.36.77.44 1.21h1.7Zm-4.28-10.19a10.67 10.67 0 1 1 12.4 12.35c-.06-1.74-.48-3.4-1.18-4.9a5.81 5.81 0 0 0 1.76-.39c1.29-.52 2.2-1.62 2.2-3.05v-.02c0-.89-.32-1.59-.88-2.1a5.5 5.5 0 0 0-2.56-1.12l-.57-.11V18.6c.2.03.37.07.53.13.65.23.96.62 1.1 1.27h2.2a3.29 3.29 0 0 0-2.16-2.9 5.37 5.37 0 0 0-1.67-.36V16h-1v.73c-.66.04-1.25.18-1.77.4a3.19 3.19 0 0 0-2.05 2.94v.01c0 1.95 1.6 2.88 3.3 3.24l.52.1v2.98h-.01a12.87 12.87 0 0 0-10.16-5.59ZM34 23.64v2.77c.3-.02.56-.07.78-.15.53-.2.91-.62.91-1.2v-.03c0-.35-.13-.64-.39-.85-.23-.21-.67-.39-1.3-.54Zm-2.53-3.74c0 .85.82 1.18 1.53 1.35V18.6c-.24.03-.45.08-.64.16-.48.19-.9.58-.9 1.14v.01Z" fill="#fff"/></svg>