<!-- by TradingView --><svg width="56" height="56" viewBox="0 0 56 56" fill="none" xmlns="http://www.w3.org/2000/svg"><path fill="#FFD600" d="M0 0h56v56H0z"/><path d="M39 31.636C39 38.436 34.05 44 28 44s-11-5.564-11-12.364C17 15.943 28 10 28 10s11 5.26 11 21.636z" fill="#000"/><path d="M26.996 27.877c.037-4.333.02-8.646.39-12.021.108-.996 1.109-.996 1.214 0 .37 3.487.35 8.024.396 12.021.052 4.334.029 8.928-.364 12.508-.11 1.012-1.151 1.01-1.262-.002-.394-3.613-.41-8.187-.374-12.506zM33.565 38.425c2.82-8.326 1.615-15.368-.055-18.322-.24-.426-.675-.175-.57.303 1.173 5.292.345 12.851-.158 17.842-.057.558.603.71.783.177zM23.209 38.425c-2.82-8.326-1.615-15.368.054-18.322.241-.426.676-.175.57.303-1.173 5.292-.345 12.851.159 17.842.056.558-.603.71-.784.177z" fill="#FFD600"/></svg>