<!-- by TradingView --><svg width="56" height="56" xmlns="http://www.w3.org/2000/svg"><path fill="#00BCD4" d="M0 0h56v56H0z"/><path d="M26 9c-1.38 0-2 1.196-2 2.325v9.082a.99.99 0 01-.375.778c-3.716 2.943-12.187 9.2-12.806 9.657a.798.798 0 00-.073.06c-1.327 1.231-.727 2.74.573 2.625a.777.777 0 00.204-.05l11.124-4.196a1 1 0 011.353.935v7.712c0 .29-.125.567-.353.746-1.03.81-3.03 2.192-3.658 2.714-.888.74-.495 1.33-.372 1.456.264.27.781.142 1.116 0l4.92-1.723a1 1 0 01.69.01l4.159 1.596c.478.186 1.116.508 1.5 0 .384-.507 0-1.129-.414-1.455l-3.215-2.586a1 1 0 01-.373-.78v-7.624a1 1 0 011.391-.92l9.697 4.12c.05.022.104.04.157.052 2.188.474 2.076-1.912 1.043-2.665L28.37 21.187a1 1 0 01-.37-.776v-9.086C28 10.048 27.421 9 26 9z" fill="#fff"/><path d="M39.62 23l1.21-.885-1.21-1.657-1.211 1.657L39.62 23zm0 0l1.211-.885h0l.002.002.004.006.015.021.057.079.21.293a70.612 70.612 0 012.98 4.58c.815 1.37 1.647 2.897 2.28 4.359.615 1.417 1.121 2.95 1.121 4.272 0 4.638-3.364 8.773-7.88 8.773s-7.88-4.135-7.88-8.773c0-1.323.506-2.855 1.12-4.272.634-1.462 1.466-2.989 2.28-4.358a70.62 70.62 0 013.191-4.875l.057-.078.015-.02.004-.007.001-.001h0c0-.001.001-.001 1.212.884z" fill="#fff" stroke="#00BCD4" stroke-width="3"/></svg>