<!-- by TradingView --><svg width="56" height="56" viewBox="0 0 56 56" xmlns="http://www.w3.org/2000/svg"><path fill="#9E0A0D" d="M0 0h56v56H0z"/><path d="M42.17 22c-.05 0-.08.02-.09.07l-.2 1.99.03.02h.04l9-1.95h.02a.06.06 0 0 0 .03-.05.07.07 0 0 0 0-.04l-.02-.02-.02-.01-.02-.01h-8.77Zm1.5 11.96 1.64-2.55.02-.02a.05.05 0 0 1 .05 0l.02.02 1.46 2.55.02.02V34l.02.01h2.47l.02-.03a.07.07 0 0 0 0-.06l-2.66-4.6a.06.06 0 0 1 0-.07l3.8-5.81v-.07a.05.05 0 0 0-.03-.02h-.03l-2.77.6a.05.05 0 0 0-.03.03l-2.09 3.2-.02.02a.05.05 0 0 1-.04 0l-.02-.02-1.38-2.41-.02-.03h-.03l-2.17.46h-.02l-.01.03a.07.07 0 0 0 0 .05l2.3 4a.06.06 0 0 1 0 .06l-2.98 4.58v.06l.02.02h.03l2.39.01.01-.01.03-.03ZM40.34 22h-2.26l-.03.01-.02.04-.31 2.9a.06.06 0 0 0 .02.06l.02.01h.02l2.31-.5.03-.02.01-.04.26-2.4a.06.06 0 0 0-.01-.04l-.02-.02h-.02Zm-.4 3.64-2.3.5-.03.02-.01.04-.82 7.73a.07.07 0 0 0 0 .05l.03.01h.02l2.24.01c.02 0 .03 0 .04-.02a.06.06 0 0 0 .02-.03L40 25.7v-.02l-.02-.03-.02-.01h-.02ZM30.69 24.41c1-.12 2.63-.06 2.83 1.44 0 .05.03.07.08.06l2.24-.48c.05 0 .07-.04.06-.1-.36-2.04-1.47-3.13-3.32-3.25-1.05-.07-2.38-.1-4-.07-.05 0-.08.03-.08.08l-.5 4.94c0 .06.02.08.07.07l2.24-.48c.06-.01.09-.05.1-.1l.18-2c0-.07.04-.1.1-.1ZM27.3 34h2.15c.04 0 .08-.02.1-.05a.18.18 0 0 0 .06-.11l.42-4.06c0-.05.03-.1.06-.12a.14.14 0 0 1 .1-.04c2.3.16 4.97.06 5.65-3 .02-.07 0-.1-.06-.08l-7.86 1.68c-.05.01-.07.04-.08.1l-.6 5.6a.08.08 0 0 0 .02.06l.02.01.02.01ZM26.37 27.4c.17-5.1-5.15-6.53-8.65-4.53a6.6 6.6 0 0 0-3.05 6.85c.01.03.03.06.06.08.03.03.06.03.1.03l2.1-.43c.06-.01.08-.04.07-.1-.92-5.87 7.28-6.76 7.04-1.42 0 .05.02.07.07.06l2.19-.44c.04-.01.07-.04.07-.1Zm-2.6 1.7c-1.14 2.62-4.37 3.63-6.28 1.29a.13.13 0 0 0-.06-.04.12.12 0 0 0-.06 0l-2.28.45-.03.01-.02.03a.08.08 0 0 0 0 .07 4.9 4.9 0 0 0 3.65 2.94c3.63.73 6.89-1.22 7.56-5.26 0-.04-.01-.05-.05-.04l-2.33.47a.13.13 0 0 0-.05.02.15.15 0 0 0-.04.06ZM10.22 30.9l.67-6.47.01-.03.04-.02 3.44.01.03-.01.02-.04.26-2.28a.06.06 0 0 0-.02-.04l-.01-.02H5.3l-.04.01-.01.04L5 24.32a.06.06 0 0 0 .01.05l.02.01h3.45l.02.01.02.02v.04l-.73 6.93v.02l.02.03h.02l.02.01 2.33-.5.03-.01v-.03Zm-2.54 1.7-.15 1.34a.06.06 0 0 0 .01.04l.02.02h2.28l.03-.02.02-.04.19-1.82v-.02l-.01-.02-.03-.02h-.02l-2.3.5-.03.01-.01.03Z" fill="#fff"/></svg>