<!-- by TradingView --><svg width="56" height="56" xmlns="http://www.w3.org/2000/svg"><path fill="url(#paint0_linear)" d="M0 0h56v56H0z"/><path d="M18 31.952V22c2.774.328 4.49 1.747 5 2.416V34c-1.613-1.278-4.005-1.898-5-2.048zm20 0V22c-2.774.328-4.49 1.747-5 2.416V34c1.613-1.278 4.005-1.898 5-2.048zM26 12h4v32h-4zm-3 9v-9h-4.181c-.586 0-.79.473-.819.71v6.073c2.483.213 4.368 1.567 5 2.217zm10 0v-9h4.181c.586 0 .79.473.819.71v6.073c-2.483.213-4.368 1.567-5 2.217zM23 37.31V44h-4.181c-.586 0-.79-.473-.819-.71V35c2.621.422 3.914 1.335 5 2.31zm10 0V44h4.181c.586 0 .79-.473.819-.71V35c-2.621.422-3.914 1.335-5 2.31z" fill="#fff"/><defs><linearGradient id="paint0_linear" x1="10.418" y1="9.712" x2="68.147" y2="76.017" gradientUnits="userSpaceOnUse"><stop stop-color="#1A1E21"/><stop offset="1" stop-color="#06060A"/></linearGradient></defs></svg>