<!-- by TradingView --><svg width="56" height="56" viewBox="0 0 56 56" xmlns="http://www.w3.org/2000/svg"><path fill="#24AADF" d="M0 0h56v56H0z"/><path d="M15 37h12v-3h-7.55v-.34l3.27-3.33c2.69-2.76 3.59-4.13 3.59-6.24v-.03c0-2.97-2.27-5.06-5.57-5.06-3.3 0-5.74 2.18-5.74 5.46V25h3.03v-.55c.05-1.58 1.13-2.61 2.73-2.61 1.39 0 2.36 1 2.37 2.43v.02c0 1.21-.42 2.07-2.43 4.16L15 34.2V37Zm19.64 0C38.6 37 41 33.53 41 28v-.02c0-5.53-2.4-8.98-6.36-8.98-3.95 0-6.35 3.45-6.35 8.98V28c0 5.52 2.4 8.99 6.35 8.99Zm0-2.92c-1.94 0-3.06-2.25-3.06-6.08v-.02c0-3.83 1.12-6.07 3.06-6.07 1.95 0 3.06 2.25 3.06 6.08V28c0 3.82-1.11 6.08-3.06 6.08Z" fill="#fff"/></svg>