<!-- by TradingView --><svg width="56" height="56" viewBox="0 0 56 56" xmlns="http://www.w3.org/2000/svg"><path fill="#DB0212" d="M0 0h56v56H0z"/><path d="M33.33 33.33a10.67 10.67 0 1 0-21.33 0 10.67 10.67 0 0 0 21.33 0Zm-10.28 4.23c1.77-.42 2.51-1.74 2.5-3.56H28a5.58 5.58 0 0 1-2.03 4.54c-1.48 1.29-2.96 1.5-4.88 1.35a.09.09 0 0 1-.06-.03.1.1 0 0 1-.03-.06v-6.27c0-.03 0-.04-.04-.03l-2.92.66c-.03 0-.04 0-.04-.03v-1.74c0-.03.01-.05.04-.06l2.93-.66c.02 0 .03-.02.03-.05v-.71c0-.04-.01-.06-.05-.05l-2.91.66c-.03 0-.04 0-.04-.03v-1.74c0-.03.01-.05.04-.05l2.93-.67c.03 0 .03-.03.03-.06v-1.89c0-.05.04-.08.1-.08h1.84c.03 0 .06.05.06.07v1.29c0 .03 0 .04.03.03l2.89-.52c.03-.01.08 0 .08.04v1.73c0 .03-.04.05-.07.06l-2.87.51c-.04.01-.06.04-.06.08v.7c0 .03.01.05.04.04l2.9-.52c.02 0 .06 0 .06.03v1.75c0 .02-.04.04-.06.04l-2.89.52c-.03.01-.05.04-.05.07v4.6c0 .04.02.05.05.04Zm-.22-16.75a10.67 10.67 0 1 1 12.4 12.35 12.81 12.81 0 0 0-1.85-6.15H35V25h-3v-.59h2.3c2.34 0 4.6-1.13 4.6-3.69 0-2.39-2.04-3.72-4.23-3.72H30v5.56h-1.14a12.81 12.81 0 0 0-6.03-1.75ZM32 19v3.56h2.63c1.21 0 2.07-.46 2.05-1.82.02-1.32-.78-1.74-2-1.74H32Z" fill="#fff"/></svg>