<!-- by TradingView --><svg width="56" height="56" xmlns="http://www.w3.org/2000/svg"><path fill="#2962FF" d="M0 0h56v56H0z"/><path d="M30.759 23.398c.518-1.834 2.243-9.246 3.38-14.179.242-1.05-1.067-1.658-1.695-.782-4.795 6.686-13.728 19.351-17.105 24.143-.507.72.102 1.683.971 1.549 2.647-.41 6.757-1.06 7.824-1.318-.477 1.71-2.16 9.112-3.266 14.026-.236 1.048 1.112 1.685 1.759.826 4.758-6.318 14.34-19.063 18.067-24.175.512-.702-.071-1.631-.93-1.508-2.92.42-7.801 1.136-9.005 1.418z" fill="#fff"/></svg>