<!-- by TradingView --><svg width="56" height="56" viewBox="0 0 56 56" xmlns="http://www.w3.org/2000/svg"><path fill="#004998" d="M0 0h56v56H0z"/><path d="M23.96 11.11h-.02A1.5 1.5 0 0 0 22.5 10a1.51 1.51 0 0 0-1.5 1.57v.02l.03.24c.25 1.76 1.4 3.17 3.34 3.17h9.5c.12 0 .13.09.13.2v1.35a1.5 1.5 0 0 0 3 0v-1.09c0-1.15-.5-2.27-1.24-2.8a3.4 3.4 0 0 0-1.93-.66h-9.46c-.3 0-.37-.6-.4-.85v-.02l-.01-.02ZM16 30.94V43h24v-8.89a1 1 0 0 0-.03-.22l-2.8-12.11a1 1 0 0 0-.97-.78h-1.42a1 1 0 0 0-.97.76L30.8 34l-6.26-4.01a1 1 0 0 0-1.54.84V34l-5.42-3.87a1 1 0 0 0-1.58.81Z" fill="#fff"/></svg>