<!-- by TradingView --><svg width="56" height="56" viewBox="0 0 56 56" xmlns="http://www.w3.org/2000/svg"><path fill="#06806B" d="M0 0h56v56H0z"/><path fill-rule="evenodd" d="M33.33 33.33a10.67 10.67 0 1 0-21.33 0 10.67 10.67 0 0 0 21.33 0ZM22 40v-.74a5.92 5.92 0 0 1-1.78-.36 3.7 3.7 0 0 1-1.56-1.12A3.05 3.05 0 0 1 18 36h2.19c.06.3.16.5.36.74.18.22.44.39.76.5.2.08.43.13.69.16v-2.97l-.52-.11c-1.71-.36-3.3-1.3-3.3-3.24v-.01c0-1.35.83-2.42 2.04-2.94a5.36 5.36 0 0 1 1.78-.4V27h1v.74c.62.04 1.17.16 1.66.36 1.32.53 2 1.52 2.16 2.9h-2.2a1.56 1.56 0 0 0-1.1-1.27 2.6 2.6 0 0 0-.52-.13v2.87l.56.11c1.14.25 2 .62 2.56 1.13.57.5.88 1.2.88 2.1 0 1.44-.9 2.54-2.2 3.06-.53.22-1.13.35-1.8.4V40h-1Zm1-5.35v2.76c.3-.02.56-.08.77-.15.53-.2.91-.62.91-1.2v-.03c0-.35-.12-.64-.38-.85-.24-.21-.67-.39-1.3-.53Zm-2.54-3.75c0 .85.83 1.18 1.54 1.35V29.6c-.24.03-.46.08-.65.16-.48.19-.89.58-.89 1.14v.01Zm2.37-10.09a10.67 10.67 0 1 1 12.4 12.35 12.88 12.88 0 0 0-12.4-12.35ZM38.84 19l-.42 1.5h-1.27c-.06.39-.16.75-.32 1.08-.24.53-.62.96-1.15 1.3-.52.34-1.2.57-2.05.68l-.08.02 3.8 4.31V28h-2.5l-4.1-4.71V22h1.96c.5 0 .91-.14 1.25-.3a1.76 1.76 0 0 0 .95-1.2h-4.45l.43-1.5h3.92c-.08-.21-.2-.4-.37-.57-.36-.38-.93-.43-1.73-.43h-2.25l.47-2h7.92l-.43 1.5h-1.9l.18.29c.21.36.36.77.44 1.21h1.7Z" fill="#fff"/></svg>