<!-- by TradingView --><svg width="56" height="56" viewBox="0 0 56 56" xmlns="http://www.w3.org/2000/svg"><path fill="#06806B" d="M0 0h56v56H0z"/><path d="M33.33 33.33a10.67 10.67 0 1 0-21.33 0 10.67 10.67 0 0 0 21.33 0ZM22 40v-.74a5.92 5.92 0 0 1-1.78-.36 3.7 3.7 0 0 1-1.56-1.12A3.05 3.05 0 0 1 18 36h2.19c.06.3.16.5.36.74.18.22.44.39.76.5.2.08.43.13.69.16v-2.97l-.52-.11c-1.71-.36-3.3-1.3-3.3-3.24v-.01c0-1.35.83-2.42 2.04-2.94a5.36 5.36 0 0 1 1.78-.4V27h1v.74c.62.04 1.17.16 1.66.36 1.32.53 2 1.52 2.16 2.9h-2.2a1.56 1.56 0 0 0-1.1-1.27 2.6 2.6 0 0 0-.52-.13v2.87l.56.11c1.14.25 2 .62 2.56 1.13.57.5.88 1.2.88 2.1 0 1.44-.9 2.54-2.2 3.06-.53.22-1.13.35-1.8.4V40h-1Zm1-5.35v2.76c.3-.02.56-.08.77-.15.53-.2.91-.62.91-1.2v-.03c0-.35-.12-.64-.38-.85-.24-.21-.67-.39-1.3-.53Zm-2.54-3.75c0 .85.83 1.18 1.54 1.35V29.6c-.24.03-.46.08-.65.16-.48.19-.89.58-.89 1.14v.01Zm2.37-10.09a10.67 10.67 0 1 1 12.4 12.35 12.82 12.82 0 0 0-.92-4.32 5.3 5.3 0 0 0 2.66-1.3A5.58 5.58 0 0 0 39 23h-2.45c.01 1.82-.73 3.14-2.5 3.56-.03.01-.05 0-.05-.03v-4.6c0-.04.02-.06.05-.07l2.89-.52c.02-.01.06-.03.06-.05v-1.75c0-.03-.04-.04-.07-.03l-2.9.52c-.02 0-.03 0-.03-.03v-.7c0-.05.02-.07.06-.08l2.87-.52c.03 0 .07-.03.07-.06v-1.73c0-.03-.05-.05-.08-.04l-2.89.53c-.03 0-.03 0-.03-.04v-1.29c0-.02-.03-.07-.06-.07H32.1c-.06 0-.1.03-.1.09v1.88c0 .03 0 .05-.03.06l-2.93.67c-.03 0-.04.03-.04.06v1.73c0 .03.01.04.04.03l2.91-.66c.04 0 .05.01.05.05v.71c0 .03 0 .04-.03.05l-2.93.67c-.03 0-.04.02-.04.05v1.25a12.81 12.81 0 0 0-6.17-1.83Zm6.78 2.22c.88.6 1.69 1.31 2.4 2.11v-2.6c0-.04-.02-.05-.05-.04l-2.35.53Z" fill="#fff"/></svg>