<!-- by TradingView --><svg width="56" height="56" viewBox="0 0 56 56" fill="none" xmlns="http://www.w3.org/2000/svg"><path fill="#FFD600" d="M0 0h56v56H0z"/><path fill-rule="evenodd" clip-rule="evenodd" d="M33 23.213c0 6.925-10 6.925-10 0C23 17.02 28 12 28 12s5 5.02 5 11.213zm-10.507 8.82c3.462 5.998-5.198 10.998-8.66 5-3.097-5.363-1.277-12.21-1.277-12.21s6.84 1.847 9.937 7.21zm11.422-.02c-3.463 5.998 5.197 10.998 8.66 5 3.096-5.363 1.276-12.21 1.276-12.21s-6.84 1.847-9.936 7.21z" fill="#000"/></svg>