<!-- by TradingView --><svg width="56" height="56" xmlns="http://www.w3.org/2000/svg"><path fill="#388E3C" d="M0 0h56v56H0z"/><path d="M19.044 28.91c-.698-14.218 7.093-17.126 11.291-16.898 4.822.262 7.148 4.495 6.581 6.913-3.576 7.847-1.272 12.455 0 16.368.38 5.105-2.426 7.657-5.115 8.43-3.842 1.108-12.06-.594-12.757-14.813z" fill="#fff"/><path d="M33.25 20.565a1.5 1.5 0 01.725 1.994c-.64 1.37-.958 3.26-.877 5.19.081 1.935.555 3.716 1.31 4.907a1.5 1.5 0 01-2.535 1.605c-1.123-1.773-1.677-4.117-1.772-6.387-.096-2.277.262-4.672 1.156-6.585a1.5 1.5 0 011.994-.724z" fill="#388E3C"/></svg>