<!-- by TradingView --><svg width="56" height="56" viewBox="0 0 56 56" xmlns="http://www.w3.org/2000/svg"><path fill="#511732" d="M0 0h56v56H0z"/><path d="M8 36h11v-2.5h-6.59v-.22l3.22-3.2C18.3 27.61 19 26.37 19 24.5c0-2.64-2.07-4.5-5.32-4.5C10.43 20 8 21.93 8 24.84V25h2.99v-.17c.05-1.4 1.07-2.33 2.65-2.33 1.36 0 2.35.92 2.36 2.18v.02c0 1.08-.38 1.84-2.36 3.7L8 33.51V36ZM42 36c3.9 0 6-3.08 6-8 0-4.91-2.1-8-6-8s-6 3.08-6 8 2.1 8 6 8Zm0-2.5c-1.92 0-3-2.1-3-5.5s1.08-5.5 3-5.5 3 2.1 3 5.5-1.08 5.5-3 5.5ZM27.9 36c3.61 0 6.1-2.16 6.1-5.41a4.96 4.96 0 0 0-5.15-5.09c-1.6 0-2.9.68-3.55 1.72h-.07l.39-4.72H33V20H23l-.73 9.5h2.87c.19-.32.44-.74.76-.98.53-.42 1.3-.52 2.1-.52 1.7 0 3 1.03 3 2.59a2.88 2.88 0 0 1-3 2.91c-1.52 0-2.72-.83-2.95-2H22c.2 2.6 2.48 4.5 5.9 4.5Z" fill="#fff"/></svg>