<!-- by TradingView --><svg width="56" height="56" viewBox="0 0 56 56" xmlns="http://www.w3.org/2000/svg"><path fill="#F0F3FA" d="M0 0h56v56H0z"/><path fill-rule="evenodd" d="M10.73 33H8l4.33-16h2.87l4.32 16h-2.69l-.96-4h-4.2l-.94 4Zm3.03-12.81L15.39 27h-3.24l1.6-6.81ZM20 22h6v2h-2v9h-2v-9h-2v-2Zm9 0h-2v11h5v-2h-3v-9Zm5.64 11h-2.16l3.56-11h2.35l3.63 11h-2.28l-.57-2h-3.95l-.58 2Zm2.55-8.84L38.6 29h-2.8l1.4-4.84Zm5.6 5.76-1.19 1.5A3.37 3.37 0 0 0 44.61 33c1.55 0 3.39-.53 3.39-2.9 0-2.25-1.7-3.14-2.74-3.68l-.18-.1c-1-.53-1.27-1.18-1.27-1.48 0-.3.12-1.05 1.16-1.05.83 0 1.37.56 1.54.85l1.13-1.32a3.23 3.23 0 0 0-2.7-1.32c-3.5 0-3.5 3.92-2.56 4.75.73.66 1.48 1.16 2.28 1.7l.66.44c1.08.59.87 2.32-.61 2.32a2 2 0 0 1-1.91-1.29ZM8 37v-3h40v3H8Zm1-2h3.32v1H9v-1Zm17.25 0h3.32v1h-3.32v-1ZM21 35h-3.29v1H21v-1Zm13.97 0h3.32v1h-3.32v-1Zm-18.24 0H13.4v1h3.32v-1Zm13.93 0H34v1h-3.34v-1Zm-5.34 0H22v1h3.32v-1Zm14.05 0h3.32v1h-3.32v-1ZM47 35h-3.32v1H47v-1Z" fill="#22356F"/></svg>