<!-- by TradingView --><svg width="56" height="56" viewBox="0 0 56 56" xmlns="http://www.w3.org/2000/svg"><path fill="#F0F3FA" d="M0 0h56v56H0z"/><path d="M28 25h4v12h-4V25Z" fill="#252F7F"/><path d="M34 25h4v12h-4V25ZM44 25h4v12h-4V25Z" fill="#0C99D6"/><path d="M37 29h8v4h-8v-4Z" fill="#0C99D6"/><path d="M29 23.28 26 18v1.95c-.05 4.26-1.36 14.23-13 17.04 0 0 10.42.94 14-13.71h2Z" fill="#252F7F"/><path d="M23.41 31.94 26 37v-8.87a16.18 16.18 0 0 1-2.59 3.81Zm-1.1-2.16L19 23.32 12 37H7l10-20h4l3.9 7.8a11.66 11.66 0 0 1-2.6 4.98Z" fill="#0C99D6"/></svg>