<!-- by TradingView --><svg width="56" height="56" viewBox="0 0 56 56" xmlns="http://www.w3.org/2000/svg"><path fill="#F0F3FA" d="M0 0h56v56H0z"/><path d="M16 43h3.48l3.34-9.27L28 36.17v-2.93l-4.3-1.96L28 19.35V17h-2.43L16 43Z" fill="url(#ahlgrt1e1)"/><path d="M40 43h-3.48l-3.34-9.27L28 36.17v-2.93l4.3-1.96L28 19.35V17h2.43L40 43Z" fill="url(#bhlgrt1e1)"/><path fill-rule="evenodd" d="M28 16a3 3 0 1 0 0-6 3 3 0 0 0 0 6Zm0-1.43a1.57 1.57 0 1 0 0-3.14 1.57 1.57 0 0 0 0 3.14Z" fill="#D97C41"/><defs><linearGradient id="ahlgrt1e1" x1="22" y1="17" x2="22" y2="43" gradientUnits="userSpaceOnUse"><stop stop-color="#B2AB98"/><stop offset=".84" stop-color="#453325"/></linearGradient><linearGradient id="bhlgrt1e1" x1="24.63" y1="20.47" x2="35.71" y2="44.02" gradientUnits="userSpaceOnUse"><stop stop-color="#ACA88D"/><stop offset="1" stop-color="#372A21"/></linearGradient></defs></svg>