<!-- by TradingView --><svg width="18" height="18" viewBox="0 0 18 18" xmlns="http://www.w3.org/2000/svg"><path fill="#F0F3FA" d="M0 0h18v18H0z"/><path d="M10 5.5v7h1.43v-2.33h2.86V8.6h-2.86V7.06H15V5.5h-5Z" fill="#C8D32D"/><path d="M7.5 10.39c0 .52-.46.71-1.14.71H4.5V9.7h1.8c.8 0 1.2.2 1.2.67v.02Zm-.44-2.8c0 .52-.43.71-1.12.71H4.5V6.9h1.55c.65 0 1.01.21 1.01.67v.02Zm.62 1.25c.5-.28.77-.72.77-1.51v-.02c0-.48-.16-.87-.48-1.19-.4-.4-.89-.62-1.7-.62H3v7h3.36c1.6 0 2.64-.64 2.64-1.92v-.02c0-.94-.5-1.41-1.32-1.72Z" fill="#00529F"/></svg>