<!-- by TradingView --><svg width="56" height="56" viewBox="0 0 56 56" fill="none" xmlns="http://www.w3.org/2000/svg">
<rect width="56" height="56" fill="#004071"/>
<path d="M11.1463 24.094L8.64293 28.8366C8.61861 28.8847 8.58446 28.9213 8.54049 28.9464L7.05534 29.8346C6.9805 29.8796 6.96365 29.8608 7.00482 29.7782L10.3955 23.1019C10.4108 23.071 10.4334 23.0452 10.4608 23.0273C10.4882 23.0094 10.5194 22.9999 10.5513 23H12.2789C12.3019 23.0001 12.3244 23.0069 12.3442 23.0199C12.3639 23.0328 12.3801 23.0514 12.3912 23.0737L14.4738 27.2005C14.4783 27.2096 14.4807 27.2197 14.4807 27.2301C14.4808 27.2404 14.4786 27.2506 14.4743 27.2598C14.47 27.269 14.4637 27.2768 14.456 27.2826C14.4484 27.2884 14.4395 27.292 14.4303 27.293H13.4741C13.4515 27.2953 13.4289 27.2904 13.409 27.2787C13.389 27.267 13.3726 27.2491 13.3618 27.2272L11.7077 24.0784C11.6843 24.0313 11.6483 24 11.5996 24H11.2796C11.2207 24 11.1763 24.0366 11.1463 24.094Z" fill="#F5821F"/>
<path d="M29.0038 32.9288C26.6566 30.4734 23.8931 28.9645 20.7134 28.4022L19.0909 28.2093C19.0329 28.2009 19.0039 28.2297 19.0039 28.2955V32.9169C19.0039 32.9723 18.9791 33 18.9295 33H18.0968C18.0267 33 18 32.9608 18 32.8824V28.261C18 28.2067 17.9672 28.1795 17.9186 28.1795C17.0308 28.1837 16.0751 28.2793 15.2041 28.4664C15.1499 28.4779 15.1363 28.5103 15.1635 28.5637L17.3189 32.841C17.3427 32.886 17.3116 33.0005 17.2543 33H16.2883C16.2274 33 16.1821 32.9366 16.1521 32.877L14.1525 28.8553C14.1235 28.7988 14.0809 28.7795 14.0248 28.7973C11.5167 29.5771 9.16404 30.9448 7.24344 32.9006C7.20789 32.9361 7.16673 32.9554 7.11996 32.9586L6.54883 32.9993C9.43113 29.8844 12.8822 28.1225 16.9021 27.7138L17.9032 27.6684C17.9621 27.6652 18 27.6302 18 27.5633V23.0931C18 23.044 18.0136 23.001 18.0575 23H25.9749C27.228 23.0329 27.9402 23.8347 28.1071 25.2192C28.2096 26.0675 28.2489 27.3752 27.769 28.0337C27.2231 28.7847 26.1566 28.6609 25.361 28.6609C24.5821 28.6609 23.8188 28.294 23.0736 28.0494C22.9904 28.0222 22.9918 28.007 23.0779 28.0039H26.0348C27.1756 27.9976 27.1968 25.9405 27.0045 25.1142C26.7912 24.1954 25.8279 24.0094 25.0448 24H19.0754C19.0277 24 19.0039 24.0345 19.0039 24.0868V27.6025C19.0039 27.6684 19.0333 27.7039 19.0923 27.7091C23.1 28.0708 26.659 29.7872 29.5609 32.8582C29.6021 32.9011 29.5955 32.9298 29.5413 32.9445C29.3523 32.9967 29.1732 32.9915 29.0038 32.9288Z" fill="#F5821F"/>
<path d="M30.7355 24.3479C29.6744 24.6506 30.0828 29.5629 30.1778 30.684C30.2565 31.6091 30.6473 31.8364 31.4234 31.9054C33.1531 32.0591 35.1779 32.0481 37.0324 31.8725C38.0935 31.7737 37.9755 30.6023 37.9945 29.6647C37.9954 29.5925 38.0275 29.5565 38.0908 29.5565L38.9143 29.5565C38.9704 29.5565 38.9989 29.5889 38.9998 29.6537C39.0052 31.0883 38.9197 32.6594 37.5492 32.8162C35.4532 33.0556 33.2677 33.0592 30.9925 32.8272C29.916 32.7164 29.3032 32.0563 29.1539 30.8469C28.9567 29.2486 28.949 27.4178 29.1308 25.3544C29.2733 23.7363 29.9708 23.291 31.3128 23.1483C33.2134 22.9445 35.1565 22.9507 37.1421 23.1671C38.7705 23.3443 38.9987 24.6504 38.996 26.2168C38.996 26.2743 38.9711 26.303 38.9214 26.303H38.09C38.0321 26.303 38.0018 26.2696 37.9991 26.2027C37.9774 25.5175 38.0832 24.5581 37.3437 24.315C37.0804 24.2285 36.5028 24.1117 35.98 24.0845C34.4982 24.0077 32.2579 23.9136 30.7355 24.3479Z" fill="#F5821F"/>
<path d="M49.07 23H49.9268C49.9462 23 49.9648 23.0083 49.9785 23.0231C49.9922 23.0378 49.9999 23.0579 49.9999 23.0787L49.9955 32.9213C49.9955 32.9421 49.9878 32.9622 49.9741 32.9769C49.9604 32.9917 49.9418 33 49.9224 33H49.0729C49.0536 33 49.035 32.9917 49.0213 32.9769C49.0076 32.9622 48.9999 32.9421 48.9999 32.9213L49.0072 28.0748C49.0072 28.054 48.9995 28.0339 48.9858 28.0192C48.9721 28.0044 48.9535 27.9961 48.9341 27.9961H41.069C41.0496 27.9961 41.0311 28.0044 41.0174 28.0192C41.0037 28.0339 40.996 28.054 40.996 28.0748V32.9213C40.996 32.9421 40.9883 32.9622 40.9746 32.9769C40.9608 32.9917 40.9423 33 40.9229 33H40.0726C40.0532 33 40.0346 32.9917 40.0209 32.9769C40.0072 32.9622 39.9995 32.9421 39.9995 32.9213V23.0787C39.9995 23.0579 40.0072 23.0378 40.0209 23.0231C40.0346 23.0083 40.0532 23 40.0726 23H40.9229C40.9423 23 40.9608 23.0083 40.9746 23.0231C40.9883 23.0378 40.996 23.0579 40.996 23.0787V26.9254C40.996 26.9463 41.0037 26.9663 41.0174 26.9811C41.0311 26.9959 41.0496 27.0042 41.069 27.0042H48.9122C48.9316 27.0042 48.9501 26.9959 48.9638 26.9811C48.9775 26.9663 48.9852 26.9463 48.9852 26.9254L48.9969 23.0787C48.9969 23.0579 49.0046 23.0378 49.0183 23.0231C49.032 23.0083 49.0506 23 49.07 23Z" fill="#F5821F"/>
<path d="M16.9021 27.7141C12.8823 28.1228 9.43117 29.8847 6.54887 32.9996L4.04405 32.9542C4.03497 32.9537 4.02623 32.9502 4.0189 32.9442C4.01158 32.9382 4.006 32.9299 4.00286 32.9204C3.99971 32.9109 3.99915 32.9005 4.00124 32.8906C4.00332 32.8807 4.00796 32.8718 4.01458 32.8648C7.61909 29.1112 11.9149 27.3943 16.9021 27.7141Z" fill="#24C3F3"/>
<path d="M20.7134 28.4025C23.8935 28.9648 26.6573 30.4737 29.0048 32.9291L27.1032 32.9573C27.0564 32.9573 27.0166 32.9396 26.9839 32.904C26.037 31.8754 25.0743 31.0068 24.0956 30.2981C23.0964 29.5737 21.969 28.9418 20.7134 28.4025Z" fill="#0086C3"/>
</svg>
