<!-- by TradingView --><svg width="56" height="56" viewBox="0 0 56 56" xmlns="http://www.w3.org/2000/svg"><path fill="#003340" d="M0 0h56v56H0z"/><path d="m8 37 20.09-24L48 37h-2.95a9.25 9.25 0 0 0-2.1-2.48 13.75 13.75 0 0 1-2.72-3.08.5.5 0 0 0-.09-.1 91.75 91.75 0 0 0-2.52-1.5l-.05-.01v-.03.02l-.12-.07-.17.13c-.23.18-.8.7-1.25 1.39-.36.55-1.25 1.78-1.83 2.58-.42-.75-1-1.72-1.64-2.61-.37-.54-.77-1.06-1.16-1.47a3.82 3.82 0 0 0-1.17-.92 5.25 5.25 0 0 1-1.73-1.48c-.54-.65-.98-1.34-1.22-1.77l-.04-.07-2.05-1.37-.17.26a57.87 57.87 0 0 1-4.07 5.52c-.47.44-.9.77-1.23.93-1.42.64-6.19 4.35-8.4 6.13H8Z" fill="#CAC6A9"/><path d="M25 25.14v7.82l1.94 2.36L30 32.96V36l1.82 1 2.1-2.38-.04-.06c-.4-.76-1.08-1.94-1.82-2.99-.37-.52-.75-1.01-1.12-1.4-.37-.4-.7-.66-.96-.77-.71-.3-1.4-.98-1.96-1.65-.54-.65-.99-1.34-1.25-1.8l-1.4-.94c-.03.04-.34.09-.37.13ZM38 30.52v5.2L39.4 37h4.94a8.89 8.89 0 0 0-1.79-2.03 14.35 14.35 0 0 1-2.85-3.2 26.94 26.94 0 0 0-.87-.53c-.41-.24-.45-.51-.83-.72Z" fill="#CAC6A9"/></svg>