<!-- by TradingView --><svg width="56" height="56" viewBox="0 0 56 56" xmlns="http://www.w3.org/2000/svg"><path fill="#D1005C" d="M0 0h56v56H0z"/><path d="m28.81 34.85-6.6-14.76c-2.04-4.53-4.93-6.38-7.22-6.9-1.02-.34-3.99-.11-3.99-.11s2.23.1 3.46 1c1.72 1.06 2.79 3.57 2.3 6.95l-2.08 14.75-.84 5.22h3s.2-2.71.47-4.75l2-14.38 6.66 15.08c.84 1.88 1.33 2.78 3.09 4.05l7.85-19.17 2 16.13c.11 1.14.2 3.04.2 3.04H43l-.55-3.95-2.32-16.42c-.07-.77-.16-2.63-.16-2.63h-4.81c0 .7-.25 1.96-.53 2.66L28.8 34.85Z" fill="#fff"/></svg>