<!-- by TradingView --><svg width="56" height="56" viewBox="0 0 56 56" xmlns="http://www.w3.org/2000/svg"><path fill="#F0F3FA" d="M0 0h56v56H0z"/><path d="M18 16c-1.3 3-2.42 7.86-.5 10.38.57.75 1.24 1.52 1.95 2.33 3.05 3.46 6.77 7.67 5.55 14.49-2.5-2.64-7.9-8.9-9.5-12.86.27 3.18 1.91 9.36 6.29 13.1A15.83 15.83 0 0 1 12 28.86c0-5.01 2.33-9.96 6-12.86Z" fill="url(#ahprabzjf)"/><path d="M37 16c3.33 6.29 1.02 10.37-3.5 14.83-4.2 4.16-4.17 9.9-3.5 12.37 0-.58.52-1 1.45-1.73.66-.52 1.52-1.2 2.55-2.23 2-1.98 4.5-6.76 5.5-8.9A23.03 23.03 0 0 1 32.66 44C39.22 42.03 44 36 44 28.86c0-5.55-2.64-10.03-7-12.86Z" fill="url(#bhprabzjf)"/><circle cx="28" cy="20" r="8" fill="url(#chprabzjf)"/><circle cx="28" cy="19" r="6" fill="url(#dhprabzjf)"/><defs><linearGradient id="ahprabzjf" x1="28" y1="15.61" x2="28" y2="44" gradientUnits="userSpaceOnUse"><stop stop-color="#0E7229"/><stop offset=".42" stop-color="#789E8F"/><stop offset=".65" stop-color="#0D722C"/><stop offset="1" stop-color="#067528"/></linearGradient><linearGradient id="bhprabzjf" x1="28" y1="15.61" x2="28" y2="44" gradientUnits="userSpaceOnUse"><stop stop-color="#0E7229"/><stop offset=".42" stop-color="#789E8F"/><stop offset=".65" stop-color="#0D722C"/><stop offset="1" stop-color="#067528"/></linearGradient><linearGradient id="chprabzjf" x1="28" y1="12" x2="28" y2="28" gradientUnits="userSpaceOnUse"><stop stop-color="#4454A1"/><stop offset=".5" stop-color="#455DA5"/><stop offset="1" stop-color="#B1E2F3"/></linearGradient><linearGradient id="dhprabzjf" x1="28" y1="13" x2="28" y2="25" gradientUnits="userSpaceOnUse"><stop stop-color="#7888BB"/><stop offset=".51" stop-color="#4E6AAB"/><stop offset="1" stop-color="#87C3DF"/></linearGradient></defs></svg>