<!-- by TradingView --><svg width="56" height="56" viewBox="0 0 56 56" xmlns="http://www.w3.org/2000/svg"><path fill="#F0F3FA" d="M0 0h56v56H0z"/><path fill-rule="evenodd" d="M13 20.55V36.9L28.45 46 43 36.9V20.56l-8.18-7.28-2.27 1.82L28.5 11l-5.05 4.55-2.95-2.05-7.5 7.05ZM27 18v-2.9l1.5-.46V11.9L23.9 16l3.1 2Zm-12.5 2 4.86-1h4.1l2.04-1-5-3.5-6 5.5ZM28 23l.59 2h1.91l-1.55 1.59.6 1.91L28 27.32l-1.55 1.18.6-1.91L25.5 25h1.91l.59-2Zm-7.73 3.9c-1.45 1.46-2.42 3.95-2.72 5 .36-1.08 2.57-3.48 3.63-4.54l5 5L27.55 31 23 26c.36-.73 2.58-2.73 3.64-3.64-1.46.37-3.64 1.97-4.55 2.73-.3 0-1 .1-1.36.46-.37.36-.46 1.06-.46 1.36Zm13.64-1.8c-1.36-1.37-3.64-2.28-5.46-2.74 1.82.91 3.8 2.28 5 3.64L23 37.36l.9.91 10.92-10.9c1.09.36 2.88 2.87 3.63 4.08 0-1.81-1.81-4.09-2.72-5l.01-.17c.04-.28.09-.63-.47-1.19-.36-.36-1.06-.15-1.36 0Zm-5.46 9.54.91-.91 4.1 3.63-.91.91-4.1-3.63Z" fill="#1D2D59"/></svg>