<!-- by TradingView --><svg width="56" height="56" viewBox="0 0 56 56" xmlns="http://www.w3.org/2000/svg"><path fill="url(#adlh4dwoq)" d="M0 0h56v56H0z"/><path d="M33 29h-4v-3c0-1.2 1.5-2 2.5-2H40c2.4 0 3 1.33 3 2v4.5c0 1.7-1 2.5-5 2.5h-4c-.8 0-1 .33-1 .5v.5h10v3H29v-5c0-2 3.33-2.5 5-2.5h3.5c1.2 0 1.5-.67 1.5-1V28c0-.8-.67-1-1-1h-4c-.8 0-1 .67-1 1v1Z" fill="#025EDB"/><path d="M33 34.3a.3.3 0 0 1-.3-.3v-.5c0-.42.44-.8 1.3-.8h4c2 0 3.18-.2 3.86-.57.32-.18.53-.4.65-.65.13-.26.19-.58.19-.98V26c0-.25-.12-.67-.5-1.03-.39-.35-1.06-.67-2.2-.67h-8.5c-.43 0-1 .18-1.45.5-.46.31-.75.73-.75 1.2v2.7h3.4V28c0-.21.06-.53.26-.8.2-.29.54-.5 1.04-.5h4c.21 0 .53.06.8.26.29.2.5.54.5 1.04v.5c0 .25-.1.58-.4.85-.29.27-.74.45-1.4.45H34c-.81 0-2.03.12-3.02.48-1.02.37-1.68.93-1.68 1.72v4.7h13.4v-2.4H33Zm10-.3v3H29v-5c0-2 3.33-2.5 5-2.5h3.5c1.2 0 1.5-.67 1.5-1V28c0-.8-.67-1-1-1h-4c-.8 0-1 .67-1 1v1h-4v-3c0-1.2 1.5-2 2.5-2H40c2.4 0 3 1.33 3 2v4.5c0 1.7-1 2.5-5 2.5h-4c-.8 0-1 .33-1 .5v.5h10Z" fill="url(#bdlh4dwoq)"/><path fill-rule="evenodd" d="M17 18h-4v19h4v-.55c.56.42 1.46.55 2 .55h5c3.2 0 4-2 4-3v-7c0-2.4-2.33-3-4-3h-5c-.82 0-1.53.77-2 1.53V18Zm0 12v1c0 1.5 1 2 2 2h3c1 0 2-.5 2-2v-1c0-1.54-.8-2-2-2h-3c-1 0-2 1-2 2Z" fill="#025EDB"/><path fill-rule="evenodd" d="M17 18h-4v19h4v-.55l.3.19c.54.27 1.25.36 1.7.36h5c3.2 0 4-2 4-3v-7c0-2.4-2.33-3-4-3h-5c-.66 0-1.25.5-1.7 1.1l-.3.43V18Zm-.3 18.7v-.25a.3.3 0 0 1 .48-.24c.23.18.55.3.9.38.33.08.67.11.92.11h5c1.53 0 2.45-.48 2.98-1.03A2.5 2.5 0 0 0 27.7 34v-7a2.3 2.3 0 0 0-1.22-2.14A5.18 5.18 0 0 0 24 24.3h-5c-.31 0-.63.15-.93.4-.31.27-.59.62-.82.99a.3.3 0 0 1-.55-.16V18.3h-3.4v18.4h3.4Zm0-5.7v-1c0-.6.3-1.17.71-1.59A2.3 2.3 0 0 1 19 27.7h3c.63 0 1.22.12 1.65.5.44.38.65.98.65 1.8v1c0 .82-.28 1.41-.73 1.8-.45.36-1.03.5-1.57.5h-3c-.54 0-1.12-.14-1.57-.5-.45-.39-.73-.98-.73-1.8Zm.3 0v-1c0-1 1-2 2-2h3c1.2 0 2 .46 2 2v1c0 1.5-1 2-2 2h-3c-1 0-2-.5-2-2Z" fill="url(#cdlh4dwoq)"/><defs><linearGradient id="adlh4dwoq" x1="10.42" y1="9.71" x2="68.15" y2="76.02" gradientUnits="userSpaceOnUse"><stop stop-color="#1A1E21"/><stop offset="1" stop-color="#06060A"/></linearGradient><linearGradient id="bdlh4dwoq" x1="31" y1="24" x2="41" y2="37" gradientUnits="userSpaceOnUse"><stop stop-color="#3B3E41"/><stop offset=".25" stop-color="#D3E5E5"/><stop offset=".44" stop-color="#3B3E41"/><stop offset=".71" stop-color="#D3ECF4"/><stop offset=".86" stop-color="#6D6C5E"/><stop offset="1" stop-color="#E1E4E4"/></linearGradient><linearGradient id="cdlh4dwoq" x1="20.5" y1="19" x2="20.5" y2="37" gradientUnits="userSpaceOnUse"><stop stop-color="#373A3C"/><stop offset=".42" stop-color="#EBFFFF"/><stop offset=".66" stop-color="#686657"/><stop offset=".81" stop-color="#DDF8FF"/><stop offset=".9" stop-color="#3B3E41"/><stop offset="1" stop-color="#E3E6E6"/></linearGradient></defs></svg>