<!-- by TradingView --><svg width="56" height="56" viewBox="0 0 56 56" xmlns="http://www.w3.org/2000/svg"><path fill="#F0F3FA" d="M0 0h56v56H0z"/><path fill-rule="evenodd" d="M28 45a17 17 0 1 0 0-34 17 17 0 0 0 0 34Zm0-3a14 14 0 1 0 0-28 14 14 0 0 0 0 28Z" fill="#051443"/><path d="M17 21.45 22.9 19 30 38.55 24.1 41 17 21.45Z" fill="#051443"/><path d="m24 18.39 5.18-2.06A4.7 4.7 0 0 1 31 16a5.17 5.17 0 0 1 5 5.18 5.45 5.45 0 0 1-1.7 3.7 5.41 5.41 0 0 1 5.35 3.66 5.76 5.76 0 0 1-3.15 7.31L31.1 38l-1.52-4.2 2.77-1.1c.77-.3 1.64-1.27 1.66-2.07.02-1.1-.87-2.13-2.01-2.1-.21.02-.42.06-.63.14l-3.17 1.31-1.38-3.82 1.97-.83c.73-.3 1.2-1 1.22-1.78.01-.25-.03-.52-.12-.77A1.89 1.89 0 0 0 28 21.5c-.19.01-.38.05-.57.13l-1.97.83L24 18.39Z" fill="#035DAA"/></svg>