<!-- by TradingView --><svg width="56" height="56" viewBox="0 0 56 56" xmlns="http://www.w3.org/2000/svg"><path fill="#F0F3FA" d="M0 0h56v56H0z"/><path d="M28.69 15C36.46 15.1 43 21.25 43 29h-4c0-5.31-4.73-10-10.42-10C21.88 19 18 24.1 18 29.53 18 35.26 22.19 40 28 40v4c-7.94 0-14-6.64-14-14.5V15h14.69Zm12 19.14A4.22 4.22 0 0 1 40 38.5a4.3 4.3 0 0 1 0-5.5c.27.35.5.73.68 1.14Zm-6.55 5.17a4.22 4.22 0 0 1 4.36.68 4.3 4.3 0 0 1-5.5 0 4.7 4.7 0 0 1 1.14-.68Zm3.26-4.05-.32-.34A6.57 6.57 0 0 0 33 33a6.63 6.63 0 0 0 6 6 6.63 6.63 0 0 0-1.6-3.73Z" fill="#3BD2D2"/></svg>