<!-- by TradingView --><svg width="56" height="56" viewBox="0 0 56 56" xmlns="http://www.w3.org/2000/svg"><path fill="#F0F3FA" d="M0 0h56v56H0z"/><path d="m23.49 34 5.77-8.02 5.05-1.38 7.35-6.6 2.87 1.09 1.69 3.2 1.68-.95L50 27.5V34H23.49Zm-.73 1-.72 1H50v-1H22.76Z" fill="#20AA4D"/><path d="M23 33.29a2.05 2.05 0 0 0-1.76-.05l-.66.3c-.1.03-.21.03-.31 0l-.82-.37a2.07 2.07 0 0 0-1.56-.04l-1.12.42c-.09.04-.2.04-.28 0l-.84-.37a2.07 2.07 0 0 0-1.6-.02l-.97.39c-.1.04-.2.04-.3 0l-.87-.37a2.07 2.07 0 0 0-1.65.02l-.73.33c-.1.04-.2.05-.3 0l-.83-.34a2.07 2.07 0 0 0-1.72.05L6 33.6v1.36l1.43-.49c.1-.04.21-.05.32 0l.82.34c.53.23 1.14.22 1.66-.02l.72-.33c.1-.04.21-.05.3 0l.89.37c.5.2 1.07.21 1.57 0l.97-.38c.09-.04.2-.04.3 0l.83.37c.5.21 1.06.23 1.56.04l1.12-.42c.09-.04.2-.04.28 0l.83.36c.52.23 1.13.23 1.65 0l.67-.29c.09-.04.2-.04.28 0l.8-1.23Z" fill="#21368B" fill-opacity=".5"/><path d="m12.5 23.05.07-.69H13c-.02 1.17 0 2.47 0 3.64h-.41c-.08-1.37-.74-3.32-2.41-3.32C8.68 22.68 8 24.08 8 27c0 2.73.74 4 2.26 4 1.2 0 2-.6 2.26-2.01H13C12.75 30.97 11.68 32 9.87 32 7.23 32 6 29.44 6 27.11 6 24.71 7.25 22 10 22c.89 0 1.9.36 2.5 1.05ZM15.08 23.22 14.45 25h1.23l-.6-1.78Zm.1-1.22h.63l1.63 4.33c.1.26.28.34.56.35V27h-2.31v-.32c.16-.01.49 0 .49-.24v-.1l-.02-.04-.36-.96h-1.46l-.31.8-.01.02c-.05.13-.07.23-.07.29 0 .15.08.21.43.23V27H13v-.32c.3-.01.43-.11.54-.39L15.19 22ZM18.14 22h4.72l.14 1.38h-.3c-.05-.41-.15-.69-.3-.83-.13-.14-.38-.21-.74-.21H21v3.73c0 .48.21.6.69.6h.07V27h-2.53v-.33h.07c.47 0 .7-.12.7-.6v-3.73h-.66c-.35 0-.6.07-.74.21-.15.14-.25.42-.3.83H18l.14-1.38ZM27.43 22h2.13v.32c-.44.01-.56.16-.56.61v1.64c.48-.51 1-.96 1.3-1.35.32-.4.47-.64.47-.73 0-.06-.03-.1-.08-.13a.83.83 0 0 0-.3-.04h-.11V22H32v.31h-.1c-.26 0-.72.3-1.19.91-.22.3-.41.53-.56.7l1.63 2.39c.15.21.35.36.6.36h.05V27h-2.09v-.33c.1 0 .18-.01.23-.03.05-.03.07-.06.07-.1a.37.37 0 0 0-.06-.2l-.02-.02-1.23-1.64-.33.3v1.09c0 .46.12.6.56.6V27h-2.13v-.33c.44 0 .57-.14.57-.6v-3.14c0-.45-.13-.6-.57-.6V22ZM32.5 22h2v.33c-.39 0-.5.13-.5.6v3.14c0 .46.11.6.5.6V27h-2v-.33c.39 0 .5-.14.5-.6v-3.14c0-.46-.11-.6-.5-.6V22ZM35.31 22h2.47v.32h-.07c-.54 0-.71.15-.71.6v3.66h1.2c.93 0 1.34-.39 1.44-1.3H40a19.93 19.93 0 0 1-.19 1.72h-4.5v-.32c.48 0 .69-.13.69-.63v-3.12c0-.46-.16-.6-.69-.6V22ZM40.31 22h2.47v.32h-.07c-.54 0-.71.15-.71.6v3.66h1.2c.93 0 1.34-.39 1.44-1.3H45a19.93 19.93 0 0 1-.19 1.72h-4.5v-.32c.48 0 .69-.13.69-.63v-3.12c0-.46-.16-.6-.69-.6V22Z" fill="#21368B"/><path d="M9 28h3.9v.58c-.63.03-.9.15-.9.93V32h3v-2.32c0-.82-.2-1.08-.9-1.1V28H18v.59c-.71 0-1 .27-1 1.09v5.64c0 .83.28 1.1 1 1.1V37h-3.9v-.59c.71 0 .9-.26.9-1.09V33h-3v2.38c0 .86.19 1.02.9 1.03V37H9v-.59c.68-.01 1-.23 1-1.04V29.5c0-.78-.37-.89-1-.9V28ZM18.42 28h2.16v.32c-.46 0-.58.15-.58.6v2.22c0 .84.46 1.36 1.35 1.36.93 0 1.28-.6 1.28-1.47v-2.06c0-.47-.1-.65-.58-.65V28h1.42v.32c-.4 0-.47.19-.47.57v1.71c0 1.37-.42 2.4-2.01 2.4-1.34 0-1.99-.71-1.99-2v-2.08c0-.45-.12-.59-.58-.6V28ZM26 28.34v4.33h.53c1.3 0 1.47-.98 1.47-2.18 0-1.25-.23-2.15-1.54-2.15H26ZM24.42 28h2.38c1.48 0 2.62.93 2.62 2.51 0 1.6-1.07 2.49-2.58 2.49h-2.42v-.33c.25 0 .41-.03.48-.1s.1-.24.1-.5v-3.14c0-.26-.03-.43-.1-.5-.07-.06-.23-.1-.48-.1V28ZM34.4 28.41l.07-.29h.27v1.46h-.3c-.07-.78-.57-1.24-1.32-1.24-.56 0-1.12.3-1.12.76 0 .57.82.73 1.26.88.8.27 1.74.59 1.74 1.57C35 32.6 33.9 33 33 33c-.58 0-1.19-.16-1.65-.53l-.09.37H31v-1.66h.3c.07.86.75 1.5 1.6 1.5.56 0 1.1-.29 1.1-.75 0-.53-.7-.71-1.12-.86l-.26-.08c-.46-.16-.8-.3-1-.44-.43-.27-.62-.58-.62-1.05 0-1.07 1.05-1.5 1.96-1.5.55 0 1.04.14 1.45.41ZM26.4 22.41l.07-.29h.27v1.46h-.3c-.07-.78-.57-1.24-1.32-1.24-.56 0-1.12.3-1.12.76 0 .57.82.73 1.26.88.8.27 1.74.59 1.74 1.57C27 26.6 25.9 27 25 27c-.58 0-1.19-.16-1.65-.53l-.09.37H23v-1.66h.3c.07.86.75 1.5 1.6 1.5.56 0 1.1-.29 1.1-.75 0-.53-.7-.71-1.12-.86l-.26-.08c-.46-.16-.8-.3-1-.44-.43-.27-.62-.58-.62-1.05 0-1.07 1.05-1.5 1.96-1.5.55 0 1.04.14 1.45.41ZM38.49 28.33c-1.07 0-1.49 1.36-1.49 2.17 0 .84.43 2.17 1.52 2.17 1.07 0 1.48-1.36 1.48-2.17 0-.83-.43-2.17-1.51-2.17Zm.02-.33c1.42 0 2.49 1.1 2.49 2.5 0 1.41-1.1 2.5-2.51 2.5A2.45 2.45 0 0 1 36 30.5c0-1.4 1.1-2.5 2.51-2.5ZM42 28h1.66L46 31.47V29c0-.47-.1-.69-.56-.69h-.04V28H47v.32c-.47 0-.56.2-.56.68 0 1.33 0 2.67-.02 4l-.58-.05L43 28.82V32c0 .5.1.68.6.68V33H42v-.32c.48 0 .58-.2.58-.68v-3.08c0-.47-.14-.6-.59-.6V28Z" fill="#21368B"/></svg>