<!-- by TradingView --><svg width="56" height="56" viewBox="0 0 56 56" xmlns="http://www.w3.org/2000/svg"><path fill="#F0F3FA" d="M0 0h56v56H0z"/><path d="M21.5 21.63c.07-.04.13-.03.19.01a.1.1 0 0 1 .04.09.1.1 0 0 1-.05.08c-.66.43-.79 1.08-.68 1.8.09.57.08 1.13-.02 1.69-.03.14-.12.21-.27.22-.1 0-.14-.04-.16-.13-.08-.42-.61-.97-1-1.37l-.21-.22c-.26-.27-.6-.41-.98-.38a3.16 3.16 0 0 1-2.08-.62.57.57 0 0 1-.25-.38 10.2 10.2 0 0 1 6.06-11.57c.5-.22 1.03-.43 1.56-.63a.2.2 0 0 0 .1-.07.2.2 0 0 0 .03-.12v-.09c0-.08.04-.13.13-.15a6 6 0 0 1 1.17-.11c.33-.01.66-.02 1-.08 1.2-.2 2.38-.4 3.62-.4a18.46 18.46 0 0 0 2.8-.2.15.15 0 0 1 .1.07l.01.06.03.09c.03.06.08.09.16.09h.06l.07-.01c.36-.03.78-.05 1.07.16.53.4 1.17.65 1.9.76a.3.3 0 0 1 .18.1c.35.38.43.8.51 1.21.07.37.15.74.4 1.1.34.47.34.94.33 1.41 0 .35-.01.7.11 1.04l.1.27c.21.55.54 1.42.48 1.8-.03.17-.09.18-.17.02a7.9 7.9 0 0 1-.33-.7c-.2-.48-.42-.99-.77-1.3a4.4 4.4 0 0 0-1.2-.8 2.52 2.52 0 0 0-.99-.15c-.3-.01-.6-.02-.89-.12a3.2 3.2 0 0 1-1.15-.71c-.14-.13-.3-.23-.49-.3-1-.31-2.13-.68-3.2-.54-.48.06-.98.11-1.48.14-.1 0-.16-.04-.18-.13l-.06-.2a.15.15 0 0 0-.12-.12c-.5-.1-1-.17-1.48-.2-.3-.03-.66.01-1.04.1-.02 0-.02.02-.02.03v.06a.07.07 0 0 0 .07.06c.14 0 .28 0 .4-.03.3-.06.33.01.12.21-.32.3-.75.43-1.3.4a.33.33 0 0 0-.2.07l-.68.46a.36.36 0 0 0-.13.15 3.4 3.4 0 0 0-.07.17c-.1.26-.22.54-.56.57a.4.4 0 0 0-.23.1c-.36.34-.66.81-.9 1.42-.12.3 0 .6.13.9l.04.1a.1.1 0 0 1 0 .07.1.1 0 0 1-.03.06l-.06.03a.05.05 0 0 1-.07-.01.72.72 0 0 0-.34-.33c-.11-.05-.14-.03-.08.09.05.1.11.18.2.25.38.35.54.78.7 1.2.21.57.43 1.14 1.2 1.5.1.04.1.08 0 .13l-.2.12a.31.31 0 0 0-.1.1c-.12.14-.18.32-.2.52 0 .07-.03.13-.08.19-.06.07-.14.14-.22.2-.2.19-.41.38-.45.63-.02.1.02.12.1.07Z" fill="#475659"/><path fill-rule="evenodd" d="M28.18 22.06c.52-.07 1.01.02 1.49.28.1.06.1.1-.03.1-1.1.05-2.17.17-3.2.37-.6.11-1.15.3-1.65.56a.23.23 0 0 0-.13.18.16.16 0 0 0 .03.13.17.17 0 0 0 .13.06 8.4 8.4 0 0 0 .32 0c.34 0 .68 0 1.01.08.42.1.83.09 1.24-.04a.22.22 0 0 1 .19.03c.6.4 1.17.37 1.71-.06a.36.36 0 0 1 .21-.08l.27-.01c.3 0 .54-.01.88-.2.39-.2.87-.4 1.45-.59.55-.17 1.13-.88.5-1.32a3.29 3.29 0 0 0-1.54-.51l-.08-.01h-.04l-.05-.01h-.02c-.51-.07-1.04-.13-1.54-.1-.54.04-1.08.07-1.63.08-.85.02-1.62.29-2.4.56l-.6.2c-.3.1-.52.23-.68.4-.26.28-.2.4.19.33.36-.05.74-.07 1.11-.06.64.02 1.32-.1 1.98-.22l.88-.15Zm.25.86h-.06l-.22.04c-.09 0-.11.06-.07.13.04.09.1.13.2.14.14 0 .21-.05.23-.18a.11.11 0 0 0-.03-.1.12.12 0 0 0-.05-.03Z" fill="#475659"/><path d="M16.66 25.08c-.63.15-.85.6-.65 1.36.05.17.01.32-.11.43a.29.29 0 0 1-.24.07.3.3 0 0 1-.2-.14c-.41-.69-.75-2.03-.08-2.66.64-.6 1.36-.73 2.15-.39.58.25 1.2.9 1.84 1.95.03.05.02.1-.02.13l-.05.04h-.02a.02.02 0 0 1-.01 0c-.33-.48-.93-1.05-1.45-.53-.33.32-.69.6-1.07.85a.2.2 0 0 1-.25-.03.2.2 0 0 1-.05-.22.64.64 0 0 1 .23-.3.27.27 0 0 0 .11-.19.9.9 0 0 0-.03-.32c-.01-.05-.04-.07-.1-.05ZM17.76 27.43l.42.14c.15.05.15.1.01.17-.24.1-.32.3-.24.55.02.09.07.16.14.22a.5.5 0 0 0 .73-.07c.15-.2.17-.42.04-.65a.3.3 0 0 1-.02-.25l.27-.86c.04-.13 0-.2-.14-.22l-.8-.11c-.14-.02-.22.03-.26.15l-.25.73a.15.15 0 0 0 .01.12c.02.03.05.06.1.08ZM20.9 32.7a.13.13 0 0 0-.04.06.27.27 0 0 1-.06.1.3.3 0 0 1-.1.08.32.32 0 0 1-.26 0 9.6 9.6 0 0 1-.95-.44c-.03 0-.06 0-.08.02a.17.17 0 0 0-.06.05A8.4 8.4 0 0 0 21 38.6c.33.48.27.52-.17.13a87.48 87.48 0 0 1-1.74-1.57c-.34-.31-.53-.68-.58-1.12a59.31 59.31 0 0 1-.34-4.4.22.22 0 0 0-.1-.18 5.87 5.87 0 0 1-2.22-2.98 1.39 1.39 0 0 1-.07-.48c0-.12.03-.12.08-.01a7.42 7.42 0 0 0 1.87 2.64c.68.6 1.28.45 2 .02a.22.22 0 0 1 .27.05 28.2 28.2 0 0 1 1.48 2c.19.28.12.35-.19.23a.28.28 0 0 1-.15-.17c-.05-.12-.13-.14-.23-.06Z" fill="#475659"/><path fill-rule="evenodd" d="M31.2 43.3c-.43.14-.82.33-1.2.5-1.03.5-1.97.95-3.3.48a.07.07 0 0 0-.07 0v.01a.07.07 0 0 0-.02.04l-.3 3.04c0 .14-.04.27-.08.4a.32.32 0 0 1-.1.14.34.34 0 0 1-.46-.01c-2.6-2.6-5.11-5.22-6.97-8.31a11.2 11.2 0 0 1-1.61-5.34c-.02-.37.3-.73.55-1.03a11.69 11.69 0 0 0 .12-.15c.08-.1.13-.08.13.05.04.55.06 1.12.07 1.7.02 2.07.89 3.8 2.59 5.17 1.56 1.27 3.3 2.3 5.21 3.12.7.3 2.3.92 2.97.59.06-.03.1-.07.14-.12a.33.33 0 0 0-.1-.47c-.67-.42-1.44-.55-2.22-.67l-.96-.18a9.15 9.15 0 0 1-5.07-3.07c-.3-.36-.26-.39.1-.1.38.3.8.56 1.26.78 2.41 1.16 5 1.5 7.76.99.15-.03.15-.07 0-.12a11.71 11.71 0 0 1-4.13-2.44c-.04-.03-.04-.06 0-.09l.04-.03h.03c2.08 1.46 4.9 2.62 7.49 2.46 3.02-.18 4.12-3.37 4.37-5.8a.08.08 0 0 0-.05-.08h-.05l-.1.01c-1 .12-1.9.24-2.53-.7a.2.2 0 0 0-.2-.08c-.78.1-1.56.04-2.34-.16a.22.22 0 0 0-.2.06c-.8.86-2.86.94-3.78.72a4.21 4.21 0 0 0-2.25.3c-.48.17-.97.3-1.49.38a6.5 6.5 0 0 0-1.8.56.12.12 0 0 1-.03 0 .11.11 0 0 1-.07-.08v-.06c0-.04.02-.07.05-.1.02 0 .03-.02.04-.03l.03-.03.08-.06c.33-.28.65-.54.89-.93.19-.3.37-.5.54-.63.64-.46 1.26-1 1.87-1.64a3.04 3.04 0 0 1 1.83-.9c.37-.08.7-.28 1.04-.49.27-.16.54-.33.84-.43.52-.17 1-.4 1.46-.69a.35.35 0 0 0 .18-.3.74.74 0 0 1 .34-.56c.8-.5 1.58-.27 2.3.23.06.04.12.04.19 0 .73-.4 1.35-.29 1.7.49.16.35.42.7.76 1.03.12.11.25.19.4.24.18.06.36.14.53.24.08.05.14.03.16-.07.25-1.24.42-2.47.49-3.68a4.14 4.14 0 0 0-.92-2.92.13.13 0 0 0-.16.02c-.36.34-1.05.3-1.3-.16-.13-.26-.4-.39-.8-.4-.09 0-.12.04-.12.12.06 1.08.2 2.13.4 3.13.07.33 0 .37-.22.1a.93.93 0 0 1-.09-.34c-.22-1.39-.48-2.69-.75-3.89a.33.33 0 0 1 .02-.22c.33-.61.97-1.38 1.75-1.45 1.01-.1 1.8 0 2.38.25.12.05.17.01.14-.11l-.38-2.21c0-.08.03-.13.1-.15l.08-.02a.07.07 0 0 1 .09.04.07.07 0 0 1 0 .02c.17.93.4 1.83.69 2.7.04.12.1.21.17.3l.14.23c.04.07.04.15.01.22a3.1 3.1 0 0 1-.56.98.18.18 0 0 1-.2-.02 2.23 2.23 0 0 0-1.78-.53c-.33.03-.33.08 0 .14.48.08.93.18 1.36.29.4.1.55.34.48.73l-.02.1c-.1.6-.2 1.16-.19 1.78.04 1.32-.05 2.47-.25 3.46-.13.58-.24 1.2-.34 1.82a.27.27 0 0 0 .1.25c.45.38.92.7 1.41.93.3.15.58.35.83.6l.25.27c.58.6 1.17 1.19 1.37 2.01.11.44-.02.53-.4.25l-.2-.19a1.4 1.4 0 0 0-.4-.3 6.1 6.1 0 0 0-2.95-.55c-.08 0-.12.05-.13.12-.34 2.72-1.2 5.82-4.4 6.39-.05 0-.1.03-.13.06a.26.26 0 0 0-.08.13c-.3 1.18-.46 2.47-.47 3.86 0 .3-.26.5-.54.58a2.2 2.2 0 0 1-1.67-.2.13.13 0 0 1-.06-.17c.08-.16.1-.32.09-.48a.26.26 0 0 0-.11-.19c-.3-.22-.67-.17-1.04-.13l-.34.04c-.15 0-.16-.02-.02-.08l.34-.15c.66-.28 1.3-.56 1.85-1 .32-.24.29-.3-.1-.16ZM34 32.74h-.54c-.12 0-.15-.05-.08-.15a.6.6 0 0 1 .35-.24.2.2 0 0 1 .2.06l.15.17c.09.1.06.16-.08.16Z" fill="#475659"/><path d="M32.14 34.53c.11.04.22.03.24-.02.02-.05-.06-.13-.17-.17-.11-.04-.22-.03-.24.02-.02.05.06.13.17.17ZM31.83 35.02a1.99 1.99 0 0 1-.98-.33.05.05 0 0 0-.04.01v.01a.15.15 0 0 0 .04.2c.19.16.35.34.48.54.35.58 1.34.53 1.97.5l.14-.01c.63-.03 1.1-.56 1.45-1 .1-.15.07-.19-.1-.14a7.2 7.2 0 0 0-.2.07c-.22.07-.43.14-.68.14l-2.08.01Z" fill="#475659"/></svg>