<!-- by TradingView --><svg width="56" height="56" viewBox="0 0 56 56" xmlns="http://www.w3.org/2000/svg"><path fill="#F0F3FA" d="M0 0h56v56H0z"/><path fill="#161616" d="M27 25h1v7h-1z"/><path d="M15 25h4v1h-4v-1Zm5 6v-6h2.5c1.17 0 3.5.7 3.5 3.5S23.67 32 22.5 32H20v-1Zm1 0h1.5c.83 0 2.5-.5 2.5-2.5S23.33 26 22.5 26H21v5Zm-2-3v1h-3v2h3v1h-4v-4h4ZM10 30.82 7.54 25 6 32h.95l.87-3.98L9.5 32h1l1.68-3.98.87 3.98H14l-1.54-7L10 30.82ZM35.59 32 32 24.32 28.41 32h1.2l1.08-2h2.86l.93 2h1.1Zm-2.63-3h-1.92l.96-2.32.97 2.32Z"/><path d="M50 17c-4.87 1.43-12.6 7.35-13 12.95-.1 1.52.51 2.07 2.01 1.99 3.6-.2 8.85-5.67 5-5.67-1.76 0-3.5 1.55-5.5 3.6.5-2.57 2.96-5.66 5.5-5.66 7.14 0 1.03 9.9-5 9.79-2.61-.05-4.18-1.5-4-4.2 0-6.1 8.53-12.05 14.99-12.8Z" fill="url(#ao30uag2k)"/><path d="M37 29.95c.38-5.6 8.13-11.52 13-12.95-2.34.33-7 2-10.5 6-2.01 2.5-2.51 3.5-3.01 5s-1.5 5 2.5 5 6.5-3.5 7-5c.32-.95.5-2.5-2-2.5-1.84 0-4.1 2.54-5.23 4.11 1.89-1.92 3.56-3.34 5.24-3.34 3.85 0-1.41 5.54-5 5.73-1.51.08-2.1-.53-2-2.05Z" fill="url(#bo30uag2k)"/><defs><linearGradient id="ao30uag2k" x1="40.5" y1="21" x2="44.5" y2="31.5" gradientUnits="userSpaceOnUse"><stop stop-color="#F2A7AC"/><stop offset="1" stop-color="#C31D35"/></linearGradient><linearGradient id="bo30uag2k" x1="39.99" y1="22.5" x2="43.99" y2="30.5" gradientUnits="userSpaceOnUse"><stop stop-color="#CA1331"/><stop offset="1" stop-color="#E8909C"/></linearGradient></defs></svg>