<!-- by TradingView --><svg xmlns="http://www.w3.org/2000/svg" width="56" height="56" viewBox="0 0 56 56"><path fill="#F0F3FA" d="M0 0h56v56H0z"/><path d="M16.85 20.07c.07-.63-.02-1.54.47-1.97.14-.67 1.17-.51 1-.94-.1-.26-.58-.14-.77-.09-.15.04-1.56.5-2.1.56l-.7-.2c-.88.12-1.4.84-1.89 1.41-.41.48-.97 1.65-.53 2.35l-.07.46 1 1.5c.35.25.4.44.77.69l.23.35c.31.2 1.21.21 1.37.08 1.45.14 1.29-2.86 1.75-3.48-.06-.29-.3-.58-.53-.72Zm-6.26 8.98c.3-.08.83-.12 1.1-.26.45-.23 1.95-1.3 1.47-2.17-.15-1.84-2.33-.29-3.25-.93-.94-.12-2-1.93-2.28-2.7-.11-.32-.07-.21-.22-.45 0-.03-.1.08-.1.06-.27.32-.22.6-.26 1.4l-.37-.02c-.03.28-.06.44-.19.59l-.08.14c-.23-.07-.12.04-.21-.16-.87.04-.8.93-1.2 1.43.02 1.65 3.23 3.7 5.59 3.07Zm10.67-5.02c-1.4.22-2.26.67-2.79 1.05-.37.26-.47.43-.55.54a.92.92 0 0 0-.1.62c.04.25.14.53.36.68 1.72-.13 4.71-.24 5.3 1.23.03.2.07.33.08.38.57-.15.15-.1.99.04.2.03.67-.08.98-.16.14-.03.22-.16.22-.16l-.02-.22s.3.02.42-.07c.8-.13.38-.52.75-.94-.22-2.76-3-3.4-5.64-2.99Zm-3.07 5.99c-.4.3-.57.23-.8.71-.02 0 .03.08 0 .08.25.48.8.67 1.2 1.01.12.11.46.7.62.75.18.22.3.83.42.83.12.17-.01.57.1.73.02.72-.08.77-.2.9 0 .06.06.19.06.23.03.04.32.25.44.22.39.01 1.96 1.27 2.09 1.5 1.13.1 1.05-.26 1.83-.6.2-.09.38 0 .51-.15.15-.15.16-.45.3-.6.02-2.83-3.77-5.51-6.57-5.61Zm-4.46.64c-.16.18-.59.24-.7.43-.2.3-.62.97-.95 1.3-1.07 1.03-3.37 1.55-4.5.56-.07 0-.03.04.06.33.08.53.5 1.8.35 2.11.1.36.2.23.4.43.13.13.18.48.33.57.18 0 .35-.02.52-.03l.1.3.66-.06c.13.03.5.23.61.26l.74-.05c.56.15 1.05-.09 1.53-.41.26-.19.55-.16.79-.36.34-.3.8-.88 1.02-1.28.53-.99.35-3.35-.13-3.93-.19-.21-.41-.21-.83-.17Z" fill="#FF5E11"/><path d="M40.81 24c2.5 0 4.19 1.58 4.19 4.4 0 3.55-2.32 4.6-4.75 4.6H37v-9h3.81Zm-.72 7.29c1.38 0 2.91-.46 2.91-2.89 0-2.07-1.53-2.76-2.91-2.76H39v5.65h1.09ZM48 33h-2l.02-1.38v-6.24L46 24h5.5v1.69H48v1.68h2.95V29H48v4ZM32.55 31c-1.13 0-2-.63-2-1.78V29s3.63.02 5.45 0v-.6c0-2.96-1.29-4.4-3.94-4.4-1.22 0-4.06.45-4.06 4.59 0 2.76 1.43 4.41 3.93 4.41a6.6 6.6 0 0 0 4.05-1.1c-.1-.15-.83-1.43-.93-1.57-.53.39-1.39.67-2.5.67Zm-2-3.54c.04-.5.23-1.66 1.53-1.66 1.33 0 1.4 1.1 1.4 1.67v.12c-.97.02-1.95.02-2.93 0v-.13Z" fill="#07387A"/></svg>