<!-- by TradingView --><svg width="56" height="56" viewBox="0 0 56 56" xmlns="http://www.w3.org/2000/svg"><path fill="#F0F3FA" d="M0 0h56v56H0z"/><path d="M14 14h28v28H14z"/><path d="M18.6 40c0-3.02 1.6-8.07 5.15-12.54A23.14 23.14 0 0 1 40 18.56V16a26.3 26.3 0 0 0-18.29 9.88C17.88 30.7 16 36.29 16 40h2.6Zm7.35 0c0-1.91 1.08-5.37 3.4-8.3 2.3-2.9 5.85-5.35 10.65-5.8v-2.58a18.4 18.4 0 0 0-12.66 6.8c-2.6 3.3-3.9 7.29-3.9 9.88h2.5Zm8.9-4.1A7.57 7.57 0 0 0 33.2 40h-2.57c0-1.53.75-3.85 2.19-5.67 1.48-1.86 4-3.56 7.17-3.86v2.6a7.32 7.32 0 0 0-5.15 2.84ZM40 40v-3.31A5.48 5.48 0 0 0 36.6 40H40Z" fill="#DB0305"/></svg>