<!-- by TradingView --><svg width="56" height="56" viewBox="0 0 56 56" xmlns="http://www.w3.org/2000/svg"><path fill="#F0F3FA" d="M0 0h56v56H0z"/><path d="M35.54 24.5c0 1.38-1.24 2.5-2.77 2.5S30 25.88 30 24.5s2.3-4 2.77-6.5c.46 2.5 2.77 5.12 2.77 6.5Z" fill="url(#afmhcqv5h)"/><path fill-rule="evenodd" d="M32.77 26.85c1.46 0 2.62-1.07 2.62-2.35 0-.31-.13-.7-.36-1.18-.2-.43-.46-.9-.74-1.42l-.1-.16a15.63 15.63 0 0 1-1.42-3.1c-.31 1.08-.9 2.15-1.43 3.1l-.09.16c-.28.52-.55.99-.75 1.42-.22.47-.35.87-.35 1.18 0 1.28 1.16 2.35 2.62 2.35Zm-.08-8.5c-.3 1.2-.97 2.4-1.57 3.48-.6 1.07-1.12 2.01-1.12 2.67 0 1.38 1.24 2.5 2.77 2.5s2.77-1.12 2.77-2.5c0-.66-.52-1.6-1.12-2.67a15.06 15.06 0 0 1-1.57-3.48 5.9 5.9 0 0 1-.08-.35 5.9 5.9 0 0 1-.08.35Z" fill="#204179"/><path d="m31.85 22 .92.65-.9.23 1.13.37-.7.75.93-.5v.5l.52-.75 1.33.75-.46-.5h.46l-.95-.62.49-.38h-.47l.47-.5-.87.13-.38-1.13-.14 1-.46-.5-.15.63-.77-.13Z" fill="#FBEE4F"/><path d="m33.23 23-1.73.63 1.45-.88-.7-1 .98.75V21l.46 1.5.46-.5-.17.75L36 23h-2.02l.64 1-.87-.75.4 1.75-.77-1.75-.61.75.46-1Z" fill="#E4C98C"/><path d="M13 21h-3v1.5h3v1h-3V25h3v1H9v-6h4v1ZM16.5 22c.95 0 1.5.5 1.5 1.41V26h-1v-2.32c0-.56-.37-.84-.82-.84-.76 0-1.18.7-1.18 1.28V26h-1v-4h.85l.15.57h.06c.25-.38.88-.57 1.44-.57ZM22.2 25.73a3.3 3.3 0 0 1-1.43.27c-1.3 0-2.1-.81-2.1-1.98 0-1.08.65-2.02 1.91-2.02 1.14 0 1.86.72 1.86 1.75v.51H19.8c.03.6.4.96 1.02.96.46 0 .93-.1 1.39-.3v.8Zm-.8-2.17c-.02-.51-.3-.81-.78-.81-.48 0-.75.29-.8.81h1.57ZM25.35 22c.15 0 .28.01.38.03l-.09.99c-.08-.02-.2-.04-.33-.04-.6 0-1.31.39-1.31.99V26h-1v-4h.91l.09.72c.27-.45.85-.72 1.35-.72ZM28 22h1v1h-1v1.49c0 .34.12.52.45.52.16 0 .28-.05.55-.15v.93c-.27.14-.5.21-.92.21-.82 0-1.08-.5-1.08-1.51V23h-.65v-.5L27 22l.26-1H28v1ZM37 30h1v1h-1v1.49c0 .34.12.52.45.52.16 0 .28-.05.55-.15v.93c-.27.14-.51.21-.92.21-.82 0-1.08-.5-1.08-1.51V31h-.65v-.5L36 30l.26-1H37v1ZM37.38 22.5c.23-.41.73-.5 1.18-.5 1.12 0 1.44 1.08 1.44 2 0 .88-.34 2-1.44 2-.44 0-.8-.18-1.06-.53V28h-1v-6h.7l.17.5Zm.12 1.5c0 .87.24 1.1.77 1.1.46 0 .73-.27.73-1.1 0-.81-.26-1.1-.76-1.1-.49 0-.73.32-.74 1.1ZM20.02 30.61c.24-.4.59-.61 1.04-.61 1.12 0 1.44 1.08 1.44 2 0 .88-.34 2-1.44 2-.44 0-.8-.18-1.06-.53V36h-1v-6h.83l.15.61h.04ZM20 32c0 .87.24 1.1.77 1.1.46 0 .73-.27.73-1.1 0-.81-.26-1.1-.76-1.1-.49 0-.73.32-.74 1.1ZM41 21.48c0-.32.17-.48.5-.48.33 0 .5.16.5.48 0 .15-.04.27-.13.36-.08.08-.2.12-.37.12-.33 0-.5-.16-.5-.48ZM42 26h-1v-3.5h1V26ZM39 29.48c0-.32.17-.48.5-.48.33 0 .5.16.5.48 0 .15-.04.27-.13.36-.08.08-.2.12-.37.12-.33 0-.5-.16-.5-.48ZM40 34h-1v-3.5h1V34ZM43.31 22.35c.4-.23.82-.35 1.28-.35.93 0 1.41.46 1.41 1.36V26h-.64l-.18-.6h-.02c-.28.41-.63.6-1.12.6-.64 0-1.04-.43-1.04-1.23s.49-1.17 1.5-1.22l.5-.02v-.17c0-.39-.09-.58-.44-.58-.26 0-.58.1-.94.28l-.3-.71Zm.63 2.44c0 .3.15.44.45.44.43 0 .61-.3.61-.77v-.31l-.27.01c-.53.02-.79.21-.79.63ZM8.36 34C6.83 34 6 32.94 6 31.01v-.04c0-1.7.98-2.97 2.42-2.97h.04c.52 0 1.03.14 1.54.41l-.36 1a2.71 2.71 0 0 0-1.18-.38c-.83 0-1.46.73-1.46 1.98 0 1.3.58 1.96 1.46 1.96.37 0 .82-.1 1.34-.3v1.03c-.43.2-.91.3-1.44.3ZM12.49 30c1.27 0 2 .9 2 1.96v.03c0 1.13-.66 2.01-2 2.01-.01 0 .01 0 0 0-1.28 0-2-.9-2-1.97v-.04c0-1.13.65-1.99 2-1.99 0 0-.02 0 0 0Zm0 .85c-.63 0-1 .36-1 1.15 0 .77.38 1.15 1 1.15s1-.38 1-1.15c0-.79-.38-1.15-1-1.15ZM17.96 30c.16 0 .3.01.4.03l-.1.99c-.09-.02-.2-.04-.34-.04-.75 0-1.42.36-1.42.99V34h-1v-4h.93l.18.72h.06c.28-.45.75-.72 1.29-.72ZM25 30c1.27 0 2 .9 2 1.96v.03c0 1.13-.65 2.01-2 2.01-.01 0 .01 0 0 0-1.27 0-2-.9-2-1.97v-.04c0-1.13.65-1.99 2-1.99.01 0-.01 0 0 0Zm0 .85c-.62 0-1 .36-1 1.15 0 .77.38 1.15 1 1.15.63 0 1-.38 1-1.15 0-.79-.38-1.15-1-1.15ZM43 30c1.27 0 2 .9 2 1.96v.03c0 1.13-.65 2.01-2 2.01-.01 0 .01 0 0 0-1.27 0-2-.9-2-1.97v-.04c0-1.13.65-1.99 2-1.99.01 0-.01 0 0 0Zm0 .85c-.62 0-1 .37-1 1.15 0 .78.38 1.15 1 1.15.63 0 1-.38 1-1.16 0-.78-.38-1.14-1-1.14ZM30.44 30c.15 0 .28.02.38.04l-.09.98c-.09-.02-.2-.03-.33-.03-.72 0-1.4.36-1.4.98V34h-1v-4h1l.14.73h.06c.27-.45.72-.72 1.24-.72ZM31.68 30.35c.48-.23 1.01-.35 1.58-.35 1.15 0 1.74.46 1.74 1.36V34h-.8l-.13-.6h-.03c-.36.43-.88.6-1.46.6-.79 0-1.28-.43-1.28-1.23s.6-1.17 1.85-1.22l.85-.02v-.17c0-.39-.34-.58-.77-.58-.33 0-.72.1-1.17.28l-.38-.71Zm.78 2.44c0 .3.18.44.55.44.53 0 .99-.3.99-.77v-.31l-.56.01c-.66.02-.98.21-.98.63ZM48.46 30c1 0 1.54.5 1.54 1.44V34h-1v-2.3c0-.56-.4-.84-.88-.84-.66 0-1.12.37-1.12 1.3V34h-1v-4h.8l.2.58c.26-.38.87-.58 1.46-.58Z" fill="#204179"/><defs><linearGradient id="afmhcqv5h" x1="32.77" y1="18" x2="32.77" y2="27" gradientUnits="userSpaceOnUse"><stop stop-color="#87C7EE"/><stop offset=".39" stop-color="#D4EBF7"/><stop offset=".84" stop-color="#70B9E6"/><stop offset="1" stop-color="#57ABE4"/></linearGradient></defs></svg>