<!-- by TradingView --><svg width="56" height="56" viewBox="0 0 56 56" fill="none" xmlns="http://www.w3.org/2000/svg">
<rect width="56" height="56" fill="#F0F3FA"/>
<path d="M38.4952 41.3538C32.8196 45.0874 27.1567 46.2414 21.0521 43.4582C11.26 38.9948 7.81043 26.6949 14.3569 17.9123C14.4504 17.7879 14.4759 17.6521 14.4334 17.505L13.5498 14.5011C13.5328 14.4412 13.5319 14.3778 13.547 14.3175C13.5622 14.2571 13.593 14.2019 13.6362 14.1574C13.6793 14.113 13.7334 14.081 13.7929 14.0646C13.8523 14.0482 13.915 14.048 13.9746 14.0641L16.9865 14.8448C17.1197 14.8787 17.2386 14.8547 17.3434 14.7727C29.1109 5.56156 45.6874 14.3357 44.978 29.02C44.8137 32.4057 43.6171 35.5312 41.3882 38.3965C41.3089 38.5012 41.2891 38.6143 41.3288 38.7359L42.3143 41.9011C42.321 41.9232 42.3216 41.9468 42.3162 41.9693C42.3109 41.9918 42.2996 42.0124 42.2837 42.0292C42.2678 42.046 42.2477 42.0583 42.2254 42.0648C42.2032 42.0714 42.1797 42.072 42.1572 42.0665L38.8903 41.2816C38.7487 41.2477 38.617 41.2717 38.4952 41.3538ZM44.5064 27.9847C44.5064 23.612 42.7671 19.4183 39.6712 16.3263C36.5752 13.2343 32.3762 11.4972 27.9979 11.4972C23.6196 11.4972 19.4206 13.2343 16.3246 16.3263C13.2287 19.4183 11.4894 23.612 11.4894 27.9847C11.4894 32.3575 13.2287 36.5511 16.3246 39.6431C19.4206 42.7351 23.6196 44.4722 27.9979 44.4722C32.3762 44.4722 36.5752 42.7351 39.6712 39.6431C42.7671 36.5511 44.5064 32.3575 44.5064 27.9847Z" fill="#282727"/>
<path d="M29.7394 13.5296L29.1277 15.494C29.1032 15.5716 29.0546 15.6394 28.9889 15.6875C28.9232 15.7356 28.8438 15.7614 28.7623 15.7613H27.662C27.5829 15.7614 27.5056 15.737 27.4409 15.6914C27.3762 15.6458 27.3273 15.5813 27.3009 15.5067L26.6 13.5381C26.5796 13.4804 26.5733 13.4187 26.5818 13.3582C26.5902 13.2976 26.6131 13.24 26.6485 13.1901C26.6839 13.1402 26.7307 13.0995 26.7851 13.0715C26.8395 13.0434 26.8999 13.0288 26.9611 13.0289L29.3741 13.0332C29.4342 13.0331 29.4934 13.0471 29.547 13.0742C29.6007 13.1012 29.6472 13.1405 29.6828 13.1889C29.7183 13.2372 29.742 13.2933 29.7519 13.3525C29.7617 13.4117 29.7574 13.4723 29.7394 13.5296Z" fill="#E9C11F"/>
<path d="M24.5426 13.755L24.7702 15.7996C24.7789 15.8805 24.7616 15.9621 24.7207 16.0325C24.6797 16.1028 24.6174 16.1583 24.5427 16.1907L23.5346 16.631C23.4621 16.6628 23.3815 16.6714 23.3039 16.6555C23.2264 16.6396 23.1557 16.6 23.1016 16.5423L21.6696 15.019C21.6278 14.9744 21.5973 14.9203 21.5807 14.8615C21.5642 14.8026 21.562 14.7406 21.5744 14.6808C21.5868 14.6209 21.6134 14.5649 21.652 14.5174C21.6906 14.47 21.7401 14.4324 21.7962 14.408L24.0087 13.4464C24.0637 13.4223 24.1237 13.4114 24.1837 13.4147C24.2437 13.4181 24.302 13.4355 24.354 13.4655C24.406 13.4956 24.4502 13.5375 24.483 13.5877C24.5157 13.638 24.5362 13.6954 24.5426 13.755Z" fill="#282727"/>
<path d="M34.7609 14.6622C34.7791 14.6785 34.7906 14.7011 34.7929 14.7255C34.7953 14.7498 34.7884 14.7742 34.7736 14.7937L33.3547 16.6139C33.2669 16.727 33.155 16.7581 33.0191 16.7072L31.9358 16.2999C31.78 16.2405 31.7021 16.1288 31.7021 15.9647L31.7064 13.8433C31.7092 13.6991 31.7829 13.6255 31.9273 13.6227C33.0035 13.6142 33.948 13.9607 34.7609 14.6622Z" fill="#282727"/>
<path d="M17.7258 17.3438C18.1988 16.5971 18.8516 16.0696 19.6842 15.7613C19.7193 15.7479 19.7567 15.7417 19.7943 15.743C19.8319 15.7443 19.8689 15.7531 19.9032 15.7688C19.9376 15.7846 19.9686 15.807 19.9944 15.8349C20.0203 15.8627 20.0405 15.8954 20.0538 15.931L20.8015 17.9039C20.8468 18.0283 20.8213 18.1358 20.7251 18.2263L19.8754 19.024C19.7508 19.1399 19.6149 19.1541 19.4676 19.0664L17.9042 18.116C17.5814 17.918 17.5219 17.6606 17.7258 17.3438Z" fill="#E9C11F"/>
<path d="M36.6346 15.7527C37.5098 15.9691 38.3976 16.754 38.8479 17.4753C38.8697 17.5095 38.8845 17.5476 38.8914 17.5875C38.8983 17.6275 38.8971 17.6684 38.888 17.7079C38.879 17.7473 38.8621 17.7846 38.8384 17.8175C38.8148 17.8505 38.7848 17.8783 38.7502 17.8996L36.9235 19.0197C36.8074 19.0932 36.6955 19.0861 36.5879 18.9984L35.6491 18.239C35.5528 18.157 35.5259 18.0565 35.5683 17.9377L36.2735 15.9479C36.299 15.8758 36.3502 15.8157 36.4171 15.7796C36.4839 15.7435 36.5615 15.7339 36.6346 15.7527Z" fill="#E9C11F"/>
<path d="M38 28C38 30.6522 36.9464 33.1957 35.0711 35.0711C33.1957 36.9464 30.6522 38 28 38C25.3478 38 22.8043 36.9464 20.9289 35.0711C19.0536 33.1957 18 30.6522 18 28C18 25.3478 19.0536 22.8043 20.9289 20.9289C22.8043 19.0536 25.3478 18 28 18C30.6522 18 33.1957 19.0536 35.0711 20.9289C36.9464 22.8043 38 25.3478 38 28Z" fill="#282727"/>
<path d="M15.9199 19.2828C15.9763 19.2321 16.0507 19.2059 16.127 19.2099C16.2033 19.2138 16.2754 19.2476 16.3278 19.304L17.7467 20.8611C17.8571 20.9799 17.8713 21.1114 17.7891 21.2557L17.1689 22.3206C17.0953 22.4451 16.9877 22.4917 16.846 22.4606L14.8112 22.0151C14.7408 21.9988 14.6793 21.9565 14.6391 21.8966C14.5989 21.8367 14.5829 21.7638 14.5945 21.6927C14.7559 20.7338 15.1977 19.9305 15.9199 19.2828Z" fill="#282727"/>
<path d="M39.9863 19.4652C40.0281 19.4183 40.0864 19.3895 40.149 19.3847C40.2116 19.38 40.2736 19.3997 40.3219 19.4398C41.0866 20.0875 41.5752 20.9049 41.7876 21.8921C41.8244 22.0646 41.7564 22.1693 41.5837 22.2061L39.4341 22.6643C39.3794 22.6752 39.3228 22.6688 39.2724 22.646C39.222 22.6231 39.1804 22.5849 39.1537 22.537L38.5207 21.4466C38.4471 21.3193 38.4598 21.2005 38.5589 21.0902L39.9863 19.4652Z" fill="#282727"/>
<path d="M25.0159 28.2182C26.4816 27.7005 27.3822 25.5113 27.7815 24.0899C27.7981 24.0314 27.7977 23.9695 27.7804 23.9116C27.763 23.8537 27.7295 23.8022 27.6838 23.7632C27.0732 23.2541 27.2089 22.0919 28.1249 22.1239C28.6666 22.1429 28.9222 22.7745 28.8266 23.2414C28.7983 23.3715 28.7402 23.4846 28.6524 23.5808C27.3992 24.9173 31.7409 31.1924 33.882 26.6017L34.328 26.8774C34.1071 27.9042 33.249 31.5964 33.882 32.5638C34.0689 32.8523 33.991 33.0028 33.6483 33C33.6483 33 22.6993 33 22.5775 33C22.4557 33 22.3849 32.9117 22.3651 32.7929C22.3254 32.5496 22.3806 32.3262 22.5307 32.1225C22.567 32.073 22.5929 32.0166 22.6068 31.9568C22.6207 31.897 22.6223 31.835 22.6115 31.7746L21.7363 26.6017L22.3651 26.3473C22.3651 27.5609 23.6353 28.7103 25.0159 28.2182ZM28.0696 31.2609C28.376 31.255 28.6664 31.0675 28.8768 30.7396C29.0872 30.4116 29.2005 29.7231 29.1917 29.2652C29.1829 28.8073 29.0528 28.3705 28.8299 28.0509C28.607 27.7313 28.3096 27.555 28.0032 27.5609C27.6968 27.5667 27.4065 27.7543 27.196 28.0822C26.9856 28.4101 26.8723 28.8516 26.8811 29.3095C26.8899 29.7674 27.0201 30.4513 27.243 30.7709C27.4658 31.0905 27.7632 31.2668 28.0696 31.2609Z" fill="#E9C11F"/>
<path d="M15.9879 26.6484C15.9827 26.6754 15.9689 26.7003 15.9483 26.7193C15.9277 26.7383 15.9014 26.7506 15.8732 26.7544L13.5665 27.0472C13.3852 27.0726 13.2804 26.9948 13.2521 26.8138C13.1048 25.8465 13.2832 24.9569 13.7874 24.1451C13.8752 24.0065 13.9927 23.974 14.14 24.0475L16.0517 25.0064C16.1848 25.0743 16.2386 25.1818 16.2131 25.3288L15.9879 26.6484Z" fill="#E9C11F"/>
<path d="M42.8154 27.0217L40.7721 26.7714C40.6078 26.7516 40.5072 26.6611 40.4704 26.4999L40.1985 25.3416C40.1617 25.1804 40.217 25.0601 40.3642 24.981L42.3311 23.9287C42.3573 23.9149 42.3859 23.9065 42.4154 23.9039C42.4448 23.9013 42.4745 23.9047 42.5026 23.9138C42.5308 23.9229 42.5568 23.9376 42.5791 23.9569C42.6015 23.9762 42.6197 23.9998 42.6328 24.0263C43.0689 24.8777 43.2473 25.7814 43.168 26.7375C43.1511 26.9553 43.0335 27.05 42.8154 27.0217Z" fill="#E9C11F"/>
<path d="M34.5188 26.2324C34.9693 26.2324 35.3344 25.8677 35.3344 25.4178C35.3344 24.9679 34.9693 24.6031 34.5188 24.6031C34.0683 24.6031 33.7031 24.9679 33.7031 25.4178C33.7031 25.8677 34.0683 26.2324 34.5188 26.2324Z" fill="#E9C11F"/>
<path d="M21.7356 26.2324C22.1861 26.2324 22.5512 25.8677 22.5512 25.4178C22.5512 24.9679 22.1861 24.6031 21.7356 24.6031C21.2851 24.6031 20.9199 24.9679 20.9199 25.4178C20.9199 25.8677 21.2851 26.2324 21.7356 26.2324Z" fill="#E9C11F"/>
<path d="M26.2646 26.3216C25.752 27.4757 24.8882 27.9466 23.6732 27.7345C23.6184 27.725 23.5675 27.7 23.5267 27.6623C23.4858 27.6247 23.4567 27.5761 23.4428 27.5224C23.4289 27.4686 23.4308 27.412 23.4483 27.3593C23.4658 27.3067 23.4982 27.2601 23.5415 27.2254C24.2722 26.6483 25.0765 26.2297 25.9545 25.9695C26.3113 25.8648 26.4147 25.9822 26.2646 26.3216Z" fill="#E9C11F"/>
<path d="M32.5136 27.1446C32.7005 27.2861 32.6949 27.4204 32.4966 27.5477C31.3071 28.3199 30.33 27.0768 29.7395 26.1985C29.7208 26.1701 29.7109 26.1368 29.7109 26.1027C29.711 26.0687 29.7211 26.0355 29.7399 26.0076C29.7587 25.9797 29.7853 25.9583 29.8163 25.9462C29.8473 25.934 29.8813 25.9318 29.9137 25.9397C30.8738 26.1462 31.7404 26.5478 32.5136 27.1446Z" fill="#E9C11F"/>
<path d="M13.5668 28.9268L15.6187 29.1644C15.7404 29.1785 15.8127 29.2464 15.8353 29.368L16.0987 30.6706C16.127 30.8092 16.0789 30.911 15.9543 30.976L13.9704 31.9986C13.8259 32.0721 13.7126 32.0382 13.6305 31.8967C13.1689 31.0793 13.0088 30.1968 13.1504 29.2492C13.1642 29.1519 13.2154 29.0639 13.2931 29.0037C13.3708 28.9435 13.469 28.9159 13.5668 28.9268Z" fill="#282727"/>
<path d="M41.4944 33.8907C41.5466 33.9006 41.5961 33.9211 41.6399 33.951C41.6836 33.9808 41.7207 34.0193 41.7486 34.064C41.7766 34.1087 41.7949 34.1586 41.8023 34.2106C41.8098 34.2626 41.8062 34.3154 41.7918 34.3659C41.5341 35.2568 41.0866 36.0347 40.4494 36.6994C40.4242 36.7248 40.3941 36.7448 40.3609 36.7582C40.3277 36.7716 40.2922 36.7781 40.2564 36.7773C40.2206 36.7765 40.1854 36.7684 40.1528 36.7536C40.1202 36.7387 40.0911 36.7174 40.067 36.6909L38.6184 35.0999C38.5221 34.9924 38.5094 34.8764 38.5802 34.7519L39.1961 33.6658C39.2613 33.547 39.3618 33.5003 39.4978 33.5258L41.4944 33.8907Z" fill="#E9C11F"/>
<path d="M42.6175 29.1617C42.6703 29.157 42.7236 29.1633 42.7739 29.1801C42.8241 29.1969 42.8703 29.2238 42.9094 29.2592C42.9485 29.2946 42.9797 29.3376 43.0011 29.3856C43.0224 29.4336 43.0334 29.4854 43.0334 29.5378C43.0288 30.4652 42.8108 31.3355 42.3793 32.1486C42.362 32.1799 42.3385 32.2074 42.3102 32.2293C42.282 32.2512 42.2495 32.2671 42.2149 32.2761C42.1803 32.2851 42.1442 32.287 42.1088 32.2815C42.0734 32.2761 42.0395 32.2636 42.0091 32.2446L40.1808 31.1086C40.0588 31.0315 40.0149 30.9234 40.049 30.7843L40.3449 29.5716C40.3752 29.4395 40.4591 29.3672 40.5969 29.3547L42.6175 29.1617Z" fill="#282727"/>
<path d="M19.8588 40.1616C19.8022 40.303 19.703 40.3454 19.5614 40.2889C18.6382 39.9155 17.9061 39.3144 17.3651 38.4857C17.266 38.3358 17.2929 38.2127 17.4458 38.1165L19.2768 36.954C19.3958 36.8776 19.5105 36.8861 19.6209 36.9795L20.5428 37.7517C20.6702 37.8591 20.7042 37.9907 20.6447 38.1462L19.8588 40.1616Z" fill="#282727"/>
<path d="M16.4901 36.7304C16.395 36.8495 16.2879 36.8616 16.1686 36.7667C15.3923 36.1433 14.8649 35.3569 14.5862 34.4075C14.5346 34.2355 14.5958 34.1254 14.7701 34.0773L16.8589 33.4915C16.9948 33.4526 17.1022 33.4938 17.181 33.615L17.8408 34.6198C17.9318 34.7595 17.9264 34.8952 17.8245 35.027L16.4901 36.7304Z" fill="#E9C11F"/>
<path d="M38.572 38.2398C38.6043 38.2595 38.6322 38.2855 38.6542 38.3163C38.6762 38.3471 38.6918 38.3821 38.7001 38.4193C38.7084 38.4564 38.7093 38.4949 38.7026 38.5326C38.6959 38.5702 38.6819 38.6063 38.6613 38.6386C38.1345 39.4476 37.4321 40.0486 36.5541 40.4418C36.3871 40.5153 36.2695 40.4687 36.2015 40.3018L35.3392 38.2186C35.317 38.1647 35.3133 38.1048 35.3286 38.0482C35.344 37.9915 35.3775 37.9411 35.4241 37.9046L36.397 37.1621C36.5244 37.0631 36.6575 37.056 36.7963 37.1409L38.572 38.2398Z" fill="#282727"/>
<path d="M21.7407 41.2902L23.0831 39.4615C23.104 39.4319 23.1339 39.4098 23.1683 39.3984C23.2027 39.3869 23.2398 39.3867 23.2743 39.3979L24.5615 39.7882C24.6427 39.8126 24.7134 39.863 24.7626 39.9313C24.8118 39.9997 24.8367 40.0822 24.8334 40.1658L24.7314 42.3636C24.7258 42.5248 24.6436 42.597 24.485 42.58C23.508 42.4782 22.613 42.1571 21.8002 41.6169C21.7743 41.5992 21.7523 41.5767 21.7352 41.5506C21.7182 41.5245 21.7065 41.4953 21.701 41.4648C21.6954 41.4344 21.6961 41.4032 21.7029 41.3732C21.7097 41.3432 21.7226 41.315 21.7407 41.2902Z" fill="#E9C11F"/>
<path d="M32.0129 42.5587C31.9738 42.5617 31.9345 42.5565 31.8974 42.5435C31.8604 42.5305 31.8265 42.51 31.7978 42.4834C31.769 42.4567 31.7462 42.4243 31.7305 42.3884C31.7149 42.3524 31.7069 42.3136 31.707 42.2745V40.0597C31.707 39.9909 31.7294 39.9239 31.7708 39.8688C31.8121 39.8137 31.8703 39.7735 31.9364 39.7542L33.007 39.4275C33.1684 39.3795 33.3001 39.4205 33.4021 39.5506L34.6893 41.1925C34.7912 41.3227 34.7771 41.44 34.6468 41.5447C33.8736 42.1528 32.9957 42.4908 32.0129 42.5587Z" fill="#E9C11F"/>
<path d="M27.2585 40.3313H28.6091C28.7479 40.3341 28.8488 40.4572 28.8941 40.5901L29.5951 42.5673C29.6168 42.6297 29.613 42.6982 29.5843 42.7579C29.5556 42.8175 29.5045 42.8634 29.4421 42.8855C28.5132 43.2079 27.5828 43.2263 26.6511 42.9406C26.4698 42.8841 26.4061 42.7638 26.4599 42.58L27.0886 40.4544C27.1141 40.3695 27.1707 40.3285 27.2585 40.3313Z" fill="#282727"/>
</svg>
