<!-- by TradingView --><svg width="56" height="56" fill="none" xmlns="http://www.w3.org/2000/svg"><path fill="#150A84" d="M0 0h56v56H0z"/><path fill-rule="evenodd" clip-rule="evenodd" d="M20.335 36h.562c-.877-1.087-1.477-2.205-1.722-3.47-.077-.441-.296-.53-.696-.53-1.353.013-2.845.013-4.198 0-1.353-.013-2.268-.994-2.281-2.321a245.607 245.607 0 010-4.36C12.013 23.94 13.04 23 14.458 23h13.248c1.418 0 2.281.941 2.294 2.331l.004.322A75.67 75.67 0 0130 28.457c0 .404.192.543.567.543h2.724c.524 0 .722-.126.709-.67v-3.378c.039-3.197-2.698-5.965-5.856-5.952H14.058C11 19 8.027 21.742 8.001 25.003l.003 1.516c.003 1.011.005 2.023-.003 3.034-.026 1.845.503 3.424 1.933 4.751 1.134 1.062 2.566 1.696 3.893 1.694h3.26l3.248.002zm22.11-16h-7.018c.915 1.137 1.508 2.193 1.688 3.368.064.48.385.632.748.632.369 0 .797 0 1.237-.002.914-.001 1.875-.003 2.451.002 1.521.013 2.41.866 2.449 2.357.007.276.004 1.667.002 2.882L44 30.654c0 1.346-.775 2.22-2.115 2.346H28.297c-1.585-.126-2.284-.922-2.297-2.49l-.004-.306c-.011-.948-.02-1.641.004-2.648.013-.43-.103-.569-.528-.556h-1.123c-.753.002-1.481.003-1.756 0-.416-.004-.593.139-.593.581v3.604c.013 1.453.51 2.692 1.49 3.766 1.328 1.466 3.188 2.036 5.134 2.049h13.744C45.5 37 48 34 48 30.907v-5.182C47.987 22.755 45.42 20 42.445 20z" fill="#fff"/></svg>