<!-- by TradingView --><svg width="18" height="18" xmlns="http://www.w3.org/2000/svg"><path fill="#004F88" d="M0 0h18v18H0z"/><path d="M7.975 3v3.85c.45-.718 1.547-1.065 2.148-1.08a3.672 3.672 0 012.72 1.161 4.249 4.249 0 011.113 3.004 4.08 4.08 0 01-1.154 2.963 3.694 3.694 0 01-2.72 1.202c-.885.004-1.518-.28-2.107-1.042V14H6V3h1.975zm2.018 4.612a2.091 2.091 0 00-1.608.64 2.362 2.362 0 00-.618 1.683c-.031.63.19 1.247.618 1.722.413.433 1 .667 1.608.64a2.09 2.09 0 001.566-.68c.433-.459.669-1.06.66-1.682a2.362 2.362 0 00-.619-1.702 2.24 2.24 0 00-1.607-.621z" fill="#fff"/></svg>