<!-- by TradingView --><svg width="56" height="56" viewBox="0 0 56 56" xmlns="http://www.w3.org/2000/svg"><path fill="#EF3921" d="M0 0h56v56H0z"/><path d="m27.66 15.49-5.6 4.97a6.16 6.16 0 0 0-2.12 4.62c0 1.05.3 2.06.83 2.97.08.12.28.33.6.06l6.29-5.58c.19-.17.34-.1.34.16v4.42c0 .25-.15.6-.34.77l-3.37 3h-.01c-.07.06-.37.38.07.77l3.3 2.92c.2.17.35.51.35.77v4.4c0 .26-.15.34-.34.17l-8.12-7.17c-2.26-2-3.52-4.72-3.54-7.63a10.2 10.2 0 0 1 3.45-7.68l8.2-7.34c.2-.17.35-.1.35.16v4.47c0 .25-.15.6-.34.77Zm.68 25.02 5.6-4.97a6.16 6.16 0 0 0 2.12-4.62 5.9 5.9 0 0 0-.83-2.97c-.08-.12-.28-.33-.6-.06l-6.29 5.58c-.19.17-.34.1-.34-.16V28.9c0-.25.15-.6.34-.77l3.37-3h.01c.07-.06.37-.38-.07-.77l-3.3-2.92a1.17 1.17 0 0 1-.35-.77v-4.4c0-.26.15-.34.34-.17l8.12 7.17c2.26 2 3.52 4.72 3.54 7.63a10.2 10.2 0 0 1-3.45 7.68l-8.2 7.34c-.2.17-.35.1-.35-.16v-4.47c0-.25.15-.6.34-.77Z" fill="#fff"/></svg>