<!-- by TradingView --><svg width="56" height="56" viewBox="0 0 56 56" xmlns="http://www.w3.org/2000/svg"><path fill="#F0F3FA" d="M0 0h56v56H0z"/><path d="m27.53 20-1.44 4h11.3l-2.49 7H23.67l-1.94 5c0 .02.02-.01 0 0h-5.1c-.96 0-1.5.14-1.61.16-2.22.46-2.45 3.6-.44 4.42.35.15.96.42 1.84.42h18.9l2.56-7.14a.27.27 0 0 0-.04-.26l-1.23-1.5c-.06-.08-.04-.1.05-.1h1.82c.06 0 .1-.04.11-.1l2.27-6.1a.15.15 0 0 0-.03-.16l-1.25-1.53c-.06-.07-.04-.1.05-.1h1.63c.07 0 .14-.03.2-.07.06-.03.1-.09.12-.15l1.76-4.87a.15.15 0 0 0-.02-.15l-1.26-1.7c-.04-.05-.03-.07.04-.07h3.83c.06 0 .08.02.06.08l-9.26 25.8c-.02.05-.06.1-.12.12H16.27a7.5 7.5 0 0 1-2.14-.26 4.46 4.46 0 0 1-3.12-4.55c.04-.44.22-1.12.54-2.03l6.86-19c.47-1.32.87-2.18 1.2-2.59 1.18-1.44 2.6-1.57 4.6-1.57h17.14c.06 0 .08.03.06.08l-2.44 6.7c-.03.09-.1.22-.18.22H27.54Z" fill="#660774"/></svg>