<!-- by TradingView --><svg width="56" height="56" viewBox="0 0 56 56" xmlns="http://www.w3.org/2000/svg"><path fill="#F0F3FA" d="M0 0h56v56H0z"/><path d="M8.76 38 11 32l-3.28 1.27-.72 2.1L8.76 38Z" fill="#3D3D3F"/><path d="M11.03 23 8 32l2.95-1 .75-2H16l.68-2H12.3l.69-2h5.2l.8-2h-7.97Zm9.29 0h3.01l-1.74 5.22-3.26.78 1.99-6Z" fill="#0566AA"/><path d="m21.31 29-3.23.9L17 33h6.12l.88-2h-3.35l.66-2Z" fill="#3D3D3F"/><path d="M26.67 23H24l1.76 4 4.44-.73L33 23h-2.8l-2.43 2.72-1.1-2.72Z" fill="#0566AA"/><path d="M26.83 33H24l1.97-4.83-.18-.44L30 27l-1.22 1.28L26.83 33Z" fill="#3D3D3F"/><path d="M36.78 23H34l-1.37 3 3.04-.4 1.1-2.6Zm2.41 0h2.73l-.7 1.83-2.78.17.75-2Z" fill="#0566AA"/><path d="m41 26-2.9.3-.62 1.7h-2.9l.42-1-2.77.28L30 33h2.51l1.25-3h2.98l-1.12 3h2.62L41 26Zm7-1-2.94.3L42 33h2.83L48 25Z" fill="#3D3D3F"/><path d="m42 25 1.36-4 1.12 1.8L52 24.09 42 25Z" fill="#0566AA"/></svg>