<!-- by TradingView --><svg width="56" height="56" viewBox="0 0 56 56" xmlns="http://www.w3.org/2000/svg"><path fill="#F0F3FA" d="M0 0h56v56H0z"/><path d="M46 27H10l10.56-10.69L26.5 20l8.5-9 11 16Z" fill="#414141"/><path fill="url(#ap40jvafx)" d="M10 27.01h36v.66H10z"/><path fill="url(#bp40jvafx)" d="M10 27.67h36v.66H10z"/><path fill="url(#cp40jvafx)" d="M10 28.34h36V29H10z"/><path d="M46 29H10v9h2v-4h4v-2h-4v-2h26v8h8v-2h-6v-2h6v-2h-6v-2h6v-1Z" fill="#414141"/><path d="M21.54 31H20v4a3 3 0 0 0 6 0v-4h-1.54v4.38a1.46 1.46 0 1 1-2.92 0V31ZM34.8 32.98h-1.48c0-.64-.7-.98-1.33-.98-.64 0-1.26.24-1.26.98 0 .58 1.05.68 1.8.88 1.72.44 2.47.9 2.47 2.1 0 1.2-1.02 2.04-2.98 2.04-2.38 0-3-1.52-3.02-2.28h1.52c0 .76.74 1.28 1.5 1.28s1.48-.24 1.48-.89-.78-.83-1.98-1.15c-2.1-.57-2.22-1.22-2.22-1.98S29.88 31 32.02 31c2.1 0 2.73 1.27 2.77 1.98Z" fill="#414141"/><defs><linearGradient id="ap40jvafx" x1="46" y1="27.34" x2="10" y2="27.34" gradientUnits="userSpaceOnUse"><stop offset=".04" stop-color="#AA933E"/><stop offset=".44" stop-color="#FBFDB8"/><stop offset=".94" stop-color="#A18D46"/></linearGradient><linearGradient id="bp40jvafx" x1="46" y1="28" x2="10" y2="28" gradientUnits="userSpaceOnUse"><stop stop-color="#CBC8CD"/><stop offset=".5" stop-color="#F8F5EA"/><stop offset="1" stop-color="#D5D2CC"/></linearGradient><linearGradient id="cp40jvafx" x1="46" y1="28.34" x2="10" y2="28.34" gradientUnits="userSpaceOnUse"><stop stop-color="#AA6208"/><stop offset=".61" stop-color="#C47315"/><stop offset="1" stop-color="#A76505"/></linearGradient></defs></svg>