<!-- by TradingView --><svg width="56" height="56" viewBox="0 0 56 56" xmlns="http://www.w3.org/2000/svg"><path fill="url(#agdc2wczr)" d="M0 0h56v56H0z"/><path fill-rule="evenodd" d="M18.75 21.5a1.25 1.25 0 1 0 0-2.5 1.25 1.25 0 0 0 0 2.5Zm-1.8 1.5h1.87c.65 0 1.18.57 1.18 1.28v6.56c0 .64-.48 1.16-1.07 1.16-.6 0-.93-.52-.93-1.16V25h-1.05a.94.94 0 0 1-.95-.97c0-.57.43-1.03.95-1.03Zm-8.2 13h3.15c1.71 0 3.1-1.48 3.1-3.31v-8.54c0-.63-.48-1.15-1.08-1.15H9.96C8.33 23 7 24.42 7 26.17v2.76A2.99 2.99 0 0 0 9.96 32H13v.5c0 .72-.73 1.5-1.4 1.5H8.75c-.56 0-1.02.3-1.02.9 0 .6.46 1.1 1.02 1.1ZM13 30v-5h-2.69C9.6 25 9 25.63 9 26.4v2.2c0 .77.59 1.4 1.31 1.4H13Zm10.75 6h3.15c1.71 0 3.1-1.48 3.1-3.31v-8.54c0-.63-.48-1.15-1.08-1.15h-3.96C23.33 23 22 24.42 22 26.17v2.76A2.99 2.99 0 0 0 24.96 32H28v.5c0 .72-.73 1.5-1.4 1.5h-2.85c-.56 0-1.02.3-1.02.9 0 .6.46 1.1 1.02 1.1ZM28 30v-5h-2.69c-.72 0-1.31.63-1.31 1.4v2.2c0 .77.59 1.4 1.31 1.4H28Zm8.9-7H34c-.57 0-1 .4-1 1s.43 1 1 1h2.79c.67 0 1.21.04 1.21.75V26h-3.04c-1.57 0-2.86.86-2.95 3.14l-.01-.27v.55-.28c.1 2.19 1.39 2.86 2.96 2.86h3.96c.6 0 1.08-.5 1.08-1.14V25.7c0-1.8-1.39-2.7-3.1-2.7Zm1.1 7v-2h-3.21c-.44 0-.79.45-.79 1s.35 1 .79 1H38Zm6.31-5H49v-2h-4.68C43.04 23 42 24.14 42 25.54c0 1.12.66 2.1 1.63 2.43L46.65 29c.14.05.35.18.35.34 0 .59-.26.66-.44.66H42v2h4.53c1.36 0 2.47-1.21 2.47-2.71 0-1.21-.74-2.28-1.8-2.6l-2.96-.92c-.1-.04-.24-.26-.24-.38 0-.15.17-.39.31-.39Z" fill="#fff"/><defs><linearGradient id="agdc2wczr" x1="10.42" y1="9.71" x2="68.15" y2="76.02" gradientUnits="userSpaceOnUse"><stop stop-color="#1A1E21"/><stop offset="1" stop-color="#06060A"/></linearGradient></defs></svg>