<!-- by TradingView --><svg width="56" height="56" viewBox="0 0 56 56" xmlns="http://www.w3.org/2000/svg"><path fill="#0C3B6A" d="M0 0h56v56H0z"/><path fill-rule="evenodd" d="m28 9-.84 1.9a8.37 8.37 0 0 1-10.66 4.4l-1.94-.74.75 1.94a8.37 8.37 0 0 1-4.42 10.66L9 28l1.9.84a8.37 8.37 0 0 1 4.4 10.66l-.74 1.94 1.94-.75a8.37 8.37 0 0 1 10.66 4.42L28 47l.84-1.9a8.37 8.37 0 0 1 10.66-4.4l1.94.73-.75-1.93a8.37 8.37 0 0 1 4.42-10.66L47 28l-1.9-.84a8.37 8.37 0 0 1-4.4-10.66l.73-1.94-1.93.75a8.37 8.37 0 0 1-10.66-4.42L28 9Zm0 1.4-.32.72a8.94 8.94 0 0 1-11.39 4.72l-.73-.28.28.73a8.94 8.94 0 0 1-4.72 11.4l-.72.31.72.32a8.94 8.94 0 0 1 4.72 11.39l-.28.73.73-.28a8.94 8.94 0 0 1 11.4 4.72l.31.72.32-.72a8.94 8.94 0 0 1 11.39-4.72l.73.28-.28-.73a8.94 8.94 0 0 1 4.72-11.4l.72-.31-.72-.32a8.94 8.94 0 0 1-4.72-11.39l.28-.73-.73.28a8.94 8.94 0 0 1-11.4-4.72L28 10.4Zm11 17.26 4 .34-4 .34a11 11 0 0 1-10.66 10.65L28 43l-.34-4a11 11 0 0 1-10.65-10.66L13 28l4-.34a11 11 0 0 1 10.66-10.65L28 13l.34 4a11 11 0 0 1 10.65 10.66Zm-11.42-9.65A10 10 0 0 0 18 27.58l8.82-.75.75-8.82Zm.84 0A10 10 0 0 1 38 27.58l-8.82-.75-.75-8.82ZM18.01 28.42A10 10 0 0 0 27.58 38l-.75-8.82-8.82-.75ZM28.42 38A10 10 0 0 0 38 28.42l-8.82.75-.75 8.82Z" fill="#fff"/></svg>