<!-- by TradingView --><svg width="56" height="56" viewBox="0 0 56 56" xmlns="http://www.w3.org/2000/svg"><path fill="#F0F3FA" d="M0 0h56v56H0z"/><path d="M19.5 25a4.43 4.43 0 0 0-4.28-3C11.98 22 10 25.08 10 28c0 2.97 2.03 6 5.31 6 2.48 0 4.34-1.48 4.34-4H16v-2h6v1.59c0 3.83-2.95 6.41-6.69 6.41C10.74 36 8 32.36 8 28c0-4.25 2.69-8 7.2-8 3.1 0 6.12 1.8 6.69 5H19.5ZM32.43 24c-.19-1.64-1.88-2-3.34-2-1.38 0-3.65.66-3.65 2.32 0 3.35 9.56 2.18 9.56 7.13 0 3.2-3.2 4.55-5.97 4.55-2.86 0-5.85-1.35-6.03-4.55h2.44c.15 1.82 1.98 2.55 3.58 2.55 1.52 0 3.98-.74 3.98-2.57 0-2.81-9.5-1.9-9.5-6.97 0-3.02 3-4.46 5.65-4.46 2.57 0 5.56 1.08 5.63 4h-2.35ZM37 36V20h5.58c3.11 0 5.42 1.8 5.42 5s-2.31 5-5.43 5h-4.2v-2h4.37c1.93 0 3.26-1.03 3.26-3 0-2-1.36-3-3.3-3H39v14h-2Z"/></svg>