<!-- by TradingView --><svg xmlns="http://www.w3.org/2000/svg" width="56" height="56" viewBox="0 0 56 56"><path fill="#0085FE" d="M0 0h56v56H0z"/><path d="M18.81 19.05c2.49 0 4.76.9 6.48 2.4a10.5 10.5 0 1 0 0 14.1 9.83 9.83 0 0 1-6.48 2.4C13.45 37.95 9 33.72 9 28.5c0-5.22 4.45-9.45 9.81-9.45ZM22 32.98A4.98 4.98 0 0 1 19 34c-2.76 0-5-2.46-5-5.5s2.24-5.5 5-5.5a5.06 5.06 0 0 1 4.72 3.67h-2.28C20.93 25.72 20.02 25 19 25c-1.6 0-3 1.62-3 3.5s1.4 3.5 3 3.5c1.2 0 2.24-.77 2.67-2H20v-2h4v6h-2v-1.02ZM33 23v2h-3.5v9h-2v-9H24v-2h9Zm3 0h-2v11h7v-2h-5v-9Zm8 0h-2v11h7v-2h-5v-9Z" fill="#fff"/></svg>