<!-- by TradingView --><svg width="56" height="56" viewBox="0 0 56 56" xmlns="http://www.w3.org/2000/svg"><path fill="#F0F3FA" d="M0 0h56v56H0z"/><path d="M26.5 13.73c-.03 0-.05-.01-.05-.04l-.17-1.6c0-.03 0-.05.04-.05.75-.04 1.32-.05 1.69-.02l1.42.1c.03 0 .04.01.04.04l-.14 1.42c0 .03-.02.04-.05.04-1.23-.02-2.16.01-2.78.1Zm-2.82.7c-.8.3-1.6.69-2.4 1.19-.04.03-.07.02-.1-.03l-.95-1.67c-.04-.06-.03-.11.04-.14.9-.49 1.85-.87 2.82-1.16.06-.02.1 0 .12.07l.53 1.62c.02.06 0 .1-.06.13Zm8.48-.3c.93.26 1.78.61 2.57 1.05.05.02.08.01.1-.03l.47-.81c.02-.05.02-.08-.03-.1-.86-.54-1.76-.98-2.69-1.33a.09.09 0 0 0-.1.02.19.19 0 0 0-.05.1c-.09.33-.2.66-.32.99-.02.05 0 .09.05.1Zm-14.43 4.79-.4.54c-.03.04-.06.04-.1.01l-1.9-1.4c-.04-.03-.05-.07-.01-.11.66-.85 1.39-1.6 2.18-2.29.03-.03.06-.02.1.01l1.47 1.66c.02.02.02.03 0 .05-.49.46-.93.97-1.34 1.53Zm21.5.02a3.9 3.9 0 0 0 .52-.4 17.55 17.55 0 0 0-1.96-2.35c-.03-.03-.05-.03-.07 0l-.53.59c-.02.02-.02.05.01.07a13.29 13.29 0 0 1 2.02 2.1Zm-26.78 4.99c.27-1.1.64-2.13 1.1-3.1.01-.02.03-.03.06-.02l2.4 1.08c.03.01.04.03.02.07-.24.57-.45 1.25-.63 2.06a2.7 2.7 0 0 0-.07.48c0 .05-.03.07-.08.06l-2.78-.6c-.02 0-.02-.01-.02-.03Zm28.36-2.37c.38.77.7 1.63.94 2.58.02.09.08.13.16.14a.1.1 0 0 0 .03 0c.06-.01.08-.05.07-.11a15.2 15.2 0 0 0-.8-2.82c-.02-.07-.06-.1-.13-.06l-.2.07c-.09.04-.11.1-.07.2Zm-1.71 8.13-10.5-2.9-.62-.14c-.1-.02-.1-.04 0-.07l.27-.02a106 106 0 0 0 2.74.1 12.48 12.48 0 0 0 1.07.02l.73.02a17 17 0 0 1 1.15.03l.55.02.63.02c.24 0 .5 0 .76.02l.47.01.53.02c.18.02.44.02.79.03a15.29 15.29 0 0 1 1.1.02l.56.02.64.02c.29 0 .5 0 .65.02.2.02.43.03.67.02a8 8 0 0 1 .6.02l.56.02.75.01.45.01c.24 0 .43 0 .55.02.28.02.56.03.84.02.08 0 .2 0 .37.02.22.03.38.03.49.02.08-.02.11.02.1.1l-.62 4.16c0 .05-.04.07-.09.06l-6.2-1.72Zm-26.73.93.06-.02c1.1-.26 2.11-.48 3.02-.65.04-.01.06-.04.05-.08-.22-.85-.35-1.71-.37-2.6 0-.02-.02-.03-.05-.03h-3.03c-.03 0-.04 0-.04.03a15.8 15.8 0 0 0 .23 3.26c.01.08.06.1.13.09Zm24.9 3.4c.5-.77.84-1.45 1.03-2.02.02-.06.06-.08.12-.05l5.16 2.32c.03.02.04.05.03.08-.54 1.1-1.16 2.1-1.86 3.04-.02.02-.04.02-.06 0l-4.4-3.23c-.06-.03-.06-.08-.03-.14Zm-20.9-1.63-3.12 1.42c-.05.02-.06.05-.04.1.41.99.92 1.95 1.54 2.88.03.06.08.07.13.03l2.9-2.13c.03-.02.03-.05.01-.08a13.3 13.3 0 0 1-1.38-2.2c0-.02-.02-.02-.03-.02Zm19.79 9.35-2.4-4.17c-.02-.03 0-.06.03-.09.67-.43 1.3-.93 1.88-1.5.01-.02.03-.02.04 0l3.54 3.96c.03.03.03.06 0 .09-.9.75-1.85 1.41-2.86 1.97-.02.01-.04 0-.06-.01a1.66 1.66 0 0 1-.17-.25Zm-14.38-3.77c-.77-.42-1.49-.9-2.14-1.45-.02-.02-.05-.02-.07 0l-2.53 2.85c-.05.05-.05.1 0 .15.8.75 1.66 1.43 2.61 2.03.04.03.07.02.1-.02l2.03-3.56Zm7.62 1.22c.67-.1 1.37-.3 2.11-.56.04-.02.07 0 .08.04l1.49 4.61c.02.07 0 .1-.07.12l-.92.23c-.76.18-1.55.3-2.4.37-.07 0-.1-.03-.1-.11l-.01-.25-.45-4.35c0-.06.02-.09.08-.09h.2Zm-5.3-.23-1.34 4.14c0 .02 0 .03.02.04l3.36.83c.02 0 .03 0 .03-.03l.47-4.53c0-.01 0-.02-.02-.03l-2.5-.43-.03.01Z" fill="#26A74A"/></svg>