<!-- by TradingView --><svg width="56" height="56" viewBox="0 0 56 56" xmlns="http://www.w3.org/2000/svg"><path fill="#F0F3FA" d="M0 0h56v56H0z"/><path d="M16.37 28.61a11.67 11.67 0 0 1 7.77-11.71 11.57 11.57 0 0 1 13.34 4.35l-1.9 1.32a9.3 9.3 0 0 0-16.4 8.38L26 26.1l3.86 3.85 12.67-8.74a16 16 0 0 0-29.6 1.45 16.13 16.13 0 0 0 .6 12.3l3.69-2.62a11.45 11.45 0 0 1-.86-3.73Z" fill="url(#aidldqm1w)"/><path d="M21.8 34.88a9.28 9.28 0 0 0 15.44-7.2l-7.63 5.26-3.85-3.82-5.55 3.93a10.18 10.18 0 0 0 1.59 1.83Z" fill="#C39C00"/><path d="m43.37 23.45-4 2.75.12.39a11.74 11.74 0 0 1-.55 5.07 11.66 11.66 0 0 1-13.09 7.68 11.68 11.68 0 0 1-6.62-3.78 11.15 11.15 0 0 1-.9-1.17l-3.63 2.58a16.04 16.04 0 0 0 20.09 5.5 16.07 16.07 0 0 0 8.58-19.02Z" fill="#C39C00"/><defs><linearGradient id="aidldqm1w" x1="13.4" y1="34.72" x2="35.36" y2="13.31" gradientUnits="userSpaceOnUse"><stop stop-color="#3B7B96"/><stop offset=".04" stop-color="#3F7E98"/><stop offset=".48" stop-color="#709EB1"/><stop offset=".81" stop-color="#8EB2C1"/><stop offset="1" stop-color="#99B9C7"/></linearGradient></defs></svg>