<!-- by TradingView --><svg width="56" height="56" viewBox="0 0 56 56" xmlns="http://www.w3.org/2000/svg"><path fill="#F0F3FA" d="M0 0h56v56H0z"/><path d="M12.5 24v1H7.75v-1h4.75ZM8 20v8H7v-8h1Zm5 0v8h-1v-8h1ZM18 22h1v6h-.99L18 22Zm.11 3.29.46-.01c0 1.54-.8 2.72-2.49 2.72-1.34 0-2.08-.89-2.08-2.2V22h1v3.81c0 .76.7 1.19 1.5 1.19 1.16 0 1.61-.59 1.61-1.71ZM23 22v1h-3v-1h3Zm-2-2h1v6.31c0 .42.1.76.55.76.16 0 .36-.05.44-.07l.01.88c-.15.06-.38.12-.73.12-.96 0-1.26-.87-1.26-1.7V20ZM26.64 27c.65 0 1.34-.3 1.4-1H29c-.06 1.17-1.28 2-2.36 2-1.66 0-2.64-1.42-2.64-3s.98-3 2.64-3c1.22 0 2.3.73 2.35 2h-.96c-.06-.74-.66-1-1.4-1-1.16 0-1.63.97-1.63 2 0 1.04.46 2 1.64 2ZM31 20v8h-1v-8h1Zm-.17 4.97-.45-.02C30.39 23.48 31.48 22 33 22c1.28 0 2 1.02 2 2.3V28h-1v-3.7c0-.8-.71-1.3-1.5-1.3-1.04 0-1.67.95-1.67 1.97ZM37 22v6h-1v-6h1ZM39 28h-1v-6h1v6Zm-.17-3.17-.45-.02c.01-1.49 1.01-2.81 2.58-2.81 1.33 0 2.04.84 2.04 2.14V28h-1v-3.87c0-.81-.69-1.13-1.5-1.13-1.07 0-1.67.8-1.67 1.83ZM47.99 22H49v6.35c0 1.5-.97 2.65-2.5 2.65-.84 0-1.74-.4-2.2-1.1l.53-.65c.39.5.93.86 1.59.86 1 0 1.57-.75 1.57-1.7V22ZM44 25.04c0-1.63.78-3.04 2.5-3.04 1.7 0 2.1 1.63 2.23 3.04-.12 1.4-.66 2.96-2.23 2.96-1.68 0-2.5-1.55-2.5-2.96Zm1 0c0 1 .36 1.96 1.57 1.96.98 0 1.45-.65 1.66-1.5v-.9c-.15-.84-.7-1.6-1.66-1.6-1.22 0-1.57 1.04-1.57 2.04ZM14.09 33h-2.24l.01-1h2.03c.8 0 1.61-.09 1.61-1 0-1-.76-1-1.61-1H12v7h-1v-8h2.89c1.4 0 2.61.37 2.61 2 0 1.17-.98 1.63-2 1.74l-.41.26Zm0 4h-2.64v-1H14c.89 0 2-.32 2-1.3 0-1.01-.98-1.7-1.91-1.7h-1.67l.01-1c1.6 0 4.57 0 4.57 2.54 0 1.63-1.47 2.46-2.91 2.46ZM19 31v6h-1v-6h1ZM22.7 37c-1.6 0-2.7-1.45-2.7-3.02 0-1.49.96-2.98 2.58-2.98 1.64 0 2.42 1.32 2.42 2.83v.67h-4.4v-1H24c-.06-.84-.51-1.5-1.42-1.5-1.16 0-1.57 1-1.57 1.98 0 1.03.65 2.02 1.75 2.02.71 0 1.18-.3 1.55-.79l.61.67A2.59 2.59 0 0 1 22.71 37ZM37.7 37c-1.6 0-2.7-1.45-2.7-3.02 0-1.49.96-2.98 2.58-2.98 1.64 0 2.42 1.32 2.42 2.83v.67h-4.4v-1H39c-.06-.84-.51-1.5-1.42-1.5-1.16 0-1.57 1-1.57 1.98 0 1.03.65 2.02 1.75 2.02.71 0 1.18-.3 1.55-.79l.61.67A2.59 2.59 0 0 1 37.71 37ZM27 37h-1v-6h1v6Zm-.22-3.17-.45-.02c0-1.41.73-2.81 2.31-2.81 1.23 0 1.86.91 1.86 2.07V37h-.99v-3.88c0-.77-.51-1.12-1.01-1.12-1.13 0-1.72.85-1.72 1.83Zm3.7-.55-.66.2c.02-1.3.92-2.48 2.27-2.48 1.3 0 1.91.9 1.91 2.13V37h-1v-3.88c0-.62-.5-1.12-1-1.12-.8 0-1.53.5-1.53 1.28ZM42 37h-1v-6h1v6Zm2-5.92V32a2.85 2.85 0 0 0-.52-.04c-.9 0-1.49.6-1.58 1.47l-.3.16c0-1.2.52-2.6 1.93-2.6.08 0 .16 0 .26.03.1.01.17.03.21.05Z"/><circle cx="36.5" cy="20.5" r=".5"/></svg>