<!-- by TradingView --><svg width="56" height="56" viewBox="0 0 56 56" xmlns="http://www.w3.org/2000/svg"><path fill="#F0F3FA" d="M0 0h56v56H0z"/><path fill="#1D0C42" d="M17 15h22v30H17z"/><path fill-rule="evenodd" d="M40 10H16v36h24V10Zm-1 5H17v30h22V15Z" fill="#EBE7A7"/><path fill-rule="evenodd" d="M18 16.35V16h1.45v.35H19V20h1.5v-3.65H20V16h1.5v.35H21v8.25h.5v.4H20v-.4h.5v-4.05H19v4.05h.45v.4H18v-.4h.44v-8.25H18Zm6.61 0V16h1.26v.35h-.4v8.25h.4v.4H24.6v-.4H25v-8.25h-.39Zm5.97 5.03v.42H31v2.27c-.01.1-.1.28-.42.28-.45 0-1.08-2.55-1.08-3.93 0-1.38.32-3.86 1.08-3.86.61 0 .68.85.64 1.44h.45c.07-.78-.04-2-1.09-2-1.3 0-1.58 2.1-1.58 4.42S29.79 25 30.58 25c.59 0 .84-.5.89-.76V21.8h.42v-.42h-1.3ZM26 32.58v1.66c-.03.26-.17.76-.51.76-.43 0-.98-2.26-.98-4.58 0-2.33.21-4.42.98-4.42.6 0 .67 1.55.63 2.33h-.26c.02-.6-.02-1.77-.37-1.77-.45 0-.48 2.48-.48 3.86s.22 3.82.48 3.93c.18 0 .24-.18.25-.28v-1.49h.26ZM17.57 26v.35H18v8.25h-.43v.4h1.31v-.4h-.4v-8.25h.4V26h-1.3Zm2.73 9v-.4h.38v-8.11h-.37V26h1l.7 6.34V26.5h-.32V26h.94v.49h-.23V35h-.54L21 27.04v7.56h.3v.4h-1Zm9.22 9v.5h1.24V44h-.34v-7.02l1.01 7.52H32v-8.04h.38V36h-1.15v.46h.27V42L30.76 36h-1.22v.46H30V44h-.48ZM30 30.5c0 2.49-.45 4.5-1 4.5s-1-2.01-1-4.5.45-4.5 1-4.5 1 2.01 1 4.5Zm-.5 0c0 2.21-.22 4-.5 4s-.5-1.79-.5-4 .22-4 .5-4 .5 1.79.5 4Zm3.27 4.5H31.5v-.47h.5V26.5h-.5V26h1.17l.65 6.06.5-6.06h1.22v.5h-.54v8.03h.54V35h-1.22v-.47h.23V29.6L33.43 35h-.24l-.7-5.4v4.93h.28V35Zm3.95-8.55V26h1.64l.2 1.98h-.42l-.16-1.53h-.48v3.57h.5V29h.5v2.91H38V30.5h-.5v4.05h.48l.16-1.56h.42l-.2 2.01h-1.64v-.45H37v-8.1h-.28ZM17.36 36v.42H18v7.6h-.64v.43h1.84v-.42h-.7v-3.68h.83v1.2h.3v-2.83h-.3V40h-.83v-3.58h1.07l.16 1.44h.42l-.2-1.86h-2.59Zm5.64.46V36h1.82v.46H24v6.78c.03.3.42.76.84.76.53 0 .7-.6.7-.76v-6.78h-.27V36h1.23v.46H26v6.78c-.08.42-.41 1.26-1.16 1.26-.93 0-1.28-1.1-1.28-1.26v-6.78H23Zm13 0h-.52V36h1.49c.48.05 1.53 1.01 1.53 4.52v.02c-.11 1.33-.33 3.96-1.53 3.96h-1.5V44H36v-7.53Zm.5 7.61v-7.59c.5.05 1.5.9 1.5 3.87 0 2.98-1 3.72-1.5 3.72ZM35 16.35V16h1.45v.35H36V20h1.5v-3.65H37V16h1.5v.35H38v8.25h.5v.4H37v-.4h.5v-4.05H36v4.05h.45v.4H35v-.4h.44v-8.25H35Z" fill="#E0EEB0"/><path d="M34.59 12.25a2 2 0 0 0 .72-.26c.04.02.06.05.08.08 0 1.12 0 1.97.02 2.45 0 .05.01.1.03.14.02.04.06.07.1.1l.1.04.1.03c.02.02.02.05.02.08a.3.3 0 0 1-.01.09l-.23-.02-.36-.02a3.66 3.66 0 0 0-.58.04v-.17l.13-.03.12-.05a.24.24 0 0 0 .1-.09.3.3 0 0 0 .04-.14 31.77 31.77 0 0 0 0-1.98.66.66 0 0 0-.36-.13v.03a.5.5 0 0 1-.08.3.24.24 0 0 1-.2.1.22.22 0 0 1-.18-.1.52.52 0 0 1-.08-.27.8.8 0 0 0-.22.26c-.08.14-.13.27-.15.4 0 .5 0 .96.02 1.4 0 .06.02.1.04.15.03.04.07.07.12.1l.14.04.13.03.02.08c0 .02 0 .04-.02.07a11.81 11.81 0 0 0-1.25 0 .5.5 0 0 1-.01-.07v-.08l.13-.03.12-.05a.24.24 0 0 0 .1-.1.3.3 0 0 0 .04-.14 28.55 28.55 0 0 0 0-1.96c-.08-.08-.22-.12-.43-.13a.5.5 0 0 1 0-.09.5.5 0 0 1 0-.07 2 2 0 0 0 .77-.27c.04.03.07.05.08.09v.56c.06-.15.14-.3.25-.44.12-.15.23-.22.35-.22.1 0 .17.04.23.12a.4.4 0 0 1 .06.13Zm.3-1.34c0-.11.03-.2.09-.28.05-.08.12-.12.2-.12.07 0 .14.04.2.12.05.07.08.17.08.28 0 .1-.03.2-.09.28-.05.07-.12.11-.2.11-.07 0-.14-.04-.2-.11a.48.48 0 0 1-.07-.28Zm2.54 3.24a.14.14 0 0 0-.08-.07 14.97 14.97 0 0 0-.15.26.63.63 0 0 1-.11.14.63.63 0 0 1-.13.08.42.42 0 0 1-.18.04.41.41 0 0 1-.26-.08.56.56 0 0 1-.17-.23l-.1-.33a4.3 4.3 0 0 1 .1-1.38c.03-.1.08-.17.12-.23.05-.06.1-.1.14-.11a.34.34 0 0 1 .14-.03c.1 0 .17.02.22.08.05.05.08.1.1.15-.11.04-.16.14-.16.3 0 .1.02.17.06.24.05.07.1.1.18.1.07 0 .13-.04.17-.11a.52.52 0 0 0 .07-.28c0-.2-.06-.37-.18-.5a.6.6 0 0 0-.46-.19c-.27 0-.5.14-.67.43-.18.28-.27.66-.27 1.12 0 .2.02.38.05.55.03.17.08.3.13.41.05.11.12.2.2.28a.7.7 0 0 0 .22.16.6.6 0 0 0 .24.05c.17 0 .32-.07.46-.21.15-.14.25-.36.32-.64Zm.31-1.92a.78.78 0 0 0-.23.58c0 .12.03.21.08.28.06.07.12.1.18.1.09 0 .15-.03.2-.1a.42.42 0 0 0 .06-.24c0-.2-.07-.3-.22-.34a.34.34 0 0 1 .13-.2.4.4 0 0 1 .25-.08c.12 0 .2.05.28.16.06.1.1.26.1.48v.44c-.23.09-.42.16-.55.23-.14.06-.26.14-.35.23a.7.7 0 0 0-.2.27 1.13 1.13 0 0 0 .01.66l.08.15a.4.4 0 0 0 .14.1c.06.04.13.05.2.05.06 0 .1-.01.16-.03a.7.7 0 0 0 .12-.06 3.98 3.98 0 0 0 .31-.33l.08-.1c0 .16.04.28.09.36.05.07.1.11.18.11.03 0 .06 0 .1-.02a.33.33 0 0 0 .07-.04.82.82 0 0 0 .2-.26 31.22 31.22 0 0 0 .17-.34c-.02-.06-.06-.1-.12-.1-.07.17-.14.25-.19.25-.06 0-.1-.06-.1-.18v-1.32c0-.34-.04-.58-.15-.73-.1-.14-.28-.21-.54-.21-.2 0-.39.08-.54.23Zm.83 1.29v.67c-.15.27-.3.4-.45.4a.2.2 0 0 1-.17-.09.43.43 0 0 1-.06-.25.57.57 0 0 1 .13-.42.7.7 0 0 1 .2-.16c.1-.06.2-.1.35-.15Zm-8.44 1.33.08-.03a.38.38 0 0 0 .07-.05.2.2 0 0 0 .06-.1.5.5 0 0 0 .02-.14v-1.56c0-.4-.06-.59-.2-.59-.08 0-.15.04-.23.11-.09.08-.19.19-.3.34v.04l.01 1.66c0 .06.02.1.03.15.02.04.05.07.09.1l.08.04.1.03V15a6 6 0 0 0-.9 0l-.01-.08v-.07l.09-.03a.38.38 0 0 0 .07-.05.2.2 0 0 0 .06-.1.5.5 0 0 0 .02-.14v-1.56c0-.4-.07-.59-.21-.59-.07 0-.15.04-.23.1a3.1 3.1 0 0 0-.3.34 82.56 82.56 0 0 0 .05 1.86l.07.1.09.04.09.03V15a6.4 6.4 0 0 0-.98 0l-.01-.07v-.08l.11-.03.1-.05a.22.22 0 0 0 .1-.1c.02-.03.03-.08.03-.14a33.51 33.51 0 0 0 0-1.96c-.07-.08-.2-.12-.37-.13a.6.6 0 0 1-.01-.09v-.07c.26-.04.48-.13.67-.27l.07.09v.52a5.02 5.02 0 0 1 .3-.42.71.71 0 0 1 .19-.15.4.4 0 0 1 .19-.05c.12 0 .22.05.28.15.06.1.1.26.12.48a8.17 8.17 0 0 1 .31-.42.7.7 0 0 1 .2-.16.4.4 0 0 1 .18-.05c.15 0 .25.07.32.21.06.14.1.36.1.66l.01 1.66c0 .06.02.1.03.15.02.04.05.07.09.1l.08.04.1.03V15a6.04 6.04 0 0 0-.9 0 .87.87 0 0 1-.02-.08l.01-.07ZM26.33 11a.13.13 0 0 0-.05.04 1.2 1.2 0 0 1-.06.3.55.55 0 0 1-.15.23l.04.15-.82 2.88c-.04.14-.2.23-.46.27a.28.28 0 0 0 0 .13 15.36 15.36 0 0 1 1.02 0 .4.4 0 0 0 0-.06v-.07h-.06l-.05-.02a1.26 1.26 0 0 0-.11-.02l-.05-.02a.2.2 0 0 1-.04-.03.41.41 0 0 1-.04-.03.13.13 0 0 1-.02-.04v-.08l.29-1.04a31.34 31.34 0 0 1 .86 0l.28.99v.09c0 .1-.12.16-.38.2a.28.28 0 0 0 0 .13 13.66 13.66 0 0 1 1.26 0v-.13a1.97 1.97 0 0 1-.23-.06.32.32 0 0 1-.11-.07.28.28 0 0 1-.07-.11L26.34 11Zm.24 2.37a5.64 5.64 0 0 1-.74 0l.37-1.3.37 1.3Zm6.15-.16h-1.17v.34c0 .32.06.57.18.77.12.19.28.28.48.28a.44.44 0 0 0 .27-.09.48.48 0 0 0 .1-.1 1.08 1.08 0 0 0 .13-.23l.05-.1c.03 0 .06.03.08.07-.07.28-.18.5-.33.64a.7.7 0 0 1-.49.21.66.66 0 0 1-.25-.05.73.73 0 0 1-.24-.16 1.07 1.07 0 0 1-.2-.28c-.06-.1-.1-.24-.14-.4a2.73 2.73 0 0 1-.05-.56c0-.45.1-.82.27-1.11.19-.3.42-.44.68-.44a.6.6 0 0 1 .31.08c.1.05.16.11.2.2.06.08.1.18.12.28a1.37 1.37 0 0 1 0 .65Zm-.68-1c-.1 0-.19.06-.28.2-.09.12-.15.32-.19.58h.77l.03-.2c0-.17-.03-.31-.08-.42-.05-.1-.13-.16-.25-.16ZM16.8 11l.66.02 1.22 2.56.09.15h.01a70.56 70.56 0 0 0 0-2.3c-.01-.17-.13-.27-.36-.3l-.01-.08a.3.3 0 0 1 0-.05 7.42 7.42 0 0 0 .9 0 .3.3 0 0 1 0 .13c-.24.03-.36.13-.36.3a73.32 73.32 0 0 0 0 3.56l-.03.01-1.6-3.31h-.02a103.65 103.65 0 0 0 .01 2.88c0 .17.12.27.36.3V15a7.22 7.22 0 0 0-.9 0v-.13c.24-.04.36-.14.36-.3a73.55 73.55 0 0 0 .01-3.22.47.47 0 0 0-.34-.22.24.24 0 0 1-.01-.07V11Zm3.01 2.21h1.17a1.57 1.57 0 0 0 0-.65.97.97 0 0 0-.1-.28.52.52 0 0 0-.21-.2.6.6 0 0 0-.31-.08c-.27 0-.5.15-.68.44-.19.29-.28.66-.28 1.11 0 .2.02.38.05.55.04.17.08.3.14.41.06.11.13.2.2.28.08.07.16.13.24.16.08.03.17.05.26.05a.7.7 0 0 0 .48-.21c.15-.14.26-.36.34-.64a.15.15 0 0 0-.09-.07l-.05.1a2.26 2.26 0 0 1-.13.23.48.48 0 0 1-.1.1.44.44 0 0 1-.27.09c-.2 0-.36-.1-.48-.28-.12-.2-.18-.45-.18-.77v-.34Zm.22-.8c.08-.14.18-.2.28-.2.11 0 .2.05.24.16.05.11.08.25.08.41 0 .06 0 .13-.02.21h-.77c.04-.26.1-.46.19-.59Zm1.35-.39c-.16 0-.31 0-.47-.02a.37.37 0 0 0 0 .15.58.58 0 0 1 .17.09c.03.02.06.05.08.1.03.03.05.08.06.13l.6 2.53h.1l.48-1.84.41 1.84h.1l.63-2.53c.05-.2.15-.3.3-.32a.37.37 0 0 0 0-.15 4.79 4.79 0 0 1-.65 0 .6.6 0 0 0-.01.08.6.6 0 0 0 0 .07c.15.02.21.08.21.18l-.01.14-.42 1.67-.35-1.67a.93.93 0 0 1-.02-.12c0-.04 0-.07.02-.1a.15.15 0 0 1 .07-.05.48.48 0 0 1 .08-.03l.08-.02a.6.6 0 0 0 .01-.07.6.6 0 0 0 0-.08 5.2 5.2 0 0 1-.88 0 .37.37 0 0 0 0 .15.38.38 0 0 1 .15.08c.03.02.06.06.08.1a.6.6 0 0 1 .05.14l.08.36-.35 1.31h-.01l-.39-1.67a.93.93 0 0 1-.02-.12l.02-.1a.14.14 0 0 1 .06-.05.47.47 0 0 1 .14-.04l.02-.08-.01-.08-.4.02Z" fill="#B90A0F"/></svg>