<!-- by TradingView --><svg width="56" height="56" viewBox="0 0 56 56" xmlns="http://www.w3.org/2000/svg"><path fill="#F0F3FA" d="M0 0h56v56H0z"/><path d="M40.96 35.77A56.69 56.69 0 0 1 28.89 37C15.69 37 5 32.97 5 28s10.7-9 23.89-9c2.33 0 4.58.13 6.71.36-1.5-.09-3.09-.12-4.77-.09-12.12 0-21.94 3.98-21.94 8.62 0 4.64 9.82 8.4 21.94 8.4 3.97.08 7.33-.11 10.13-.52Z" fill="#004593"/><path d="M49 24v2h-1.35l-1.45 2.54L47.3 30H49v.7h-5.8V30h.61l-.94-1.28-.69 1.28h.7v.7h-3.46V30h1.31l1.35-2.35L40.87 26h-1.35v-1.98H45V26h-.7l1.1 1.48.8-1.48h-.69v-2H49Zm-9.58 7v.33h3.46V31h-3.46Zm3.78 0v.33H49V31h-5.8Zm5.8.63h-5.8v.34H49v-.34Zm-6.12 0h-3.46V32h3.46v-.37Z" fill="#EE7316"/><path d="m33.82 31.6.25.4h4.14l-.21-.35v-.05h-4.18Zm-1.63 0v.4H28v-.4h4.2Zm1.45-.3H38V31h-4.54l.18.3ZM32.2 31v.3H28V31h4.2Zm1.1-.3L31 26.91V30h1.2v.7H28V30h1.5v-5.58L28.64 23h4.24l3.5 5.92V26h-1.43v-2H39v2h-1v4.7h-4.72Zm-5.79 0v-.74h-.96v-3.95h.96V24H22v2.01h1v3.95h-1v.74h5.5Zm-6 0V30h-1v-4h1v-2H16v2h1v4h-1v.7h5.5ZM16 31h5.5v.3H16V31Zm0 .6v.4h5.5v-.4H16Zm6 0v.4h5.5v-.4H22Zm0-.3V31h5.5v.3H22Z" fill="#004593"/></svg>