<!-- by TradingView --><svg width="56" height="56" viewBox="0 0 56 56" xmlns="http://www.w3.org/2000/svg"><path fill="#F0F3FA" d="M0 0h56v56H0z"/><path d="M15 15h26v5h2v-7H13v15h2V15Z" fill="url(#azdb4b2ec)"/><path d="M41 27h2v-6h-2v6Z" fill="#868686"/><path d="M15 29h-2v14h30v-7h-2v5H15V29Z" fill="url(#bzdb4b2ec)"/><path d="M41 35h2v-6h-2v6Z" fill="#9C693E"/><path fill="url(#czdb4b2ec)" d="M18 24h3v12h-3z"/><path fill="url(#dzdb4b2ec)" d="M18 19h3v3h-3z"/><path d="M28 29.5 21.5 20v4.5L28 34l6-9.5V36h3V19h-3l-6 10.5Z" fill="url(#ezdb4b2ec)"/><path d="M39.5 19H39v17h.5V19Z" fill="#868686"/><defs><linearGradient id="azdb4b2ec" x1="40" y1="13" x2="13" y2="25.5" gradientUnits="userSpaceOnUse"><stop stop-color="#4F4F4F"/><stop offset="1" stop-color="#737977"/></linearGradient><linearGradient id="bzdb4b2ec" x1="42" y1="41" x2="13" y2="29" gradientUnits="userSpaceOnUse"><stop stop-color="#A96C29"/><stop offset="1" stop-color="#A06440"/></linearGradient><linearGradient id="czdb4b2ec" x1="19.5" y1="24" x2="19.5" y2="36" gradientUnits="userSpaceOnUse"><stop stop-color="#81848A"/><stop offset="1" stop-color="#474B4A"/></linearGradient><linearGradient id="dzdb4b2ec" x1="18.5" y1="19.5" x2="20" y2="22" gradientUnits="userSpaceOnUse"><stop stop-color="#8F8D8F"/><stop offset="1" stop-color="#4F5458"/></linearGradient><linearGradient id="ezdb4b2ec" x1="34" y1="20.5" x2="24" y2="34" gradientUnits="userSpaceOnUse"><stop stop-color="#D19632"/><stop offset="1" stop-color="#98653A"/></linearGradient></defs></svg>