<!-- by TradingView --><svg width="56" height="56" viewBox="0 0 56 56" xmlns="http://www.w3.org/2000/svg"><path fill="#F0F3FA" d="M0 0h56v56H0z"/><path fill-rule="evenodd" d="M34 17h-2v4.9a2.76 2.76 0 0 0-2-.9c-1.66 0-3 1.57-3 3.5s1.34 3.5 3 3.5c.77 0 1.47-.34 2-.9v.9h2V17Zm-2 7.5a1.5 1.5 0 1 1-3 0 1.5 1.5 0 0 1 3 0ZM6 28v-8h2v8H6Zm3-7v7h2v-3.53.01c.08-.5.4-1.47 1.07-1.47.66 0 .9.72.93 1.08V28h2v-4.74c0-1.18-.78-2.26-2-2.26-.98 0-1.74.93-2 1.4V21H9Zm7 7v-7h2v1c.53-.53 1.25-1 2-1v2.42a2.5 2.5 0 0 0-2 .94V28h-2Zm4.43-6.4.64 1.6c.24-.15.88-.45 1.55-.45.85 0 1.38.48 1.38.88v.55c-.36-.2-.88-.37-1.51-.37-1.34 0-2.49.74-2.49 2.1 0 1.15.92 2.09 2.3 2.09.58 0 1.24-.44 1.7-.84V28h2v-4.57c-.15-.8-.78-2.43-2.86-2.43-1.23 0-2.32.4-2.7.6ZM24 25.76v-.71a2.57 2.57 0 0 0-.9-.16c-.9 0-.99.6-.99.86s.05.77.88.77c.66 0 .95-.5 1.01-.76Z" fill="#005199"/><path fill-rule="evenodd" d="M35 33.65V29.5h-1V29h1v-3h.5v3h2v.5h-2v3.86c0 .91.74 1.18 1.31 1.18.46 0 .92-.15 1.1-.22l.09.51c-.25.06-.85.17-1.25.17-1.23 0-1.68-.9-1.75-1.35ZM27 32a3 3 0 1 1-6 0 3 3 0 0 1 6 0Zm-.5 0a2.5 2.5 0 1 1-5 0 2.5 2.5 0 0 1 5 0Zm4.5 3a3 3 0 1 0-2.5-4.66V29H28v11h.5v-6.34A3 3 0 0 0 31 35Zm0-5.5a2.5 2.5 0 1 0 0 5 2.5 2.5 0 0 0 0-5Zm14.42 4.27a3 3 0 1 1 .08-3.43l-.44.24a2.5 2.5 0 1 0-.01 2.85l.37.34ZM39.5 26H39v1h.5v-1Zm0 3H39v6h.5v-6Zm7.34 1.56c0-.27.17-.53.5-.74.34-.2.84-.34 1.44-.34.96 0 1.44.38 1.54.51l.44-.26c-.2-.29-.86-.73-1.98-.73-.69 0-1.3.16-1.74.43-.44.27-.73.66-.73 1.13 0 .5.44.85.94 1.1.5.25 1.15.46 1.82.67l.06.02c.67.22 1 .44 1.16.62.16.16.18.3.18.4 0 .11-.05.4-.27.66-.21.24-.62.49-1.42.49-1.32 0-2.17-.5-2.4-.7l-.38.34c.34.3 1.32.84 2.78.84.95 0 1.52-.3 1.84-.68.32-.36.38-.76.38-.94 0-.18-.04-.44-.3-.72a3.18 3.18 0 0 0-1.4-.76l-.02-.01a13.3 13.3 0 0 1-1.77-.65c-.48-.24-.67-.46-.67-.68Z"/></svg>