<!-- by TradingView --><svg width="56" height="56" viewBox="0 0 56 56" xmlns="http://www.w3.org/2000/svg"><path fill="#F0F3FA" d="M0 0h56v56H0z"/><path fill-rule="evenodd" d="M28 44a16 16 0 1 0 0-32 16 16 0 0 0 0 32Zm1.5-25a1.5 1.5 0 1 0 0-3 1.5 1.5 0 0 0 0 3ZM28 25v-3h3v10.5c0 .5-.2 1.6-1 2l-.5 1-.5-1c-.33-.17-1-.8-1-2V26h2v-1h-2Zm-8.58 10.34c-.5.2-.92.43-1.14.58a.5.5 0 1 1-.56-.84c.28-.18.77-.45 1.34-.67.57-.22 1.26-.41 1.94-.41.47 0 .84.12 1.16.32.3.2.53.45.72.67l.09.1c.35.41.64.75 1.19.94.2.07.5.09.86.05.36-.03.76-.11 1.17-.22.81-.23 1.6-.57 2.09-.8a.5.5 0 0 1 .44.89c-.52.26-1.37.62-2.26.87-.44.12-.9.22-1.35.26-.43.04-.88.02-1.27-.1a3.52 3.52 0 0 1-1.63-1.23 2.33 2.33 0 0 0-.6-.58 1.1 1.1 0 0 0-.61-.17c-.51 0-1.08.14-1.58.34Z" fill="url(#av1n1j2xt)"/><defs><linearGradient id="av1n1j2xt" x1="28" y1="12" x2="28" y2="44" gradientUnits="userSpaceOnUse"><stop stop-color="#48B95D"/><stop offset=".5" stop-color="#73C15C"/><stop offset="1" stop-color="#46B75B"/></linearGradient></defs></svg>