<!-- by TradingView --><svg xmlns="http://www.w3.org/2000/svg" width="56" height="56" viewBox="0 0 56 56"><path fill="#F0F3FA" d="M0 0h56v56H0z"/><path d="M13 43h30V13H13v30Z" fill="#376AB3"/><path d="M23.92 17.95c0 3.26 4.9 2.53 4.9 5.15 0 .48-.27 1.85-1.82 1.9-2-.08-2-1.47-2-1.82V22h-1v3.6c.99.18 2.04.4 3 .4 1.72 0 3.69-.63 3.69-3.08 0-3.31-4.97-3.26-4.97-5.27 0-.46.18-1.63 1.62-1.58C28.84 16.02 29 18 29 18h1v-3h-3.42c-1.5.33-2.66 1.32-2.66 2.95ZM18.5 16c.75 0 1.57-.03 1.5 1v6.25c-.15 1.1-1.2 1.58-2.09 1.58-.5 0-1.64-.12-1.64-1.2V22H15v3.55c.13.05 1.24.45 2.99.45h.03c2.55-.03 4.06-1.7 3.98-3.08V17c0-.69.9-1 1.5-1v-1h-5v1ZM35 17.21V20h1.26c.89 0 1.74-.95 1.74-2 0-.6-.4-1.65-1.23-1.65h-1.1c-.42 0-.67.48-.67.86ZM37.6 15c1.35 0 2.16 1.65 2.16 2.9 0 1.53-.91 2.22-2.26 2.7 1.95.77 1.37 3.94 3.5 4.4v1h-2.46c-.1-.25-1.57-5-3.01-5H35v2.76c0 .67.19 1.24 1 1.24.03.13 0 .94 0 1-2.28.03-4 0-4 0v-1c.53.08 1.03-.3 1-1.16v-6.68c0-.63-.24-.81-1-.81V15h5.6Z" fill="#F0F3FA"/><path d="M42.04 36c-8.82-3.42-19.17-3.28-28.04-.02 8.28-5.26 19.79-5.36 28.04.02Z" fill="#FFE62B"/></svg>