<!-- by TradingView --><svg width="56" height="56" viewBox="0 0 56 56" xmlns="http://www.w3.org/2000/svg"><path fill="#F0F3FA" d="M0 0h56v56H0z"/><path d="M33.5 37.09A10.62 10.62 0 1 0 22.38 37l-.34.55a.11.11 0 0 0-.01.09c0 .03.02.05.05.07a11.15 11.15 0 0 0 11.64.08l.2-.07c.2-.05.46-.13.47-.17 0-.03-.15-.03-.3-.03-.14 0-.29 0-.3-.02l-.27-.42Z" fill="#D6AD49"/><path d="M27.94 43.94a15.93 15.93 0 1 1 .1-31.87 15.93 15.93 0 0 1-.1 31.87Zm.03-.41a15.5 15.5 0 0 0 14.37-21.44 15.52 15.52 0 1 0-14.37 21.44Z" fill="#020202"/><path d="M40.66 26.88c.78-.1 1.37-.48 1.32-.84-.06-.37-.73-.58-1.5-.48-.79.1-1.38.48-1.32.85.05.36.72.57 1.5.47ZM14.77 24.9c.22-.18.27-.47.1-.65-.15-.17-.46-.16-.68.03-.22.19-.27.48-.1.65.15.17.46.16.68-.03Z" fill="#AF191F"/><path d="M27.98 43.53a15.5 15.5 0 0 1-14.3-21.49 15.53 15.53 0 0 1 25.31-5 15.52 15.52 0 0 1-11.01 26.49Zm1.9-28.73c.07.58.15 1.16.26 1.74.02.14.1.19.23.13a.12.12 0 0 0 .06-.05l1.21-2.33c.05-.11.2-.22.42-.32l.03-.02a.05.05 0 0 0-.01-.06l-.03-.01-.82-.14-.05.01a.07.07 0 0 0-.03.03v.05c0 .01 0 .02.02.03l.26.2c.05.03.06.07.03.12l-.74 1.45-.03.03h-.04l-.03-.01a.06.06 0 0 1-.02-.04l-.2-1.65c0-.03 0-.06.03-.08a.13.13 0 0 1 .07-.05l.14-.04.04-.02a.06.06 0 0 0 0-.08.07.07 0 0 0-.05-.02l-1.06-.19c-.12-.02-.13.01-.05.1.55.52.09 1.25-.29 1.77 0 0-.01.02-.03.02h-.04a.07.07 0 0 1-.03-.02.06.06 0 0 1-.02-.03l-.15-1.49c0-.06.02-.11.06-.15l.14-.14.02-.04a.07.07 0 0 0-.03-.07.08.08 0 0 0-.04-.01l-1.01-.15h-.03l-.02.02v.05l.21.26a.1.1 0 0 1 .03.06l.34 2.63c0 .04.02.07.05.1.02.03.06.04.1.05a.2.2 0 0 0 .11-.02.18.18 0 0 0 .08-.08l.82-1.56c.05-.1.08-.09.1.02Zm-3.46.54c0-.06.01-.12.04-.18a.3.3 0 0 1 .15-.11.32.32 0 0 1 .19-.01.3.3 0 0 1 .15.1l.32.36c.06.08.09.07.08-.03l-.1-1.13a.08.08 0 0 0-.03-.05.09.09 0 0 0-.11 0 .08.08 0 0 0-.04.04c-.07.31-.28.48-.62.51-.06 0-.1-.02-.1-.09l-.11-.97c0-.03 0-.07.03-.1a.13.13 0 0 1 .08-.04c.55-.07 1 .1 1.35.49l.05.03c.02 0 .04 0 .05-.02.02 0 .03-.02.04-.04v-.05l-.26-.62a.12.12 0 0 0-.05-.06 373.97 373.97 0 0 0-2.32.22.11.11 0 0 0-.03.05c0 .03 0 .05.04.05.25.01.38.12.4.33.06.72.14 1.38.23 1.97.02.1 0 .18-.04.26a.45.45 0 0 1-.2.2.48.48 0 0 1-.53-.07l-.94-.8c-.05-.05-.05-.1-.01-.14l.34-.43a.18.18 0 0 0 .04-.07v-.08c-.17-.69-.62-.9-1.34-.64a109.77 109.77 0 0 0-1.51.57l-.01.03.01.03h.03l.35.04c.08 0 .13.04.16.1l.87 2.1a.14.14 0 0 1-.02.16l-.2.2v.07l.03.02h.04l1.18-.45c.1-.04.1-.07 0-.1l-.33-.07a.15.15 0 0 1-.1-.08l-.36-.8a.15.15 0 0 1 0-.1.16.16 0 0 1 .06-.09.17.17 0 0 1 .2.02l1 .9c.05.05.11.07.17.05a10.9 10.9 0 0 1 3.01-.44c.04 0 .07-.02.1-.04a.14.14 0 0 0 .04-.07l.16-.73-.01-.05a.07.07 0 0 0-.04-.03h-.05a.07.07 0 0 0-.03.04 1.5 1.5 0 0 1-1.24.77.17.17 0 0 1-.12-.04.16.16 0 0 1-.06-.1l-.08-.79Zm6.95-.57.3-.05c.16-.03.17-.08.01-.14l-1.16-.44h-.03l-.02.01a.04.04 0 0 0 0 .06c.16.15.18.37.06.63a63.8 63.8 0 0 1-.84 1.87.2.2 0 0 1-.08.04l-.25.05a.07.07 0 0 0-.04.02.07.07 0 0 0 0 .08c0 .02.02.03.03.03l1.17.45h.03c.01 0 .03 0 .03-.02a.05.05 0 0 0 0-.06l-.2-.22a.14.14 0 0 1-.03-.16l.88-2.04a.18.18 0 0 1 .06-.07.19.19 0 0 1 .08-.04Zm1.4 1.35-.14 2.48c0 .05.01.1.04.13.03.04.06.06.11.08.04.01.1.01.14 0a.22.22 0 0 0 .11-.08l1.49-1.96a.15.15 0 0 1 .14-.06l.34.03h.05l.02-.04v-.04a.06.06 0 0 0-.02-.03l-.75-.51-.03-.01h-.03l-.02.03v.03l.1.36c.02.07.01.12-.02.17l-.85 1.12-.04.03a.07.07 0 0 1-.08-.03.07.07 0 0 1 0-.04l.15-2.1c0-.04 0-.07-.02-.1a.2.2 0 0 0-.07-.08l-.7-.47c-.1-.07-.13-.05-.1.06l.15.37a.27.27 0 0 1-.04.27l-1.27 1.63a.15.15 0 0 1-.14.06l-.33-.04-.05.01a.07.07 0 0 0-.03.03v.04c0 .02.02.03.03.04l.77.53a.06.06 0 0 0 .07 0l.02-.03v-.04l-.15-.34a.15.15 0 0 1 .02-.16l1.04-1.37c.07-.1.1-.08.1.03Zm-13.7.59c.57-.87-.41-1.35-1.15-.84a72.97 72.97 0 0 0-1.32.96v.04l.04.02h.04c.24-.07.43-.01.58.18l1.23 1.62c.1.14.08.27-.07.41-.02.03-.02.05.02.07h.05c.02 0 .05 0 .09-.02.46-.33 1.74-1.05 1.76-1.64 0-.44-.22-.7-.69-.8-.18-.02-.33.05-.5.09-.11.03-.13 0-.08-.1Zm1.37 20.22c-.12.17-.28.47-.3.64-.02.05 0 .1.06.13a10.67 10.67 0 0 0 11.6 0c.04-.03.01-.08 0-.14l-.37-.54c1.73-1.27 3.33-2.63 4.08-4.48a11 11 0 0 0-.23-9.08c-2.65-5.76-9.9-8.13-15.34-4.01-3.82 2.89-5.04 7.77-3.76 12.17.61 2.13 2.26 3.76 4.26 5.31Zm14.78-17.5c.22.4-.1.71-.46.81a.48.48 0 0 1-.32-.01.45.45 0 0 1-.23-.21c-.55-1.1 3.18-3.29 2.34-.58v.05c.01.01.02.03.04.03h.05c.02 0 .04 0 .05-.02l.4-.53c.04-.05.03-.1 0-.14-.13-.14-.25-.3-.35-.46-.91-1.53-3.82.23-2.76 1.66.2.3.63.53.96.75.04.03.09.03.13 0l.55-.45c.05-.03.1-.04.15-.03l.27.08h.05l.04-.02a.07.07 0 0 0 0-.1l-.8-.9a.07.07 0 0 0-.08 0 .06.06 0 0 0-.03.03v.04Zm-19.25 1.88c-.1-.68.15-1.94-.74-2.18-.81-.22-1.57.73-1.23 1.44.14.29.53.5.73.1a.25.25 0 0 0 .01-.19.26.26 0 0 0-.12-.14l-.28-.16a.32.32 0 0 1-.13-.13.3.3 0 0 1 .03-.33.33.33 0 0 1 .15-.1c.38-.14.7-.02.97.35.3.44.27 1.01.43 1.51a12.33 12.33 0 0 0 .24.6.14.14 0 0 0 .14.02.13.13 0 0 0 .05-.04l1.02-1.44c.03-.04.03-.08-.01-.12l-.58-.6a.08.08 0 0 0-.1-.01.07.07 0 0 0-.03.03v.05l.12.4a.2.2 0 0 1-.02.17l-.51.8-.04.03h-.04a.08.08 0 0 1-.04-.02.07.07 0 0 1-.02-.04Zm-.5 1.46-2.48-1c-.05-.01-.07 0-.08.05l-.09 1.02.01.04c0 .02.02.03.04.03h.04c.02 0 .03-.02.04-.03.16-.28.4-.36.7-.24.46.18.92.36 1.37.56a.4.4 0 0 1 .17.13c.04.06.06.13.07.2v.3l.02.04.04.02h.04l.03-.04.62-1.39v-.04a.06.06 0 0 0-.03-.04.07.07 0 0 0-.05 0 .07.07 0 0 0-.04.02l-.26.33a.13.13 0 0 1-.07.04h-.1Zm24.01.32c-.02-1.77-2.8-1.53-3.24-.12-.23.73.42 1.48 1.23 1.45l.04-.01.02-.04v-.04a.06.06 0 0 0-.04-.02l-.6-.24a.2.2 0 0 1-.1-.08c-.69-1.13 1.3-1.7 2.11-1.63.06 0 .1.03.15.07.54.51.02.95-.25 1.4v.06c0 .01 0 .03.02.04a.08.08 0 0 0 .1 0l.66-.46c.06-.04.07-.09.02-.14l-.07-.1a.21.21 0 0 1-.05-.14Zm-26.2 1.15c-.1-.35-.35-.52-.73-.51a.29.29 0 0 0-.17.05c-1.07.72-.43 2.48.9 1.71a.09.09 0 0 1 .1.02c.02 0 .02.02.03.03.16.55.76.88 1.24.4 1.04-1.05-.2-2.81-1.22-1.67a.09.09 0 0 1-.12 0 .08.08 0 0 1-.03-.03ZM42.3 25.9a1.23 1.23 0 0 0-.59-.9 2.06 2.06 0 0 0-1.85-.12c-.2.09-.37.2-.51.34-.15.14-.26.3-.32.47-.07.17-.1.34-.08.52.04.35.25.67.59.9a2.05 2.05 0 0 0 1.85.12c.2-.09.37-.2.52-.34.14-.14.25-.3.31-.47.07-.17.1-.34.08-.52Zm-26.04 1.78h.03c0 .02.01.02.02.03l.13.46c0 .01 0 .02.02.03a.06.06 0 0 0 .07 0l.01-.04.12-1.54-.01-.03-.03-.02h-.04a.05.05 0 0 0-.02.03l-.2.47-.02.02-.03.01-2.74-.12h-.02l-.02.02a.05.05 0 0 0-.01.04l.26.99s0 .02.02.02a.06.06 0 0 0 .05.01l.03-.02.23-.45a.05.05 0 0 1 .05-.03l2.1.12Zm23.64.28c0-.1-.04-.19-.1-.26a.39.39 0 0 0-.27-.1c-.1 0-.2.04-.27.1a.35.35 0 0 0-.08.4l.08.1a.38.38 0 0 0 .27.11.4.4 0 0 0 .26-.1.36.36 0 0 0 .11-.25Zm-23.54 4.78c0-.1-.04-.2-.12-.27a.41.41 0 0 0-.28-.11c-.1 0-.2.04-.28.11a.37.37 0 0 0-.12.27c0 .1.04.2.12.27.07.07.17.1.28.1.1 0 .2-.03.28-.1a.37.37 0 0 0 .12-.27Zm23.9.1c.01-.05 0-.1 0-.14a.35.35 0 0 0-.08-.13.43.43 0 0 0-.13-.09.5.5 0 0 0-.47.02.36.36 0 0 0-.1.1.3.3 0 0 0-.04.26c.01.05.04.09.07.13l.13.09a.5.5 0 0 0 .47-.02.36.36 0 0 0 .1-.1.3.3 0 0 0 .06-.13Zm-1.43 1.77a.78.78 0 0 1-.6-.1c-.05-.03-.09-.02-.12.03l-.24.4c-.04.07-.02.1.05.08.51-.12 1.3-.18 1.64.3.03.04.06.04.09-.01l.14-.28c.03-.07 0-.11-.06-.13a1.56 1.56 0 0 1-1.13-1.1l-.01-.02-.04-.01a.06.06 0 0 0-.05.03l-.07.12c-.02.03-.02.07 0 .1l.44.49c.05.05.03.09-.04.1Zm-21.42-.44a.7.7 0 0 1-.04.57c-.04.1-.01.12.08.09.49-.17.1-.93-.34-.93-.62 0-.48.68-.5 1.05 0 .05-.02.1-.05.13a.25.25 0 0 1-.12.08.26.26 0 0 1-.14 0 .25.25 0 0 1-.12-.06c-.22-.23-.2-.45.03-.67a.07.07 0 0 0 0-.1.07.07 0 0 0-.1 0l-.2.16a.13.13 0 0 0-.05.13c.04.3.2.55.45.71.05.03.1.04.16.03 1-.21.27-.81.61-1.24a.18.18 0 0 1 .08-.05.2.2 0 0 1 .19.03c.03.02.05.04.06.07Zm20.87 1.98c-.52 0-1.22-.24-1.44.27-.02.04 0 .06.05.06h.2a.2.2 0 0 1 .13.04l.84.6c.05.04.08.08.1.14l.01.05.02.03.03.01h.03l.03-.03.13-.23c.02-.04.01-.06-.03-.07a1.36 1.36 0 0 1-.92-.52c-.02-.03-.01-.04.02-.04l1.33.06.07-.01a.12.12 0 0 0 .05-.06c.01-.02.01-.05 0-.07a.12.12 0 0 0-.04-.06c-.32-.23-1.04-.59-1.17-.96-.02-.08-.06-.08-.11-.01l-.14.2c-.03.04-.02.07.04.09.3.09.56.23.8.43.07.05.06.08-.03.08Zm-20.54-.55a.11.11 0 0 1 .15.03.1.1 0 0 1 .01.07.1.1 0 0 1-.04.07c-.23.19-.44.41-.63.67-.04.06-.1.08-.2.04-.1-.03-.11-.01-.06.07l.24.39c.04.05.07.05.1 0 .27-.45.6-.84 1-1.18a.17.17 0 0 0 .04-.21.19.19 0 0 0-.08-.08.2.2 0 0 0-.12-.02c-.45.08-1.18.38-1.6.27h-.04l-.02.02-.02.03v.03l.1.2c.03.07.07.07.11.01.11-.15.27-.21.48-.17.05 0 .1 0 .14-.02l.44-.22Zm.74 2.31c-.31-.07-.56-.21-.41-.56.17-.41.5-.63 1-.67.02 0 .05 0 .08.02.02 0 .04.02.06.05.14.18.16.38.05.6v.03c0 .02.01.03.02.03a.06.06 0 0 0 .07 0c.12-.1.2-.23.14-.4-.65-1.58-2.74.67-1.14.99.06.01.11 0 .15-.03.02-.03.02-.05-.02-.06Zm1.23.32c0 .32-.1.6-.3.86a.1.1 0 0 0 .01.14l.31.26c.07.06.11.04.11-.05 0-.38.1-.74.27-1.09a.13.13 0 0 1 .05-.05.14.14 0 0 1 .07-.02H20.8l.02-.03a.05.05 0 0 0-.01-.06l-.19-.18c-.05-.04-.1-.04-.14 0-.17.19-.42.26-.77.22.05-.22.2-.37.47-.45.05-.01.06-.04.02-.08l-.23-.26c-.05-.06-.1-.06-.14.01a3.6 3.6 0 0 1-1.05 1.07c-.04.03-.04.07 0 .1l.23.22c.04.03.07.03.1-.02.12-.24.32-.44.6-.6Zm16.04.54.65.27c.06.02.12.01.18-.03l.21-.16c.1-.08.08-.11-.04-.11-.26 0-.49-.07-.7-.2-.05-.04-.07-.08-.06-.13.12-.54-.35-.78-.77-.45l-.5.41c-.03.04-.03.07 0 .1.42.3.76.68 1.03 1.12.03.04.06.05.1.02l.29-.22c.07-.05.06-.1-.03-.12a.67.67 0 0 1-.45-.42.06.06 0 0 1 .02-.07.07.07 0 0 1 .07-.01Zm1.61-.06.02.04c.04.12.06.12.07 0a.83.83 0 0 0-.09-.48c-.1-.17-.29-.2-.43-.06a.13.13 0 0 0-.03.14c0 .02.02.05.04.06l.07.04c.13.02.23.08.3.18.03.02.04.05.05.08Zm-15.83.37a.25.25 0 0 1 .1-.08.26.26 0 0 1 .25.02l.08.1.15.34.02.03h.03a.07.07 0 0 0 .06-.02c.11-.17.05-.33-.13-.44a28 28 0 0 0-.65-.4c-.05-.02-.09-.01-.11.04-.21.45-.5.85-.86 1.2-.04.04-.04.07 0 .1.29.19.8.68 1.16.41l.02-.04v-.04a.07.07 0 0 0-.04-.03h-.04a.83.83 0 0 1-.65-.13.12.12 0 0 1-.03-.17l.64-.9Zm13.02 1.46c.17-.1.29-.27.32-.48a1.01 1.01 0 0 0-.66-1.06.73.73 0 0 0-.6.04.66.66 0 0 0-.32.48c-.03.21.02.44.14.64.13.2.31.35.52.42.21.07.43.06.6-.04Zm-11.58-.86-.68 1.26c-.02.03 0 .06.03.07l.26.1c.04.01.07 0 .08-.04l.6-1.26.04-.04a.1.1 0 0 1 .1 0l.03.04.13.38c.03.07.06.07.1.01a.37.37 0 0 0 .08-.28c0-.06-.04-.1-.1-.13l-.94-.4c-.05-.03-.1-.02-.14.02l-.15.17a.07.07 0 0 0 0 .09c0 .02.02.03.03.03h.05l.36-.14a.1.1 0 0 1 .1.02c.02.01.03.03.03.05l-.01.05Zm-1.24-.2c-.11.01-.22.04-.32.07a.16.16 0 0 0-.1.08.15.15 0 0 0 0 .13.2.2 0 0 0 .1.1c.05.01.1.02.15.01.13-.04.2-.16.2-.37v-.02h-.03Zm11.08.82.07-.12c.02-.04.03-.09.02-.14-.16-.6-.85-.2-1.3-.02-.05.02-.06.05-.03.1.28.42.49.87.62 1.35.01.06.05.08.1.06.4-.14 1.35-.4.88-1.01a.18.18 0 0 0-.13-.08l-.18-.02c-.01 0-.02 0-.03-.02a.08.08 0 0 1-.04-.06c0-.01 0-.03.02-.04Zm-9.05 1.04-.05-.26a.06.06 0 0 0-.02-.04.07.07 0 0 0-.09 0 .06.06 0 0 0-.02.05l-.03.3c0 .06.02.1.08.13.33.14.8.43 1.05-.03.28-.5-.2-.73-.51-1a.22.22 0 0 1-.03-.3.25.25 0 0 1 .32-.06c.17.1.28.24.33.42.03.07.05.07.09.01.2-.4-.36-.55-.66-.54-.06 0-.1.02-.15.05-.66.5.09.82.37 1.17.04.05.05.1.04.16-.04.15-.15.22-.34.23a.39.39 0 0 1-.25-.08.35.35 0 0 1-.13-.21Zm6.57-.38a2.94 2.94 0 0 1-.1-.37v-.1a.17.17 0 0 1 .06-.07.19.19 0 0 1 .2-.02c.37.2.4.5.03.7-.04.03-.05.06-.02.1l.56.62.06.03h.06l.27-.05c.1-.03.1-.06.02-.11-.22-.13-.4-.3-.51-.52a.11.11 0 0 1 .01-.14c.08-.1.13-.2.14-.3a.35.35 0 0 0-.1-.28.39.39 0 0 0-.27-.13c-.29-.02-.57.03-.83.14-.06.02-.08.06-.06.11.17.46.28.94.31 1.43 0 .06.04.08.1.07l.33-.07c.08-.02.1-.06.05-.12a1 1 0 0 1-.24-.54 1.67 1.67 0 0 0-.07-.38Zm-3.72.2.1-.54c0-.05-.01-.07-.06-.08l-.32-.04c-.07-.01-.1.02-.09.08.06.52.01 1.02-.14 1.52-.02.04 0 .06.05.07l.39.02c.05 0 .07-.02.05-.06a1.34 1.34 0 0 1-.03-.57.32.32 0 0 1 .11-.18.34.34 0 0 1 .21-.08c.08 0 .14.02.2.07.04.05.07.11.06.18a2.6 2.6 0 0 1-.12.58c-.02.06 0 .09.06.1l.28.03c.06 0 .1-.02.1-.08l.05-1.31a.03.03 0 0 1 .01-.03l.1-.1c.05-.06.04-.09-.03-.1l-.45-.05c-.05-.01-.07 0-.04.05.1.18.12.39.06.62 0 .03-.02.07-.04.1a.28.28 0 0 1-.08.07.3.3 0 0 1-.21.04.28.28 0 0 1-.18-.12.26.26 0 0 1-.04-.2Zm1.86.3.08-.34c0-.02.01-.04.03-.05a.1.1 0 0 1 .1 0c.02 0 .03.02.04.04l.31.91c.01.03 0 .05 0 .07l-.04.05c-.05.08-.03.11.07.1l.36-.05c.05 0 .06-.03.05-.07l-.56-1.46a.18.18 0 0 0-.07-.09.2.2 0 0 0-.22.01.18.18 0 0 0-.06.1l-.36 1.27a.26.26 0 0 1-.09.13l-.08.07a.06.06 0 0 0-.02.08l.02.03.05.01h.24c.07-.01.1-.05.09-.12l-.07-.32v-.05l.04-.05a.13.13 0 0 1 .1-.04l.19.03.04-.01a.07.07 0 0 0 .03-.04v-.05a.07.07 0 0 0-.05-.03l-.16-.04c-.05-.01-.07-.04-.06-.09Z" fill="#AF191F"/><path d="M19.58 16.48a.14.14 0 0 1-.03-.1.13.13 0 0 1 .06-.1l.14-.1a.68.68 0 0 1 .43-.11c.07 0 .14.02.2.05.06.03.1.07.15.12l.11.15c.08.1.1.23.08.37a.6.6 0 0 1-.25.35l-.14.1a.15.15 0 0 1-.11.02.15.15 0 0 1-.1-.05l-.54-.7ZM20.47 17.63a.21.21 0 0 1 .04-.31l.18-.12a.63.63 0 0 1 .66-.04c.06.03.12.08.16.14l.16.2a.53.53 0 0 1 .02.62.6.6 0 0 1-.16.16l-.17.12a.24.24 0 0 1-.33-.05l-.56-.72Z" fill="#AF191F"/><path d="M30.37 18.58c-5.85-1.36-10.73 2.76-11.6 8.13 0 .06-.04.08-.1.06-.1-.03-.15-.1-.13-.23.78-5.35 6.09-9.73 11.88-8.2.04 0 .07.03.1.06.01.03.02.07.01.1 0 .04-.03.06-.07.08a.17.17 0 0 1-.1 0ZM32.75 19.28c4.38 2.62 5.99 7.7 4.62 12.39-.1.32-.25.6-.46.83a.1.1 0 0 1-.11.01.09.09 0 0 1-.04-.04v-.05a10.35 10.35 0 0 0-4.54-13.13c-.06-.03-.1-.07-.1-.11-.02-.04-.02-.07 0-.1.02-.05.06-.07.12-.05.18.07.35.15.51.25Z" fill="#020202"/><path d="M16.2 24.48a.24.24 0 0 1 .16-.07.25.25 0 0 1 .17.06l.1.09c.13.12.21.28.23.44a.57.57 0 0 1-.16.45l-.03.03a.6.6 0 0 1-.2.14.72.72 0 0 1-.73-.13l-.11-.1a.22.22 0 0 1-.08-.15.22.22 0 0 1 .06-.16l.58-.6Z" fill="#AF191F"/><path d="M19.46 33c-.88-1.33-1.14-3.68-1.05-5.21 0-.06.03-.07.08-.04.1.05.16.15.16.26-.05 1.7.3 3.34 1.04 4.91v.06c0 .02 0 .04-.02.06-.07.08-.14.07-.21-.04Z" fill="#020202"/><path d="M35.1 38.27a.08.08 0 0 1-.03-.06.08.08 0 0 1 .04-.06l.03-.02a.4.4 0 0 1 .26-.08c.1 0 .18.04.24.11l.04.05a.3.3 0 0 1 .06.24.36.36 0 0 1-.14.23l-.03.02a.1.1 0 0 1-.13-.01l-.35-.42ZM33.72 40c.23.37.58.58.78.47.2-.1.17-.5-.06-.87-.23-.38-.57-.59-.77-.48-.2.11-.17.5.05.87ZM31.96 40.12a.1.1 0 0 1-.01-.08c0-.03.03-.05.06-.07h.02c.04-.03.1-.05.14-.05.05-.01.1-.01.14 0a.3.3 0 0 1 .12.03.2.2 0 0 1 .07.08l.05.08c.03.06.03.14-.02.21a.48.48 0 0 1-.2.2h-.03a.12.12 0 0 1-.09 0 .11.11 0 0 1-.06-.04l-.2-.36ZM32.27 40.8a.11.11 0 0 1-.01-.1.12.12 0 0 1 .06-.07l.04-.01a.5.5 0 0 1 .31-.04c.1.02.19.08.23.16l.03.05c.02.04.03.09.03.13 0 .05 0 .1-.03.14a.42.42 0 0 1-.09.13.5.5 0 0 1-.13.09l-.03.02a.13.13 0 0 1-.1 0 .12.12 0 0 1-.07-.06l-.24-.45Z" fill="#AF191F"/><path fill-rule="evenodd" d="M28 43.94a15.94 15.94 0 1 0 0-31.88 15.94 15.94 0 0 0 0 31.88ZM28 45a17 17 0 1 0 0-34 17 17 0 0 0 0 34Z" fill="#AF191F"/><path fill-rule="evenodd" d="M23.98 23.76 19.13 27l-.7-.34c.07.05.22.24.35.5.1.2.14.18.2.15.03-.02.07-.05.15.03a34.3 34.3 0 0 1 2.42 2.73c0 .08-.47.08-.95.08-.47 0-.95 0-.95.09 0 .17 1.21.17 1.73.17.4 0 .5.1.68.3l.19.2c.34.35.52.52.52 1.03 0 .28 0 .36-.03.37-.02 0-.07-.03-.15-.03-.17 0-.52 0-.69.17-.11.12-.38.08-.65.04a2.94 2.94 0 0 0-.39-.04c-.34 0-.17.17 0 .17.18 0 .52 0 .87.17.34.17.86.17 1.04.17.07 0 .05-.06.03-.12-.03-.08-.05-.14.14-.05.35.17 1.21.34 1.73.17.27-.08.4-.04.58.03.17.06.39.14.8.14.68 0 .62.32.56.61l-.03.25c0 .16.11.24.2.3.1.08.15.12-.03.2-.35.18-.35.35 0 .52.23.11.62.23 1 .34l.56.17c.52.17 1.04.34 1.73.17.4-.1.58-.02.75.06.12.05.25.11.46.11.4 0 .59-.29.73-.5l.14-.18.27-.21c.3-.22.72-.52.6-.64-.11-.1-.29-.02-.52.1-.15.08-.33.17-.52.24-.38.12-.4.07-.44-.1a1.13 1.13 0 0 0-.08-.24c-.12-.24-.48-.15-.81-.07-.15.03-.3.07-.4.07-.35 0-1.4-1.03-1.4-1.37 0-.27 1.15-.21 1.77-.18l.32.01c.34 0 .69 0 .69.17s-.52.17-1.21 0c-.47-.11-.54 0-.6.1-.02.04-.04.07-.1.07-.1 0 .06.13.27.31.14.12.3.25.43.38.25.24.5.22.88.2.14-.02.3-.03.5-.03.42 0 .52 0 .61.03l.26.14c.28.14.45.05.7-.09l.16-.08a1 1 0 0 1 .34-.1c.14-.02.25-.03.36-.24.14-.28.17-.46.17-.52h-.87c-.17 0-.69 0-.69-.17s.35-.34.7-.17c.34.17.69-.17.86-.5.11-.22.36-.17.48-.14.07.02.1.02.04-.04-.14-.13-1.13-.06-1.63-.02a5.9 5.9 0 0 1-.27.02c-.14 0 .05-.45.17-.68l1.56-.17c-.7-.34-1.04-1.7-.87-2.22.11-.33.3-.23.42-.16.06.03.1.05.1 0 0-.1-.17-.18-.35-.26-.17-.09-.34-.17-.34-.26 0-.17 0-.68.17-.68s.7.17 1.21.34c.41.14.4-.05.37-.3l-.02-.21c0-.34-.7-.51-1.21-.51-.33 0-.6-.07-.78-.12-.11-.03-.2-.05-.26-.05-.09 0 0 .34.09.68.08.34.17.68.08.68-.09 0-.47-.13-.86-.25-.4-.13-.78-.26-.87-.26-.1 0-.14-.2-.18-.4-.04-.18-.09-.37-.17-.45-.12-.12-.07.17-.03.42l.03.26c0 .08-.44.05-.93 0-.54-.04-1.14-.09-1.32 0-.34.17-.86-.17-.86-.51 0-.16.07-.36.13-.52.08-.19.13-.33.04-.33-.1 0-.2.26-.29.52-.08.21-.15.42-.23.5-.17.17-.52.17-1.04.17s-1.21 0-1.56.17c-.2.1-.23-.16-.25-.38-.01-.16-.02-.3-.1-.3-.09 0-.33.89-.57 1.74-.2.72-.38 1.42-.46 1.5-.18.17-.7-.34-.87-.51-.09-.09-.09-.35-.09-.58 0-.23 0-.45-.08-.45-.1 0-.21.19-.31.37-.07.12-.14.25-.21.31-.1.11-.15.02-.2-.1a.76.76 0 0 0-.15-.24c-.17-.17-.17-.34-.17-.68s.17-.68.34-1.02c.1-.18.33-.36.53-.51.18-.14.34-.26.34-.34 0-.1-.15.01-.32.13-.14.1-.3.2-.37.2-.1 0 .08-.2.28-.46.16-.19.33-.4.41-.55.17-.35 1.56-2.05 1.73-2.22l.52-.51c.09-.09.13-.04.17 0 .05.04.1.08.18 0 .17-.17 1.56-.17 1.73-.17.17 0 0 1.53-.17 1.53h-.87c-.17 0-.35-.08-.52-.17a1.24 1.24 0 0 0-.52-.17c-.17 0-.26.09-.34.17-.1.09-.18.17-.35.17-.2 0-.23.19-.25.37-.01.12-.03.25-.1.31-.11.12.23.08.58.04l.46-.04c.14 0-.16.56-.58 1.27-.38.52-.8 1.17-1.15 1.8l-.35.51v.17c.1-.22.22-.45.35-.69.37-.56.8-1.22 1.15-1.8.46-.63.85-1.09.93-1.09.1 0-.04.42-.19.8.06-.11.13-.22.19-.28.17-.18.34-.52.34-.69 0-.08.18-.08.35-.08.17 0 .35 0 .35-.09 0-.08-.05-.08-.09-.08-.04 0-.09 0-.09-.09 0-.17.87-.17 1.04 0 .18.17-.34.17-.52.17-.17 0 0 .17.35.17.26 0 .23.4.2.74l-.03.29c0 .34.35.5.35.34l-.02-.24c-.05-.32-.11-.83.02-.96.17-.17 1.21-.17 2.08-.17.86 0 1.38 0 1.21.34-.13.25-.07.9-.02 1.26-.06-.54.31-.86.54-1.05.1-.1.17-.16.17-.2 0-.1.13-.1.26-.1s.26 0 .26-.08-.13-.08-.28-.08c-.15 0-.32 0-.41-.09-.17-.17-.7-1.19-.52-1.36.12-.12.58-.07.96-.03l.43.03c.24 0 .14.25.06.46-.03.09-.06.17-.06.22 0 .06.03.17.08.3.09.27.2.61.09.72-.12.12-.23.08-.35.04-.06-.02-.11-.04-.17-.04-.17 0 .35.17.52.17.09 0 .13.05.17.09.05.04.09.09.18.09.13 0 .28-.12.34-.18-.23-.28-.7-.92-.7-1.19 0-.27.12-.57.18-.68a3.85 3.85 0 0 1-.34-.85c0-.09.08-.13.17-.17.09-.04.17-.09.17-.17 0-.09-.26-.13-.52-.17-.26-.05-.52-.09-.52-.17 0-.06.02-.14.04-.21.04-.15.08-.3-.04-.3-.14 0-.17.34-.17.5-.06.12-.24.31-.52.18-.35-.17-.35-.51-.35-.86 0-.2.06-.4.11-.56.04-.12.07-.22.07-.29 0-.13-.7-.05-1.04 0v-.34h.86v-.68h-.86c-.06.11-.21.37-.35.51-.14.14-1.21.85-1.73 1.2v.16c.29-.22.87-.64.87-.5 0 .08-.1.33-.18.59-.08.26-.17.51-.17.6 0 .17 0 .5-.17.5-.18 0-.52-.33-.52-.67v-1.03c0-.13-.47-.17-.7-.17v.17l.52.17v1.03c0 .17-.17.17-.34.17h-.7c-.08 0-.08-.09-.08-.17 0-.09 0-.17-.09-.17-.14 0-.17.22-.17.34l-.7.17v-.68c0-.17.35-.52.52-.69.14-.13.52-.17.7-.17v-.68c-.7.41-1.21 1.2-1.39 1.54.06.28.14.85 0 .85s-.4.45-.52.68l-.7.51Zm4.85-2.9c-.12.29-.24.89.17 1.03.52.17 1.56.17 1.56 0l.05-.26c.08-.36.21-.94-.05-.94l-.33-.04c-.41-.07-1-.17-1.4.21ZM19.3 27l4.85-3.24c-.63.85-1.94 2.6-2.08 2.73-.05.05-.1.23-.18.45-.14.46-.33 1.08-.68 1.08-.29 0-.57-.2-.83-.4-.21-.14-.4-.28-.56-.28-.34 0-.69-.17-.52-.34Zm8.66-3.92c-.27-.14-.34-.29-.34-.34.11.05.41.13.69 0 .21-.1.23-.15.25-.2a.34.34 0 0 1 .1-.14c.13-.14 1.44-.06 2.07 0-.34 1.02.18 2.04.35 2.38.15.3-.47.08-.98-.09l-.23-.08a.97.97 0 0 1-.46-.27c-.1-.11-.23-.24-.58-.4-.4-.2-.52-.4-.6-.57-.07-.12-.12-.22-.27-.3Zm2.95-.51c-.06.22-.14.68 0 .68l.2-.03c.16-.04.37-.09.49.03.17.17.7.17.7 0 0-.14.1-.63.17-.85a5.1 5.1 0 0 0-1.56.17Zm-6.24 7.16c-.41-.55-.17-1.37 0-1.7.3-.07 1-.18 1.56-.18.37 0 .64.05.9.1.21.03.42.07.66.07.33 0 .1.28-.07.48-.1.11-.17.2-.1.2.06 0 .12-.07.2-.15.14-.15.33-.36.66-.36.18 0 .46-.04.78-.08.61-.1 1.37-.2 1.82-.09.48.12.3.82.13 1.4-.07.26-.13.5-.13.65 0 .5-.17.68-.52.68l-.38-.03c-.35-.04-.81-.1-1.18.03-.52.17-.7.17-1.04 0-.27-.14.12.5.35.85l-1.04-.68c-.2-.13-.53-.23-.9-.35-.63-.19-1.37-.42-1.7-.84Zm7.28-.69c0-.05.1-.17.52-.17h1.2c-.05.51-.03 1.67.53 2.22-.52.11-1.6.27-1.73 0-.14-.27-.4-1.48-.52-2.05Z"/><path d="M20 33.13c-.42-.13-.3-.4-.18-.5.18.05.6.23.87.5.35.34.17.34.7.34.51 0 .51 0 1.2.18.7.17.18-.35.52-.52.35-.17.52.34.7.69.17.34.69.5 1.56.68.86.17.69.68 1.2.85.53.17.87.34 1.57.51.69.17.86.34.86.51 0 .17-.69.17-1.38 0-.7-.17-1.04-.17-1.56-.34s-.7 0-1.04 0c-.35 0-.52-.85-.7-1.02-.17-.17-.69.34-1.38.17-.7-.17-.52-.68-.86-.85-.35-.17-.87-.17-1.22-.51-.34-.35-.34-.52-.86-.69Z"/><path d="m23.17 36.36.1.04c.34.18 2.2 1.06 4.73 1.06 1.92 0 3.24-.5 4.09-.83.26-.1.49-.19.67-.23l.08-.02.62 1.24-.1.04a14.09 14.09 0 0 1-8.8.67 11.3 11.3 0 0 1-1.21-.35 3.61 3.61 0 0 1-.72-.33l-.08-.05.62-1.24Zm9.02.46a11.02 11.02 0 0 1-8.92-.18l-.44.88c.13.08.33.16.59.26a15.11 15.11 0 0 0 4.58.74c2.43 0 4.25-.65 5.17-1.01l-.44-.88c-.15.04-.33.1-.54.19Z"/><path d="M22.75 14.82a.12.12 0 0 1 0-.1.13.13 0 0 1 .08-.06l.15-.06a.6.6 0 0 1 .4 0 .5.5 0 0 1 .17.1c.05.04.08.09.1.15l.08.16.03.18c0 .06-.02.12-.05.18a.52.52 0 0 1-.12.16.58.58 0 0 1-.18.1l-.15.06a.14.14 0 0 1-.1 0 .13.13 0 0 1-.07-.07l-.34-.8Z" fill="#AF191F"/></svg>