<!-- by TradingView --><svg width="56" height="56" viewBox="0 0 56 56" xmlns="http://www.w3.org/2000/svg"><path fill="#F0F3FA" d="M0 0h56v56H0z"/><path d="M28.97 13c-4.68 0-8.71.42-11.98.98a9.52 9.52 0 0 0-7.68 11.84c2.13 8.48 6.9 13.77 11.24 17.75a9.24 9.24 0 0 0 11.46.82c7.47-4.99 11.96-11.17 14.27-16.8 1.42-3.47.76-7.5-2.17-9.75-3.23-2.5-8.26-4.84-15.14-4.84Z" fill="url(#ak1swglqq)"/><path d="M11.28 21.04c-.46-2.69 2.36-7.8 17.38-6.77 15.02 1.04 16.86 6.95 15.9 9.78-1.32 5.1-6.22 15.42-15.4 19.89-.36.28-5.15 3.98-10.39-5.68-.03-.23-.04-.73.18-.85.28-.15 1.62.45 2.59 1.2a11.68 11.68 0 0 0 6.02 1.74c2.24.03 7.9.1 11.18-6.63a9.3 9.3 0 0 1-2.5.28c-4.7 0-4.7-3.4-4.7-6.16 0-1.64 0-4.84 5.2-4.84.82-.02 2.23.26 2.78 1.39-1.37-5.08-5.48-9.4-11.2-9.58-5.62-.16-8.45 3-10.74 5.54-1.24 1.38-2.32 2.59-3.6 2.98a1.4 1.4 0 0 1-.83 0 2.6 2.6 0 0 1-1.87-2.29Zm28.43 4.14c-.07.25-.37.41-.65.35-.15-.03-.32-.1-.52-.17A4.21 4.21 0 0 0 37 25c-1.96 0-3.5 1.18-3.5 3.34S35.1 32 37.42 32c.96 0 1.65-.22 2.15-.46.57-2.06.59-4.26.14-6.36ZM15 23v11h6.02c1.06 0 1.66-.44 1.66-1.54V32H17v-7.76c.01-.7.02-1.24-.7-1.24H15Zm8 2.59V34h4.06c2.7 0 3.94-1.11 3.94-3.2 0-1.67-1.24-2.5-1.87-2.7a2.44 2.44 0 0 0 1.52-2.08c0-2.3-2.31-2.97-3.46-3.02H25.3C24.04 23 23 24.16 23 25.59Zm2 1.85v-2.02c0-.23.15-.42.33-.42h2.26c.54 0 .91.55.91 1.22 0 .68-.37 1.22-.9 1.22H25ZM25 32v-2.5h2.89c.61 0 1.11.56 1.11 1.25S28.5 32 27.89 32H25Z" fill="#fff"/><defs><linearGradient id="ak1swglqq" x1="9" y1="24.35" x2="44.06" y2="17.67" gradientUnits="userSpaceOnUse"><stop stop-color="#C72127"/><stop offset="1" stop-color="#E23545"/></linearGradient></defs></svg>