<!-- by TradingView --><svg width="56" height="56" viewBox="0 0 56 56" xmlns="http://www.w3.org/2000/svg"><path fill="#F0F3FA" d="M0 0h56v56H0z"/><path d="M18 28a4 4 0 0 0 3.87-3H19v-1h4a5 5 0 1 1-.56-2.3l-.84.56A4 4 0 1 0 18 28Z" fill="#949599"/><path fill-rule="evenodd" d="M44.65 27.65a4 4 0 1 1 .92-.58L43.5 25H42l2.65 2.65Zm.74.74a5 5 0 1 1 .88-.62L47.5 29H46l-.6-.6Z" fill="#949599"/><path d="M38 19h-7v1h3v9h1v-9h3v-1Z" fill="#949496"/><path d="M9 19H8v10h5v-1H9v-9Z" fill="#949599"/><path d="M25 19h2c1.47 0 2.5 1.02 2.5 2.5 0 .8-.15 1.64-.73 2.24 1.14.45 1.73 1.56 1.73 2.76 0 1.62-1.53 2.5-3 2.5H25V19Zm2.38 4.5c.85-.44 1.12-1.05 1.12-2 0-.93-.57-1.5-1.5-1.5h-1v3.5h1.38Zm-1.38 1V28h1.5c.9 0 2-.45 2-1.5 0-1.2-.8-2-2-2H26Z" fill="#949496"/><path d="M8.5 36.5H12v.5H8v-6h.5v5.5ZM32.5 36.5H36v.5h-4v-6h.5v5.5ZM47 31l-2.25 3.74V37h-.5v-2.26L42 31h.5l2 3.5 2-3.5h.5ZM25 31l-2.25 3.74V37h-.5v-2.26L20 31h.5l2 3.5 2-3.5h.5ZM41.5 31v.5H39V37h-.5v-5.5H36V31h5.5Z"/><path d="m30.68 37-3-6-3 6H26l1.68-3.5 1.69 3.5h1.31Z" fill="#949496"/><path d="M27 35.5v.5h1.5v-.5H27ZM27 37v-.5h1.5v.5H27Z" fill="#63009B"/><path fill-rule="evenodd" d="M16 36.5a2.5 2.5 0 1 0 0-5 2.5 2.5 0 0 0 0 5Zm0 .5a3 3 0 1 0 0-6 3 3 0 0 0 0 6Z"/></svg>