<!-- by TradingView --><svg width="56" height="56" viewBox="0 0 56 56" fill="none" xmlns="http://www.w3.org/2000/svg">
<rect width="56" height="56" fill="#0A79FF"/>
<path d="M28.8247 26.0882C31.9352 25.1397 36.3576 18.8507 38.2572 16.1032C38.3531 15.9623 38.4439 15.9657 38.5296 16.1135C40.2098 19.0208 41.5594 22.0811 42.5786 25.2943C42.599 25.3588 42.6016 25.428 42.586 25.4943C42.5705 25.5607 42.5374 25.6216 42.4903 25.6706L33.2773 35.3231C33.2606 35.3412 33.2392 35.3541 33.2157 35.3605C33.1921 35.3669 33.1673 35.3664 33.144 35.3592C33.1207 35.352 33.0998 35.3383 33.0837 35.3196C33.0676 35.301 33.0569 35.2781 33.0528 35.2535C32.0639 29.3306 23.8171 29.5883 23.1561 35.4752C23.1343 35.6728 23.0552 35.7003 22.919 35.5577L13.6177 25.7815C13.5488 25.7093 13.5269 25.6242 13.5521 25.5263C14.372 22.3199 16.0345 18.8945 17.6591 16.0825C17.6732 16.0582 17.6932 16.0378 17.7171 16.0235C17.741 16.0091 17.7681 16.0011 17.7958 16.0004C17.8235 15.9996 17.851 16.006 17.8756 16.019C17.9002 16.0321 17.9212 16.0512 17.9366 16.0748C20.0204 19.2176 22.4103 22.0845 25.1062 24.6757C26.0497 25.583 27.4776 26.5006 28.8247 26.0882Z" fill="white"/>
<path d="M10.1668 26.1063L22.1144 38.3053C22.2052 38.3998 22.1859 38.4419 22.0564 38.4316C14.4882 37.8465 10.6638 33.8644 10.0003 26.1862C9.99877 26.1658 10.0033 26.1455 10.0134 26.1279C10.0234 26.1103 10.0385 26.0962 10.0566 26.0875C10.0746 26.0789 10.0948 26.076 10.1145 26.0794C10.1342 26.0827 10.1524 26.0921 10.1668 26.1063Z" fill="white"/>
<path d="M33.8371 38.3363L45.8907 26.0368C45.8998 26.0269 45.9117 26.0203 45.9247 26.0177C45.9377 26.0152 45.9511 26.0169 45.9631 26.0226C45.9751 26.0283 45.985 26.0377 45.9915 26.0495C45.998 26.0613 46.0007 26.0749 45.9992 26.0883C45.366 33.6918 41.4785 38.0296 33.8674 38.4085C33.8589 38.4093 33.8503 38.4073 33.843 38.4029C33.8356 38.3984 33.8299 38.3917 33.8265 38.3837C33.8231 38.3756 33.8224 38.3667 33.8243 38.3582C33.8262 38.3497 33.8307 38.342 33.8371 38.3363Z" fill="white"/>
<path d="M31.0801 36.362C31.2239 37.9291 29.4605 39.5142 28.1411 39.9807C28.057 40.0116 27.9755 40.0056 27.8964 39.9627C26.2289 39.0606 24.4378 37.5553 25.3232 35.3903C26.6073 32.2535 30.7698 33.0216 31.0801 36.362Z" fill="white"/>
</svg>
