<!-- by TradingView --><svg xmlns="http://www.w3.org/2000/svg" width="56" height="56" viewBox="0 0 56 56"><path fill="#F0F3FA" d="M0 0h56v56H0z"/><path opacity=".9" d="M20.3 33.35a6.13 6.13 0 0 0-4.02-2.53 8.63 8.63 0 0 0-2.83.03c2.48-2 7.15-6.7 11.75-12.14 1.56-1.84 1.29-2.92 1.11-2.67-.25.35-5.91 6.47-8.09 8.66.01.02-5.07 5.16-7.44 6.6 0 0-3.18.98-3.68 2.18-.27.65.07 1.03.4 1.04.69.04 2.35-1.02 3.65-1.94.07-.05 5.27-2 8.2 1.65 1.4 1.76 3.34 2.97 5.18 2.74a3.84 3.84 0 0 0 2.26-1.2c-3.3 1.4-5.43-1.02-6.49-2.42Zm13.25-9.68c.23.25.7.22.98-.07.28-.29.5-1 .28-1.24-.24-.25-.9.06-1.17.34-.28.29-.32.72-.09.97Zm-11.74 3.41a22.95 22.95 0 0 0 .4-.79c.17.08.97.6 1.51 1.75.11.24.56 1.28.6 2.33.04 1.09-.61 1.81-1.52 1.65-2.52-.59-1.57-3.88-.99-4.94Zm-1.92 3.55c.01.11.04.23.08.36.17.6 1.04 2.13 2.62 2.24.95.07 2.52-.33 2.9-2.28.38-1.95-1.14-4.03-1.34-4.3l-.01-.02c-.78-1.07-1.34-1.26-1.55-1.33.12-.23.09-.47.06-.68-.03-.18-.05-.35.03-.47 0 0-.7.75-.81.9h-.01c-.16-.03-.8-.15-1.06.4-.09.2-.17.7.08 1.19-.1.18-1.25 2.17-1 3.99Zm10.47-1.8.18-.4c.23-.53 1.28-2.44 1.94-2.76l.02-.01c.09-.05.4-.2.47-.12.19.24-.72 2.33-1.05 2.87l-.04.08-.02.03c-.26.45-.6 1.23-.88 1.9-.28.63-.5 1.16-.57 1.18-.4.1-.7-.6-.75-.9-.05-.27.4-1.23.7-1.87Zm18.62 1h-.03c-.4.03-.6.1-.82.19a4.52 4.52 0 0 1-1.79.3c-1.13 0-1.81-.5-2.19-.93a2.72 2.72 0 0 1-.7-1.86.52.52 0 0 0-.15-.36.86.86 0 0 0-.6-.3c-.1 0-.17.03-.24.09l-.18.18c-.51.55-2.08 2.21-2.57 2.21-.05 0-.09-.01-.1-.05-.4-.7-.03-1.53.05-1.69 0-.02.87-1.94 3.36-1.94.31 0 .64.03.98.09.02 0 .04-.02.04-.04.01-.1-.54-.7-1.18-.87-.19-.05-.4-.07-.6-.07-1.85 0-3.97 1.78-4.05 3.4 0 .02-.15 1.74.96 2.33.15.08.31.12.48.12a2 2 0 0 0 .88-.26 6.5 6.5 0 0 0 1.9-1.62c.1.67.74 1.35 1.34 1.71.64.39 1.33.58 2.08.58 1.7 0 3.15-1.05 3.15-1.18 0 0 0-.02-.02-.03ZM31 24.78l.03.06c.02.03.16.37-.47 1.62-.27.53-3.12 5.84-3.42 5.84h-.02c-.05-.01-.1-.06-.15-.16-.44-.8-1.32-4.86-.9-6.26.18-.6.4-.94.41-.96l.05-.08.06.08c.3.45.82 3.55.94 4.47l.52-.84.05-.07.88-1.41a8.05 8.05 0 0 1 1.96-2.26l.06-.03Zm6.89.1c.24.07.57.21.61.5.06.39-.17.62-.46.8l-.02.01c-.03.02-.09 0-.11-.02a.35.35 0 0 1-.08-.12.42.42 0 0 0-.06-.12c-.24-.28-.76-.19-1.07-.1-.4.13-.82.34-1.1.67-.28.33-.46.85-.04 1.16.2.16.44.24.68.33l.39.15c.66.3 1.28.98 1.32 1.75.04.88-.48 1.63-1.17 2.11l-.04.02c-.25.18-.52.31-.8.42l-.04.02c-.74.3-1.53.46-2.33.47-.57 0-1.21 0-1.74-.26-.48-.23-.94-.71-.8-1.3.18-.66.68-1.07 1.24-1.38.02 0 .04-.01.05-.03.24-.12.63-.34.87-.2.2.12-.22.46-.4.59l-.04.04h-.01c-.17.15-.37.32-.46.52-.2.47.33.83.72.94.8.21 1.82.1 2.58-.22l.03-.01c.72-.34 1.3-1.27.65-1.98-.29-.32-.66-.48-1.05-.64a3.5 3.5 0 0 1-.86-.45c-.54-.44-.76-1.11-.42-1.76a3.94 3.94 0 0 1 1.68-1.58 3 3 0 0 1 2.28-.33Z" fill="#333"/></svg>