<!-- by TradingView --><svg width="56" height="56" viewBox="0 0 56 56" xmlns="http://www.w3.org/2000/svg"><path fill="#F0F3FA" d="M0 0h56v56H0z"/><path d="M12 14h19v20h-5v-4h-2v-6h-5v6h-2v4h-5V14Z" fill="#585854"/><path d="M14 31h2v-3h2v-6h2v-3h4.01v3H26v6h2v4h2V15H14v16Z" fill="#D1BF98"/><path d="M42 26h3v5H33v2h-1v-3h10v-4Zm1 4h1v-3h-1v3Z" fill="#595854"/><path d="M32 31v-5h1v5h-1ZM35 31v-5h1v5h-1Z" fill="#595854"/><path d="M37 26h4v5h-1v-4h-2v2h-3v-1h2v-2ZM36 35h5v4h3v-4h1v5h-5v-4h-3v1h2v3h-5v-5h1v4h3v-1h-2v-3Z" fill="#595854"/><path d="M42 40v-5h1v5h-1ZM24 35h3v4h5v-4h1v5h-6v2h-1v-2h-2v-5Zm2 4v-3h-1v3h1Z" fill="#595854"/><path d="M30 40v-5h1v5h-1ZM28 40v-5h1v5h-1ZM12 35h3v3h-1v-2h-1v3h8v-4h1v5H12v-5Z" fill="#595854"/><path d="M17 35h3v5h-1v-2h-2v-3Zm2 2v-1h-1v1h1ZM20 41h-1v1h1v-1ZM22 41h-1v1h1v-1ZM36 41h-1v1h1v-1ZM38 41h-1v1h1v-1ZM45 41h-1v1h1v-1ZM44 33h-1v1h1v-1ZM19 33h-1v1h1v-1Z" fill="#595854"/></svg>