<!-- by TradingView --><svg width="56" height="56" viewBox="0 0 56 56" xmlns="http://www.w3.org/2000/svg"><path fill="#F0F3FA" d="M0 0h56v56H0z"/><path fill-rule="evenodd" d="M14 14h13v13H14V14Zm0 15h13v13H14V29Zm28-15H29v13h13V14ZM29 29h13v13H29V29ZM18.03 18 17 23h1.39l.5-2.9 1.34 2.9h.53l1.37-2.9.5 2.9H24l-.91-5H21.7l-1.2 2.76L19.38 18h-1.34ZM35 33h1.4v5H35v-5Zm-.69-11.4-.81.72c.34.41.92.68 1.57.68 1.06 0 1.93-.69 1.93-1.54V18h-1.34v3.5c0 .26-.44.47-.77.47-.28 0-.52-.16-.58-.37ZM18 33h1.5v2h2v-2H23v5h-1.5v-2h-2v2H18v-5Z" fill="#242021"/></svg>