<!-- by TradingView --><svg width="56" height="56" viewBox="0 0 56 56" fill="none" xmlns="http://www.w3.org/2000/svg">
<rect width="56" height="56" fill="#F0F3FA"/>
<rect x="13" y="13" width="30" height="30" fill="#0F7486"/>
<path fill-rule="evenodd" clip-rule="evenodd" d="M13.2815 13C14.5799 15.8621 18.0884 21.817 21.9505 23.1719C25.1236 24.2851 28.9148 22.7808 32.5405 21.3421C34.4657 20.5782 36.3443 19.8328 38.0588 19.5077C40.1424 19.1126 41.7969 19.7251 43 20.6176V36.7519C33.696 37.4125 17.0099 37.894 14.1094 35.1873C13.7087 34.8135 13.3396 34.4462 13 34.0882V13.0206C13.0128 13.0132 13.0256 13.0063 13.0385 13H13.2815Z" fill="url(#paint0_linear_229_19087)"/>
<path d="M19.5636 20L17.3477 37H21.0125L21.6944 22.9709L26.2115 37H29.1093L33.7117 22.9709V37H37.8027L36.6947 20H31.4957L27.8309 31.8835L24.5922 20H19.5636Z" fill="#F0F3FA"/>
<path fill-rule="evenodd" clip-rule="evenodd" d="M23.8477 13H18.4139C16.4282 14.1344 15.1422 15.3766 14.5188 16.1438C14.1671 16.5766 14.2329 17.2125 14.6657 17.5641C15.0986 17.9157 15.7345 17.8499 16.0862 17.4172C16.8845 16.4347 19.4061 14.0996 23.8477 13ZM13 34.8161V24.6205C13.818 22.7796 15.0513 21.0544 16.5735 19.5898C19.2709 16.9944 22.944 15.1489 27.0077 14.9207C33.5471 14.5534 37.6538 18.6174 38.9293 20.7854C39.2121 21.266 39.0516 21.8848 38.5709 22.1675C38.0902 22.4502 37.4713 22.2898 37.1886 21.8092C36.1913 20.1141 32.7183 16.6223 27.121 16.9367C23.5993 17.1345 20.3688 18.7403 17.9738 21.0448C15.5714 23.3563 14.0783 26.3025 13.9246 29.1072C13.8023 31.3387 14.5959 33.7422 15.7133 35.8965C16.8245 38.0387 18.2018 39.8306 19.1098 40.8052C19.49 41.2133 19.4673 41.8521 19.0592 42.2322C18.6512 42.6122 18.0122 42.5896 17.6321 42.1816C16.6083 41.0826 15.1219 39.1421 13.9205 36.8261C13.59 36.189 13.2769 35.5154 13 34.8161ZM38.4193 43H25.9501C23.1687 41.8526 21.1247 39.9674 19.6704 37.8591C17.4846 34.6902 16.6312 31.0272 16.5102 28.5907C16.4825 28.0338 16.9116 27.5599 17.4686 27.5322C18.0256 27.5046 18.4995 27.9336 18.5272 28.4905C18.6334 30.6273 19.3994 33.9094 21.333 36.7127C23.2406 39.4784 26.2842 41.7873 31.0521 42.1051C35.8825 42.4271 39.0778 40.8384 41.141 38.7949C41.9011 38.0421 42.5145 37.2202 43 36.3963V39.7749C42.859 39.9284 42.7131 40.08 42.5623 40.2294C41.4495 41.3316 40.079 42.2997 38.4193 43ZM43 20.1082V32.0522C42.5497 33.0357 41.9906 34.004 41.3048 34.9071C38.9081 38.0633 35.0116 40.3515 29.0962 39.7709C28.5412 39.7165 28.1354 39.2224 28.1899 38.6675C28.2444 38.1126 28.7385 37.7069 29.2935 37.7614C34.4921 38.2716 37.7122 36.2989 39.6963 33.6861C41.6906 31.0598 42.4803 27.7166 42.5843 25.3959C41.42 20.335 39.3732 16.972 36.7496 14.9489C35.6039 14.0655 34.3239 13.4189 32.919 13H37.5082C37.6683 13.1128 37.8265 13.2294 37.9829 13.35C40.0564 14.9489 41.7418 17.1938 43 20.1082Z" fill="#F0F3FA"/>
<defs>
<linearGradient id="paint0_linear_229_19087" x1="28" y1="13" x2="28" y2="37.2667" gradientUnits="userSpaceOnUse">
<stop stop-color="#267965"/>
<stop offset="0.686054" stop-color="#508831"/>
<stop offset="1" stop-color="#226651"/>
</linearGradient>
</defs>
</svg>
