<!-- by TradingView --><svg width="56" height="56" viewBox="0 0 56 56" xmlns="http://www.w3.org/2000/svg"><path fill="#F0F3FA" d="M0 0h56v56H0z"/><path d="M51.99 22.97c.02.17.01.34-.01.51.02 3.52-6.12 5.23-9.21 6.23A452.01 452.01 0 0 1 17 37l26.08-8.42c1.8-.48 5.94-2.28 5.92-4.54C49 22 42.5 22 40.5 22c-6.51.06-13.06.8-19.5 1.55 7.99-1.31 16.04-2.53 24.16-2.55 1.72 0 6.84 0 6.83 1.97Z" fill="#BE202E"/><path d="M35.6 26H33v6h1.5v-4.5h1.06c.44 0 .87.28.87.7a.8.8 0 0 1-.88.8h-.2v1c1.18.07 2.55-.51 2.65-1.8.04-1.34-1.17-2.2-2.4-2.2Zm3.94 6L41 27.57 42.46 32H44l-2.1-6h-1.8L38 32h1.54Z" fill="#1E407C"/><path fill-rule="evenodd" d="M29 26c-1.54 0-3 1.28-3 3s1.46 3 3 3 3-1.28 3-3-1.46-3-3-3Zm0 1.5a1.5 1.5 0 0 0 0 3 1.5 1.5 0 0 0 0-3Z" fill="#1E407C"/><path d="M20 26h2.6c1.22-.02 2.36 1.01 2.2 2.28a2.03 2.03 0 0 1-1.18 1.51l1.38 2.2h-1.6l-1.18-1.92V29h.37c.42 0 .91-.22.91-.72s-.5-.78-.9-.78h-1.06V32H20v-6Zm-2.1 2.2 1.1-.88A2.94 2.94 0 0 0 16.57 26a3 3 0 0 0-2.92 3 3 3 0 0 0 2.92 3c1 0 1.91-.54 2.43-1.33l-1.1-.88c-.29.42-.8.71-1.33.71-.97 0-1.32-.65-1.32-1.5s.35-1.5 1.32-1.5c.54 0 1.04.29 1.33.7Zm31.07 0 1.03-.88A2.7 2.7 0 0 0 47.73 26c-1.6 0-2.73 1.48-2.73 3s1.14 3 2.73 3A2.7 2.7 0 0 0 50 30.67l-1.03-.88a1.5 1.5 0 0 1-1.24.71c-.9 0-1.23-.65-1.23-1.5s.32-1.5 1.23-1.5c.5 0 .98.29 1.24.7ZM11 26v6h1.5v-6H11Zm-5.63 0L7 28.67 8.63 26H10v6H8.5v-3.48L7.08 31h-.16L5.5 28.52V32H4v-6h1.37Z" fill="#1E407C"/></svg>