<!-- by TradingView --><svg width="56" height="56" viewBox="0 0 56 56" xmlns="http://www.w3.org/2000/svg"><path fill="#F0F3FA" d="M0 0h56v56H0z"/><path d="M46.13 21.9c.18-.1.4-.17.6-.24A1.9 1.9 0 0 0 48 19.9c0-1.05-.91-1.9-2.04-1.9-.99 0-1.81.65-2 1.52h-.02l-.03.01a13.58 13.58 0 0 1-2.26 3.98c-.7 1.02-3.1 1.61-4.61 1.2-.2-.06-.41-.13-.62-.17-2.1-.41-4.68-1.3-6.14-2.96-.21-.24-.32-.54-.43-.82a3.26 3.26 0 0 0-3.07-2 3.22 3.22 0 0 0-3.2 2.4c-.04.2-.09.4-.15.59-.13.4-.32.8-.46 1.2-.64 1.8-2.5 3.84-5.58 4.67l-.69.23c-.41.12-.87.12-1.3.06a7.09 7.09 0 0 0-.87-.05c-3.6 0-6.53 2.72-6.53 6.07S10.92 40 14.53 40c3.6 0 6.53-2.72 6.53-6.07 0-.3-.02-.6-.07-.9a7.99 7.99 0 0 1 5.62-8.15c3.04-1.05 6.9-.24 9.27 1.7.46.37.66.94.86 1.48a3.25 3.25 0 0 0 3.1 2.08c1.8 0 3.26-1.36 3.26-3.04 0-.15-.01-.3-.03-.44-.11-.7-.24-1.45.16-2.06a8.04 8.04 0 0 1 2.9-2.7Z" fill="url(#aphqolpxj)"/><defs><linearGradient id="aphqolpxj" x1="7.59" y1="29.76" x2="47.53" y2="25.37" gradientUnits="userSpaceOnUse"><stop stop-color="#D8E131"/><stop offset=".41" stop-color="#61BE4A"/><stop offset="1" stop-color="#00A651"/></linearGradient></defs></svg>