<!-- by TradingView --><svg width="56" height="56" viewBox="0 0 56 56" xmlns="http://www.w3.org/2000/svg"><path fill="#F0F3FA" d="M0 0h56v56H0z"/><circle cx="26.5" cy="14.5" r="2.5" fill="#A2082E"/><path d="M27 19a2 2 0 1 1-4 0 2 2 0 0 1 4 0ZM26 22.5a1 1 0 1 1-2 0 1 1 0 0 1 2 0Z" fill="#A2082E"/><circle cx="26" cy="25" r="1" fill="#A2082E"/><circle cx="15.5" cy="21.5" r="2.5" fill="#A2082E"/><circle cx="15.5" cy="34.5" r="2.5" fill="#A2082E"/><circle cx="28.5" cy="41.5" r="2.5" fill="#A2082E"/><circle cx="40.5" cy="34.5" r="2.5" fill="#A2082E"/><circle cx="39.5" cy="19.5" r="2.5" fill="#A2082E"/><path d="M21 25a2 2 0 1 1-4 0 2 2 0 0 1 4 0ZM23 34a2 2 0 1 1-4 0 2 2 0 0 1 4 0ZM32 37a2 2 0 1 1-4 0 2 2 0 0 1 4 0ZM40 30a2 2 0 1 1-4 0 2 2 0 0 1 4 0ZM37 21a2 2 0 1 1-4 0 2 2 0 0 1 4 0ZM23 28a1 1 0 1 1-2 0 1 1 0 0 1 2 0ZM25 32a1 1 0 1 1-2 0 1 1 0 0 1 2 0ZM32 33a1 1 0 1 1-2 0 1 1 0 0 1 2 0ZM36 28a1 1 0 1 1-2 0 1 1 0 0 1 2 0ZM26 29a1 1 0 1 1-2 0 1 1 0 0 1 2 0ZM28 31a1 1 0 1 1-2 0 1 1 0 0 1 2 0ZM31 30a1 1 0 1 1-2 0 1 1 0 0 1 2 0ZM33 27a1 1 0 1 1-2 0 1 1 0 0 1 2 0ZM33 23a1 1 0 1 1-2 0 1 1 0 0 1 2 0ZM31 25a1 1 0 1 1-2 0 1 1 0 0 1 2 0Z" fill="#A2082E"/></svg>