<!-- by TradingView --><svg width="56" height="56" viewBox="0 0 56 56" xmlns="http://www.w3.org/2000/svg"><path fill="#F0F3FA" d="M0 0h56v56H0z"/><path fill-rule="evenodd" d="M5 25h.6v.93A1.8 1.8 0 0 1 7.2 25c1.44 0 1.81 1.24 1.81 1.95V30h-.48v-2.92c-.06-.48-.43-1.46-1.47-1.46-.77 0-1.23.68-1.47 1.3V30H5v-5Zm42 0h.6v.93c.24-.43.74-.93 1.6-.93 1.43 0 1.8 1.24 1.8 1.95V30h-.48v-2.92c-.06-.48-.43-1.46-1.46-1.46-.77 0-1.23.68-1.47 1.3V30H47v-5Zm-32.5 2.7v-.2c0-1.38-1-2.5-2.25-2.5-1.24 0-2.25 1.12-2.25 2.5s1 2.5 2.25 2.5c.99 0 1.82-.7 2.13-1.69h-.57c-.28.65-.87 1.1-1.56 1.1-.89 0-1.62-.74-1.71-1.7h3.95Zm-2.25-2.11c.83 0 1.52.64 1.69 1.5h-3.38c.17-.86.86-1.5 1.69-1.5ZM35 27.5v.2h-3.96c.1.97.82 1.71 1.71 1.71.69 0 1.28-.45 1.56-1.1h.57A2.28 2.28 0 0 1 32.75 30c-1.24 0-2.25-1.12-2.25-2.5s1-2.5 2.25-2.5c1.24 0 2.25 1.12 2.25 2.5Zm-.56-.4c-.17-.87-.86-1.51-1.69-1.51s-1.52.64-1.68 1.5h3.37Zm11.56.5v-.1c0-1.38-1-2.5-2.25-2.5-1.24 0-2.25 1.12-2.25 2.5s1 2.5 2.25 2.5c1.02 0 1.89-.76 2.16-1.8h-.56a1.74 1.74 0 0 1-1.6 1.21c-.92 0-1.67-.8-1.72-1.8h.81v-.01H46Zm-2.25-2.01c.8 0 1.47.6 1.66 1.41H42.1c.2-.81.86-1.41 1.66-1.41ZM38.25 30c.66 0 1.26-.32 1.67-.83v.97a1.37 1.37 0 0 1-1.47 1.26c-1.1 0-1.47-.72-1.51-1.09h-.63c.08.57.62 1.69 2.14 1.69 1.53 0 2-1.24 2.05-1.86V25h-.58v.83c-.41-.51-1-.83-1.67-.83-1.24 0-2.25 1.12-2.25 2.5s1 2.5 2.25 2.5Zm0-.59c.8 0 1.48-.61 1.67-1.44v-.94c-.19-.83-.86-1.44-1.67-1.44-.95 0-1.72.85-1.72 1.91s.77 1.91 1.72 1.91ZM29.1 25v.62h-.11c-.74 0-1.19.68-1.42 1.3V30H27v-5h.57v.93c.24-.43.72-.92 1.53-.93Zm-4.6 2a.5.5 0 1 0 0-1 .5.5 0 0 0 0 1Zm.5 1.52c0 .3-.22.53-.5.53a.51.51 0 0 1-.5-.53c0-.29.22-.52.5-.52s.5.23.5.52ZM15.5 25l1.41 5h.64l1.22-4.13 1.2 4.13h.62L22 25h-.66l-1.09 4.31L19.08 25h-.66l-1.2 4.31L16.17 25h-.67Z" fill="#0A104B"/></svg>