<!-- by TradingView --><svg xmlns="http://www.w3.org/2000/svg" width="56" height="56" viewBox="0 0 56 56"><path fill="#F0F3FA" d="M0 0h56v56H0z"/><path fill-rule="evenodd" d="M16 16.5h.63c.37 0 .37.24.37.63v6.73c0 .38 0 .7-.37.7H16V25h3v-.44h-.25c-.36 0-.75-.32-.75-.7v-5.77L22.1 25H24v-7.87c0-.39.15-.63.51-.63H25V16h-3v.5h.43c.37 0 .57.24.57.63V22L19.22 16H16v.5Zm15.72 2H32V16h-.33c-.01.17-.11.59-.38.59-.1 0-.22-.06-.39-.14-.35-.17-.9-.45-1.96-.45-1.55 0-2.94.9-2.94 2.39 0 1.49 1.53 2.11 2.25 2.4l.22.09c.73.27 1.75.66 1.75 1.83 0 1.29-1.22 1.52-1.73 1.52-.5 0-2.1-.75-2.1-2.23H26v3h.39c.04-.15.16-.62.35-.62.06 0 .17.05.32.12.38.18 1.05.5 2.09.5 1.45 0 3.35-.89 3.35-2.87 0-1.59-1.99-2.57-2.86-2.86-.55-.13-1.64-.63-1.64-1.54s.97-1.06 1.46-1.02c.71.09 2.26.4 2.26 1.79ZM38 16h-4v.5h.53c.26 0 .47.2.47.5v7.07c0 .29-.2.52-.47.52H34V25h6.46l.54-2.66-.39-.15-.38.94c-.29.69-.91 1.37-1.6 1.37H37v-7.45c0-.3.25-.55.52-.55H38V16ZM23.43 32.5c0 2.49-1.67 4.5-3.72 4.5-2.05 0-3.71-2.01-3.71-4.5s1.66-4.5 3.71-4.5 3.72 2.01 3.72 4.5Zm-1.93 0c0 2.2-.78 4-1.75 4S18 34.7 18 32.5s.78-4 1.75-4 1.75 1.8 1.75 4ZM8 28h6.54l.09 2h-.27l-.05-.56c-.03-.37-.31-.94-.65-.94H11V32h1.51c.37 0 .49-.5.49-.9V31h.5v2.5H13v-.2c0-.4-.12-.72-.49-.72H11v3.36c0 .3.29.56.56.56H12v.5H8v-.5h.6c.27 0 .4-.26.4-.56v-6.95c0-.3-.13-.49-.4-.49H8V28Zm20.25 9c2.07 0 3.75-2.01 3.75-4.5S30.32 28 28.25 28c-2.07 0-3.75 2.01-3.75 4.5s1.68 4.5 3.75 4.5Zm0-.5c.97 0 1.75-1.8 1.75-4s-.78-4-1.75-4-1.75 1.8-1.75 4 .78 4 1.75 4ZM36.4 28H32v.5h.57c.28 0 .43.19.43.49v7.06c0 .3-.15.45-.43.45H32v.5h4.4c1.99 0 3.6-1.72 3.6-3.84v-1.32c0-2.12-1.61-3.84-3.6-3.84Zm-1.4.5h.5c1.38 0 2.5 1.19 2.5 2.65v2.7c0 1.46-1.12 2.65-2.5 2.65H35v-8Zm12 2h-.28c0-1.4-1.55-1.7-2.26-1.8-.49-.03-1.46.12-1.46 1.03 0 .9 1.1 1.4 1.64 1.54.87.3 2.86 1.27 2.86 2.86 0 1.98-1.9 2.87-3.35 2.87-1.04 0-1.7-.32-2.09-.5a1.04 1.04 0 0 0-.32-.12c-.19 0-.31.47-.35.62H41v-3h.39c0 1.48 1.6 2.23 2.1 2.23s1.73-.23 1.73-1.52c0-1.17-1.02-1.56-1.75-1.83l-.22-.09c-.72-.29-2.25-.91-2.25-2.4 0-1.5 1.4-2.39 2.94-2.39 1.06 0 1.61.28 1.96.45.17.08.29.14.4.14.26 0 .36-.42.37-.59H47v2.5Z" fill="#EE4D21"/></svg>