<!-- by TradingView --><svg width="56" height="56" viewBox="0 0 56 56" xmlns="http://www.w3.org/2000/svg"><path fill="#F0F3FA" d="M0 0h56v56H0z"/><path d="m13 19.5 4.63 7.5h9L31 19.5 26.37 12h-9L13 19.5ZM25.84 13l4.06 6.52L26 26h-7.84l-4.06-6.52L17.94 13h7.9Z" fill="url(#a3j0hbvdp)"/><path d="m28 28 4.63 8h9L46 28l-4.63-8h-9L28 28Zm12.84-6.93 4.06 6.95-3.9 6.91h-7.84l-4.06-6.95 3.84-6.91h7.9Z" fill="url(#b3j0hbvdp)"/><path d="m13 36.5 4.63 7.5h9L31 36.5 26.37 29h-9L13 36.5ZM25.84 30l4.06 6.52L26 43h-7.84l-4.06-6.52L17.94 30h7.9Z" fill="url(#c3j0hbvdp)"/><defs><linearGradient id="a3j0hbvdp" x1="34.38" y1="39.14" x2="18.56" y2="11.46" gradientUnits="userSpaceOnUse"><stop offset=".4" stop-color="#63B014"/><stop offset=".68" stop-color="#289FD9"/><stop offset="1" stop-color="#6C19C6"/></linearGradient><linearGradient id="b3j0hbvdp" x1="41.62" y1="35.85" x2="24.21" y2="7.3" gradientUnits="userSpaceOnUse"><stop stop-color="#F11E10"/><stop offset=".4" stop-color="#63B014"/><stop offset=".68" stop-color="#289FD9"/></linearGradient><linearGradient id="c3j0hbvdp" x1="26.64" y1="43.87" x2="10.81" y2="16.19" gradientUnits="userSpaceOnUse"><stop stop-color="#F11E10"/><stop offset=".4" stop-color="#63B014"/><stop offset=".68" stop-color="#289FD9"/></linearGradient></defs></svg>