<!-- by TradingView --><svg width="56" height="56" viewBox="0 0 56 56" xmlns="http://www.w3.org/2000/svg"><path fill="#F0F3FA" d="M0 0h56v56H0z"/><path d="M18.16 30.88c-.27 1.6-1.29 3.13-3.05 3.13-1.91 0-2.3-1.68-2.04-3.23.26-1.5 1.4-2.78 2.99-2.78 1.64 0 2.35 1.43 2.1 2.88Zm-.83-.1c.23-1.32-.36-2.02-1.3-2.02-1.01 0-1.9.75-2.12 2.12-.19 1.04-.1 2.37 1.23 2.37 1.38 0 2-1.3 2.19-2.47ZM18.35 34l.7-4h.84l-.71 4h-.83Zm1.36-5.04a.51.51 0 0 1-.36-.14.42.42 0 0 1-.14-.34c0-.13.07-.24.17-.34.1-.1.23-.14.38-.14a.5.5 0 0 1 .36.14c.1.1.14.2.14.34-.01.13-.07.25-.17.34-.11.1-.23.14-.38.14ZM21.95 28l-1.1 6h-.83l1.1-6h.83ZM21.95 35.48a1.7 1.7 0 0 1-.56-.08l.32-.66c.15.04.28.05.39.04.12 0 .22-.05.33-.14.1-.08.2-.21.3-.4l.16-.27-.83-3.97h.85l.53 3.02h.04L25.11 30h.92l-2.55 4.48c-.12.22-.26.4-.4.56a1.53 1.53 0 0 1-1.13.44ZM28.43 24.23l6.85 11.96c.8 1.4 1.91 4.55 0 6.3-1.53 1.4-.64 1.57 0 1.48 3.14-.87 6.68-4.1 6.68-7.78 0-2.94-2.53-8.04-3.8-10.23l-4.22-6.72c-.76-1.26-2.3-4.3-2.36-6.3-.07-2.5 3.7-4.66 1.19-3.71-2.52.94-5.85 3.31-6.2 7.43a13.4 13.4 0 0 0 1.86 7.57Z" fill="#CA333C"/><path d="M30.41 15.75c-1.1-3.33 1.66-5.56 3.19-6.25-2.97 2.08-1.75 5.98-.77 7.67 6.56 10.26 6.86 11.5 8.64 16.24 1.42 3.79-.36 6.48-1.42 7.35a10.96 10.96 0 0 0 0-9.42c-1.78-3.56-8.25-11.43-9.64-15.6Z" fill="#B62E38"/><path d="M33.58 39.4c.21-3.8-4.04-9.12-6.2-11.32 0 8.03-5.58 10.04-5.36 13.03.22 2.99 3.56 3.97 5.37 3.88 1.8-.08 5.93-.85 6.2-5.59Z" fill="#24125E"/><path d="M25.51 44.77c-1.6-1.9-1.81-3.9-.05-6.57a8.55 8.55 0 0 0 1.26-5.68 16.23 16.23 0 0 1-2.98 5.13c-1 1.28-1.8 2.3-1.72 3.46.16 2.1 1.87 3.22 3.5 3.66Z" fill="#3C2D72"/></svg>