<!-- by TradingView --><svg width="56" height="56" viewBox="0 0 56 56" xmlns="http://www.w3.org/2000/svg"><path fill="#F0F3FA" d="M0 0h56v56H0z"/><path d="M8.81 21a5 5 0 0 1 3.55 1.46c.35.4.63.85.82 1.36.2.52.3 1.08.3 1.67 0 .67-.12 1.28-.36 1.83a4.05 4.05 0 0 1-.98 1.42c-.41.4-.91.7-1.5.93-.57.22-1.2.33-1.9.33s-1.35-.11-1.93-.33a4.23 4.23 0 0 1-2.46-2.37 4.8 4.8 0 0 1 0-3.65 4.38 4.38 0 0 1 2.5-2.32c.6-.22 1.25-.33 1.96-.33Zm-.12.46a2.88 2.88 0 0 0-2.1.93c-.14.15-.27.34-.4.57a5.43 5.43 0 0 0-.54 2.52c0 .79.12 1.49.34 2.1.23.6.55 1.06.96 1.37.5.39 1.1.58 1.8.58a2.88 2.88 0 0 0 1.9-.7c.78-.69 1.17-1.83 1.17-3.4 0-.76-.11-1.43-.35-2.02a3.08 3.08 0 0 0-.97-1.36c-.53-.4-1.14-.6-1.81-.6ZM21.94 23.78h-.36a6.21 6.21 0 0 0-.37-.9 4.6 4.6 0 0 0-.52-.63 2.5 2.5 0 0 0-1.77-.71c-.45 0-.82.1-1.1.32-.27.21-.4.5-.4.87 0 .36.16.7.5 1 .32.32.86.66 1.62 1.03.96.48 1.66.94 2.08 1.39.43.45.65.94.65 1.47 0 .34-.08.65-.23.94-.15.29-.36.54-.62.75-.26.22-.58.39-.94.5-.37.13-.76.19-1.17.19-.3 0-.59-.02-.88-.07a4 4 0 0 1-.84-.23 3.5 3.5 0 0 0-.68-.15c-.11 0-.2.05-.28.13a.5.5 0 0 0-.13.3h-.32l-.43-2.76h.33c.37.8.78 1.39 1.25 1.76.46.37 1.03.55 1.69.55.53 0 .96-.13 1.28-.4.33-.27.5-.62.5-1.05a1.44 1.44 0 0 0-.22-.78c-.17-.24-.44-.5-.81-.75-.37-.26-.8-.52-1.32-.78-.41-.2-.76-.38-1.05-.57-.28-.2-.52-.4-.7-.6a2 2 0 0 1-.52-1.36c0-.72.27-1.29.83-1.7.24-.17.5-.3.79-.4.29-.09.57-.14.85-.14a5.4 5.4 0 0 1 1.93.4l.28.03c.24 0 .39-.14.46-.43h.3l.32 2.78ZM26 22.43c0-.59-.05-1-.63-1.1a6.9 6.9 0 0 0-.74-.07V21h4.31v.26c-.3.01-.55.03-.74.07a.9.9 0 0 0-.43.17c-.1.09-.17.2-.2.36a2.6 2.6 0 0 0-.05.57v6.16c0 .24.01.43.05.59.04.14.11.26.21.34.1.08.25.14.44.18.18.03.42.05.72.06V30h-4.3v-.24c.3 0 .54-.03.73-.06.56-.11.63-.52.63-1.1v-6.17ZM39.02 30l-6.42-7.39v5.43c0 .67.06 1.07.27 1.32.1.12.24.2.42.26.17.06.4.09.68.1V30h-3.4v-.27c.3-.03.53-.06.7-.1a.78.78 0 0 0 .43-.27c.26-.31.3-.92.3-1.32v-6.06c-.2-.2-.46-.46-.72-.58a.96.96 0 0 0-.32-.1 1.97 1.97 0 0 0-.4-.04V21h2.49l5.57 6.5v-4.58c0-.8-.14-1.28-.42-1.46-.1-.06-.23-.1-.37-.13a3.7 3.7 0 0 0-.6-.07V21h3.4v.26c-.27.02-.48.04-.61.08s-.24.1-.33.15c-.29.17-.43.65-.43 1.43V30h-.24ZM47.34 21a5 5 0 0 1 3.54 1.46c.36.4.63.85.83 1.36.2.52.29 1.08.29 1.67 0 .67-.12 1.28-.36 1.83a4.05 4.05 0 0 1-.97 1.42c-.42.4-.92.7-1.5.93-.58.22-1.21.33-1.9.33-.71 0-1.35-.11-1.94-.33a4.23 4.23 0 0 1-2.46-2.37 4.8 4.8 0 0 1 0-3.65 4.38 4.38 0 0 1 2.5-2.32c.6-.22 1.26-.33 1.97-.33Zm-.13.46a2.88 2.88 0 0 0-2.1.93c-.14.15-.27.34-.39.57a5.43 5.43 0 0 0-.55 2.52c0 .79.12 1.49.35 2.1.23.6.54 1.06.95 1.37.5.39 1.11.58 1.8.58a2.88 2.88 0 0 0 1.9-.7c.78-.69 1.18-1.83 1.18-3.4 0-.76-.12-1.43-.36-2.02a3.08 3.08 0 0 0-.96-1.36c-.54-.4-1.14-.6-1.82-.6ZM12 38v-3h1.05c.23 0 .42.04.57.12.15.07.27.18.34.32s.11.3.11.47c0 .18-.04.34-.11.47a.76.76 0 0 1-.34.32c-.15.07-.34.11-.57.11h-.8v-.38h.76c.14 0 .26-.02.35-.06a.4.4 0 0 0 .2-.18.58.58 0 0 0 .06-.28.6.6 0 0 0-.06-.28.42.42 0 0 0-.2-.19.82.82 0 0 0-.36-.06h-.55V38H12Zm1.46-1.4.72 1.4h-.5l-.72-1.4h.5ZM15.56 38v-3h1.84v.38H16v.93h1.3v.37H16v.94h1.42V38h-1.86ZM20.7 35.8a.41.41 0 0 0-.2-.3.74.74 0 0 0-.42-.12.8.8 0 0 0-.31.06.48.48 0 0 0-.2.15.36.36 0 0 0-.08.22c0 .07.02.13.05.18.03.05.08.1.13.13.06.03.11.06.18.08a2 2 0 0 0 .18.05l.28.08.3.09c.1.04.18.09.27.15.08.07.15.15.2.24.06.1.08.2.08.34 0 .16-.04.3-.13.44a.86.86 0 0 1-.37.3c-.16.07-.36.11-.59.11-.22 0-.41-.03-.57-.1a.88.88 0 0 1-.38-.3.85.85 0 0 1-.15-.45h.44c.01.1.05.19.1.26.07.07.15.12.24.15.1.04.2.05.32.05a.9.9 0 0 0 .33-.05c.1-.04.18-.1.24-.17a.39.39 0 0 0 .08-.25.3.3 0 0 0-.07-.2.55.55 0 0 0-.2-.15 1.97 1.97 0 0 0-.29-.1l-.35-.08a1.36 1.36 0 0 1-.56-.28.63.63 0 0 1-.2-.5c0-.16.04-.3.14-.43a.9.9 0 0 1 .37-.3c.16-.06.33-.1.53-.1s.38.03.53.1c.15.07.28.17.36.29.1.12.14.26.14.41h-.43ZM25.27 36.5c0 .3-.06.57-.17.8a1.26 1.26 0 0 1-1.16.7 1.26 1.26 0 0 1-1.16-.7 1.73 1.73 0 0 1-.17-.8c0-.32.06-.58.18-.8a1.25 1.25 0 0 1 1.15-.7 1.25 1.25 0 0 1 1.15.7c.12.22.18.48.18.8Zm-.44 0c0-.24-.04-.44-.12-.6a.83.83 0 0 0-.77-.5.83.83 0 0 0-.45.13.86.86 0 0 0-.32.37 1.4 1.4 0 0 0-.12.6c0 .23.04.43.12.6.08.16.18.28.32.37.13.08.28.12.45.12.17 0 .32-.04.46-.12.13-.09.24-.21.31-.37.08-.17.12-.37.12-.6ZM28.73 35h.45v1.95c0 .2-.05.39-.14.55-.1.15-.24.28-.41.37-.18.09-.38.13-.62.13s-.44-.04-.62-.13a1.01 1.01 0 0 1-.4-.37c-.1-.16-.15-.34-.15-.55V35h.44v1.92c0 .13.03.25.1.35.05.1.13.18.24.24.11.06.24.09.39.09.15 0 .28-.03.39-.09.1-.06.19-.14.25-.24a.7.7 0 0 0 .08-.35V35ZM30.84 38v-3h1.05c.23 0 .42.04.57.12.15.07.27.18.34.32.08.14.11.3.11.47 0 .18-.03.34-.11.47a.76.76 0 0 1-.34.32c-.15.07-.34.11-.57.11h-.8v-.38h.76c.15 0 .26-.02.35-.06a.4.4 0 0 0 .2-.18.58.58 0 0 0 .07-.28.6.6 0 0 0-.07-.28.42.42 0 0 0-.2-.19.82.82 0 0 0-.35-.06h-.56V38h-.45Zm1.46-1.4.73 1.4h-.51l-.71-1.4h.49ZM36.92 36h-.45a.74.74 0 0 0-.1-.26.7.7 0 0 0-.4-.3.9.9 0 0 0-.72.09.87.87 0 0 0-.32.37 1.4 1.4 0 0 0-.11.6c0 .23.03.43.11.6.08.16.19.28.32.37a.93.93 0 0 0 .72.09.77.77 0 0 0 .23-.12.7.7 0 0 0 .17-.18.74.74 0 0 0 .1-.26h.45a1.1 1.1 0 0 1-.4.72c-.11.09-.23.15-.37.2-.14.05-.29.07-.45.07a1.3 1.3 0 0 1-.68-.18c-.2-.12-.36-.29-.47-.51a1.74 1.74 0 0 1-.18-.8c0-.32.06-.58.18-.8a1.25 1.25 0 0 1 1.15-.7c.16 0 .3.02.44.07a1.16 1.16 0 0 1 .63.5c.08.12.12.27.15.43ZM38.56 38v-3h1.85v.38H39v.93h1.3v.37h-1.3v.94h1.42V38h-1.87ZM43.53 35.8a.42.42 0 0 0-.19-.3.74.74 0 0 0-.42-.12.8.8 0 0 0-.31.06.48.48 0 0 0-.21.15.36.36 0 0 0-.07.22c0 .07.01.13.05.18.03.05.07.1.13.13a1 1 0 0 0 .17.08 2 2 0 0 0 .18.05l.3.08.28.09c.1.04.2.09.28.15.08.07.15.15.2.24.05.1.08.2.08.34 0 .16-.04.3-.13.44a.86.86 0 0 1-.37.3c-.16.07-.36.11-.6.11-.21 0-.4-.03-.56-.1a.88.88 0 0 1-.38-.3.85.85 0 0 1-.15-.45h.44c.01.1.05.19.1.26.07.07.15.12.24.15.1.04.2.05.32.05a.9.9 0 0 0 .33-.05c.1-.04.18-.1.23-.17a.39.39 0 0 0 .09-.25.3.3 0 0 0-.08-.2.55.55 0 0 0-.2-.15 1.96 1.96 0 0 0-.28-.1l-.35-.08a1.36 1.36 0 0 1-.56-.28.63.63 0 0 1-.2-.5c0-.16.04-.3.13-.43a.9.9 0 0 1 .38-.3c.15-.06.33-.1.53-.1s.38.03.53.1c.15.07.27.17.36.29.09.12.14.26.14.41h-.43Z" fill="#4F5052"/><path fill="#B78232" d="M6 32h44v.46H6z"/></svg>