<!-- by TradingView --><svg xmlns="http://www.w3.org/2000/svg" width="56" height="56" viewBox="0 0 56 56"><path fill="#F0F3FA" d="M0 0h56v56H0z"/><path d="M37.55 23.05a11.3 11.3 0 0 1-1.03 3.83c2.33.94 3.9 3.43 3.37 5.92-.55 2.64-2.92 4.2-5.5 4.2H22v4h12.39c4.5 0 8.68-3.18 9.48-7.7.79-4.48-2.06-8.83-6.32-10.26z" fill="#C9234D"/><path d="M25.73 11.99h-.25c-5.61-.02-10.57 4.6-10.49 10.35V41H19V22.34C18.92 18.8 22 16 25.49 16h.24c3.45-.07 6.78 3 6.77 6.5 0 3.39-3.9 6.5-7.13 6.5H22v4h3.37c5.4 0 11.38-5.06 11.38-10.65.02-5.7-5.41-10.44-11.02-10.36z" fill="#9F2B54"/></svg>