<!-- by TradingView --><svg width="56" height="56" viewBox="0 0 56 56" xmlns="http://www.w3.org/2000/svg"><path fill="#F0F3FA" d="M0 0h56v56H0z"/><path d="M19.45 26.95 4 36l13.6-5.47-1.93 3.1 5.44-2.01-2.24 3.44 16.97-11.98 1.2 5.04 1.42-2.83L46.23 33l-1.18-2.9L52 34.03l-16.16-13L23.8 30.1l-4.35-3.15Z" fill="url(#adw2tfpar)"/><path d="M28.53 17.27a12.05 12.05 0 0 0-6.63.45l.67 1.88a9.98 9.98 0 0 1 5.45-.4l.5-1.93Zm-.02 2.05.54-1.93c2.13.56 4.03 1.69 5.52 3.21l-1.7 1.13a9.98 9.98 0 0 0-4.36-2.41Zm-6.39.46-.82-1.83a12.04 12.04 0 0 0-5.02 4l1.58 1.24a10.04 10.04 0 0 1 4.26-3.41Zm-4.56 3.85-1.6-1.2A11.94 11.94 0 0 0 14 29.16l2.07-1.37c.18-1.52.7-2.93 1.49-4.17Z" fill="url(#bdw2tfpar)"/><defs><linearGradient id="adw2tfpar" x1="22.56" y1="34.7" x2="22.56" y2="21.67" gradientUnits="userSpaceOnUse"><stop stop-color="#58449B"/><stop offset="1" stop-color="#39C8D3"/></linearGradient><linearGradient id="bdw2tfpar" x1="15.62" y1="25.78" x2="32.7" y2="18.53" gradientUnits="userSpaceOnUse"><stop stop-color="#ED6712"/><stop offset="1" stop-color="#FFB231"/></linearGradient></defs></svg>