<!-- by TradingView --><svg xmlns="http://www.w3.org/2000/svg" width="56" height="56" viewBox="0 0 56 56"><path fill="#F0F3FA" d="M0 0h56v56H0z"/><path d="M11 26.08 26 11l6.61 4.2-21.6 10.88Zm-.06-1.23 4.75-9.99 3.44 1.92-8.2 8.07Zm25.29-10.33L11.08 27.28c4.74-1.45 18.38-3.98 34.92-2.53l-9.77-10.23Z" fill="url(#ax512hn2k)"/><path fill-rule="evenodd" d="M13.45 27.5H13v.66h.45v4.18H13V33h2v-.66h-.55V31h.95a1.75 1.75 0 1 0 0-3.5H13.45Zm1 .66v2.14h.78a1.07 1.07 0 1 0 0-2.14h-.78ZM10 34.5H12.51a1.64 1.64 0 0 1 .89 3.02l.66 1.82h.68V40H12.7v-.66h.35l-.56-1.55h-1.05v1.55H12V40h-2v-.66h.45v-4.18H10v-.66Zm1.45.61v1.99h.7a1 1 0 1 0 0-1.99h-.7Zm10.82-7.61h1.4v4.84h.46V33h-1.86v-.66h.4v-4.18h-.4v-.66ZM21 32.25v-2.73c-.02-.12-.32-.55-1.37-.52-1.3.05-2 .86-2.03 2.12-.04 1.26.71 1.9 1.52 1.88a1.52 1.52 0 0 0 1.18-.56V33h1.21v-.75H21Zm-1-.36v-2.25h-.59c-.58 0-.82.77-.82 1.44 0 .66.28 1.29.76 1.28.38-.01.6-.32.65-.47Zm8-2.37v2.73h.5V33h-1.2v-.56c-.13.18-.54.54-1.18.56-.81.02-1.56-.62-1.53-1.88.04-1.26.73-2.07 2.04-2.12 1.04-.03 1.34.4 1.37.52Zm-1 .12v2.25c-.06.15-.27.46-.65.47-.48.01-.77-.62-.77-1.28 0-.67.25-1.44.83-1.44h.58Zm10 2.63v-2.74c-.02-.12-.32-.55-1.36-.52-1.31.05-2 .86-2.04 2.12-.03 1.26.72 1.9 1.52 1.88a1.52 1.52 0 0 0 1.18-.56V33h1.21v-.74h-.5Zm-1-.37v-2.25h-.58c-.59 0-.83.77-.83 1.44 0 .66.29 1.29.77 1.28.38-.01.59-.32.64-.47ZM30.5 29H29v.73h.5v2.18c0 .79.72 1.08 1.34 1.09.5.01.98-.33 1.16-.5v.8c-.04.2-.35.73-1.05.73-.57 0-.72-.42-.73-.63h-.73v.63c.02.44.98.74 1.46.75 1.55.01 2.1-1.1 2.05-1.6V29h-1.46v.73H32v1.93c-.03.19-.36.58-.91.6-.55.02-.6-.44-.59-.67V29Zm7.5 0h1.3v.5c.13-.17.75-.5 1.57-.5 1.01 0 1.1.8 1.13 1.14v2.2h.47V33H40.6v-.67H41V30.2c-.05-.2-.11-.51-.53-.5-.71.02-.97.42-.97.54v2.1h.5V33h-2v-.67h.5V29.7H38V29Zm-8.57 11h1.31v-.69h-.5v-2.64h.5V36h-2v.67h.5v2.1c0 .12-.26.52-.97.54-.42.01-.48-.3-.52-.5v-.03h-.01v-2.11h.39V36h-1.86v.67h.47v2.19c.04.33.12 1.14 1.13 1.14.82 0 1.44-.33 1.56-.5v.5Zm-11.07-.44-.45-.57c-.14.13-.35.28-.9.28a.94.94 0 0 1-.98-.87c1.15-.06 2.33-.44 2.23-1.37-.1-.93-.89-1.03-1.38-1.03-.5 0-1.85.42-1.88 1.96A1.87 1.87 0 0 0 16.88 40c.73 0 1.17-.26 1.43-.4l.05-.04Zm-1.5-2.88c-.67.03-.87.7-.9 1.04.99.06 1.37-.2 1.44-.34.1-.24.13-.72-.54-.7ZM41.55 39l.45.57-.06.03c-.26.15-.7.41-1.42.41s-1.92-.5-1.88-2.04A1.96 1.96 0 0 1 40.52 36c.5 0 1.27.1 1.38 1.03.1.93-1.08 1.3-2.23 1.37.02.28.25.87.97.87.56 0 .77-.15.9-.28Zm-1.94-1.27c.01-.34.22-1.01.9-1.04.66-.02.63.46.53.7-.07.14-.45.4-1.43.34Zm-17.68-.5v-.81c-.15-.13-.61-.4-1.25-.41-.8-.01-1.59.34-1.68 1.22-.07.79 1 1.1 1.53 1.21.18.08.53.28.51.5-.02.28-.3.45-.69.42a1.4 1.4 0 0 1-.65-.23v-.45H19v.9c.18.16.72.43 1.42.43 1.06 0 1.64-.61 1.58-1.15-.07-.54-.44-.98-1.32-1.18-.7-.17-.84-.54-.81-.7.01-.13.18-.38.72-.36.53.01.6.41.57.6h.77Zm23.47-.81v.8h-.77c.03-.19-.04-.59-.58-.6-.53-.02-.7.23-.72.36-.02.16.11.53.82.7.88.2 1.25.64 1.31 1.18.07.54-.5 1.15-1.57 1.15a2.3 2.3 0 0 1-1.42-.44v-.89h.7v.45c.09.06.34.2.65.23.39.03.67-.14.69-.42.02-.22-.33-.42-.51-.5-.54-.1-1.6-.42-1.53-1.21.09-.88.88-1.23 1.68-1.22.64.01 1.1.28 1.25.41ZM26.03 38c0 1.1-.85 2-1.9 2-1.04 0-1.89-.9-1.89-2s.85-2 1.9-2c1.04 0 1.89.9 1.89 2ZM25 38c0 .68-.4 1.24-.88 1.24-.5 0-.89-.56-.89-1.24 0-.68.4-1.24.89-1.24s.88.56.88 1.24Zm8-2h-1.52v.68H32v2.61h-.51V40h2.07v-.7H33v-2.06c.22-.54.66-.5.95-.41v.51h.8V36.2c-.79-.5-1.47.05-1.75.39V36Zm3.75 4c.6 0 1.12-.29 1.47-.74l-1-.3a.7.7 0 0 1-.48.22c-.47 0-.85-.53-.85-1.18 0-.65.38-1.18.85-1.18.29 0 .55.2.7.52l.87-.04v-.43a1.87 1.87 0 0 0-1.56-.87c-1.05 0-1.9.9-1.9 2s.85 2 1.9 2Z"/><defs><linearGradient id="ax512hn2k" x1="28.47" y1="11" x2="30.93" y2="24.35" gradientUnits="userSpaceOnUse"><stop stop-color="#8C7000"/><stop offset="1" stop-color="#FFD321"/></linearGradient></defs></svg>