<!-- by TradingView --><svg width="56" height="56" viewBox="0 0 56 56" xmlns="http://www.w3.org/2000/svg"><path fill="#F0F3FA" d="M0 0h56v56H0z"/><path d="M29.43 12.07C29 12 28.48 12 27.96 12A15.95 15.95 0 0 0 12 27.96c0 5.23 2.25 9.79 6 12.73v-5.15c-1.62-2.06-2-4.7-2-7.58a11.76 11.76 0 0 1 13-11.88V22c-1 0-1.98.08-2.95.37-2.26.68-3.41 2.42-3.97 4.63h3.82c.42-.8 1.56-1 2.36-1H33V12.88c-1.1-.44-2.24-.66-3.57-.8Z" fill="#2C318C"/><path d="M37 14.87v4.85c2.01 2.21 3 5.08 3 8.24 0 6.77-5.4 12.29-12.26 12.29-.67 0-1.07-.08-1.74-.15V34h.77c3.15 0 5.54-2.02 6.42-5H29.3c-.71 1.02-1.14 1-2.39 1H22V42.9a16 16 0 0 0 3.8.95A16.06 16.06 0 0 0 44 28.03c0-5.44-2.75-10.3-7-13.16Z" fill="#00A0DD"/></svg>