<!-- by TradingView --><svg width="56" height="56" viewBox="0 0 56 56" xmlns="http://www.w3.org/2000/svg"><path fill="#F0F3FA" d="M0 0h56v56H0z"/><path fill-rule="evenodd" d="M21 27a7 7 0 1 0 0-14 7 7 0 0 0 0 14Zm0-.93a6.07 6.07 0 1 0 0-12.14 6.07 6.07 0 0 0 0 12.14Z" fill="#838383"/><path fill-rule="evenodd" d="M35 27a7 7 0 1 0 0-14 7 7 0 0 0 0 14Zm0-.78a6.22 6.22 0 1 0 0-12.44 6.22 6.22 0 0 0 0 12.44ZM21 41a7 7 0 1 0 0-14 7 7 0 0 0 0 14Zm0-.78a6.22 6.22 0 1 0 0-12.44 6.22 6.22 0 0 0 0 12.44Z" fill="#838383"/><path fill-rule="evenodd" d="M42 34a7 7 0 0 1-13.3 3.05V46H28V34a7 7 0 0 1 14 0Zm-.78 0a6.22 6.22 0 1 1-12.44 0 6.22 6.22 0 0 1 12.44 0Z" fill="#1295D2"/></svg>