<!-- by TradingView --><svg width="56" height="56" viewBox="0 0 56 56" xmlns="http://www.w3.org/2000/svg"><path fill="#F0F3FA" d="M0 0h56v56H0z"/><path d="m31.84 12.53-7.1 7.12a.07.07 0 0 1-.11-.02 24.09 24.09 0 0 0-4.19-5.66c-.03-.04-.03-.06.01-.09a16.1 16.1 0 0 1 11.37-1.43c.06.01.07.04.02.08ZM25.08 20.4l7.65-7.64a.07.07 0 0 1 .08-.02c1.39.43 2.69 1.05 3.91 1.84.04.02.04.05.01.09l-9.96 9.96c-.03.02-.05.02-.06-.02-.44-1.42-.99-2.8-1.64-4.13a.06.06 0 0 1 .01-.08Z" fill="#2D87AC"/><path d="M25.94 41.37c-1.01-8.39-4.64-16.8-11.26-22.2a.04.04 0 0 1-.01-.05 16.41 16.41 0 0 1 4.08-4.2.13.13 0 0 1 .16.02c6.39 5.73 8.9 14.38 8.7 22.78a56.7 56.7 0 0 1-.55 6.24.09.09 0 0 1-.06.02l-.7-.06c-.03 0-.04-.01-.05-.02a194.03 194.03 0 0 0-.3-2.53Z" fill="#8DC63F"/><path d="M40.42 17.99 28 30.4a.03.03 0 0 1-.05 0l-.01-.02c-.2-1.63-.5-3.24-.95-4.82 0-.03 0-.06.02-.08l10.4-10.39c.01-.02.04-.02.07 0 1.1.81 2.07 1.75 2.95 2.8.02.03.02.06 0 .09ZM42.97 22.46 28.22 37.2c-.02.03-.04.02-.04-.02.1-1.8.06-3.67-.1-5.58-.01-.19.1-.26.2-.37a54829.4 54829.4 0 0 0 12.62-12.6c.03-.03.06-.03.08 0 .83 1.16 1.5 2.4 2 3.73.02.04.01.07-.01.1Z" fill="#2D87AC"/><path d="M13.88 20.55c6.43 4.77 10.23 12.7 11.63 20.5.21 1.16.37 2.1.47 2.78 0 .04 0 .06-.05.05l-.87-.15a.16.16 0 0 1-.12-.1c-2.83-6.7-6.87-12.56-12.81-16.75-.07-.05-.1-.13-.09-.26a15.97 15.97 0 0 1 1.8-6.08.04.04 0 0 1 .04 0Z" fill="#8DC63F"/><path d="M27.36 43.99h-.01l-.01-.02v-.14c.37-2.12.57-3.49.75-5.23a.49.49 0 0 1 .14-.3l15-15c.04-.04.06-.03.08.01a15.98 15.98 0 0 1 .66 5.16L28.48 43.96a.13.13 0 0 1-.1.04l-1.02-.01Z" fill="#2D87AC"/><path d="M24.6 43.65A16.02 16.02 0 0 1 12 28.42a.06.06 0 0 1 .06-.03l.03.01a35.9 35.9 0 0 1 11.6 13.37 147.14 147.14 0 0 1 .93 1.86l-.01.02h-.02Z" fill="#8DC63F"/><path d="M29.7 43.84 43.86 29.7l.02-.01h.03a.04.04 0 0 1 .02.04c-.97 7.6-6.69 13.36-14.2 14.18-.06 0-.07-.01-.03-.06Z" fill="#2D87AC"/></svg>