<!-- by TradingView --><svg width="56" height="56" viewBox="0 0 56 56" xmlns="http://www.w3.org/2000/svg"><path fill="#F0F3FA" d="M0 0h56v56H0z"/><path fill-rule="evenodd" d="M45 28a17 17 0 1 1-34 0 17 17 0 0 1 34 0Zm-1 0a16 16 0 1 1-32 0 16 16 0 0 1 32 0Zm-29.9-4c.3-1.05.72-2.06 1.24-3H16c-.32.44-.6.97-.6 1.64 0 .51.17.97.4 1.36h-1.7Zm-.1.38a14.47 14.47 0 0 0-.46 3.24h2.33c.01-1.13.1-2.18.28-3.15a4 4 0 0 1-.07-.09h-2.09Zm-.23 6.24a15.1 15.1 0 0 1-.23-2.62h2.33c.01.92.08 1.8.2 2.62h-2.3Zm.08.38c.22 1.05.55 2.05.99 3h2.08a17 17 0 0 1-.79-3h-2.28Zm3.34 6.62a14.5 14.5 0 0 1-2.17-3.24h2.04a15.5 15.5 0 0 0 1.73 3.24h-1.6Zm.36.38a14.51 14.51 0 0 0 4.04 2.97 6.13 6.13 0 0 1-.5-.74c-.7-.63-1.39-1.37-2.03-2.23h-1.51Zm2 0c.35.46.72.88 1.1 1.27-.15-.4-.26-.81-.31-1.27h-.8Zm3.4 0c.1.25.21.49.32.72 1 2.15 2.17 3.16 3.03 3.65.21.03.43.05.65.06-.08-.13-.16-.3-.24-.55a21.1 21.1 0 0 1-.8-3.88h-2.96Zm2.9-.38h-2.93l.02-.13c1.9-1.05 2.24-2.14 2.38-2.72l.1-.39h.12c.09 1.22.2 2.3.32 3.24Zm.45.38.14.96c.2 1.22.43 2.14.64 2.8.12.4.25.59.35.7l.48.01c.71-.95.9-2.1 1.1-3.3l.03-.2.15-.97h-2.9Zm2.94-.38h-3a55.9 55.9 0 0 1-.31-3.24h3.63c-.09 1.22-.2 2.3-.32 3.24Zm.33.38-.15 1.03-.03.17c-.2 1.17-.38 2.3-1.01 3.27.24 0 .48-.02.73-.04.85-.48 2.05-1.53 3.07-3.71l.31-.72h-2.92Zm3.07-.38h-3.01c.12-.95.23-2.02.31-3.24h2.22l.27 2.87.23.32c0 .01 0 .03-.02.05Zm.34.38.72 1 1.15-.37.12-.63h.96a14.27 14.27 0 0 1-4.83 4.14c-.39.09-.78.15-1.18.2a9.1 9.1 0 0 0 2.6-3.46l.39-.88h.07Zm3.23-.38h-1.16c.2-1.01.44-2.15.51-2.23l.18-.17c.2-.18.54-.48.87-.84h1.34a15.54 15.54 0 0 1-1.74 3.24Zm.46 0c.64-.95 1.22-2.02 1.7-3.24H41a14.5 14.5 0 0 1-2.18 3.24h-2.15Zm-.27.38a15.26 15.26 0 0 1-3.88 3.76A14.48 14.48 0 0 0 38.46 38H36.4Zm-16.1-.38h-1.04c-.68-.93-1.3-2-1.79-3.24h2.9a44.44 44.44 0 0 0-.07 3.24ZM25.9 34h3.68c.06-.84.1-1.75.14-2.73l-1.37-.24-.02-.03h-2.57l.03.84c.13.19.2.39.22.6l-.17.52.06 1.04Zm4.07 0h2.15l-.24-2.52h-.95l-.83-.15c-.03.96-.08 1.84-.13 2.67Zm6.96 0h1.17c.33-.92.6-1.92.79-3H37.2c.12.47.26 1.06.3 1.63.02.44-.24.93-.58 1.37Zm2.35-3a17.3 17.3 0 0 1-.78 3h2.68c.44-.95.77-1.95 1-3h-2.9ZM17.3 34h3.07c.01-.4 0-.6-.1-.87-.1-.23-.3-.43-.5-.65-.37-.37-.78-.8-.78-1.48H16.5c.19 1.09.46 2.08.8 3Zm7.57-3c.18.12.35.25.5.38l-.01-.38h-.49Zm.48-.38h-1.13c-.38-.2-.73-.34-.95-.4-.12-.99-1.19-1.88-2.06-2.14V28h4.1c0 .92.01 1.8.04 2.62Zm2.64 0h-2.26c-.02-.83-.04-1.7-.04-2.62h.37l.02.09c.05.25 1.14 1.6 1.9 2.53Zm10.94 0h-1.86a6.42 6.42 0 0 0-.1-.3L39 28.46c-.2-.12-.46-.29-.7-.46h.84c-.01.92-.08 1.8-.2 2.62Zm.39 0c.11-.83.18-1.7.2-2.62h2.94c0 .9-.08 1.77-.23 2.62h-2.91Zm-20.3 0h-2.58c-.12-.83-.2-1.7-.2-2.62h2.53c.11.17.22.32.38.38.17.08.29-.1.37-.38h1.31c-.8-.04-1.63 1.51-1.8 2.62Zm1.81-3H19.6c.1-.64.12-1.5.12-1.96-.92.65-.77-.47-.57-1.1.33-.03.84-.09 1.35-.18h.5a34 34 0 0 0-.16 3.24Zm.38 0h4.1c0-1.16.02-2.24.05-3.24h-3.99c-.1 1-.15 2.07-.16 3.24Zm4.48 0h.3c-.02-.28.05-.61.36-1.02.26-.34.49-.78.7-1.2.21-.39.4-.76.6-1.02h-1.9c-.04 1-.06 2.08-.06 3.24Zm12.15 0h1.3a23.2 23.2 0 0 0-.13-2.1c-.22-.2-.42-.41-.6-.6a4.97 4.97 0 0 0-.56-.54h-.18c0 .14.25.51.53.93.36.56.79 1.2.79 1.51 0 .36-.34.35-.69.35-.22 0-.45 0-.58.1-.09.07-.02.2.12.35Zm1.59-1.73c.05.56.08 1.13.08 1.73h2.95l-.02-.46c-.53-.49-1.3-.95-1.79-.82-.38.09-.81-.13-1.22-.45Zm-23.2 1.73h2.31c-.22-.37-.5-.73-1.04-.77-.83-.06-.78-1.17-.65-1.72a3.08 3.08 0 0 1-.4-.31c-.13.87-.2 1.8-.21 2.8ZM28.09 24h-2.31a98 98 0 0 1 .16-3h3.6c-.23.28-.38.56-.35.8.06.62.31.77.43.77l.02-.03.01.23c-.4 0-.75.1-.9.44-.24.54-.41.64-.6.76l-.06.03Zm-2.7 0h-3.56l.1-.06c.27-1.31 1.68-2.42 2.57-2.94h1.06c-.07.9-.13 1.9-.17 3Zm-9.1-3.38h-.73c.34-.57.72-1.12 1.13-1.64.1.09.18.25.18.56 0 .34-.26.67-.56 1.05l-.02.03Zm8.4 0h.9c.03-.45.07-.87.12-1.28-.14.1-.4.2-.67.32-.48.2-.97.4-.74.53.19.11.32.28.4.43Zm1.28 0h3.54a46.2 46.2 0 0 0-.37-3.24h-2.8a46.2 46.2 0 0 0-.37 3.24Zm3.93 0h.01c.35-.33.74-.62 1.02-.8.16.12.57.4.95.56.38.14.5-.08.72-.46l.2-.33c.08-.14.14-.28.15-.4a16 16 0 0 0-.2-.55.9.9 0 0 0-.32-.16c-.29-.1-.34.25-.4.59-.03.21-.06.42-.15.52-.24.26-1.07-.22-.95-.74.08-.37.35-1.04.7-1.47h-2.1c.14.92.26 1.99.37 3.24ZM26.39 17l.04-.22.06-.38c.16-.94.35-2.12.96-2.86l.49-.01c.68.74.87 1.93 1.03 2.91l.06.34.04.22h-2.68Zm5.58 0h-2.51l-.05-.29-.05-.29a7.03 7.03 0 0 0-.93-2.89h.15c.9.38 2.25 1.4 3.4 3.47Zm1.09.38.27.23c.22.18.43.35.6.42.24.1.98-.12 1.77-.36l.11-.03-.21-.26h-2.54Zm2.2-.38h-2.85a9.07 9.07 0 0 0-2.9-3.4c.37.04.74.1 1.1.16 1.25.46 3.04 1.49 4.65 3.24Zm.84.38.1.14.51-.14h-.61Zm1.3-.38h-1.63a13.77 13.77 0 0 0-3.33-2.78c1.85.6 3.53 1.55 4.97 2.78ZM26 17h-2.5c.22-.24.33-.48.34-.66a7.3 7.3 0 0 1 2.86-2.75l.26-.03c-.51.8-.7 1.9-.85 2.81a56.6 56.6 0 0 1-.1.63Zm-2.75.38h2.7l-.1.66c-.4-.15-1.47-.18-1.56.35-.12.65-.46 1.07-1.2 1.15-.31.03-.52-.03-.68-.15a14 14 0 0 1 .84-2Zm8.03 5.83a6.1 6.1 0 0 0-1.25-.4l-.04-.74c.53-.64 1.31-1.3 1.88-.91l.06.04c.89.62 1.72 1.2 1.76 1.67.04.49-2.06.49-2.41.34Zm-9.16-4.15c.18-.52.38-1 .58-1.43l-.21.1c-.73.35-.88.54-.58 1l.11.18.1.15Zm1.47-3.04a8.55 8.55 0 0 1 2.16-2.32c-.55.09-1.1.2-1.62.35a12.7 12.7 0 0 0-3.48 2.42 29.72 29.72 0 0 0 2.94-.45Zm-.8 22.58c-.07.77-.1 1.67-.12 2.41.57.4 1.12.73 1.61.98.38.1.75.18 1.14.25a9 9 0 0 1-2.64-3.64Zm-.68-23.82a14.46 14.46 0 0 0-2.84 1.67c.18.05.43.07.8.06.67-.7 1.37-1.27 2.04-1.73ZM43 28v-.13c0-.66 0-2.34-.68-4.36A15 15 0 1 0 43 28Z" fill="#1A1A1A"/></svg>