<!-- by TradingView --><svg width="56" height="56" viewBox="0 0 56 56" xmlns="http://www.w3.org/2000/svg"><path fill="#F0F3FA" d="M0 0h56v56H0z"/><path d="M13.43 29.52c-.4 4.56 2.66 5.58 6.2 5.9.04 0 .07 0 .1.03s.05.07.05.1c0 .04-.01.08-.04.1a.14.14 0 0 1-.1.06c-3.73.67-10.5-.13-9.98-5.97.44-4.87 5.57-9.46 9.35-11.69a31.6 31.6 0 0 1 11.06-4.02c.34-.06.66-.03.97.08.23.09.23.14-.02.15-6.24.4-17 8.72-17.59 15.26Z" fill="#13B2DF"/><path d="M41.4 15.63c3.82 2.9 1.4 10.15-.75 13.34-.03.04-.06.04-.09 0-.03-.06-.03-.1 0-.13 2.22-2.85 2.06-8.82-1.22-10.8-5.53-3.34-13.54.3-18.16 3.98-.34.27-.36.25-.07-.08 4.2-4.7 14.29-10.86 20.3-6.3Z" fill="#02AAA1"/><path d="m36.37 34.71-2.3-1.18c.13-.27.77-.85 1.26-1.22 2.95-2.25 4.38-5.36 4.3-9.34v-.01l.02-.01h.01v.02c.95 4.5-.14 8.41-3.29 11.74Z" fill="#029FC3"/><path d="M36.37 34.71c3.26 2.23 6.4 3.9 10.37 3.94.32 0 .34.1.07.27-4.81 3.15-8.53.6-12.45-2.33l-2.92-1.38a22.23 22.23 0 0 0-8.55-1.86c-.91 0-.92-.08-.01-.22 2.97-.46 6.14-.47 9.5-.01 1.74.23 2.55.53 4 1.6Z" fill="#1D3F90"/><path d="m31.44 35.2 2.92 1.4c-7.6 5.9-20.28 6.83-25.36-3.22v-.03l.02-.03h.05c5.38 6.97 15.64 5.47 22.37 1.89Z" fill="#029FC3"/></svg>