<!-- by TradingView --><svg width="56" height="56" viewBox="0 0 56 56" xmlns="http://www.w3.org/2000/svg"><path fill="#F0F3FA" d="M0 0h56v56H0z"/><path fill-rule="evenodd" d="M6.78 25H4.17c-.1 0-.17.08-.17.17v6.67c0 .09.08.16.18.16h.64c.1 0 .18-.07.18-.16V29h1.61c.3.06.79.3.94.98l.54 1.9c.02.07.08.12.16.12h.58c.11 0 .2-.11.16-.22l-.62-2.35a1.34 1.34 0 0 0-.55-.71c.57-.34.94-.95.94-1.68 0-1.13-.89-2.04-1.98-2.04Zm-.07 1H5v2h1.7c.62 0 1.11-.29 1.11-.92 0-.63-.5-1.08-1.1-1.08ZM49.78 25h-2.61c-.1 0-.17.08-.17.17v6.67c0 .09.08.16.18.16h.64c.1 0 .18-.07.18-.16V29h1.61c.3.06.79.3.94.98l.54 1.9c.02.07.08.12.16.12h.58c.11 0 .2-.11.16-.22l-.62-2.35a1.34 1.34 0 0 0-.55-.71c.57-.34.94-.95.94-1.68 0-1.13-.89-2.04-1.98-2.04Zm-.07 1H48v2h1.7c.62 0 1.11-.29 1.11-.92 0-.63-.5-1.08-1.1-1.08Z" fill="#1F96D2"/><path d="m9.6 31.76 2.23-6.64A.17.17 0 0 1 12 25h.77c.07 0 .13.05.15.12l2.2 6.65c.03.11-.05.23-.16.23h-.65a.17.17 0 0 1-.15-.12l-.45-1.42h-2.66l-.44 1.42a.17.17 0 0 1-.16.12h-.68c-.12 0-.2-.12-.16-.24Zm1.72-2.2h2.1l-1.05-3.37-1.05 3.37Z" fill="#1F96D2"/><path d="m28.9 31.76 2.23-6.64a.17.17 0 0 1 .16-.12h.77c.07 0 .13.05.15.12l2.2 6.65c.03.11-.05.23-.16.23h-.65a.17.17 0 0 1-.15-.12L33 30.46h-2.66l-.44 1.42a.17.17 0 0 1-.16.12h-.68c-.12 0-.2-.12-.16-.24Zm1.72-2.2h2.1l-1.05-3.37-1.05 3.37Z" fill="#225EA8"/><path d="M16 25.17c0-.1.08-.17.18-.17h.64c.1 0 .18.08.18.17v6.66c0 .1-.08.17-.18.17h-.64a.17.17 0 0 1-.18-.17v-6.66ZM18 25.18v6.64c0 .1.07.18.16.18h.67c.1 0 .17-.08.17-.18v-4.97l3.02 5.07c.03.05.08.08.14.08h.68c.09 0 .16-.08.16-.18v-2.64c0-.1-.07-.18-.16-.18h-.67c-.09 0-.17.09-.17.18v1.04l-2.92-5.14a.16.16 0 0 0-.14-.08h-.78c-.09 0-.16.08-.16.18Z" fill="#1F96D2"/><path d="M22 25.18v2.64c0 .1.07.18.16.18h.68c.09 0 .16-.08.16-.18v-.48l1.48 3.54c.03.07.09.12.15.12h.7c.07 0 .13-.05.15-.12L27 27.34v4.48c0 .1.07.18.16.18h.68c.09 0 .16-.08.16-.18v-6.64c0-.1-.07-.18-.16-.18h-.81a.16.16 0 0 0-.15.11L25 30.03l-1.95-4.92a.16.16 0 0 0-.15-.11h-.73c-.09 0-.16.08-.16.18ZM35.82 25h-.66c-.1 0-.17.08-.17.18v6.64c0 .1.08.18.17.18h.66c.1 0 .18-.08.18-.18v-1.7l1.35-1.67 1.9 3.46c.04.06.1.09.16.09h.8c.14 0 .22-.15.16-.27l-2.3-4.15 1.76-2.3c.1-.1.01-.28-.13-.28h-.68c-.05 0-.1.02-.13.06L36 28.7v-3.51c0-.1-.07-.18-.17-.18ZM42.22 25h3.21c.1 0 .17.08.17.17v.66c0 .1-.07.17-.17.17h-2.98c-.29 0-.45.24-.45.53V28h3.1c.1 0 .18.1.18.2v.64c0 .1-.08.16-.18.16H42v1.48c0 .3.16.52.45.52h2.98c.1 0 .17.08.17.18v.65c0 .1-.07.17-.17.17h-3.21c-.67 0-1.22-.55-1.22-1.22v-4.56c0-.67.55-1.22 1.22-1.22Z" fill="#225EA8"/></svg>