<!-- by TradingView --><svg width="56" height="56" viewBox="0 0 56 56" xmlns="http://www.w3.org/2000/svg"><path fill="#F0F3FA" d="M0 0h56v56H0z"/><path d="M18.3 37.95 10 40l4.85-7.5 4.84 1.36-1.38 4.1Z" fill="#F6A500"/><path d="m19.7 33.86-4.85-1.36L28 10l-8.3 23.86Z" fill="#70247F"/><path d="M19.7 33.86 28 10l8.3 23.86-8.3 2.05-8.3-2.05Z" fill="#51ADE1"/><path d="m18.3 37.95 1.4-4.09 8.3 2.05-9.7 2.04Z" fill="#93C01F"/><path d="M36.3 33.86 28 35.91l9.7 2.04-1.4-4.09Z" fill="#2D2D86"/><path d="m17.62 40 .69-2.05L28 35.91l9.7 2.04.68 2.05H17.62Z" fill="#E61B72"/><path d="m41.15 32.5-4.84 1.36L28 10l13.15 22.5Z" fill="#70247F"/><path d="m41.15 32.5-4.84 1.36 1.38 4.1L46 40l-4.85-7.5Z" fill="#A61680"/></svg>