<!-- by TradingView --><svg width="56" height="56" fill="none" xmlns="http://www.w3.org/2000/svg"><path fill="#F0F3FA" d="M0 0h56v56H0z"/><path fill-rule="evenodd" clip-rule="evenodd" d="M28.676 16C19.66 16 12.47 17.62 10 18.429V33h36V18.429C43.982 17.619 37.692 16 28.676 16Zm-15.033 5v.806h.174c.672 0 1.183.503 1.183 1.125v5.304c0 .622-.511.765-1.183.765h-.174v1h4.88v-.64h-.268c-.671 0-1.255-.503-1.255-1.125V26h.54c.815 0 1.672.859 2.612 2.262.752 1.122 1.505 1.626 1.788 1.738H33v-3h-1.006v.875c0 .622-.545 1.125-1.217 1.125H27v-3h.877c.672 0 1.123.304 1.123.925v.084h1V24h-1c0 .593-.427 1-1.069 1H27v-3h2.856c.672 0 1.144.31 1.144.93v.488h1V21h-8v1c.652 0 1 .294 1 .897V29h-.718c-1.113 0-1.455-.559-1.868-1.234a6.89 6.89 0 0 0-.474-.706c-.596-.752-1.616-1.119-2.052-1.208.932.005 2.796-.474 2.796-2.434 0-1.961-2.057-2.429-3.086-2.418h-5.955ZM17 22v3h1.22c.983 0 1.78-.672 1.78-1.5s-.797-1.5-1.78-1.5H17Zm26 8h-9v-1h.404c.336 0 .596-.23.596-.54v-5.563c0-.595-.359-.886-1-.897v-1h8v2.418h-1v-.487c0-.622-.486-.931-1.158-.931H37v3h1.058c.642 0 .942-.416.942-1.01h1V27h-1v-.038c0-.621-.325-.962-.997-.962H37v2.46c0 .31.482.54.818.54h2.966c.671 0 1.216-.482 1.216-.765V27h1v3Zm-33 4h36v4.287C43.938 39.19 37.362 41 27.55 41c-9.81 0-15.788-1.809-17.55-2.713V34Z" fill="#004C98"/><path opacity=".5" d="M16 35v4h24v-3H19v-1h-3Z" fill="#F0F3FA"/></svg>