<!-- by TradingView --><svg width="56" height="56" viewBox="0 0 56 56" fill="none" xmlns="http://www.w3.org/2000/svg">
<rect width="56" height="56" fill="#F0F3FA"/>
<path fill-rule="evenodd" clip-rule="evenodd" d="M42.5768 14.3253C36.5354 14.3176 30.4868 14.3176 24.4308 14.3253C18.8306 14.3333 14.7938 17.0264 14.0714 22.8042C14.015 23.2559 13.9969 24.0196 14 25.0953V40.1398C14.0007 40.1755 13.9687 40.2066 13.9415 40.2331L13.9324 40.242L11.9267 41.9555C11.8981 41.9846 11.863 41.9991 11.8213 41.9991H10.0406C10.0326 41.9989 10.0247 41.9964 10.018 41.9918C10.0114 41.9873 10.0062 41.9809 10.0031 41.9735C10 41.966 9.99922 41.9579 10.0007 41.95C10.0023 41.9421 10.0061 41.9348 10.0117 41.9291L12.5975 39.6437C12.6245 39.6169 12.638 39.5847 12.638 39.5472C12.6388 34.7184 12.6388 29.8893 12.638 25.0597C12.638 23.9909 12.6627 23.2264 12.7121 22.7663C12.909 20.9387 13.4751 19.2942 14.4106 17.8326C16.7181 14.2311 20.3426 13.0069 24.4366 13.0034C30.9364 12.9989 37.4358 12.9989 43.9348 13.0034C43.975 13.0034 43.9951 13.023 43.9951 13.062C44.0012 21.4081 44.0016 27.3018 43.9962 30.7433C43.9939 32.4855 43.6327 34.277 42.9056 35.8619C40.8436 40.3534 36.6628 41.9934 31.851 41.9968L14.1218 41.998C14.1149 41.9978 14.1082 41.9957 14.1024 41.992C14.0966 41.9883 14.0919 41.9832 14.0888 41.977C14.0857 41.9709 14.0844 41.9641 14.0849 41.9572C14.0854 41.9504 14.0878 41.9438 14.0917 41.9382L15.0238 40.7266C15.0492 40.6937 15.0832 40.6773 15.1256 40.6773C20.7262 40.6788 26.3268 40.6811 31.9274 40.6841C37.4373 40.6876 41.7675 38.0198 42.5386 32.2902C42.6026 31.8194 42.6347 31.0553 42.6347 29.998C42.6377 24.8002 42.6381 19.5955 42.6358 14.3839C42.6358 14.3448 42.6161 14.3253 42.5768 14.3253ZM36.098 28.4833C36.8154 24.9103 34.6352 20.9834 31.0111 20.1583C30.5666 20.0567 29.9596 20.0055 29.1902 20.0048L16.9228 20.0006C18.8176 16.6364 21.9314 16.0076 25.6213 16.0042L41 16V30.1371C40.9977 33.1759 39.5308 36.1788 36.7707 37.6676C36.7517 37.6779 36.7299 37.682 36.7085 37.679C36.6871 37.6761 36.6673 37.6664 36.6522 37.6514L32.4187 33.4459C32.3342 33.3621 32.3452 33.2928 32.4516 33.2382C34.456 32.1949 35.6715 30.6099 36.098 28.4833ZM16.0602 38.2747L20.5104 33.7734C20.5642 33.7192 20.5683 33.7235 20.5229 33.7864C19.2864 35.5159 18.0237 37.2269 16.7349 38.9195C16.7293 38.9268 16.7257 38.9356 16.7246 38.945C16.7235 38.9543 16.725 38.9637 16.7288 38.9721C16.7326 38.9805 16.7386 38.9876 16.7461 38.9925C16.7537 38.9973 16.7624 38.9998 16.7712 38.9996C21.6962 39.0004 26.6299 39 31.5724 38.9984C31.6277 38.9984 31.6874 38.991 31.7495 38.9833C31.8516 38.9707 31.96 38.9573 32.0653 38.9749C32.0714 38.9762 32.0778 38.9754 32.0834 38.9727C32.0891 38.9699 32.0937 38.9652 32.0965 38.9595C32.0994 38.9537 32.1003 38.9471 32.0992 38.9407C32.0981 38.9343 32.0949 38.9285 32.0903 38.9242L23.6682 30H29.0269C31.7121 30.0165 32.9887 27.1458 31.3679 25.0278C30.7375 24.2051 29.8868 24.0024 28.8225 24.0024C24.5691 23.9992 20.3139 23.9992 16.0568 24.0024C16.0189 24.0024 16 24.022 16 24.0613V38.2476C16.0002 38.2549 16.0024 38.2621 16.0063 38.2682C16.0103 38.2743 16.0158 38.2791 16.0222 38.282C16.0286 38.2848 16.0356 38.2857 16.0423 38.2844C16.0491 38.2831 16.0553 38.2798 16.0602 38.2747Z" fill="url(#paint0_linear_229_4259)"/>
<defs>
<linearGradient id="paint0_linear_229_4259" x1="44" y1="13" x2="22.9561" y2="42.1621" gradientUnits="userSpaceOnUse">
<stop stop-color="#A5CD39"/>
<stop offset="0.292951" stop-color="#A0C53A"/>
<stop offset="1" stop-color="#307B3E"/>
</linearGradient>
</defs>
</svg>
