<!-- by TradingView --><svg width="56" height="56" viewBox="0 0 56 56" xmlns="http://www.w3.org/2000/svg"><path fill="#F0F3FA" d="M0 0h56v56H0z"/><path fill-rule="evenodd" d="M32.99 29.06a58.3 58.3 0 0 0 0-2.12c.32.35.64.7.94 1.06L33 29.06ZM32.02 28c0-.72 0-1.44-.03-2.14a60.23 60.23 0 0 0-1.85-1.85 64.92 64.92 0 0 0-4.27 0A60.72 60.72 0 0 0 24 25.87a64.9 64.9 0 0 0 0 4.26A60.29 60.29 0 0 0 25.87 32a64.63 64.63 0 0 0 4.26 0A60.71 60.71 0 0 0 32 30.14c.02-.7.03-1.42.03-2.14Zm-2.96 4.99a58.3 58.3 0 0 1-2.12 0c.35.32.7.64 1.06.94l1.06-.94Zm-4.78-1.07a45.7 45.7 0 0 1-.1-.1l-.1-.1.02.18.18.02Zm-.12.95 1.18.07c.62.58 1.24 1.14 1.86 1.67-.89.74-1.76 1.41-2.6 2.01a48.64 48.64 0 0 1-.44-3.75Zm-1.03-1.03-.07-1.18a51.2 51.2 0 0 1-1.67-1.86c-.74.89-1.41 1.76-2.01 2.6 1.16.18 2.41.33 3.75.44Zm-4.31.37c1.34.25 2.81.45 4.38.59.14 1.57.34 3.04.6 4.38-3.42 2.3-6.19 3.25-7.21 2.23-1.02-1.02-.07-3.79 2.23-7.2Zm-1-.2C13.69 31.09 11 29.64 11 28c0-1.64 2.68-3.1 6.83-4-.34-.55-.65-1.08-.92-1.59a.92.92 0 1 1 .74-.5c.34.6.73 1.23 1.17 1.88a44.2 44.2 0 0 1 4.38-.59c.14-1.57.34-3.04.6-4.38-3.42-2.3-6.19-3.25-7.21-2.23-.32.32-.77 1.75-.9 2.93-.47-1.6-.4-2.84.29-3.54 1.27-1.27 4.33-.45 8.01 1.85C24.91 13.68 26.36 11 28 11c1.64 0 3.1 2.68 4 6.83.55-.34 1.08-.65 1.59-.92a.92.92 0 1 1 .5.74c-.6.34-1.23.73-1.88 1.17.25 1.34.45 2.81.59 4.38 1.57.14 3.04.34 4.38.6 2.3-3.42 3.25-6.19 2.23-7.21-.32-.32-1.75-.77-2.93-.9 1.6-.47 2.84-.4 3.54.29 1.27 1.27.45 4.33-1.85 8.01C42.32 24.91 45 26.36 45 28c0 .91-.83 1.77-2.3 2.5.74-.85 1.44-2.08 1.44-2.5 0-1.32-2.55-2.49-6.47-3.22-.7 1.04-1.5 2.12-2.4 3.22.9 1.1 1.7 2.18 2.4 3.22.7-.13 1.35-.27 1.96-.43a.92.92 0 0 1 .87-.6c.52 0 .93.4.93.87s-.41.85-.93.85a.95.95 0 0 1-.7-.3c-.52.14-1.06.27-1.63.4 2.3 3.68 3.12 6.74 1.85 8.01-1.27 1.27-4.33.45-8.01-1.85C31.09 42.32 29.64 45 28 45c-.91 0-1.77-.83-2.5-2.3.85.74 2.08 1.44 2.5 1.44 1.32 0 2.49-2.55 3.22-6.47-1.04-.7-2.12-1.5-3.22-2.4-1.1.9-2.18 1.7-3.22 2.4.13.7.27 1.35.43 1.96.34.12.59.46.59.87 0 .51-.38.93-.86.93-.47 0-.85-.42-.85-.93 0-.28.12-.54.3-.7a43.4 43.4 0 0 1-.4-1.63c-3.68 2.3-6.74 3.12-8.01 1.85-1.27-1.27-.45-4.33 1.85-8.01Zm.51-.79c-3.92-.73-6.47-1.9-6.47-3.22 0-1.32 2.55-2.49 6.47-3.22.7 1.04 1.5 2.12 2.4 3.22-.9 1.1-1.7 2.18-2.4 3.22Zm1.05-6.62c.6.84 1.27 1.71 2 2.6.54-.62 1.1-1.24 1.68-1.86l.07-1.18c-1.34.1-2.6.26-3.75.44Zm4.72-.5-.02.18.1-.1.1-.1-.18.02Zm2.84-1.1a58.27 58.27 0 0 1 2.12 0c-.35-.32-.7-.64-1.06-.94l-1.06.94Zm4.78 1.07.1.1.1.1-.02-.18-.18-.02Zm.12-.95-1.18-.07a51.4 51.4 0 0 0-1.86-1.67c.89-.74 1.76-1.41 2.6-2.01.18 1.16.33 2.41.44 3.75Zm1.03 1.03.07 1.18c.58.62 1.14 1.24 1.67 1.86.74-.89 1.41-1.76 2.01-2.6a48.7 48.7 0 0 0-3.75-.44Zm-7.53-1.1-1.18.07c.1-1.34.26-2.6.44-3.75.84.6 1.71 1.27 2.6 2-.62.54-1.24 1.1-1.86 1.68Zm11.28 8.34c-.6-.84-1.27-1.71-2-2.6a51.3 51.3 0 0 1-1.68 1.86l-.07 1.18c1.34-.1 2.6-.26 3.75-.44Zm-3.82 1.4a44.2 44.2 0 0 0 4.38-.6c2.3 3.42 3.25 6.19 2.23 7.21-1.02 1.02-3.79.07-7.2-2.23.25-1.34.45-2.81.59-4.38Zm-.96.07c-.1 1.34-.26 2.6-.44 3.75-.84-.6-1.71-1.27-2.6-2a51.3 51.3 0 0 0 1.86-1.68l1.18-.07Zm.06-.97-.18.02.1-.1.1-.1-.02.18Zm-7.12-13.57c1.04.7 2.12 1.5 3.22 2.4 1.1-.9 2.18-1.7 3.22-2.4-.73-3.92-1.9-6.47-3.22-6.47-1.32 0-2.49 2.55-3.22 6.47ZM22.07 28l.94 1.06a58.28 58.28 0 0 1 0-2.12c-.32.35-.64.7-.94 1.06Z" fill="#256F3E"/><circle cx="28" cy="28" fill="#FFB14C" r="3"/></svg>