<!-- by TradingView --><svg width="56" height="56" fill="none" xmlns="http://www.w3.org/2000/svg"><path fill="#F0F3FA" d="M0 0h56v56H0z"/><path fill-rule="evenodd" clip-rule="evenodd" d="M14 25h28l-14-4-14 4ZM14 31h28l-14 4-14-4Z" fill="#009DE0"/><path d="M7 30h1v-1.397h1c.514 0 .353.397.39.776.018.207.037.414.11.621h1c-.11-.19-.128-.655-.147-.862-.055-.5-.275-.862-.624-1 .44-.155.771-.586.771-1 0-.759-.77-1.138-1.505-1.138H7v4Zm1-3h.858c.495 0 .642.138.642.397 0 .362-.33.396-.569.396H8V27Z" fill="url(#a)"/><path d="M11 28c0 1.174.803 2 2 2s2-.843 2-2c0-1.174-.803-2-2-2s-2 .843-2 2Zm1 0c0-.843.692-1 1-1 .308 0 1 .157 1 1 0 .86-.692 1-1 1-.308.017-1-.14-1-1Z" fill="url(#b)"/><path d="M15.686 28.49c.016 1.218 1.105 1.51 1.617 1.51 1.04 0 1.697-.5 1.697-1.317 0-1.249-2.239-.94-2.268-1.432 0-.214.452-.251.611-.251.222 0 .552 0 .552.395h.97c-.031-.922-.753-1.395-1.562-1.395-1.065 0-1.617.5-1.617 1.251 0 1.106 2.314.975 2.314 1.432 0 .28-.427.317-.602.317-.703 0-.607-.5-.607-.5l-1.105-.01Z" fill="url(#c)"/><path d="M37 28.49c.014 1.218 1 1.51 1.464 1.51.942 0 1.536-.5 1.536-1.317 0-1.249-1.973-.927-2-1.42 0-.214.356-.263.5-.263.201 0 .5 0 .5.395h.878c-.029-.922-.682-1.395-1.414-1.395C37.5 26 37 26.5 37 27.251c0 1.106 2 .947 2 1.403 0 .28-.292.346-.45.346-.636 0-.55-.5-.55-.5l-1-.01Z" fill="url(#d)"/><path d="M20 30h3v-1h-2v-.524h1.77v-.952H21V27h2v-1h-3v4Z" fill="url(#e)"/><path d="M24 30h1v-2.5l1.673 2.5H28v-4h-1v2.5L25.404 26H24v4Z" fill="url(#f)"/><path d="M30 28.256h.689c.32 0 .471.12.471.363 0 .312-.245.381-.528.381H30v-.744ZM29 30h1.972c.773 0 1.236-.416 1.236-1.212 0-.589-.359-.883-.755-1.005.32-.155.547-.38.547-.779C32 26.59 31.755 26 30.604 26H29v4Zm1-3h.557c.283 0 .452.07.452.277 0 .26-.17.33-.452.33H30V27Z" fill="url(#g)"/><path d="M36 26h-1v2.397c0 .405-.189.603-.493.603S34 28.802 34 28.397V26h-1v2.397c0 1.08.498 1.603 1.507 1.603 1.01 0 1.493-.523 1.493-1.603V26Z" fill="url(#h)"/><path d="M43.099 26C41.825 26 41 26.793 41 28c0 1.124.753 2 2.099 2 1.22 0 1.901-.826 1.901-1.587h-1c-.072.364-.37.587-.962.587S42 28.755 42 28s.446-1 1.038-1c.76 0 .944.405.962.537h1c0-1.032-1.008-1.524-1.901-1.537Z" fill="url(#i)"/><path d="M46 30h1v-1.576h1.5V30h1v-4h-1v1.403H47V26h-1v4Z" fill="url(#j)"/><defs><linearGradient id="a" x1="8.75" y1="26" x2="8.75" y2="30" gradientUnits="userSpaceOnUse"><stop stop-color="#181B1E"/><stop offset="1" stop-color="#181B1E"/></linearGradient><linearGradient id="b" x1="13" y1="26" x2="13" y2="30" gradientUnits="userSpaceOnUse"><stop stop-color="#181B1E"/><stop offset="1" stop-color="#181B1E"/></linearGradient><linearGradient id="c" x1="17.343" y1="26" x2="17.343" y2="30" gradientUnits="userSpaceOnUse"><stop stop-color="#181B1E"/><stop offset="1" stop-color="#181B1E"/></linearGradient><linearGradient id="d" x1="38.5" y1="26" x2="38.5" y2="30" gradientUnits="userSpaceOnUse"><stop stop-color="#181B1E"/><stop offset="1" stop-color="#181B1E"/></linearGradient><linearGradient id="e" x1="21.5" y1="26" x2="21.5" y2="30" gradientUnits="userSpaceOnUse"><stop stop-color="#181B1E"/><stop offset="1" stop-color="#181B1E"/></linearGradient><linearGradient id="f" x1="26" y1="26" x2="26" y2="30" gradientUnits="userSpaceOnUse"><stop stop-color="#181B1E"/><stop offset="1" stop-color="#181B1E"/></linearGradient><linearGradient id="g" x1="30.604" y1="26" x2="30.604" y2="30" gradientUnits="userSpaceOnUse"><stop stop-color="#181B1E"/><stop offset="1" stop-color="#181B1E"/></linearGradient><linearGradient id="h" x1="34.5" y1="26" x2="34.5" y2="30" gradientUnits="userSpaceOnUse"><stop stop-color="#181B1E"/><stop offset="1" stop-color="#181B1E"/></linearGradient><linearGradient id="i" x1="43" y1="26" x2="43" y2="30" gradientUnits="userSpaceOnUse"><stop stop-color="#181B1E"/><stop offset="1" stop-color="#181B1E"/></linearGradient><linearGradient id="j" x1="47.75" y1="26" x2="47.75" y2="30" gradientUnits="userSpaceOnUse"><stop stop-color="#181B1E"/><stop offset="1" stop-color="#181B1E"/></linearGradient></defs></svg>