<!-- by TradingView --><svg width="56" height="56" viewBox="0 0 56 56" xmlns="http://www.w3.org/2000/svg"><path fill="#F0F3FA" d="M0 0h56v56H0z"/><path d="M38.67 27.67c.58.34.66 1.03.63 1.33.26-.2.77-.76.77-1.33 0-.38-.2-.74-.38-1.07a1.8 1.8 0 0 1-.3-.78c0-.38 1.2-1.44 2.86-2.9.6-.52 1.24-1.09 1.91-1.7 2.57-2.33 2.84-3.18 2.84-3.94 0-.6-.21-1.1-.31-1.28-.38.66-1.86 2.68-4.77 5.4C38.27 24.83 38 25.83 38 26.5c0 .66.27.9.67 1.18Zm3.38-3.83c-1.5 1.2-1.99 1.94-2.05 2.16.82-.6 2.95-1.97 4.86-3.12C47.21 21.47 48 20.4 48 19.86c0-.42-.21-.75-.32-.86a186.53 186.53 0 0 1-5.63 4.84Zm.62 1.52 1.31-.78a99.48 99.48 0 0 0 4-2.58c.12.7-.15 2.3-2.29 3.1-1.2.44-2.33.73-3.2.96-.68.17-1.2.3-1.49.44.19-.26.73-.58 1.67-1.14Zm1.07.68A18.9 18.9 0 0 0 41 27c.77 0 2.7-.04 4.22-.22 1.52-.17 1.82-1.26 1.78-1.78-.67.25-2.24.8-3.26 1.04ZM41 27.6a8.57 8.57 0 0 1 2.7-.31c1.03 0 2.18.02 3.3-.28-.09.17-.63 1-2.01 1-.62 0-1.27-.13-1.9-.25-.8-.15-1.54-.3-2.09-.16Zm.97.41H41c.48.13 1.02.55 1.55.97.66.52 1.32 1.03 1.88 1.03.81 0 1.38-.99 1.57-1.48-.08.07-.37.22-.93.22-.48 0-1.18-.22-1.82-.42-.52-.17-1-.32-1.28-.32ZM41 29c.32.12 1.06.42 1.48.7l.35.26c.35.27.65.5 1.17.45-.15.24-.42.59-.76.59s-1.02-.59-1.48-1.18A5.23 5.23 0 0 0 41 29ZM17.32 27.67c-.57.34-.66 1.03-.63 1.33-.25-.2-.76-.76-.76-1.33 0-.38.2-.74.38-1.07.15-.28.3-.54.3-.78 0-.38-1.2-1.44-2.86-2.9-.6-.52-1.24-1.09-1.91-1.7C9.27 18.89 9 18.04 9 17.28c0-.6.21-1.1.31-1.28.38.66 1.86 2.68 4.78 5.4C17.73 24.83 18 25.83 18 26.5c0 .66-.27.9-.68 1.18Zm-3.37-3.83c1.5 1.2 1.99 1.94 2.05 2.16-.82-.6-2.95-1.97-4.86-3.12C8.79 21.47 8 20.4 8 19.86c0-.42.21-.75.32-.86a186.5 186.5 0 0 0 5.63 4.84Zm-.62 1.52-1.31-.78a99.47 99.47 0 0 1-4-2.58c-.12.7.15 2.3 2.29 3.1 1.2.44 2.33.73 3.2.96.68.17 1.2.3 1.49.44a7.13 7.13 0 0 0-1.67-1.14Zm-1.07.68c1 .25 2.25.74 2.74.96-.77 0-2.7-.04-4.22-.22C9.26 26.61 8.96 25.52 9 25c.67.25 2.24.8 3.26 1.04ZM15 27.6a8.57 8.57 0 0 0-2.7-.31c-1.03 0-2.18.02-3.3-.28.09.17.63 1 2.01 1 .62 0 1.27-.13 1.9-.25.8-.15 1.54-.3 2.09-.16Zm-.97.41H15c-.48.13-1.02.55-1.55.97-.66.52-1.32 1.03-1.88 1.03-.81 0-1.38-.99-1.57-1.48.08.07.37.22.93.22.48 0 1.18-.22 1.82-.42.52-.17 1-.32 1.28-.32Zm.97 1c-.32.12-1.06.42-1.48.7l-.35.26c-.35.27-.65.5-1.17.45.15.24.42.59.76.59s1.02-.59 1.48-1.18c.37-.47.66-.74.76-.82ZM19 22h7v1.5h-7V22ZM30 23.43V22c2.2-.06 6.67.95 7 5.5-.33 4.55-4.8 5.56-7 5.5v-1.43c4.26-.3 5.03-2.84 5-4.07.03-1.23-.74-3.77-5-4.07Z" fill="#0E2649"/><path d="M27 33v-1c-1.88-.05-5.72.78-6 4.5.28 3.72 4.12 4.55 6 4.5v-1c-3.65-.24-4.52-2.5-4.5-3.5-.02-1 .85-3.26 4.5-3.5ZM32 40.5l-3 .5v-1l3 .5Z" fill="#D21801"/><path d="m28 51 1-34h-2l1 34Z" fill="#0E2649"/><circle cx="28" cy="17" r="2" fill="#0E2649"/><path d="m43 32.39-.75-.39a14.5 14.5 0 0 1-11.5 10.27v-.6L29 42.83 30.75 44v-.9A15.33 15.33 0 0 0 43 32.39Z" fill="#5F5F5F"/><path d="m39.63 20.36-.05.1-.15-.23-.59-.4.24-.1a13.79 13.79 0 0 0-11.15-5.86c-5.06 0-9.49 2.85-11.99 7.13H15c2.59-4.78 7.4-8 12.93-8a14.6 14.6 0 0 1 11.94 6.41l1.13-.46-.43 2.05-.94-.64Z" fill="#D21801"/><path d="M15.27 33.33 13.57 32 13 34.1l.82-.28A15.6 15.6 0 0 0 27 44v-.86a14.76 14.76 0 0 1-12.39-9.59l.66-.22Z" fill="#5F5F5F"/></svg>