<!-- by TradingView --><svg width="56" height="56" viewBox="0 0 56 56" xmlns="http://www.w3.org/2000/svg"><path fill="#F0F3FA" d="M0 0h56v56H0z"/><path d="M11.96 22.56c-.13-.12-.29-.3-.45-.57-.13-.2-.32-.35-.55-.44a3.1 3.1 0 0 0-.78-.14c-.89-.1-1.62.23-2.2.98-.25.3-.43.61-.54.92-.16.4-.1.8.18 1.23.25.37.58.64.99.82.43.18.86.36 1.3.51.5.18.84.54 1.04 1.07.11.3.07.59-.12.85-.17.24-.42.39-.73.42-.5.06-.91-.04-1.23-.31-.3-.26-.5-.66-.62-1.2l.13.17.35.45c.14.15.28.27.43.35a1.33 1.33 0 0 0 .83.12c.34-.06.54-.24.6-.53a.86.86 0 0 0-.1-.61.99.99 0 0 0-.46-.4l-1.1-.48a2.73 2.73 0 0 1-1.54-1.42 2.34 2.34 0 0 1-.07-1.76 2.4 2.4 0 0 1 1.12-1.32 2.6 2.6 0 0 1 2.05-.12c.7.22 1.18.69 1.47 1.4Z" fill="#F1ECCA" fill-opacity=".99"/><path d="M29.17 22.58c-.16-.13-.3-.29-.41-.47-.15-.24-.3-.4-.45-.48a2.2 2.2 0 0 0-.65-.16c-1.3-.2-2.21.26-2.75 1.39a.06.06 0 0 1-.07.03.1.1 0 0 0-.05.02.21.21 0 0 0-.1.14c-.17.77-.02 1.37.46 1.82.19.18.44.35.76.5a12.48 12.48 0 0 0 1.29.55 1.79 1.79 0 0 1 .82.76c.23.4.24.77.02 1.09-.17.25-.37.4-.61.45-1 .17-1.64-.27-1.94-1.34l.69.8c.3.25.73.27 1.3.06.4-.37.5-.73.27-1.09a1.16 1.16 0 0 0-.6-.47 9.71 9.71 0 0 1-1.73-.83 2.25 2.25 0 0 1-.58-.53 2.5 2.5 0 0 1-.38-.7c-.2-.57-.17-1.1.06-1.59.62-1.29 1.67-1.75 3.14-1.4.7.18 1.2.66 1.51 1.45ZM13.87 21.16c-.1.15-.24.26-.38.34-.18-.06-.31-.05-.41.02a.22.22 0 0 0-.09.16l-.02.25.02 5.85c-.02.03-.04.06-.07.06l-.3-.99c.02-1.33.01-2.66 0-4-.01-.48.03-.97.12-1.45a.17.17 0 0 1 .12-.14 1.9 1.9 0 0 1 1.01-.1ZM17.42 21.15l-.7.55a.34.34 0 0 0-.12.16c-.06.15-.09.31-.09.49 0 1.6.01 3.18.04 4.76 0 .46-.15.78-.46.96-.29.18-.65.21-1.1.11-.25-.06-.45-.25-.62-.57a1.7 1.7 0 0 1-.2-.85 96 96 0 0 0 .06-5.1c.14.25.22.54.22.87l.02.65c.04.51.05 1.03.04 1.54-.12.45-.16.91-.1 1.39-.04.39 0 .78.1 1.17.17.4.5.57.97.52a.68.68 0 0 0 .63-.48c.06-.17.09-.46.1-.85v-.08a174 174 0 0 0 .01-4.17c0-.27.03-.55.1-.82a.2.2 0 0 1 .11-.14c.25-.1.58-.14.99-.11ZM23.34 21.2l-.63.52h-.02c0-.04-.02-.06-.06-.05-.02 0-.04.02-.05.04-.05.22-.07.43-.07.6-.01 1.43 0 2.73.05 3.92.04.93-.07.95-.33.05-.13-.42-.25-.79-.38-1.1a121.2 121.2 0 0 0-1.52-3.58c-.1-.2-.22-.28-.38-.25-.14.03-.27.12-.38.28-.12.16-.28.18-.48.05a.19.19 0 0 0-.2 0 .2.2 0 0 0-.1.17l-.04 5.63c0-.15-.08-.28-.24-.36l.1-5.63a.3.3 0 0 1 .07-.2.3.3 0 0 1 .19-.1 32.14 32.14 0 0 0 .65-.05c.17 0 .3 0 .42.04.28.08.5.29.68.63.53 1.06 1 2.12 1.4 3.18.17.46.25.44.24-.05-.03-1.06-.01-2.2.06-3.4 0-.16.08-.27.22-.33.22-.08.48-.09.8 0ZM31.22 21.15c-.26.23-.5.46-.75.66a.52.52 0 0 0-.19.44c.07 2.2.02 4.4-.16 6.6-.2-.49-.27-.98-.23-1.48.05-.66.08-1.4.09-2.23a101.28 101.28 0 0 0-.02-3c0-.21.04-.48.14-.79.02-.06.06-.1.13-.12.3-.1.64-.12.99-.08Z" fill="#F1ECCA"/><path d="M31.22 21.15c.18.11.3.27.35.47l-.13 2.63c0 .12.03.21.1.3.07.08.16.12.27.13l1.74.06a.2.2 0 0 0 .18-.08.22.22 0 0 0 .05-.19 5.73 5.73 0 0 1-.09-2.6.29.29 0 0 1 .16-.18c.26-.12.48-.3.64-.54.24-.03.4.17.5.62l-.1 6.68c0 .03 0 .06.03.08a.1.1 0 0 0 .08.02c.11-.01.15-.06.11-.15l.02.94c0 .05-.02.09-.06.12a.14.14 0 0 1-.12.03l-.68-.16c.2-.13.18-.23-.09-.29a1.22 1.22 0 0 0-.35-.02c-.23.02-.36-.06-.4-.22a.46.46 0 0 1-.04-.17c.15-.34.23-.74.25-1.2a12.4 12.4 0 0 0-.06-1.36.54.54 0 0 0-.2-.41.48.48 0 0 0-.51-.07c-.2.09-.2.17 0 .23.18.06.3.2.38.44a.72.72 0 0 0-.35-.22c-.08-.02-.2-.02-.37 0l-.29.01a.31.31 0 0 0-.23.09.33.33 0 0 0-.1.22l-.08.81-.04-.13c-.08-.29-.12-.5-.12-.65 0-.24.1-.42.3-.55a.11.11 0 0 0 .05-.1.11.11 0 0 0-.07-.1.6.6 0 0 0-.38-.04c-.1.02-.14.09-.13.19.07.82.09 1.62.07 2.39 0 .1.01.2.04.31.08.24.16.31.26.22.07.24.05.45-.04.63a.19.19 0 0 1-.14.1c-.28.05-.53.02-.78-.09l.17-.1c.06-.03.08-.08.05-.14-.02-.05-.06-.07-.12-.07a3 3 0 0 1-.85-.12l.02-.07c.18-2.2.23-4.4.16-6.6 0-.18.06-.33.2-.44.24-.2.48-.43.74-.66Z"/><path d="M36.93 21.15c-.2.26-.4.42-.6.5a.5.5 0 0 0-.23.19.51.51 0 0 0-.1.3c-.02 1.88-.03 3.74-.01 5.59 0 .31-.08.6-.24.87a178 178 0 0 1 0-6.46c0-.34.03-.6.1-.8.02-.07.06-.11.13-.12l.95-.07Z" fill="#F1ECCA"/><path d="M36.93 21.15c.27 0 .41.2.42.62-.09.88-.02 1.03.19.47l.02 6.1-.07-4.73c.07-.3.04-.56-.09-.77-.03-.07-.05-.06-.06.01-.04.26-.03.51.03.76.05.28.05.57.02.86-.05.42-.07.7-.07.84 0 1.02 0 2.05-.03 3.07 0 .05.01.08.04.11s.06.05.1.05c.02 0 .06-.03.1-.1l.1.83a.1.1 0 0 1-.02.09.1.1 0 0 1-.08.03 1.5 1.5 0 0 1-.77-.11c.1-.28-.18-.36-.85-.24a1.2 1.2 0 0 1-.16-.44c.16-.27.24-.56.23-.87 0-1.85 0-3.71.02-5.6 0-.1.04-.2.1-.3a.5.5 0 0 1 .23-.18c.2-.08.4-.24.6-.5Z"/><path d="M42.9 21.18c-.25.2-.43.38-.55.56-.14.23-.22.47-.2.73.01.77 0 1.52-.04 2.25-.02.19 0 .48.05.89.04.28.05.48.06.62 0 .22 0 .42-.05.57-.05.2-.1.2-.15 0-.15-.6-.37-1.26-.66-1.97-.17-.43-.44-1.07-.82-1.9a70.6 70.6 0 0 1-.6-1.37.3.3 0 0 0-.22-.19c-.2-.04-.37.03-.5.22-.17.25-.38.27-.62.07a.1.1 0 0 0-.13-.02.11.11 0 0 0-.06.11l-.03 6.1a3.41 3.41 0 0 1-.16.9.49.49 0 0 1-.07-.26c-.01-2.24 0-4.53.02-6.89a.41.41 0 0 1 .29-.39c.24-.07.5-.1.77-.08.33.02.56.1.69.25.28.32.53.76.76 1.31.33.8.66 1.56.98 2.27.15.31.22.3.23-.05 0-1 .02-2 .03-2.99 0-.19.04-.37.1-.55a.22.22 0 0 1 .13-.13c.22-.1.46-.11.74-.06ZM48.5 21.23c-.02.06-.04.08-.05.05-.5.18-1 .26-1.54.25-.9 0-1.61.02-2.17.1a.33.33 0 0 0-.22.11.36.36 0 0 0-.08.24c.01 1.96 0 3.86-.02 5.7 0 .2-.03.39-.08.58l-.15.6c-.03-2.22-.03-4.43-.02-6.61 0-.14.03-.44.1-.88a.16.16 0 0 1 .1-.14c.17-.06.34-.1.51-.1a49.2 49.2 0 0 1 3.42.04c.07 0 .14.02.2.06Z" fill="#FCFBF1"/><path d="M13.87 21.16c.24.09.36.25.36.5a96 96 0 0 1-.05 5.1c-.02.28.05.56.2.85.16.32.36.51.62.57.44.1.8.07 1.09-.1.31-.2.47-.51.46-.97-.03-1.58-.04-3.17-.04-4.76 0-.18.03-.34.1-.5a.34.34 0 0 1 .1-.15l.7-.55c.4.39.59.82.6 1.31a409 409 0 0 1 0 4.4c0 .22-.1.58-.27 1.1-.11.21-.14.43-.08.66 0 .02.01.03.03.03l.05-.01c.02 0 .02-.02.02-.04v-.51c.1.41-.01.73-.36.94a.34.34 0 0 1-.2.05c-.1 0-.19.04-.23.14-.05.1-.08.1-.1-.01v-.07c0-.08 0-.09-.04-.01a.65.65 0 0 1-.46.36 3.6 3.6 0 0 1-1.35.1c-.07 0-.1-.04-.1-.12 0-.07-.03-.1-.1-.1a.32.32 0 0 1-.2-.05c.64.04 1.23-.02 1.75-.2.28-.09.56-.27.84-.56-.07.14-.1.25-.07.33.03.07.07.1.14.06.24-.11.36-.3.36-.57 0-.1-.04-.13-.12-.07l-.24.17c.34-.56.54-1.16.62-1.8a52.3 52.3 0 0 0-.08-4.47h-.07c-.03 0-.05.02-.05.06a259.1 259.1 0 0 1-.07 4.22c-.04 1.63-.78 2.5-2.23 2.6a2.73 2.73 0 0 1-1.43-.24 1.94 1.94 0 0 1-.98-1.07l-.02-5.85.52-.43c.14-.08.27-.2.38-.34ZM23.34 21.2c.2.02.3.16.31.44l-.13 7.03c0 .05.02.08.06.1a.1.1 0 0 0 .12-.02c.06-.06.11-.06.14 0l-.06.4a.15.15 0 0 1-.12.13 1.3 1.3 0 0 1-.84-.03c.24.02.38.02.43-.01.26-.16.24-.24-.06-.24h-.72a.19.19 0 0 1-.2-.12l-2.44-5.66c-.06-.15-.09-.14-.09.02 0 .35.07.75.18 1.18l-.17 3.82v.55c0 .07.01.13.05.19.07.13.09.25.05.38-.1.08-.22.02-.4-.18.06-.02.1-.04.11-.07.04-.07.02-.1-.06-.1l-.7.02a1.1 1.1 0 0 1-.12-.49l.02-.55.05-.5.03-5.64a.2.2 0 0 1 .1-.18.19.19 0 0 1 .2 0c.21.14.37.12.49-.04.11-.16.24-.25.38-.28.16-.03.29.05.38.25a121.1 121.1 0 0 1 1.52 3.58c.13.31.25.68.38 1.1.25.9.37.88.33-.05a97.14 97.14 0 0 1-.05-3.91c0-.18.02-.39.07-.6.01-.03.03-.05.05-.05.04 0 .06 0 .06.04 0 .01 0 .02.02 0l.63-.5ZM42.9 21.18c.23-.05.38.16.42.6l-.05.05c-.01 0-.02 0-.02.02l-.02 6.73c0 .09.04.12.12.1l.07-.01c.05-.02.08-.05.08-.1l-.02-6.42.08 7.03c0 .07-.02.12-.08.15-.27.16-.58.15-.93-.03.49-.1.3-.22-.56-.37-.07-.01-.12-.06-.16-.13l-2.38-5.58c-.04-.1-.06-.1-.07 0 0 .18.01.42.05.75.04.29.06.51.06.67a141.06 141.06 0 0 0 .02 3.95l.05.05c.04.03.08.03.11-.01l.1-.16.07.73c0 .06-.02.11-.08.14-.2.1-.4.07-.62-.11 0-.21-.3-.3-.86-.25l-.06-.23.05-.21c.07-.31.11-.54.11-.69l.03-6.1c0-.05.02-.09.06-.1a.1.1 0 0 1 .13 0c.24.21.45.19.62-.06.13-.19.3-.26.5-.22a.3.3 0 0 1 .23.2c.12.3.32.75.6 1.35.37.84.64 1.48.81 1.9.29.72.5 1.38.66 1.98.05.2.1.2.15 0 .04-.15.06-.35.05-.57 0-.14-.02-.34-.06-.62a5.4 5.4 0 0 1-.05-.89c.04-.73.05-1.48.03-2.25 0-.26.07-.5.22-.73.11-.18.3-.36.53-.56Z"/><path d="M48.5 21.23c.24.29.37.63.4 1.02.04.16-.01.15-.14 0a.13.13 0 0 1-.03-.09c0-.35-.09-.65-.28-.88.01.03.03.01.05-.05Z" fill="#F1ECCA"/><path d="M48.45 21.28c.19.23.28.53.28.88 0 .03 0 .06.03.08.13.16.18.17.14 0 .09.24.1.46.04.65-.02.06-.06.1-.12.1l-2.5-.06a.22.22 0 0 0-.17.08c-.2.25-.25.6-.12 1.03l-.2-.46c-.04-.08-.07-.08-.1 0-.06.26-.08.52-.05.78.02.19.12.29.3.3.36.05.72.06 1.08.06.13 0 .39-.1.77-.31l.39 1.06c.09.12.14.28.16.47.02.14-.04.21-.18.2h-1.92a.18.18 0 0 0-.17.09c-.13.2-.18.45-.13.74a1.3 1.3 0 0 1-.16-.46c0-.3.09-.48.28-.54.12-.04.34-.03.66.01.23.04.4.05.5.05.18 0 .32-.05.42-.14.15-.13.12-.2-.07-.2l-1.8-.04c-.07 0-.11.02-.13.1-.1.26-.07.53.09.82-.04.31-.08.63-.1.95-.03.34.14.52.5.55a5 5 0 0 0 2.4-.29l.17.29c-.03.26 0 .48.1.65 0 .02.03.03.05.02 0-.01.02-.02.02-.05l.09.71c0 .04 0 .08-.03.1a.11.11 0 0 1-.1.04l-3.7-.17c.98-.1 1.97-.11 2.98-.02.07 0 .13-.03.16-.09a.17.17 0 0 0 0-.18c-.01-.03-.06-.04-.16-.04-1.3-.01-2.59-.04-3.87-.08a6.6 6.6 0 0 1-.1-.1l.16-.6c.05-.2.07-.38.08-.57.03-1.85.03-3.75.02-5.71 0-.1.02-.17.08-.24.06-.07.13-.1.22-.12.56-.07 1.28-.1 2.17-.09.53.01 1.05-.07 1.54-.25Zm-.17 1.4v-.06c.01-.06-.02-.1-.08-.1l-2.27-.06c-.09 0-.16.03-.21.08-.1.12-.13.3-.06.5.05.2.12.2.2.02.09-.23.27-.34.53-.32.62.05 1.23.05 1.84 0 .03 0 .04-.03.05-.06ZM11.96 22.56c.14.32.19.7.13 1.1a.26.26 0 0 1-.12.2.25.25 0 0 1-.22.03 3.36 3.36 0 0 1-1-.48c-.07-.59-.36-.95-.86-1.09a1.08 1.08 0 0 0-.62.02.95.95 0 0 0-.47.32.81.81 0 0 0-.17.52 1 1 0 0 0 .23.61c.34.44.81.73 1.42.89.64.16 1.12.4 1.44.74.4.4.54.91.44 1.55-.14.78-.51 1.37-1.12 1.75-.57.36-1.25.48-2.03.35-.93-.15-1.56-.7-1.89-1.67a.35.35 0 0 1 .04-.34c.05-.06.1-.07.16-.02.08.07.16.11.25.14.09.02.14-.01.15-.1a.98.98 0 0 1 .26-.52c.12 0 .21.05.27.15.12.53.32.93.62 1.19.32.27.73.37 1.23.31.31-.03.56-.18.73-.42a.85.85 0 0 0 .12-.85 1.7 1.7 0 0 0-1.03-1.07c-.45-.15-.88-.33-1.31-.51a2.2 2.2 0 0 1-.99-.82c-.27-.42-.34-.83-.18-1.23.11-.3.3-.61.53-.92a2.32 2.32 0 0 1 2.2-.98l.11.01c.32.04.54.08.68.13.23.09.42.23.55.44.16.27.32.45.45.57ZM29.17 22.58c.14.36.2.74.18 1.12 0 .09-.05.15-.12.2a.22.22 0 0 1-.21 0L28 23.45c-.13-.68-.46-1.06-1.01-1.15-.53-.08-.88.11-1.08.56-.13.32-.07.63.18.96.2.27.47.47.8.6l1.42.55c.26.1.47.25.63.45.59.74.64 1.55.15 2.41-.31.57-.76.94-1.34 1.11-.76.23-1.45.22-2.07-.05a2.39 2.39 0 0 1-1.35-1.58c-.01.03-.03 0-.03-.07.06-.1.16-.12.3-.06.16.18.3.22.4.12.1-.12.16-.26.17-.43 0-.07.04-.1.11-.11.05 0 .1.02.15.07l.06.06c.3 1.07.95 1.51 1.94 1.34.24-.04.44-.2.61-.45.22-.32.21-.69-.02-1.1a1.79 1.79 0 0 0-.82-.75l-.39-.16-.9-.38a3.14 3.14 0 0 1-.76-.5c-.48-.46-.63-1.06-.47-1.83a.21.21 0 0 1 .11-.14l.05-.02c.03 0 .05 0 .07-.03.54-1.13 1.45-1.6 2.75-1.39h.05c.3.05.49.1.6.16.15.08.3.24.45.48.11.18.25.34.41.47Z"/><path d="m13.49 21.5-.52.43.02-.25c0-.07.04-.12.09-.16.1-.07.23-.08.41-.02Z" fill="#C5CC8C" fill-opacity=".99"/><path d="m23.65 21.64.2.45v4.77l-.05 1.68c0 .16.03.16.09.02l.08-.2c0-.02.02-.03.03-.03.12-.04.16-.12.12-.25v-.04c0-.05.01-.09.04-.12.04-.04.07-.03.08.03 0 .03.03.05.06.06.03.01.07 0 .11-.05-.25.2-.44.47-.57.8-.03-.07-.08-.07-.14 0a.1.1 0 0 1-.12.01.1.1 0 0 1-.06-.1l.13-7.03Z" fill="#F1ECCA"/><path d="M35 21.77c.2 2.2.24 4.4.11 6.63.04.09 0 .14-.11.15a.1.1 0 0 1-.08-.02.1.1 0 0 1-.03-.08l.1-6.68ZM17.28 28.48c-.05 0-.07.03-.07.08a2.2 2.2 0 0 1-.84.56c-.52.18-1.1.24-1.75.2-.2-.09-.4-.13-.55-.13a2.9 2.9 0 0 1-1.1-1.17.26.26 0 0 1-.02-.09.2.2 0 0 0-.03-.09c.03 0 .05-.03.07-.06.2.49.52.85.98 1.07.4.2.89.29 1.43.25 1.45-.1 2.2-.98 2.23-2.61.03-1.36.06-2.76.07-4.22 0-.04.02-.06.05-.06h.07a52.19 52.19 0 0 1 .08 4.47 4.47 4.47 0 0 1-.62 1.8Z" fill="#C5CC8C" fill-opacity=".99"/><path d="m10.74 23.4-.54-.55c-.35-.43-.72-.48-1.11-.14-.27.23-.27.54-.01.93.4.3.83.55 1.31.79.7.34 1.12.58 1.28.72.4.37.64.83.71 1.38.05.32-.03.7-.23 1.15-.37.85-1 1.4-1.9 1.63l-.53.02-.71-.06c-1.1-.22-1.77-.85-1.99-1.9-.06-.31.01-.54.24-.67.17-.11.41-.16.72-.14a.98.98 0 0 0-.26.52c-.01.09-.06.12-.15.1a.66.66 0 0 1-.25-.14c-.06-.05-.1-.04-.16.02a.35.35 0 0 0-.04.34c.33.96.96 1.52 1.89 1.67.78.13 1.46.01 2.03-.35.6-.38.98-.97 1.12-1.75.1-.64-.04-1.15-.44-1.55-.32-.33-.8-.58-1.44-.74a2.54 2.54 0 0 1-1.42-.89 1 1 0 0 1-.23-.6c0-.2.05-.37.17-.53a.95.95 0 0 1 .47-.32c.2-.07.4-.07.62-.02.5.14.79.5.85 1.09ZM28 23.44a2.35 2.35 0 0 1-.58-.6c-.41-.44-.8-.47-1.16-.06-.21.24-.2.54.06.9.38.27.8.5 1.25.72.64.3 1.06.54 1.23.7.6.57.88 1.32.84 2.26-.2.46-.48.86-.82 1.2-.34.32-.59.5-.76.53a.23.23 0 0 0-.16.1.15.15 0 0 1-.13.08l-1.18.07c-.02-.09 0-.11.05-.07a2.58 2.58 0 0 1-2.34-1.7.25.25 0 0 1 .03-.27c.24.77.69 1.3 1.35 1.58.62.27 1.3.28 2.07.05a2.25 2.25 0 0 0 1.34-1.1c.49-.87.44-1.68-.15-2.42-.16-.2-.37-.35-.63-.45l-1.42-.55c-.33-.13-.6-.33-.8-.6-.25-.33-.31-.64-.18-.96.2-.45.55-.64 1.08-.56.55.09.88.47 1 1.15Z" fill="#F1ECCA"/><path d="M10.2 22.85a1.06 1.06 0 0 0-.36-.1.18.18 0 0 0-.16.09.48.48 0 0 1-.48.22c-.07-.01-.1.02-.12.08-.03.13-.03.3 0 .5-.26-.39-.26-.7 0-.93.4-.33.77-.29 1.12.14ZM27.42 22.85a.88.88 0 0 0-.34-.1c-.06 0-.1.03-.14.09-.1.2-.24.3-.46.31-.05 0-.09-.02-.11-.06a.06.06 0 0 1 0-.06c.01-.04 0-.05-.02 0-.1.18-.1.4-.03.65-.25-.36-.27-.66-.06-.9.36-.4.75-.38 1.16.07Z"/><path d="M37.49 23.6c-.07-.06-.1-.06-.12 0-.06-.24-.07-.49-.03-.75 0-.07.03-.08.06-.01.13.21.16.47.09.77Z" fill="#557070" fill-opacity=".94"/><path d="M42.55 29.3c-.48-.04-.83-.33-1.04-.86a46.77 46.77 0 0 0-1.77-3.9c-.03-.05-.05-.05-.07 0-.03.06 0 .14.06.24l.04 3.67v.02l-.1.16c-.03.04-.07.04-.11.01a.16.16 0 0 1-.05-.05 4.53 4.53 0 0 1-.13-5.37c0-.1.03-.1.07 0l2.38 5.58c.04.07.09.12.16.13.86.15 1.05.27.56.37ZM47.83 24.4l.02.04c.27.27.4.61.37 1.03l-.4-1.06Z" fill="#F1ECCA"/><path d="M14.5 24.72v1.65c.02-.32-.02-.4-.1-.26-.05-.48-.01-.94.1-1.39ZM39.73 24.78c.12 1.22.13 2.44.04 3.67l-.04-3.67Z"/><path d="m31.83 27.17-.02 1.54c-.1.1-.18.02-.26-.22a.97.97 0 0 1-.04-.31c.02-.77 0-1.57-.07-2.4 0-.1.04-.16.13-.18a.6.6 0 0 1 .38.04c.04.01.07.05.07.1 0 .04-.01.08-.05.1a.63.63 0 0 0-.3.55 2.48 2.48 0 0 0 .16.78Z" fill="#F1ECCA" fill-opacity=".99"/><path d="m33.4 28.63-.15-2.37c-.08-.24-.2-.38-.37-.44-.2-.06-.21-.14-.01-.23a.48.48 0 0 1 .52.07c.11.1.18.23.2.4v.07c.04.58.06 1.02.05 1.3-.02.46-.1.86-.25 1.2ZM45.82 26.51c-.04.03-.06.05-.05.06a1.01 1.01 0 0 1-.1-.83c.03-.07.07-.1.14-.1l1.8.05c.2 0 .22.07.07.2a.65.65 0 0 1-.42.14c-.1 0-.27-.01-.5-.05a1.69 1.69 0 0 0-.66-.01c-.2.06-.28.24-.28.54Z" fill="#F1ECCA"/><path d="m14.5 26.37.02.91c-.11-.4-.15-.78-.12-1.17.08-.14.12-.06.1.26Z" fill="#557070" fill-opacity=".94"/><path d="m25.4 26.68-.18-.02a.16.16 0 0 0-.16.07c-.1.14-.12.33-.06.56-.1.1-.24.06-.4-.12.03-.04 0-.1-.09-.16-.05-.04-.08-.08-.08-.11 0-.04.02-.1.05-.15.35-.2.66-.23.93-.07Z" fill="#C5CC8C"/><path d="M25.4 26.68c.08.09.1.14.03.14-.05-.05-.1-.07-.15-.07-.07 0-.1.04-.11.1a.76.76 0 0 1-.17.44c-.06-.23-.04-.42.06-.56a.16.16 0 0 1 .16-.07l.19.02Z" fill="#2D3C45"/><path d="M24.48 26.75a.31.31 0 0 0-.05.15c0 .03.03.07.08.1.1.07.12.13.09.17-.14-.06-.24-.04-.3.06-.07-.01-.11-.06-.13-.16 0-.2.1-.3.3-.32Z" fill="#557070" fill-opacity=".94"/><path d="m12.63 26.85.29 1a.2.2 0 0 1 .03.08l.02.09c.25.48.61.87 1.1 1.17-.42.01-.7-.15-.86-.5a52.58 52.58 0 0 1-.44-.88.35.35 0 0 1-.03-.29c.03-.08 0-.15-.07-.18a.2.2 0 0 1-.1-.16c-.02-.11 0-.22.06-.33ZM23.84 26.86c.03.1.05.2.05.3 0 .07.03.1.1.1.09-.01.15-.07.18-.19.02.1.06.15.13.16 0 .08.02.1.03.07a.25.25 0 0 0-.03.27 2.58 2.58 0 0 0 2.34 1.7c-.05-.04-.07-.02-.05.07l-.15.02c-.06 0-.06.02 0 .04h.02c.1.08.08.1-.03.1a.19.19 0 0 1-.13-.05.18.18 0 0 0-.14-.06c-.06 0-.08.02-.06.07l-.48-.1a.46.46 0 0 1-.18-.08c-.2-.14-.37-.28-.51-.42-.11-.11-.2-.26-.28-.44a3.5 3.5 0 0 0-.24-.46c-.04.04-.08.06-.1.05a.1.1 0 0 1-.07-.07c-.01-.05-.04-.06-.08-.02a.15.15 0 0 0-.04.12v.03c.04.14 0 .22-.12.26a.05.05 0 0 0-.03.03 2.1 2.1 0 0 1-.08.2c-.06.14-.1.14-.09-.02l.04-1.68Z" fill="#1A1714" fill-opacity=".51"/><path d="M18.51 27.12c.16.08.23.2.23.36l-.04.51c-.14.45-.2.3-.17-.43l-.02-.44Z" fill="#C5CC8C"/><path d="M29.64 27.36c-.05.46-.14.9-.28 1.33-.05.15-.19.21-.4.18-.01-.23-.06-.33-.14-.3.34-.35.62-.75.82-1.2Z"/><path d="M27.47 27.74c-.56.2-1 .19-1.3-.05.11.04.2.06.25.06.14 0 .14-.01.01-.05a.74.74 0 0 1-.17-.09c-.1-.07-.1-.09.02-.07l1.2.2ZM18.53 27.56c-.03.74.03.88.17.43l-.02.55c.01.13 0 .21-.05.25-.06.05-.1.04-.12-.04-.08-.38-.07-.78.02-1.2ZM12.15 27.68a.4.4 0 0 1 .1.04c.05.04.05.08 0 .12l-.02.02c-.01.04 0 .05.03.03.06-.02.08-.06.07-.12 0-.08.03-.12.1-.12.04 0 .07.01.1.05.04.03.05.08.02.12-.01.02 0 .04.01.05.1.07.1.14-.01.2a.14.14 0 0 0-.08.15c.01.08-.02.14-.09.18a.38.38 0 0 0-.17.19c-.09.2-.24.39-.45.57a.88.88 0 0 1-.45.21 2.3 2.3 0 0 1-1.06-.06c.9-.24 1.53-.78 1.9-1.63Z" fill="#1A1714" fill-opacity=".51"/><path d="M19.75 28.24c0 .11.02.2.05.29.02.07.06.08.12.02a.77.77 0 0 0 .17-.34l.02.4a.84.84 0 0 0-.2.25.23.23 0 0 0 0 .19c.05.15.15.2.3.16.01.1-.11.15-.36.15a.45.45 0 0 0-.05-.38.34.34 0 0 1-.05-.2v-.54Z" fill="#2D3C45"/><path d="M17.21 28.56c0-.05.02-.08.07-.08l.24-.17c.08-.06.12-.03.12.07 0 .27-.12.46-.36.57-.07.03-.11.01-.14-.06-.03-.08 0-.19.07-.33ZM28.82 28.56c.08-.02.13.08.13.3-.04.1-.14.17-.3.25-.1.05-.17.1-.19.14v.03h.03c.03-.05.07-.06.1-.05.05.02.05.04.02.07-.18.2-.4.34-.66.4-.16.03-.42.04-.76.03h-.26c-.31 0-.6-.1-.83-.27-.02-.05 0-.07.06-.07s.1.02.14.06c.04.03.08.05.13.05.11 0 .12-.02.03-.1h-.02c-.06-.02-.06-.03 0-.04l.15-.02 1.18-.07c.06 0 .1-.03.13-.07.04-.06.09-.1.16-.11.17-.03.42-.2.76-.53ZM20.11 28.6l.1.6c-.15.05-.25 0-.3-.15a.23.23 0 0 1 0-.2c.05-.09.12-.17.2-.25Z" fill="#1A1714" fill-opacity=".51"/><path d="M33.43 28.8c.04.16.17.24.4.22.12-.01.23 0 .35.02.27.06.3.16.09.29l-.62-.2c-.15-.06-.22-.16-.22-.33ZM30.1 28.92c.21.07.5.11.85.12.06 0 .1.02.12.07.03.06 0 .11-.05.15l-.17.09c-.32-.1-.57-.24-.75-.43Z" fill="#F1ECCA" fill-opacity=".99"/><path d="M44.28 28.96c1.28.04 2.57.07 3.87.08.1 0 .15.01.16.04.04.06.04.12 0 .18a.16.16 0 0 1-.16.09c-1-.09-2-.08-2.98.02a1.6 1.6 0 0 1-.89-.41ZM38.28 28.98c.57-.04.85.04.86.25-.37.06-.66-.02-.86-.25Z" fill="#F1ECCA"/><path d="m18.8 29.03.7-.02c.08 0 .1.03.06.1-.01.03-.05.05-.1.07-.32.04-.53-.01-.66-.15Z" fill="#C5CC8C"/><path d="M10.54 31.22c-.16.13-.39.22-.68.26a1.2 1.2 0 0 0-.41-.82c-.44-.24-.77-.19-.97.15-.32.26-.4.56-.24.88-.1.96-.03 1.68.18 2.16.06.12.14.22.24.3.1.1.22.15.34.18.28.06.5-.03.65-.28.13-.2.2-.42.22-.65 0-.03.02-.06.04-.08a.1.1 0 0 1 .08-.02l.58.08c.08.01.1.06.08.13l-.13.32c-.04.06-.1.1-.17.11a.2.2 0 0 0-.17.1c-.2.36-.48.57-.82.65-.21.05-.49 0-.83-.16l-.78-.34a4.26 4.26 0 0 1-.15-2.98c.28-.98.91-1.39 1.88-1.21.56.1.91.5 1.06 1.22ZM32.7 30.38a13.68 13.68 0 0 0-.17 3.59c.03.36-.15.62-.55.79l.01-4.54c0-.06.03-.1.1-.12.6-.15.8-.05.61.28ZM34.81 30.86c-.05.4.07.82.35 1.24l.39 1.25c.03.1.05.1.08 0l.84-3.15a.2.2 0 0 1 .17-.15c.66-.12.99-.03 1 .26l-.22.3-.5.34-.62 1.86-1.09 2.02-.93-3.54c.03-.13.03-.24-.01-.3a.1.1 0 0 0-.1-.07.1.1 0 0 0-.1.06c-.03.06-.04.1 0 .14l.02.37c-.03.9-.07 1.79-.12 2.68-.01.37-.18.6-.5.69v-4.69c0-.07.04-.11.1-.12.3-.05.61-.05.94 0 .07.02.12.06.14.13l.16.68Z" fill="#CDDEF3"/><path d="M39.13 30.45a65.15 65.15 0 0 0-.13 3.53c0 .22-.04.39-.13.5-.1.14-.25.25-.44.33v-4.6c0-.07.04-.1.1-.12.6-.16.8-.04.6.36ZM45.2 30.59l-1.83-.01a.36.36 0 0 0-.3.15c-.07.1-.1.2-.07.32l.23 1.05c.83-.13 1.37-.05 1.61.24-.5.24-.97.3-1.42.19a.26.26 0 0 0-.22.03c-.07.05-.1.11-.12.2-.1.49-.05.9.15 1.2-.01.18.02.27.11.27h1.71c.07 0 .1.03.11.1l.08.49a1.93 1.93 0 0 0-1.15-.08 2.5 2.5 0 0 1-.9-.14c-.14-.04-.38.02-.73.17l.01-4.59c0-.08.04-.13.13-.13.75 0 1.53 0 2.33-.02.12 0 .2.05.23.17.02.1.04.22.05.39ZM48.43 30.93c0 .11.02.23.08.35l.06 1.62c-.1.55-.32 1-.7 1.35-.4.38-.86.51-1.38.41a2.12 2.12 0 0 0-.6 0l-.31.01v-4.5c0-.06.03-.1.1-.11a4.53 4.53 0 0 1 1.51.03c.54.12.95.4 1.24.84Zm-2.15 3.22c.9.26 1.44-.1 1.63-1.08.13-.67.07-1.3-.2-1.9-.28-.53-.74-.7-1.37-.54a.24.24 0 0 0-.13.09.23.23 0 0 0-.05.15l.12 3.28Z" fill="#C1DFF5"/><path d="M13 30.3c-.2.4-.43.65-.67.72l-.09.45c-.37.38-.46.8-.28 1.25l-.03.19c-.02.09.02.13.1.13h.79c.1 0 .13-.05.1-.14l-.24-1 .1-.32c.03-.1.08-.11.16-.06l.1.06c.05.04.08.08.1.13a10.3 10.3 0 0 1 .24.87c.05.26.04.5-.02.72a.2.2 0 0 1-.07.11.2.2 0 0 1-.13.04l-.78-.04c-.22-.07-.36-.1-.42-.1-.22 0-.33.11-.34.35a.93.93 0 0 0-.22.44.36.36 0 0 1-.08.17c-.16.18-.28.38-.37.6-.06.03-.1.04-.15.02-.05-.02-.07-.05-.05-.1l1.24-4.6a.16.16 0 0 1 .15-.13c.6-.08.88 0 .86.23ZM17.33 30.9c-.13.35-.18.69-.16 1.03-.4.68-1 .94-1.75.8a.22.22 0 0 0-.2.05c-.17.15-.24.37-.21.67l.03.7a.4.4 0 0 1-.12.31l-.38.37v-4.66c0-.07.04-.1.1-.1.52-.03 1.03-.03 1.53 0 .57.03.95.31 1.16.84Zm-2.08-.07.03 1.4c0 .04.02.08.05.1.03.04.07.05.11.05h.47c.2-.01.38-.09.52-.23.14-.15.21-.32.2-.51v-.3c0-.2-.08-.36-.23-.5a.72.72 0 0 0-.53-.2l-.47.02a.15.15 0 0 0-.1.05.16.16 0 0 0-.05.12ZM21.71 30.33c-.41.05-.8.17-1.18.36a.23.23 0 0 0-.12.19c-.02.11-.01.28.01.5l.03.42c-.04.9-.04 1.6-.02 2.12.02.47-.15.77-.52.92-.03-1.35-.03-2.7 0-4.02 0-.08-.08-.12-.25-.13a2.35 2.35 0 0 1-.81-.2c0-.11-.01-.2-.04-.27-.04-.08-.07-.08-.1 0a.47.47 0 0 0-.03.25l-.13-.04a13.19 13.19 0 0 0-.08 4.1c-.25.18-.44.27-.55.25v-4.6c0-.07.03-.1.1-.1h3.6c.1 0 .13.08.1.25ZM23.73 30.35l-.61.62c-.13.44-.23.69-.3.73-.25.35-.3.7-.13 1.06a.4.4 0 0 0-.07.16c-.01.08.02.12.1.12h.84c.09 0 .12-.04.1-.14l-.21-.9a.9.9 0 0 1 .08-.33.14.14 0 0 1 .14-.08c.06 0 .1.03.13.09.29.54.37 1.1.25 1.65-.01.06-.05.1-.12.11l-.36.04c-.4-.12-.76-.14-1.08-.07a3.7 3.7 0 0 0-.38.8c-.04.12-.1.24-.18.35a4.25 4.25 0 0 1-.25.32c-.07.03-.12.03-.16 0-.05-.01-.07-.05-.05-.1l1.24-4.58a.17.17 0 0 1 .14-.13c.58-.1.88-.02.88.28ZM26 30.27c-.23.98-.31 2-.26 3.04 0 .23.1.4.27.52-.02.1-.02.2 0 .3.02.07.07.1.14.1.44.02.92.01 1.44 0 .05 0 .08.02.1.07.03.05.03.13.02.23a1.2 1.2 0 0 1-.83.2 4.06 4.06 0 0 0-1.64.04V30.2c0-.07.04-.11.1-.12.55-.1.77-.03.66.18ZM29.91 30.4a9.95 9.95 0 0 0 .02 3.8l1.56.04c.07 0 .11.03.13.1.04.1.04.22.02.34l-.8.03-.74-.1c-.33-.05-.63.04-.89.27v-4.7c0-.07.04-.11.1-.12.63-.07.83.05.6.35ZM42.2 30.62a1.33 1.33 0 0 0-1.19.06.15.15 0 0 0-.08.15c.11 1.41.14 2.52.07 3.34-.02.31-.22.51-.58.6l.02-3.94c0-.07-.04-.11-.1-.12h-.2a.83.83 0 0 0-.33-.08c-.1 0-.18-.02-.23-.03a.4.4 0 0 1-.2-.14.47.47 0 0 1-.04-.3c.02-.07.06-.1.13-.1h2.57c.1 0 .15.05.18.14.02.1.02.24-.01.42Z" fill="#CDDEF3"/><path d="M21.71 30.33c.04.12.04.21 0 .29-.04.06-.1.1-.17.1h-.76c-.08-.01-.12.03-.12.12v3.88c0 .16-.08.22-.24.19a.45.45 0 0 0-.16-.01.63.63 0 0 1-.35-.06c.37-.15.54-.45.52-.92-.02-.52-.02-1.23.02-2.12 0-.1 0-.23-.03-.42-.02-.22-.03-.39-.01-.5a.23.23 0 0 1 .12-.19c.38-.19.77-.31 1.18-.36Z" fill="#2D3C45"/><path d="m26 30.27.01 3.56a.63.63 0 0 1-.27-.52c-.05-1.05.03-2.06.26-3.04Z" fill="#557070" fill-opacity=".94"/><path d="m13 30.3 1.17 4.4c.04.13 0 .2-.13.2h-.45c-.11.01-.18-.04-.2-.15l-.21-.94v-.08a.12.12 0 0 0-.08-.1c-.2-.11-.44-.19-.72-.22l.78.04a.2.2 0 0 0 .13-.04.2.2 0 0 0 .07-.1c.06-.23.07-.47.02-.73a5.22 5.22 0 0 0-.25-.87.24.24 0 0 0-.09-.13l-.1-.06c-.08-.05-.13-.03-.16.06l-.1.33c-.05-.51-.16-.8-.35-.89.24-.07.46-.31.67-.73ZM23.73 30.35l1.09 4.16-.7.24-.24-1c.06-.05-.05-.13-.31-.23v-.04l.36-.04c.07 0 .1-.05.12-.11.12-.56.04-1.1-.25-1.65a.14.14 0 0 0-.13-.09c-.06 0-.1.03-.14.08a.9.9 0 0 0-.08.33l-.33-1.03.61-.62Z" fill="#92A3BC"/><path d="m37.64 30.31-.05.3c-.11.5-.14 1-.06 1.5.05.33.08.59.08.77v1.85c0 .07-.03.11-.1.14-.23.09-.44.06-.62-.1.4-.06.6-.38.57-.95a82.8 82.8 0 0 1-.04-3.21l.22-.3Z" fill="#2D3C45"/><path d="m32.7 30.38.05 4.35c0 .07-.03.12-.1.14-.31.1-.54.07-.66-.11.39-.17.57-.43.54-.8-.1-1.22-.04-2.41.17-3.58ZM18.68 30.47l.01 4.26c0 .07-.03.12-.1.14-.32.1-.55.07-.67-.09.11.02.3-.07.55-.25.27-1.3.3-2.66.08-4.1l.13.04Z"/><path d="M18.85 30.49c.25.11.52.18.8.2-.56.1-.83.03-.8-.2Z" fill="#2D3C45"/><path d="m29.91 30.4.02 3.8a10 10 0 0 1-.02-3.8Z"/><path d="m39.13 30.45.03 4.31c0 .07-.03.12-.1.13a.95.95 0 0 1-.63-.08c.19-.08.33-.2.44-.33a.84.84 0 0 0 .13-.5c.01-1.18.06-2.36.13-3.53Z" fill="#2D3C45"/><path d="M45.2 30.59c-.59.15-1.2.2-1.84.13-.03 0-.06 0-.1.03a.12.12 0 0 0-.03.1v1.25L43 31.05a.37.37 0 0 1 .08-.32c.07-.1.17-.15.3-.15h1.83Z"/><path d="M18.55 30.43c.22 1.44.2 2.8-.08 4.1-.19-1.38-.16-2.75.08-4.1Z" fill="#658293"/><path d="M42.2 30.62c-.25.1-.57.14-.95.1l-.06.03a.08.08 0 0 0-.02.06v3.96c0 .07-.03.11-.1.13-.27.06-.49.02-.65-.12.36-.1.56-.3.58-.61.07-.82.04-1.93-.07-3.34 0-.07.02-.12.08-.15.37-.21.76-.23 1.2-.06Z"/><path d="M9.45 30.66c-.34-.07-.61-.01-.81.16-.03-.03-.09-.03-.16 0 .2-.35.53-.4.97-.16Z" fill="#557070" fill-opacity=".94"/><path d="M47.71 31.17c-.39-.38-.81-.52-1.28-.42-.07.01-.1.05-.1.12l-.05 3.28-.12-3.28c0-.06.02-.1.05-.15a.24.24 0 0 1 .13-.1c.63-.16 1.1.02 1.37.55Z"/><path d="M37.42 30.6c0 1.6.01 2.68.04 3.22.03.57-.16.89-.57.96l.03-3.83.5-.34Z" fill="#C1DFF5"/><path d="m37.6 30.6.01 3.06v-.78c0-.18-.03-.44-.08-.77a4 4 0 0 1 .06-1.5Z"/><path d="M8.48 30.81c.07-.02.13-.02.16.01-.2.22-.34.51-.4.87-.16-.32-.08-.62.24-.88Z" fill="#2D3C45"/><path d="m34.81 30.86.35 1.24c-.28-.42-.4-.83-.35-1.24Z"/><path d="m17.33 30.9.04.12-.2.91c-.03-.34.03-.68.16-1.02Z" fill="#658293"/><path d="M34.28 31.29c-.13-.2-.2-.25-.22-.17-.03-.03-.02-.08.02-.14a.1.1 0 0 1 .1-.06.1.1 0 0 1 .09.06c.04.07.04.18.01.31Z" fill="#2D3C45"/><path d="M48.43 30.93a3.65 3.65 0 0 1 .3 2.2c-.07.4-.2.73-.4 1.01-.23.31-.52.53-.88.66-.17.05-.4.09-.66.1a11.58 11.58 0 0 1-1.12 0c-.1 0-.13-.08-.1-.23.08 0 .18 0 .31-.02.26-.02.46-.02.61.01.52.1.98-.03 1.39-.41.37-.35.6-.8.69-1.35.11-.56.1-1.1-.06-1.62a.8.8 0 0 1-.08-.35Z"/><path d="M17.37 31.02c.11.44.09.85-.08 1.22-.18.4-.48.64-.9.7-.32.06-.63.07-.93.04-.05 0-.08.01-.12.04a.15.15 0 0 0-.05.12l.02 1.6c0 .07-.04.1-.1.13-.28.07-.5.06-.67-.04l.38-.37a.4.4 0 0 0 .12-.31l-.03-.7c-.03-.3.04-.52.22-.67a.22.22 0 0 1 .2-.05c.75.14 1.33-.12 1.74-.8l.2-.9Z" fill="#2D3C45"/><path d="M10.54 31.22c.06.07.08.17.07.28 0 .07-.04.11-.1.13-.4.12-.62.07-.65-.15.3-.05.52-.13.68-.26ZM34.1 31.5v3.22c0 .07-.02.12-.09.15a.72.72 0 0 1-.53-.01c.31-.1.48-.32.5-.69l.11-2.68Z"/><path d="m12.24 31.48-.28 1.24c-.18-.45-.09-.87.28-1.24ZM22.82 31.7l-.13 1.06c-.16-.35-.12-.7.13-1.06Z" fill="#658293"/><path d="M44.84 32.34c-.06.28-.13.43-.2.43-.44 0-.86-.02-1.27-.04a.13.13 0 0 0-.1.04.13.13 0 0 0-.04.1v1.1c-.2-.32-.25-.72-.15-1.22a.27.27 0 0 1 .12-.19.26.26 0 0 1 .22-.03c.45.11.92.05 1.42-.2ZM36.3 32.8l-.48 1.9a.21.21 0 0 1-.11.15c-.22.1-.38.1-.5-.02l1.1-2.02Z"/><path d="M12.38 33.4c.28.04.52.12.72.22.05.02.07.06.07.11v.08c0-.03-.02-.06-.06-.1a.2.2 0 0 0-.11-.03l-1.04-.04c-.17 0-.27.07-.3.22-.04.01-.05-.05-.04-.2.01-.24.12-.35.34-.35.06 0 .2.03.42.1Z" fill="#557070" fill-opacity=".94"/><path d="M23.57 33.48v.04c-.35.04-.7 0-1.08-.11.32-.07.68-.05 1.08.07Z" fill="#658293"/><path d="M22.49 33.4c.37.13.73.16 1.08.12.26.1.37.18.31.23l-1.3-.09c-.07 0-.12.03-.14.1l-.24 1a.15.15 0 0 1-.13.13.97.97 0 0 1-.4-.01l.02-.02c.11-.13.2-.23.24-.3.08-.1.14-.23.18-.35.1-.28.22-.55.38-.8Z"/><path d="M11.62 33.66c-.01.15 0 .21.05.2l-.2.91a.15.15 0 0 1-.12.13.93.93 0 0 1-.4-.02c.09-.23.21-.43.37-.6.04-.06.07-.11.08-.18.04-.17.1-.32.22-.44ZM10.52 33.83c-.08.44-.25.74-.51.88-.94.52-1.69.34-2.26-.52.26.1.52.22.78.34.34.16.62.21.83.16.34-.08.62-.3.82-.64a.2.2 0 0 1 .17-.1c.07-.02.13-.06.17-.12Z" fill="#2D3C45"/><path d="M24.82 34.5a.7.7 0 0 1 .08.27c0 .07-.02.1-.1.11-.1.02-.25.02-.44.02-.15 0-.23-.05-.24-.15l.7-.24ZM27.7 34.53c.04.11.05.2.01.27-.03.06-.1.1-.2.1-.8.06-1.56.01-2.27-.13.43-.13.98-.14 1.64-.04.28.04.55-.03.83-.2ZM31.64 34.68c.06.09.03.16-.1.21a.12.12 0 0 1-.05.02l-2.28-.03c.26-.23.56-.32.9-.27l.73.1.8-.03ZM45.24 34.82a14.39 14.39 0 0 1-2.53.09c-.18 0-.27-.04-.25-.14.35-.15.6-.21.73-.17.47.13.76.17.9.14.4-.09.79-.06 1.15.08Z"/></svg>