<!-- by TradingView --><svg width="56" height="56" viewBox="0 0 56 56" xmlns="http://www.w3.org/2000/svg"><path fill="#EF207B" d="M0 0h56v56H0z"/><path fill-rule="evenodd" d="M26.86 17.52c.19-.01.66.05 1.04.4.15-.14.53-.4.92-.4a1.37 1.37 0 0 0-1.03-.52c-.5 0-.83.35-.93.52ZM28.43 19h-2.56c.1-.33.52-1 1.3-1 .8 0 1.18.67 1.26 1Zm1.43.52H26V20h3.32l-.24 1.07c-.15.64-.3 1.3-.38 1.58-.18.56-.35 1.04-.9 1.04-.45 0-.62-.7-.66-1.04h-.44l.1.52c.19.62.4.91 1.1.91.57 0 .87-.4.95-.59l1-3.97ZM28.82 19a1.3 1.3 0 0 0-.63-.98c1.35-.14 1.67.6 1.67.98h-1.04ZM13 32.74V22.19a6.21 6.21 0 0 1 3 0v4.9c.4-.54 1.04-1.09 1.87-1.09A2 2 0 0 1 20 27.96v2.63c.02.25.1.84.65 1.2-.2.4-1.05 1.21-1.95 1.21-1.12 0-1.7-.6-1.7-2.2v-2.5c-.03-.23-.11-.55-.49-.55-.17 0-.35.2-.51.47v4.52c-.05.09-.4.26-1.41.26-1.01 0-1.48-.17-1.59-.26Zm-4.17-7.13c0-.31-.16-.93-.82-.93-.81 0-1.14 1.2 0 1.78l.55.26c1.31.6 3.44 1.57 3.44 3.35C12 32.1 9.7 33 7.64 33 5.57 33 4 32.04 4 30.78c0-1.26 1.06-1.5 1.69-1.5.5 0 1.12.44 1.36.66a.97.97 0 0 0-.16.53c0 .3.1.82.9.82s1.6-1.29 0-1.81c-1.62-.53-3.72-1.7-3.72-3.87C4.07 23.43 6.8 23 8.13 23c1.34 0 3.5.51 3.5 2.3 0 1.78-2.8 1.8-2.8.3Zm14.39 4.61c.26.08 4.28.58 4.28-2.18-.1-.68-.9-2.04-3.4-2.04-3.13 0-3.6 2.1-3.6 3.88 0 1.78 1.58 3.12 3.92 3.12 1.88 0 2.84-1.5 3.08-2.26h-.4c-.26.18-1 .54-1.98.54-.97 0-1.67-.7-1.9-1.06Zm0-1.32c.02-.5.24-1.48.84-1.48.76 0 1.06 1.57-.85 1.48Zm11.2-.86c0 2.76-3.9 2.26-4.15 2.18.22.36.9 1.06 1.84 1.06.95 0 1.67-.36 1.91-.54h.4c-.24.75-1.17 2.26-2.99 2.26-2.27 0-3.8-1.34-3.8-3.12S28.1 26 31.13 26c2.42 0 3.2 1.36 3.3 2.04Zm-4.4.65c.02-.5.24-1.51.84-1.51.76 0 1.06 1.6-.85 1.51ZM35 27v3.99c-.01.67.43 2.01 2.3 2.01 1.23 0 1.94-.9 2.2-1.48.5.9 1.31 1.48 2.24 1.48.96 0 1.8-.63 2.3-1.58.1.73.52 1.58 2.07 1.58 1.32 0 1.62-.95 1.82-1.59l.07-.22c-.69-.02-1.05-.33-1.05-1.41v-3.59c-.16-.06-.7-.19-1.64-.19-.93 0-1.26.13-1.3.2v1.32c-.5-.92-1.33-1.52-2.27-1.52-1.51 0-2.74 1.57-2.74 3.5 0 .68.15 1.31.41 1.85C38.8 31.3 38 31 38 30.1V27h1v-1h-1v-1.84a8.18 8.18 0 0 0-1.8-.17c-.85 0-1.15.11-1.2.17V26h-1v1h1Zm13-4.79v8.34c-.01.81.42 2.45 2.28 2.45 1.2 0 1.47-1.05 1.65-1.75L52 31c-.63-.02-1-.36-1-1.55V22.2a3.7 3.7 0 0 0-1.44-.21c-.85 0-1.51.14-1.56.21Zm-4 7.29c0 .83-.45 1.5-1 1.5s-1-.67-1-1.5.45-1.5 1-1.5 1 .67 1 1.5Z" fill="#fff"/></svg>