<!-- by TradingView --><svg width="56" height="56" viewBox="0 0 56 56" xmlns="http://www.w3.org/2000/svg"><path fill="#F0F3FA" d="M0 0h56v56H0z"/><path fill-rule="evenodd" d="M7 25v2h1.27l.24-.62c.09.2.53.62 1.57.62 1.31 0 1.92-.58 1.92-1.67 0-.88-1.2-1.57-1.8-1.81-.35-.06-1.2-.3-1.2-.77 0-.58 1.14-1.03 1.8.25h1.06v-1.76H11v.73h-.37c-.1-.32-.53-.97-1.46-.97C8 21 7 21.61 7 22.86s1.75 2 2.17 2c.41 0 1.02.07 1.02.47 0 .39-.23.61-.74.61-.4 0-.9-.58-1.1-.94H7Zm6.24-3h-.7v-1h2.71v1h-.6v2.79c0 .52.44.94.97.94.54 0 .97-.42.97-.94V22H16v-1h2.54v1H18v2.7c0 1.27-1.09 2.3-2.4 2.3a2.33 2.33 0 0 1-2.36-2.3V22Zm6.06-1v1h.7v4h-.7v1h2.37v-1H21v-2.35L23.21 27H25v-5h.48v-1H23.5v1h.5v2.77s-1.76-2.7-2.42-3.77H19.3Zm10.24 3.84.96.95c-.18.4-.91 1.21-2.43 1.21-1.9 0-2.57-1.63-2.57-3.02 0-1.4.5-2.98 2.15-2.98.78 0 1.25.37 1.39.55V21h1.3v2.38h-1.21c-.11-.37-.47-1.13-1.06-1.13-.74 0-.96.86-.96 1.73 0 .86.37 1.66 1.2 1.66.65 0 1.1-.54 1.23-.8ZM31 27h2.65v-1h-.8l.36-1h1.85l.34 1h-1v1h3.15v-1h-.48l-1.49-4.3V21h-3.13v1h.61l-1.29 4H31v1Zm3.73-3-.56-1.68-.6 1.68h1.16ZM38 22v-1h3.22c.95 0 1.72.78 1.72 1.74 0 .6-.3 1.14-.76 1.46.34.27.41.74.41.94v.1c0 .26-.01.58.33.58.31 0 .33-.45.3-.68h.26v.68c.01.4-.2 1.18-1.16 1.18-1.04 0-1.32-.7-1.32-1.05v-1.02c0-.19-.06-.33-.14-.43H40V26h.72v1H38v-1h.5v-4H38Zm2.65 0H40v1.5h.65c.47 0 .85-.34.85-.75s-.38-.75-.85-.75ZM44 22v-1h5v2h-1v-1h-2v1.5h2v1h-2V26h2v-1h1v2h-5v-1h.5v-4H44ZM7 31v-2h5.5v2h-1v-.99h-.92V34h.92v1H8.26v-1H9v-3.99H8V31H7Zm6-2v1.07h.66V34H13v1h2.72v-1H15v-1.5h.75c.14.1.25.25.25.5v.98c0 .34.25 1.02 1.29 1.02.96 0 1.17-.76 1.16-1.14v-.66h-.27c.03.22.02.66-.29.66-.35 0-.34-.3-.33-.56v-.1c0-.2-.07-.69-.47-.94.51-.31.85-.88.85-1.52 0-.96-.77-1.74-1.72-1.74H13Zm2 1h.65c.47 0 .85.34.85.75s-.38.75-.85.75H15V30Zm6 5h-2v-1h.44l1.29-4H20v-1h3.25v.7l1.49 4.3H25v1h-2.5v-1h.56l-.33-1h-1.85l-.36 1H21v1Zm.83-4.68.56 1.68h-1.16l.6-1.68ZM44.35 33H43v2h1.27l.24-.62c.09.2.53.62 1.57.62 1.31 0 1.92-.58 1.92-1.67 0-.88-1.2-1.57-1.8-1.81-.35-.06-1.03-.3-1.03-.77 0-.58.97-1.03 1.63.25H48v-2h-1v.97h-.2c-.1-.32-.7-.97-1.63-.97C44 29 43 29.61 43 30.86s1.75 2 2.17 2c.41 0 1.02.07 1.02.47 0 .39-.23.67-.74.67-.4 0-.9-.64-1.1-1ZM37 30v-1h3.22a1.74 1.74 0 0 1 .91 3.22c.33.27.39.73.39.92v.1c0 .26-.02.58.33.58.31 0 .32-.45.3-.68h.25v.68c.02.4-.19 1.18-1.15 1.18-1.04 0-1.25-.7-1.25-1.05v-1.02a.6.6 0 0 0-.19-.45H39V34h.72v1H37v-1h.5v-4H37Zm2.65 0H39v1.5h.65c.47 0 .85-.34.85-.75s-.38-.75-.85-.75Zm-8.36 0v-1H36v2h-1.02v-1H33.5v1.5H35v1h-1.5V34h1.48v-1H36v2h-4.71v-1H32v-4h-.71Zm-4.79 0h-.82v-1h3.24c1.58 0 2.58 1.34 2.58 3s-1 3-2.58 3h-3.24v-1h.82v-4Zm1.5 4h.65c.45 0 1.35-.43 1.35-2.13 0-1.3-.78-1.79-1.17-1.87H28v4Z"/></svg>