<!-- by TradingView --><svg width="56" height="56" viewBox="0 0 56 56" xmlns="http://www.w3.org/2000/svg"><path fill="#F0F3FA" d="M0 0h56v56H0z"/><path d="M15.5 19c-2.4.8-5.33 1.67-6.5 2l.5 1.5 2.56-.85C9.16 22.82 8.14 24.3 8 25c.8-1.2 1.67-1.5 2-1.5l1 1.5c2-2 4.83-2.83 6-3a15.55 15.55 0 0 0-5.5 4l1 2c.8-2.8 2.67-3.5 3.5-3.5-1.6 1.6-1.67 3.33-1.5 4A2.5 2.5 0 0 1 16 27v1c-1 .67-3 2.4-3 4s.67 2.33 1 2.5c-.4-1.2.5-2.17 1-2.5l.5.5c0-1.6.67-2.33 1-2.5a4.8 4.8 0 0 0-.5 3.5l.5-1L17 34c.4-2 1.83-3.5 2.5-4-.67 1.17-2 3.8-2 5 0 1.2.67 2.17 1 2.5V35c0-2.4 2-4.67 3-5.5L21 31c.8-1.2 3-2.5 4-3-.8.4-2.33 2.17-3 3h1c-2.14.4-3.56 2.83-4 4v2h.5l1 1c0-1.6 1-3.33 1.5-4a5 5 0 0 0-.5 2 3.5 3.5 0 0 1 2-2.5C22 35.5 22 37 22 38c0 .5.25.88.5 1.25.25.38.5.75.5 1.25 0 .8-.67 2-1 2.5.83-.67 2.5-2.1 2.5-2.5V38c0-.5-.38-.75-.75-1-.38-.25-.75-.5-.75-1 0-.8 1.33-2 2-2.5l-1 .5c.74-1.49 2.04-1.87 3.06-2.17.36-.1.68-.2.94-.33.8-.4 1-.83 1-1l-1 .5c.8-1.6 2.33-3 3-3.5-2 .65-3.5 2.27-4 3a3.5 3.5 0 0 1 2-2.5c-1.6.4-3 2.17-3.5 3 .4-1.6 2.17-3 3-3.5-1.6.4-2.67 1.5-3 2 .4-2 3.5-3.5 5-4-2.2 0-3.61 1-4.48 1.6-.51.36-.83.59-1.02.4-.4-.4 2.5-1.83 4-2.5l-3 1 3.5-2-1.77.44c.26-.1.7-.37 1.27-.94.8-.8 2.33-.67 3-.5.17-.17.1-.5-1.5-.5-1.5 0-3.42.89-4.34 1.4.35-.22.84-.71.84-1.4 0-.8-.67-1.33-1-1.5-1.6-.4-4 .17-5 .5a8.76 8.76 0 0 1 4-2c-.8 0-3 .33-4 .5 1.2-.8 3.83-1.67 5-2-.8 0-2.33.33-3 .5 2.5-1.5 5.5-1.5 8-1.5 2 0 4.17 1 5 1.5V20c-.59 0-1-.34-1.34-.63-.25-.2-.45-.37-.66-.37-.4 0-5.17.33-7.5.5v.5H29c.83 0 1.35.3 1.82.58.38.22.73.42 1.18.42.8 0 2-.33 2.5-.5-.67.33-2.2 1-3 1-.8 0-1.33-.33-1.5-.5.17.33.7 1 1.5 1 .5 0 1.13-.25 1.75-.5.63-.25 1.25-.5 1.75-.5.8 0 1.33.33 1.5.5l-.5.5-.5-.5-2 3.5H35l1.5-.5 2 .5c-.8 0-2 .67-2.5 1v-.5c-1.5 0-3.5 2-5 3.5-.95.95-1.1 1.5-1.2 1.9-.07.23-.12.42-.3.6-.22.22-.53.34-.82.45-.36.15-.68.27-.68.55 0 .25.5.63 1 1 .5.38 1 .75 1 1 0 .2-.17.33-.37.47-.29.2-.63.44-.63 1.03 0 1 2 2.5 3 2.5s2-.5 3.5-1.5c1.2-.8 1.5-2 1.5-2.5-.4.4-.83.5-1 .5.8-1.2 1-1.83 1-2-1.22 1.22-2.44 1.78-3.4 2.21l-.6.29c-.8.4-.67-.17-.5-.5.8-.8 1-1.67 1-2l1-1-1 .5V31c.4-.4.83-1.17 1-1.5-.4.4-.83.5-1 .5.5-1 6.5-6 7-4s1 2 1.5 2c.4 0 .5-.33.5-.5.17-.17.5-.4.5 0s-.33.5-.5.5c-.4 2-2.5 4.17-3.5 5 2.4-1.6 4.67-4.33 5.5-5.5l.5.5h1l.5-1c-.17 0-.5-.1-.5-.5s.33-.83.5-1c-.17-.17-.5-.6-.5-1 0-.25.5.13 1 .5.5.38 1 .75 1 .5 0-.5 0-1-.5-1.5s-1.5-1.5-2-1.5c-.4 0-1.17.33-1.5.5l.5-1c-1.2-2-4.17-3.17-5.5-3.5-.8-1.2-3-1.5-4-1.5 0-.33-1.1-1-5.5-1-5.1 0-10.2 1.72-13.3 2.77l-.7.23ZM41 33l4-4.5h-.5L41 33Zm-6-2.5-1 1V31l1-.5Zm4.5-4.5c.17.5.6 1.6 1 2 0 .17-.2.6-1 1l.5-1c-.17.17-.6.5-1 .5.17-.17.5-.6.5-1-.17-.17-.6-.4-1 0v-1l1-.5Zm1.5-3c-.5-.33-1.4-1.1-1-1.5.3-.3.94.29 1.53.8.4.37.77.7.97.7h1v.5H39v-1c.17.17.6.5 1 .5h1Zm-23 6.5c.17-.5.7-1.5 1.5-1.5L18 29.5Z" fill="#A0A0A4"/></svg>