<!-- by TradingView --><svg width="56" height="56" viewBox="0 0 56 56" xmlns="http://www.w3.org/2000/svg"><path fill="#F0F3FA" d="M0 0h56v56H0z"/><path d="M28.79 9.17c.73.42.82 1.34.46 1.91l-8.77 14.93C19 28.72 18 30.9 18 33.04 18 38.2 23.36 42 28.25 42c6.5 0 9.75-4.2 9.75-8.96 0-5.66-3.53-9.56-6.5-14.04-2.19 3.66-6.5 8.7-6.5 13.46 0 1.83 1.36 2.8 2.64 4.04.25.25.38.58.36.9-.05 1.01-.58 1.69-1.41 1.69-1.5 0-4.59-3.52-4.59-6.63 0-5.94 5.57-12.03 8.43-16.84.22-.37.63-.6 1.07-.62.75-.02 1.1.55 1.45 1.1C36.43 21.32 41 26.41 41 33.03 41 39.13 35.9 45 28 45c-6.83 0-13-5.48-13-11.96 0-3.43 1.54-6.64 2.34-7.88L27.06 9.6a1.3 1.3 0 0 1 1.73-.42Z" fill="#C9252C"/></svg>