<!-- by TradingView --><svg width="56" height="56" viewBox="0 0 56 56" xmlns="http://www.w3.org/2000/svg"><path fill="#F0F3FA" d="M0 0h56v56H0z"/><path d="M36.68 14.05v-.28a.3.3 0 0 0 0-.04c0-.01 0-.03-.02-.05a.3.3 0 0 0 0-.04l-.02-.04-.02-.04a.26.26 0 0 0-.02-.04l-.02-.05-.02-.03a.36.36 0 0 0-.03-.05l-.02-.02-.04-.05-.02-.02-.04-.04-.03-.03a.33.33 0 0 1-.03-.03l-.04-.03-.04-.02a.41.41 0 0 0-.04-.03h-.01a17 17 0 0 0-16.42 0 .94.94 0 1 0 .9 1.63 15.13 15.13 0 0 1 13.94-.35c-.24.68-.58 1.3-1 1.88a13 13 0 0 0-15.13 20.6.94.94 0 0 0 1.36-1.27 11.14 11.14 0 0 1 12.34-17.92 7.05 7.05 0 0 1-4.2 1.38 8.92 8.92 0 0 0-6.27 15.29.93.93 0 0 0 1.3-1.33A7.05 7.05 0 0 1 28 20.95a8.9 8.9 0 0 0 8.67-6.8v-.07l.01-.03Z" fill="#00BCF2"/><path d="M13 28c0-4.17 1.65-8.24 4.7-11.08a.93.93 0 0 0-1.27-1.37 17 17 0 0 0 0 24.9.93.93 0 1 0 1.27-1.36A15.16 15.16 0 0 1 13 28ZM28 41a13 13 0 0 0 9.49-21.88.94.94 0 0 0-1.36 1.28 11.14 11.14 0 0 1-12.34 17.92 7.05 7.05 0 0 1 4.2-1.39 8.92 8.92 0 0 0 6.27-15.28.93.93 0 0 0-1.31 1.34 7.05 7.05 0 0 1-4.96 12.07 8.9 8.9 0 0 0-8.66 6.8V42.01a.3.3 0 0 0 0 .04v.27l.02.04.01.05.02.04.02.04.02.04.02.04.03.04.02.03.03.04.03.03.03.03.04.04.02.02.05.03.03.02.05.04h.01a17 17 0 0 0 16.42 0 .94.94 0 1 0-.9-1.64 15.13 15.13 0 0 1-13.94.35c.24-.68.58-1.3 1.02-1.87C24.13 40.57 26.05 41 28 41Z" fill="#00BCF2"/><path d="M39.57 15.55a.93.93 0 0 0-1.27 1.37A15.1 15.1 0 0 1 43 28a15.1 15.1 0 0 1-4.7 11.09.93.93 0 0 0 1.27 1.37 17 17 0 0 0 0-24.91Z" fill="#00BCF2"/><path d="M30.67 32h-6.45c-.5.02-.97-.37-.97-.88 0-.52.48-1.14.97-1.12h6.45c.38 0 .71-.08.71-.44s-.33-.56-.71-.56h-5.34a2.64 2.64 0 0 1-2.59-2.56c0-1.39 1.24-2.44 2.59-2.44h6.44c.49 0 .94.38.94.88S32.26 26 31.77 26h-6.44c-.38 0-.72.18-.72.54 0 .36.34.46.72.46h5.34a2.66 2.66 0 0 1 2.65 2.56c0 1.41-1.3 2.47-2.65 2.44Z" fill="#002043"/></svg>