<!-- by TradingView --><svg width="56" height="56" viewBox="0 0 56 56" fill="none" xmlns="http://www.w3.org/2000/svg">
<rect width="56" height="56" fill="#F0F3FA"/>
<path d="M27.9995 11.034C27.9368 11.0796 27.8731 11.141 27.8083 11.218C26.609 12.6438 25.6664 14.2309 24.9804 15.9791C24.9671 16.0134 24.9452 16.0394 24.9146 16.0572L22.7531 17.3294C22.7463 17.3332 22.7385 17.3349 22.7308 17.3342C22.7231 17.3336 22.7157 17.3306 22.7096 17.3257C22.7035 17.3208 22.6989 17.3142 22.6964 17.3067C22.6939 17.2991 22.6937 17.291 22.6956 17.2833C23.4527 14.4003 24.8143 11.8674 26.7804 9.6848C27.824 8.52501 28.7235 8.97865 29.5843 10.0036C33.1989 14.31 34.5413 19.5612 33.7087 25.1611C33.6962 25.241 33.652 25.2703 33.576 25.2489L32.0675 24.8273C32.0374 24.8187 32.0114 24.7991 31.9946 24.7722C31.9778 24.7454 31.9714 24.7131 31.9766 24.6818C32.7821 19.7623 31.3436 14.7583 28.0956 11.0447C28.0839 11.0311 28.0676 11.0226 28.0498 11.0206C28.0321 11.0186 28.0142 11.0234 27.9995 11.034Z" fill="black"/>
<path d="M30.586 16.4841C30.6243 16.5084 30.6511 16.5423 30.6664 16.5858C30.9324 17.3368 31.1417 18.1047 31.2943 18.8893C31.3103 18.972 31.2828 18.9924 31.2117 18.9503L28.0568 17.0854C28.0129 17.0597 27.969 17.0597 27.9251 17.0854L18.0687 22.8867C18.0424 22.9023 18.0205 22.9246 18.0053 22.9515C17.9901 22.9783 18 23.0087 18 23.0397V27.237C18 27.3729 17.9277 27.4371 17.8274 27.5066L16 28.8185V22.6468C16.001 21.9739 16.4106 21.7973 16.9841 21.456C20.4421 19.4039 23.9028 17.3568 27.3662 15.3147C27.8249 15.044 28.108 15.0301 28.554 15.2826C29.2213 15.6606 29.8986 16.0611 30.586 16.4841Z" fill="black"/>
<path d="M34.384 18.7235C35.8967 19.619 37.5049 20.5081 39.0123 21.4132C39.6841 21.8166 39.9954 21.9257 39.9954 22.7164L39.9995 35.5939C39.9995 36.0112 39.7403 36.269 39.382 36.4894C38.7991 36.8468 38.1076 37.1927 37.5128 37.5272C37.4837 37.5438 37.4498 37.5499 37.4167 37.5444C36.6234 37.4038 35.8427 37.2095 35.0745 36.9612C35.0662 36.9586 35.0589 36.9535 35.0534 36.9466C35.0479 36.9398 35.0445 36.9313 35.0436 36.9224C35.0428 36.9135 35.0444 36.9044 35.0484 36.8963C35.0524 36.8882 35.0586 36.8814 35.0661 36.8767L37.9488 35.0953C37.9843 35.0739 38.0021 35.0422 38.0021 35.0001V23.1538C38.0021 23.1197 37.9933 23.0863 37.9766 23.0568C37.9599 23.0273 37.9359 23.0028 37.907 22.9859L34.6629 20.9938C34.5995 20.9567 34.564 20.9011 34.5563 20.8269L34.3265 18.763C34.3256 18.7557 34.3266 18.7483 34.3296 18.7416C34.3325 18.7349 34.3373 18.7291 34.3432 18.725C34.3492 18.7209 34.3562 18.7186 34.3634 18.7183C34.3706 18.718 34.3777 18.7198 34.384 18.7235Z" fill="black"/>
<path d="M22.1883 21.1917L23.8932 20.1796C23.899 20.1761 23.9055 20.1742 23.9122 20.1744C23.9189 20.1745 23.9255 20.1765 23.9312 20.1803C23.9369 20.184 23.9416 20.1893 23.9446 20.1956C23.9477 20.2019 23.9491 20.209 23.9486 20.216C23.5558 24.8252 24.7641 28.9062 27.5737 32.459C27.6189 32.5168 27.6161 32.5717 27.5653 32.6238L26.4788 33.7333C26.4645 33.7479 26.4474 33.7592 26.4286 33.7666C26.4097 33.774 26.3896 33.7773 26.3694 33.7763C26.3493 33.7753 26.3296 33.77 26.3115 33.7608C26.2935 33.7515 26.2775 33.7385 26.2647 33.7226C23.4705 30.2297 22.0779 26.2261 22.087 21.7117C22.0877 21.5562 22.1065 21.4032 22.1434 21.2527C22.1496 21.2256 22.1646 21.2053 22.1883 21.1917Z" fill="black"/>
<path d="M24.8905 25.2574C29.3095 24.5085 33.6951 25.3719 37.4528 27.8038C37.4768 27.8192 37.4966 27.8407 37.5103 27.8661C37.524 27.8916 37.5312 27.9202 37.5312 27.9493V29.9244C37.5312 30.0107 37.4967 30.0285 37.4277 29.9779C33.9677 27.4058 29.6041 26.2824 25.371 27.0346C25.3447 27.0394 25.3175 27.034 25.2949 27.0196C25.2723 27.0051 25.2559 26.9826 25.2488 26.9565L24.8215 25.3687C24.8183 25.3567 24.8175 25.3442 24.8193 25.3319C24.8211 25.3196 24.8254 25.3079 24.8319 25.2974C24.8384 25.2869 24.8469 25.2779 24.857 25.271C24.8671 25.2642 24.8785 25.2595 24.8905 25.2574Z" fill="black"/>
<path d="M12.9935 38.0151C14.7666 38.3846 16.552 38.4506 18.3496 38.213C18.3823 38.2088 18.4129 38.2148 18.4415 38.2312L20.6259 39.5237C20.6346 39.529 20.6417 39.5369 20.6461 39.5462C20.6505 39.5556 20.6522 39.5661 20.6508 39.5763C20.6495 39.5865 20.6452 39.596 20.6385 39.6036C20.6319 39.6112 20.6231 39.6165 20.6134 39.6189C17.8582 40.3165 15.0947 40.3514 12.3228 39.7238C11.0754 39.4413 10.7714 38.5864 11.1559 37.4063C12.8712 32.1488 16.7596 28.1387 21.7918 26.1187C21.8062 26.1129 21.8216 26.1103 21.8371 26.1111C21.8526 26.1118 21.8677 26.1159 21.8816 26.1231C21.8955 26.1302 21.9078 26.1403 21.9177 26.1526C21.9276 26.165 21.9349 26.1793 21.9391 26.1947L22.3789 27.8102C22.3838 27.8281 22.3779 27.8406 22.3612 27.8477C17.7701 29.7407 14.6117 33.0639 12.8859 37.8172C12.8462 37.9256 12.882 37.9916 12.9935 38.0151Z" fill="black"/>
<path d="M32.787 28.1955C32.803 28.1997 32.8179 28.2074 32.8308 28.218C32.8437 28.2286 32.8542 28.242 32.8617 28.2571C32.8692 28.2723 32.8735 28.2889 32.8743 28.306C32.8751 28.323 32.8724 28.34 32.8664 28.3559C31.2137 32.6798 28.3941 35.9438 24.4076 38.1478C24.3836 38.1612 24.3568 38.168 24.3297 38.1676C24.3026 38.1673 24.2762 38.1597 24.253 38.1457L22.5136 37.1164C22.5067 37.1124 22.5011 37.1064 22.4973 37.0993C22.4936 37.0922 22.4918 37.0841 22.4923 37.076C22.4927 37.068 22.4953 37.0602 22.4998 37.0535C22.5043 37.0468 22.5105 37.0416 22.5177 37.0383C26.5941 35.1517 29.4726 32.0835 31.1531 27.8338C31.162 27.8116 31.1784 27.7935 31.1994 27.7829C31.2204 27.7723 31.2444 27.7698 31.267 27.776L32.787 28.1955Z" fill="black"/>
<path d="M28.5554 35.9213L29.716 34.7379C29.7488 34.7044 29.7836 34.7023 29.8205 34.7315C33.612 37.7644 37.9405 38.8828 42.806 38.0868C42.9146 38.0689 43.0024 38.0386 43.0692 37.9958C43.1054 37.973 43.1166 37.9413 43.1027 37.9006C42.5239 36.1795 41.6955 34.5985 40.6173 33.1577C40.398 32.8656 40.5087 31.0788 40.5097 30.6188C40.5108 30.5364 40.4408 30.4358 40.539 30.3919C40.5541 30.3854 40.5707 30.3836 40.5865 30.3869C40.6024 30.3901 40.6168 30.3982 40.6278 30.4101C42.378 32.2525 43.6901 34.3467 44.5642 36.6927C44.8428 37.4402 44.9876 37.9434 44.9988 38.2023C45.0353 39.0968 44.4116 39.5868 43.5999 39.7633C38.2396 40.9242 32.7895 39.5697 28.5617 36.0325C28.5536 36.026 28.5471 36.0178 28.5423 36.0084C28.5376 35.9991 28.5349 35.9888 28.5343 35.9783C28.5337 35.9678 28.5353 35.9573 28.5389 35.9475C28.5426 35.9377 28.5482 35.9287 28.5554 35.9213Z" fill="black"/>
<path d="M18.0311 35.0192C21.3438 37.0445 24.5655 39.0315 27.9012 41.0162C27.9694 41.0576 28.0565 41.0465 28.1623 40.9831C29.3108 40.2919 30.4631 39.6025 31.6192 38.9149C31.6419 38.9013 31.6674 38.8932 31.6937 38.8913C31.72 38.8895 31.7464 38.8939 31.7707 38.9042L33.671 39.727C33.6787 39.7305 33.6853 39.736 33.6902 39.7431C33.695 39.7502 33.6978 39.7585 33.6984 39.7671C33.6989 39.7757 33.6971 39.7843 33.6932 39.7919C33.6893 39.7996 33.6834 39.806 33.6762 39.8104C31.9657 40.8233 30.2667 41.8272 28.5792 42.8223C27.92 43.2117 27.4864 42.8875 26.9244 42.5537C23.4693 40.4995 19.9348 38.4488 16.4755 36.4017C16.0785 36.1663 16.0021 35.7865 16 35.304V33.3471C16.001 33.0432 17.5684 31.7003 17.8703 31.4135C17.9524 31.3365 18.0007 31.3547 18 31.4681V34.9453C18 34.9781 18.004 35.0027 18.0311 35.0192Z" fill="black"/>
</svg>
