<!-- by TradingView --><svg width="56" height="56" viewBox="0 0 56 56" xmlns="http://www.w3.org/2000/svg"><path fill="#F0F3FA" d="M0 0h56v56H0z"/><path fill-rule="evenodd" d="M17.26 35c.34 0 .62-.27.62-.6 0-.33-.28-.6-.62-.6a.61.61 0 0 0-.62.6c0 .33.28.6.62.6Zm0 .2c.46 0 .83-.36.83-.8 0-.44-.37-.8-.83-.8a.81.81 0 0 0-.83.8c0 .44.37.8.83.8Z"/><path fill-rule="evenodd" d="M17.26 35.4c.57 0 1.03-.45 1.03-1s-.46-1-1.03-1c-.57 0-1.03.45-1.03 1s.46 1 1.03 1Zm0 .2c.68 0 1.24-.54 1.24-1.2 0-.66-.56-1.2-1.24-1.2-.68 0-1.24.54-1.24 1.2 0 .66.56 1.2 1.24 1.2Z"/><path d="M17.67 34.4a.4.4 0 0 1-.4.4.4.4 0 0 1-.42-.4c0-.22.18-.4.41-.4a.4.4 0 0 1 .41.4Z"/><path fill-rule="evenodd" d="M37 16a1 1 0 0 0-1 1v6h-.46l-.96-4.22a1 1 0 0 0-.98-.78h-2.2a1 1 0 0 0-.95 1.32L31.71 23H28c-.7 0-1.37.12-2 .34V17a1 1 0 0 0-1-1h-2a1 1 0 0 0-1 1v10.5a6.48 6.48 0 0 0-6 .52V24a1 1 0 0 0-1-1v-2c0-.25 0-1 1-1s1 .75 1 1h2c0-1.25-1-3-3-3s-3 1.75-3 3v7.05A5.04 5.04 0 0 1 16.43 30c0 .96-.82.94-1.24.8-.4-.91-1.23-1.46-2.19-1.76V33l.01.14-.01.36a6.5 6.5 0 0 0 10.85 4.83A5.98 5.98 0 0 0 28 40h8c1.9 0 3.58-.88 4.68-2.24.5.67 1.28 1.24 2.42 1.24h1.17c1.68 0 2.73-1.39 2.73-3 0-.55-.35-1-.78-1-.43 0-.78.45-.78 1 0 .68-.53 1-1.17 1H43.1c-.85 0-1.28-.52-1.47-.92.24-.64.37-1.35.37-2.08v-5c0-1.78-.77-3.37-2-4.47V17a1 1 0 0 0-1-1h-2ZM21 26v-8h-1.25c-.5 0-.86.52-.72 1.03L21 26Zm-3.74 10c.91 0 1.65-.72 1.65-1.6 0-.88-.74-1.6-1.65-1.6-.91 0-1.65.72-1.65 1.6 0 .88.74 1.6 1.65 1.6ZM21 31.45v6.3c0 .14-.1.25-.23.25h-.54c-.13 0-.23-.11-.23-.25v-6.3c0-1.3.9-2.45 2.25-2.45h1.5c1.36 0 2.25 1.16 2.25 2.45v6.3c0 .14-.1.25-.23.25h-.54c-.13 0-.23-.11-.23-.25v-6.3c0-.87-.33-1.45-1.25-1.45h-1.5c-.92 0-1.25.57-1.25 1.45Z"/><path d="M15.32 30.68c-.55-1.14-1.72-1.7-2.94-1.96-.8-.17-1.61-.2-2.32-.17a6 6 0 0 1 3.78-.15c1.2.37 2.02 1.1 2.43 1.66a.8.8 0 0 1-.11.42.49.49 0 0 1-.25.2c-.18.06-.41.05-.6 0Zm1.11-.67c-.79-1.14-3.24-2.95-6.93-1.42a9.6 9.6 0 0 0-.5.22c.16-.02.35-.05.54-.06 1.8-.18 4.76.05 5.66 2.06.4.14 1.23.16 1.23-.8Z"/><path d="M9.83 30.78c2-1.62 3.65-1.23 4.24-.8l.04.02v1.55l-.17-.25c-.15-.22-.4-.37-.72-.47-.32-.1-.7-.14-1.1-.15-.8-.01-1.66.13-2.21.26l-.08-.16Zm.44-.1a9.4 9.4 0 0 1 1.85-.18c.41 0 .81.05 1.16.16.25.07.47.19.64.34v-.9c-.51-.34-1.9-.68-3.65.57Z"/></svg>