<!-- by TradingView --><svg width="56" height="56" viewBox="0 0 56 56" xmlns="http://www.w3.org/2000/svg"><path fill="#0B2540" d="M0 0h56v56H0z"/><path fill-rule="evenodd" d="M7.69 32H4.5v-2h2.8c.22 0 .39-.22.39-.43a.46.46 0 0 0-.4-.44 10.7 10.7 0 0 1-1.77-.41A2.1 2.1 0 0 1 4 26.75v-.37A2.35 2.35 0 0 1 6.31 24H9v2H6.76c-.22 0-.4.26-.4.5 0 .21.15.4.36.44.33.07.9.2 1.76.48A2.18 2.18 0 0 1 10 29.46v.16A2.35 2.35 0 0 1 7.69 32ZM12 29.32V24h2v5.14c0 .5.5.86 1 .86s1-.36 1-.86V24h2v5.32C18 30.8 16.8 32 15.32 32h-.64A2.68 2.68 0 0 1 12 29.32ZM20 32v-8h3.47c1.23 0 2.03 1.08 2.03 2.42v.75c0 .88-.34 1.6-.92 2l1.2 2.83H23.8l-1.1-2.5H22V32h-2Zm2.76-6H22v1.5h.76c.4 0 .74-.34.74-.75a.75.75 0 0 0-.74-.75ZM28 32v-8h5l-.72 2H30v1h1.8l-.67 2H30v3h-2Zm7.54 0h-1.02l2.4-8h1.52l2.31 8h-.97l-.62-2h-3.02l-.6 2Zm2.08-6.93L38.85 29h-2.4l1.17-3.93ZM43 24h1v8h-1v-8Zm4 8v-8h2.8c1.22 0 2.2 1.08 2.2 2.41v.4c0 1-.55 1.73-1.35 2.04L51.9 32h-.96l-1.17-3H48v3h-1Zm3.13-7H48v3h2.13c.48 0 .87-.44.87-1v-1c0-.56-.39-1-.87-1Z" fill="#fff"/></svg>