<!-- by TradingView --><svg width="56" height="56" viewBox="0 0 56 56" xmlns="http://www.w3.org/2000/svg"><path fill="#F0F3FA" d="M0 0h56v56H0z"/><path d="M20.56 39h-9.54c-.44-10.43 8.22-15.69 12.6-17.01 5.35-5.96 10.39-8.39 12.5-8.98.2-.05.38.1.38.3v1.56c0 .13-.08.25-.2.3C24.76 20.15 20.2 34.3 20.56 39Z" fill="url(#aka10di1y)"/><path d="M25.88 39h-3.2c0-12.98 8.8-20.1 13.75-22.96a.3.3 0 0 1 .15-.04h2.1c.18 0 .32.15.32.33v1.83c0 .12-.06.23-.16.29C27.58 25.25 25.58 34.86 25.87 39Z" fill="url(#bka10di1y)"/><path d="M30.13 39H28c-.44-9.01 7.04-17.26 11.08-19.95a.3.3 0 0 1 .17-.05h1.43c.18 0 .32.15.32.33v1.56c0 .11-.06.22-.15.28-7.33 4.88-10.73 11.9-10.73 17.83Z" fill="url(#cka10di1y)"/><path d="M34.38 39h-2.13c0-10.25 5.66-13.86 8.96-15.95a.3.3 0 0 1 .16-.05h1.31c.18 0 .32.15.32.33v1.34c0 .12-.07.24-.18.3A15.6 15.6 0 0 0 34.37 39Z" fill="url(#dka10di1y)"/><path d="M43.9 39h-7.4a13.9 13.9 0 0 1 7.2-12.37.3.3 0 0 1 .36.06l.85.87c.06.07.09.15.09.23v.83c0 .1-.05.21-.14.27l-3.15 2.17c1.76.9 2.2 5.67 2.2 7.94Z" fill="url(#eka10di1y)"/><defs><linearGradient id="aka10di1y" x1="37.03" y1="14.55" x2="12.05" y2="38.44" gradientUnits="userSpaceOnUse"><stop stop-color="#FBE9B0"/><stop offset=".27" stop-color="#DEB569"/><stop offset=".45" stop-color="#D7AA57"/><stop offset=".62" stop-color="#FFECB2"/><stop offset=".78" stop-color="#DDB56F"/><stop offset="1" stop-color="#C79546"/></linearGradient><linearGradient id="bka10di1y" x1="37.03" y1="14.55" x2="12.05" y2="38.44" gradientUnits="userSpaceOnUse"><stop stop-color="#FBE9B0"/><stop offset=".27" stop-color="#DEB569"/><stop offset=".45" stop-color="#D7AA57"/><stop offset=".62" stop-color="#FFECB2"/><stop offset=".78" stop-color="#DDB56F"/></linearGradient><linearGradient id="cka10di1y" x1="37.03" y1="14.55" x2="12.05" y2="38.44" gradientUnits="userSpaceOnUse"><stop stop-color="#FBE9B0"/><stop offset=".27" stop-color="#DEB569"/><stop offset=".45" stop-color="#D7AA57"/><stop offset=".62" stop-color="#FFECB2"/><stop offset=".78" stop-color="#DDB56F"/></linearGradient><linearGradient id="dka10di1y" x1="37.03" y1="14.55" x2="12.05" y2="38.44" gradientUnits="userSpaceOnUse"><stop stop-color="#FBE9B0"/><stop offset=".27" stop-color="#DEB569"/><stop offset=".45" stop-color="#D7AA57"/><stop offset=".62" stop-color="#FFECB2"/></linearGradient><linearGradient id="eka10di1y" x1="37.03" y1="14.55" x2="12.05" y2="38.44" gradientUnits="userSpaceOnUse"><stop stop-color="#FBE9B0"/><stop offset=".27" stop-color="#DEB569"/><stop offset=".45" stop-color="#D7AA57"/><stop offset=".62" stop-color="#FFECB2"/></linearGradient></defs></svg>