<!-- by TradingView --><svg width="56" height="56" viewBox="0 0 56 56" xmlns="http://www.w3.org/2000/svg"><path fill="#F0F3FA" d="M0 0h56v56H0z"/><path d="M7.5 22v6h-1v-6h1ZM9 22v1H5v-1h4ZM13.7 24.5v1h-2.87v-1h2.87ZM11 22v6h-1v-6h1Zm3.5 0v6h-1v-6h1ZM17.93 23.08 16.33 28h-1.1l2.04-6h.77l-.11 1.08ZM19.29 28l-1.62-4.92-.12-1.08h.78l2.05 6H19.3Zm-.06-2v1h-2.9v-1h2.9ZM22 22v6h-1v-6h1ZM30 25v2.18c-.49.62-1.35.82-2.1.82-1.42 0-2.4-1.02-2.4-2.81v-.37c0-1.8.94-2.82 2.32-2.82 1.44 0 2.07.87 2.18 2h-1.1c-.07-.6-.35-1-1.05-1-.74 0-1.35.58-1.35 1.81v.38c0 1.2.6 1.81 1.47 1.81.55 0 .88-.15 1.03-.32V26h-1.16v-1H30ZM31 22h2.1c1.26 0 1.9.7 1.9 1.84 0 .92-.34 1.63-1.07 1.9l-.36.26h-1.79v-1h1.32c.6 0 .9-.36.9-1.07 0-.56-.3-.93-.9-.93H32v5h-1v-6Zm3.24 6L33 25.5l1.07-.01L35.4 28h-1.15ZM40.5 24.87v.27c0 1.77-.8 2.86-2.2 2.86-1.38 0-2.3-1.08-2.3-2.86v-.27c0-1.8.93-2.87 2.3-2.87 1.57 0 2.2 1.46 2.2 2.87Zm-1 .27v-.28c0-1.24-.45-1.86-1.2-1.86-.76 0-1.3.6-1.3 1.86v.28c0 1.22.53 1.86 1.3 1.86s1.2-.64 1.2-1.86ZM45 22h1v3.94c0 1.34-1 2.06-2.23 2.06s-2.27-.7-2.27-2.06V22h1v3.94c0 .79.67 1.06 1.27 1.06.62 0 1.23-.28 1.23-1.06V22ZM48.94 26h-1.4v-1h1.4c.65 0 1.06-.48 1.06-1 0-.51-.41-1-1.06-1H48v5h-1v-6h1.94c1.3 0 2.06.89 2.06 2 0 1.13-.77 2-2.06 2Z" fill="#006865"/><path d="M9.19 32.12v.68H6.6v-.68H9.2ZM6.79 30v5h-.8v-5h.8Zm3 0v5h-.8v-5h.8ZM14.28 32.36v.28c0 1.5-.76 2.36-1.9 2.36-1.11 0-1.9-.85-1.9-2.36v-.28c0-1.52.8-2.36 1.9-2.36 1.13 0 1.9.84 1.9 2.36Zm-.8.28v-.28c0-1.13-.4-1.67-1.1-1.67-.68 0-1.1.53-1.1 1.67v.28c0 1.1.4 1.67 1.1 1.67.72 0 1.1-.57 1.1-1.67ZM18 34.31V35h-2.43v-.69H18ZM15.79 30v5H15v-5h.79ZM20.36 35h-.98l.01-.69h.97c.28 0 .52-.06.7-.2.2-.13.34-.33.44-.58.1-.25.15-.55.15-.9v-.27c0-.26-.03-.5-.09-.71-.05-.2-.13-.38-.24-.53-.1-.14-.24-.24-.4-.32a1.24 1.24 0 0 0-.53-.1h-1.03V30h1.03c.3 0 .58.06.83.18.25.1.46.26.65.47.18.2.32.46.42.75.1.29.15.61.15.97v.27c0 .35-.05.68-.15.97a1.9 1.9 0 0 1-1.08 1.22c-.25.11-.54.17-.85.17Zm-.54-5v5H19v-5h.82ZM24 30v5h-.8v-5h.8ZM29 30v5h-.78l-2.43-3.58V35H25v-5h.8l2.42 3.59V30H29ZM33.76 32.39v1.96c-.19.28-.72.65-1.73.65-1.15 0-2.03-.81-2.03-2.32v-.35c0-1.52.8-2.33 1.96-2.33 1.12 0 1.7.6 1.8 1.53H33a1.41 1.41 0 0 0-.15-.47c-.14-.27-.45-.38-.87-.38-.73 0-1.16.56-1.16 1.64v.36c0 1.1.45 1.63 1.19 1.63.55 0 .76-.1 1-.32V33h-1v-.61h1.76ZM37.16 33.71c0-.3-.1-.5-.5-.68-.35-.18-.73-.27-1.09-.44-.55-.28-.9-.67-.9-1.28 0-.82.67-1.31 1.62-1.31 1.03 0 1.65.63 1.65 1.46h-.78c0-.5-.28-.78-.88-.78-.55 0-.83.24-.83.63 0 .28.18.48.55.65.36.17.75.26 1.1.44.56.3.85.7.85 1.3 0 .83-.66 1.3-1.66 1.3-.87 0-1.77-.46-1.77-1.51h.8c0 .65.42.83.97.83.56 0 .87-.2.87-.6Z" fill="#34414A"/></svg>