<!-- by TradingView --><svg width="56" height="56" fill="none" xmlns="http://www.w3.org/2000/svg"><path fill="#F0F3FA" d="M0 0h56v56H0z"/><path fill-rule="evenodd" clip-rule="evenodd" d="M28 44c8.837 0 16-7.163 16-16s-7.163-16-16-16-16 7.163-16 16 7.163 16 16 16Zm0 1c9.389 0 17-7.611 17-17s-7.611-17-17-17-17 7.611-17 17 7.611 17 17 17Z" fill="#0F0E9F"/><path d="M25.165 25.224 28.035 12l2.888 13.224L44 27.998l-13.077 2.888L28.035 44l-2.87-13.114L12 27.998l13.165-2.774Z" fill="#0F0E9F"/><path d="M26.228 26.265 28.022 18l1.805 8.265L38 27.999l-8.173 1.805L28.022 38l-1.794-8.196L18 27.999l8.228-1.734Z" fill="#DF0024"/><path d="M27.154 27.175 28.01 24l1.012 3.175L32 28l-3.054.924L28.009 32l-.93-3.076L24 28l3.154-.825Z" fill="#F8F400"/></svg>