<!-- by TradingView --><svg width="56" height="56" viewBox="0 0 56 56" xmlns="http://www.w3.org/2000/svg"><path fill="#F0F3FA" d="M0 0h56v56H0z"/><path fill-rule="evenodd" d="M28 43.94a15.94 15.94 0 1 0 0-31.88 15.94 15.94 0 0 0 0 31.88ZM28 45a17 17 0 1 0 0-34 17 17 0 0 0 0 34Zm-6-6a1 1 0 1 1-2 0 1 1 0 0 1 2 0Zm14 1a1 1 0 1 0 0-2 1 1 0 0 0 0 2Zm2-20a1 1 0 1 1-2 0 1 1 0 0 1 2 0Zm-19 1a1 1 0 1 0 0-2 1 1 0 0 0 0 2Zm11-5a2 2 0 1 1-4 0 2 2 0 0 1 4 0Zm7 13a9 9 0 1 1-18 0 9 9 0 0 1 18 0Zm-14-3v-2h10v2h-4v9h-2v-9h-4Z" fill="#004D5A"/></svg>