<!-- by TradingView --><svg width="56" height="56" viewBox="0 0 56 56" xmlns="http://www.w3.org/2000/svg"><path fill="url(#asx15molx)" d="M0 0h56v56H0z"/><path d="M35.14 28.85c-1.3-.18-2.14-.25-2.14-.25v-4.79l2.72.61a2.33 2.33 0 0 1 1.96 2.41c0 1.17-1 2.22-2.54 2.02Zm5.25 1.98s1.51-1.55 1.51-4.46c0-2.42-1.59-5.11-4.4-6.13L28 16.88V33s-.36 3-3 3c-1.77 0-3-1.07-3-3.07V14.67L15 12v21.64c0 7.73 6.82 11 11 10.26 5-.9 7-4.87 7-9.17V33h3.8c1.16 0 2.03 1.38 2.03 2.47 0 .98-.66 2.4-2.02 2.53h-1.94c-.31 1.31-.99 2.9-2.5 4.7l5.68-1.03A6.01 6.01 0 0 0 43 35.83c0-1.44-.47-3.55-2.6-5Z" fill="#fff"/><defs><linearGradient id="asx15molx" x1="8.39" y1="48.98" x2="48.95" y2="17.69" gradientUnits="userSpaceOnUse"><stop stop-color="#FA4B14"/><stop offset="1" stop-color="#FE9400"/></linearGradient></defs></svg>