<!-- by TradingView --><svg width="56" height="56" viewBox="0 0 56 56" xmlns="http://www.w3.org/2000/svg"><path fill="#F0F3FA" d="M0 0h56v56H0z"/><path d="M21.8 30.63a9.67 9.67 0 0 0-1.13-6.29 8.3 8.3 0 0 0-2.6-2.57c-.88-.55-1.8-1.04-2.75-1.46-.2-.08-.12-1.57.45-2.3.2-.27-.4-1.36-.56-1.16-.84 1.08-1.03 2.24-.84 3.55-2.22 3.51-3.03 8.02-1.78 11.87a13.3 13.3 0 0 0 3.66 5.76 31.14 31.14 0 0 0 5.35 3.87c.36.29.2-.2.17-.33-.03-.15-.08-.3-.14-.45l-.2-.15-.04-.03c-.56-.42-1.1-.79-1.3-2.34-.1-.83-.03-1.67.2-2.47.5-1.88 1.15-3.52 1.5-5.5Zm-1.4 9.71-.25-.16a8.88 8.88 0 0 1-.9-.74c-2.34-2.51-2.82-5.7-2.7-9.02.12-3.19.33-6.31-1.69-9a.3.3 0 0 1-.08-.23.3.3 0 0 1 .11-.2c.23-.08.47.02.57.23a12.9 12.9 0 0 1 1.65 3.97c.31 1.55.43 3.13.34 4.7-.05 1.5-.28 3.01-.03 4.49.59 3.37 1.99 4.89 2.99 5.96ZM41.25 19.74c-2-3.63-5.61-6.56-9.64-7.4-2.3-.52-4.68-.44-6.93.21a31.61 31.61 0 0 0-6.12 2.6c-.42.17.09.27.2.3.15.06.3.1.47.11l.24-.1.04-.01c.65-.26 1.25-.54 2.74.06a6.7 6.7 0 0 1 2.09 1.4c1.42 1.37 2.56 2.73 4.14 4.02a10.23 10.23 0 0 0 6.15 2.17 8.58 8.58 0 0 0 3.58-.92c.93-.47 1.82-1 2.66-1.61.17-.12 1.46.69 1.82 1.53.13.3 1.4.33 1.3.1a4.44 4.44 0 0 0-2.74-2.46Zm-1.27.52c-1.47.04-2.94-.15-4.34-.58a19.71 19.71 0 0 1-4.34-2.06c-1.3-.79-2.54-1.73-3.97-2.25-3.28-1.2-5.32-.76-6.78-.46l.27-.13c.36-.16.73-.3 1.1-.4 3.39-.73 6.46.46 9.35 2.24 2.77 1.69 5.45 3.4 8.84 3.05a.3.3 0 0 1 .23.05c.07.04.12.11.13.2 0 0-.04.32-.49.34ZM43.5 26.03c-.13.1-.25.2-.35.32l-.04.26v.04c-.09.69-.14 1.32-1.42 2.28-.69.5-1.47.86-2.3 1.06-1.92.52-3.7.8-5.63 1.49-2.09.8-3.85 2.24-5 4.12a8.03 8.03 0 0 0-.98 3.49c-.04 1.02-.01 2.04.1 3.05.02.2-1.35.89-2.27.77-.34-.04-1.01 1.02-.74 1.05a4.51 4.51 0 0 0 3.55-1.08c4.23.11 8.64-1.45 11.4-4.44a13.27 13.27 0 0 0 3.29-5.96c.49-2.12.74-4.3.76-6.47.05-.44-.29-.06-.38.02Zm-.43 2.07c-.05.38-.11.76-.2 1.13-1.06 3.23-3.65 5.23-6.66 6.8-2.89 1.48-5.74 2.88-7.14 5.92a.28.28 0 0 1-.16.19.32.32 0 0 1-.24 0 .44.44 0 0 1-.07-.6c.7-1.26 1.61-2.4 2.7-3.38a19.44 19.44 0 0 1 4-2.64c1.35-.7 2.8-1.27 3.99-2.22 2.7-2.18 3.34-4.12 3.8-5.5-.02.1-.02.2-.02.3Z" fill="#8DC63F"/></svg>