<!-- by TradingView --><svg width="56" height="56" viewBox="0 0 56 56" xmlns="http://www.w3.org/2000/svg"><path fill="#0084B6" d="M0 0h56v56H0z"/><path d="M34 30.9v-6.83c0-.03.03-.07.06-.07h1.85c.05 0 .1.05.1.1L36 26.55c0 .12.05.14.13.06a2.24 2.24 0 0 1 1.93-.55c1.71.32 2.1 2.05 1.9 3.59-.2 1.4-1.13 2.56-2.6 2.32a1.94 1.94 0 0 1-1.32-.87c-.02-.03-.04-.04-.04 0v.86c0 .03-.07.04-.1.04h-1.86L34 32l-.01-.03V30.9Zm2.87-3.21c-1.17.25-1.12 2.4-.05 2.68 1.62.41 1.5-3 .05-2.68ZM17.15 29.62c.03 1.15 1.9 1.4 2.63.6a.1.1 0 0 1 .08-.03l1.96.18c.02 0 .03.02.02.04a2.83 2.83 0 0 1-2.01 1.46c-.87.18-2.04.19-2.86-.07-1.33-.42-2.04-1.6-1.96-2.98.12-2.36 2.35-3.1 4.5-2.73 1.92.33 2.55 1.71 2.49 3.43 0 .02-.02.03-.04.03h-4.74c-.05 0-.07.02-.07.07Zm2.7-1.17c-.03-1.56-2.66-1.5-2.69.01 0 .03.02.04.04.04h2.6l.03-.01.01-.04ZM7.61 29.71l1.2-3.7a.03.03 0 0 1 .02-.01h2.3a.03.03 0 0 1 .01.02v.02l-2.55 5.94a.03.03 0 0 1-.03.02H6.53a.03.03 0 0 1-.02-.02L4 26.04a.03.03 0 0 1 .02-.04H6.4l.01.02 1.15 3.7a.03.03 0 0 0 .03.01.03.03 0 0 0 .02-.02ZM11.86 23.68l1.81-.68c.03 0 .05 0 .06.03l.44 1.23c0 .02 0 .05-.03.06l-1.81.67c-.03.01-.05 0-.06-.02l-.44-1.24c0-.02 0-.04.03-.05Zm.18 2.32h1.92c.02 0 .04.02.04.05v5.9c0 .03-.02.05-.04.05h-1.92c-.02 0-.04-.02-.04-.05v-5.9c0-.03.02-.05.04-.05ZM40.86 23.68l1.81-.68c.03 0 .05 0 .06.03l.44 1.23c0 .02 0 .05-.03.06l-1.81.67c-.03.01-.05 0-.06-.02l-.44-1.24c0-.02 0-.04.03-.05Zm.18 2.32h1.92c.02 0 .04.02.04.05v5.9c0 .03-.02.05-.04.05h-1.92c-.02 0-.04-.02-.04-.05v-5.9c0-.03.02-.05.04-.05ZM29.9 29.69l.97-3.67v-.01l.02-.01h2.19a.03.03 0 0 1 .01.02v.02l-2.21 5.94-.01.01H28.8v-.01l-1.2-3.53a.03.03 0 0 0-.03-.02h-.02v.02l-1.17 3.53a.03.03 0 0 1-.03.02H24.3l-.01-.02-2.24-5.94v-.02l.02-.02h2.22v.02l.95 3.66a.03.03 0 0 0 .03.01.03.03 0 0 0 .03-.01l1.21-3.66a.03.03 0 0 1 .03-.02h2.06v.02l1.25 3.67.01.01a.03.03 0 0 0 .05-.01ZM48.03 27.64 49.18 26a.03.03 0 0 1 .02-.01h2.6a.03.03 0 0 1 .03.01.03.03 0 0 1 0 .03l-2.12 2.8a.03.03 0 0 0 0 .04l2.28 3.08a.03.03 0 0 1 0 .02V32H49.18l-.01-.01-1.14-1.89h-.01l-.02-.01a.03.03 0 0 0-.02 0L46.62 32l-.02.01H44v-.01l-.01-.02v-.01l2.28-3.08a.03.03 0 0 0 0-.03l-2.14-2.8V26l.02-.01H47l.01.01.98 1.63.02.01h.02v-.01Z" fill="#fff"/></svg>