<!-- by TradingView --><svg width="56" height="56" viewBox="0 0 56 56" xmlns="http://www.w3.org/2000/svg"><path fill="url(#azuw03tj0)" d="M0 0h56v56H0z"/><path d="M5 24v-2h11v9h-3v-7H5Z" fill="#fff"/><path d="M8 26H5v5h3v-5ZM22 32H5v2h17v-2ZM17 24v-2h5v4h-3v-2h-2ZM22 31v-2c1.53 0 2-.71 2-1.43V22h3v5.57c0 2.74-3 3.43-5 3.43ZM29 34v-2h11v2H29ZM29 31v-2h1v-4c0-1.29 2-3 5-3s5 2 5 3v6h-3v-5.57c0-.57-.47-1.43-2-1.43s-2 .86-2 1.43V31h-4ZM41 24v-2h5v4h-3v-2h-2ZM47 24v-2h4v9h-3v-7h-1ZM48 34v-2h3v2h-3Z" fill="#fff"/><defs><linearGradient id="azuw03tj0" x1="10.42" y1="9.71" x2="68.15" y2="76.02" gradientUnits="userSpaceOnUse"><stop stop-color="#1A1E21"/><stop offset="1" stop-color="#06060A"/></linearGradient></defs></svg>