<!-- by TradingView --><svg width="56" height="56" viewBox="0 0 56 56" xmlns="http://www.w3.org/2000/svg"><path fill="#F0E336" d="M0 0h56v56H0z"/><path d="M4.3 24.03c.24-.1.51.04.6.3l2.22 6.38c.06.18.2.29.38.29s.32-.1.38-.29l2.22-6.38c.09-.26.36-.4.6-.3.24.1.36.39.27.65l-2.22 6.38c-.2.57-.68.94-1.25.94s-1.06-.37-1.25-.94l-2.22-6.38c-.1-.26.03-.55.27-.65ZM13.47 24c.27 0 .53.22.53.5v5.4c0 .61.44 1.1 1.03 1.1h.5c.26 0 .47.24.47.5 0 .28-.21.5-.47.5h-.5A2.07 2.07 0 0 1 13 29.9v-5.4c0-.28.21-.5.47-.5ZM20 22.41c0-.25-.24-.41-.5-.41s-.5.2-.5.46v2.89a6.31 6.31 0 0 0-2.47-.35c-.3 0-.54.23-.53.5 0 .27.25.5.55.5h.06a4.65 4.65 0 0 1 2.2.32c.19.1.19.17.19.19v3.51A2 2 0 0 0 21.03 32h.5c.26 0 .47-.24.47-.5s-.21-.5-.47-.5h-.5A1 1 0 0 1 20 29.97v-7.56ZM40.96 26c-1.13 0-1.96.81-1.96 1.92v1.16c0 1.11.83 1.92 1.96 1.92h.42c.73 0 1.38-.2 1.75-.79.08-.13.22-.2.37-.21.09 0 .2.02.28.07a.45.45 0 0 1 .15.61A2.96 2.96 0 0 1 41.38 32h-.42A2.95 2.95 0 0 1 38 29.08v-1.16c0-1.6 1.33-2.92 2.96-2.92h.42c1.09 0 2.04.46 2.56 1.33.12.21.05.49-.17.61a.46.46 0 0 1-.62-.16c-.36-.6-1.02-.78-1.77-.78h-.42ZM48.8 26c-1.06 0-1.8.81-1.8 1.92v1.16c0 1.11.74 1.92 1.8 1.92h.4c1.06 0 1.8-.81 1.8-1.92v-.63c0-.25.26-.45.5-.45s.5.2.5.45v.63c0 1.6-1.26 2.92-2.8 2.92h-.4a2.87 2.87 0 0 1-2.8-2.92v-1.16c0-1.6 1.26-2.92 2.8-2.92h.77c.24 0 .43.2.43.45s-.2.55-.43.55h-.77ZM33.75 25c.78 0 1.64.41 2.14 1 .07.08.1.18.11.28 0 .13-.04.26-.13.35a.35.35 0 0 1-.26.12.47.47 0 0 1-.33-.17c-.36-.4-.98-.58-1.53-.58-.46 0-1.75.1-1.75.8 0 .89.8 1.02 1.65 1.16l.16.02c1.08.18 2.19.73 2.19 2.02 0 1.47-.87 2-2.05 2h-.2a3.06 3.06 0 0 1-2.67-1.27.48.48 0 0 1 .08-.62c.08-.08.2-.11.32-.11a.4.4 0 0 1 .33.15c.62.77 1.2.86 1.94.85h.2c.7 0 1.05-.32 1.05-1 0-.68-.74-.9-1.32-.98l-.15-.03c-1.3-.21-2.52-.74-2.52-2.19 0-1.44 1.49-1.8 2.74-1.8ZM24 27.92c0-1.11.74-1.92 1.8-1.92h.4c1.06 0 1.8.81 1.8 1.92V28h-2.59c-.23 0-.41.22-.41.5s.18.5.41.5H28.6c.21 0 .39-.2.4-.45l.01-.04v-.59c0-1.6-1.26-2.92-2.8-2.92h-.4a2.87 2.87 0 0 0-2.8 2.92v1.16c0 1.6 1.26 2.92 2.8 2.92h.4c.95 0 2.1-.48 2.7-1.27a.46.46 0 0 0-.06-.63.42.42 0 0 0-.6.07c-.4.51-1.26.83-2.04.83h-.4c-1.06 0-1.8-.81-1.8-1.92v-1.16Z" fill="#2B2B2A"/></svg>