<!-- by TradingView --><svg xmlns="http://www.w3.org/2000/svg" width="56" height="56" viewBox="0 0 56 56"><path fill="#F0F3FA" d="M0 0h56v56H0z"/><path d="M5 32h1.08l2.33-4.88L10.3 31H7.68l-.5 1H12l-3.3-7h-.52L5 32Zm8-6.99h1V31h3.38v1.01H13v-7Zm6-.01h-1v3.51c0 .84.06 1.42.17 1.74C18.6 31.48 19.77 32 21 32c1.13 0 2.38-.6 2.77-1.69.15-.44.23-1.03.23-1.78V25h-1v4c0 1.17-.72 2-2 2-1.48 0-2-.66-2-2v-4Zm5.85 7 1.45-7h.53L29 29.98 31.28 25h.5l1.34 7h-1.1l-.8-4.31L29.34 32h-.59l-1.96-4.37-.8 4.37h-1.14ZM35 25h-1v7h1v-7Zm2 7v-7h.67L42 29.86V25h1v7h-.69l-4.3-4.7L38 32h-1Zm7.77 0h-1.13L47 25h.53L51 32h-5.07l.51-1h2.74l-1.94-3.87L44.77 32Z" fill="#008B6B"/></svg>