<!-- by TradingView --><svg width="56" height="56" viewBox="0 0 56 56" xmlns="http://www.w3.org/2000/svg"><path fill="#F0F3FA" d="M0 0h56v56H0z"/><path d="M5.48 27 4 21h1.02l.95 4.4h.05L7.03 21h.94l1.01 4.41h.05L9.98 21H11l-1.48 6h-.94l-1.06-4.21h-.04L6.42 27h-.94ZM33.48 27 32 21h1.02l.95 4.4h.05l1.01-4.4h.94l1.01 4.41h.05l.95-4.41H39l-1.48 6h-.95l-1.05-4.21h-.04L34.43 27h-.95ZM41 21v6h-1v-6h1ZM42 29v6h-1v-6h1ZM17 24c0 1.5-.85 3-2.5 3S12 25.5 12 24s.84-3 2.5-3c1.65 0 2.5 1.5 2.5 3Zm-1 0c0-.94-.4-2-1.5-2S13 23.06 13 24s.4 2 1.5 2 1.5-1.06 1.5-2ZM18 27v-6h1.96c1.14 0 2.04.8 2.04 1.92 0 1.15-.84 2.08-2.05 2.08h-1.4v-1h1.27c.63 0 1.18-.45 1.18-1.08 0-.64-.55-.92-1.18-.92H19v5h-1Zm2.7-2.72L22 27h-1.06l-1.27-2.72h1.03ZM14 35v-6h1.96c1.14 0 2.04.8 2.04 1.92 0 1.15-.84 2.08-2.05 2.08h-1.4v-1h1.27c.63 0 1.18-.45 1.18-1.08 0-.64-.55-.92-1.18-.92H15v5h-1Zm2.7-2.72L18 35h-1.06l-1.27-2.72h1.03ZM23 27v-6h1v5h2v1h-3ZM29.06 27H27v-6h2.1c1.77 0 2.9 1.25 2.9 3 0 1.76-1.16 3-2.94 3ZM28 26h1c1.27 0 1.91-.79 1.91-2 0-1.2-.63-2-1.88-2H28v4ZM44.06 27H42v-6h2.1c1.77 0 2.9 1.25 2.9 3 0 1.76-1.16 3-2.94 3ZM43 26h1c1.27 0 1.91-.79 1.91-2 0-1.2-.63-2-1.88-2H43v4ZM48 27v-6h4v1h-3v1.5h2.5v1H49V26h3v1h-4ZM43 35v-6h4v1h-3v1.5h2.5v1H44V34h3v1h-4ZM7.02 30.68c-.05-.5-.42-.68-.98-.68-.46 0-.94.14-.95.65 0 .36.26.58.57.7.1.04.21.08.32.1l.49.14c.2.06.38.12.57.21.59.28.96.81.96 1.47C8 34.4 7.07 35 6.02 35c-1.11 0-1.98-.65-2.02-1.81h.93c.04.6.52.81 1.09.81.5 0 1-.17 1-.73 0-.5-.49-.7-.9-.81l-.6-.17c-.76-.22-1.38-.72-1.38-1.57 0-1.06.9-1.72 1.91-1.72.99 0 1.86.65 1.88 1.68h-.91ZM30 35v-6h4v1h-3v1.5h2.5v1H31V34h3v1h-4ZM51.02 30.68c-.05-.5-.42-.68-.98-.68-.46 0-.94.14-.95.65 0 .36.26.58.57.7.1.04.21.08.32.1l.49.14c.2.06.38.12.57.21.59.28.96.81.96 1.47 0 1.13-.93 1.73-1.98 1.73-1.11 0-1.98-.65-2.02-1.81h.93c.04.6.52.81 1.09.81.5 0 1-.17 1-.73 0-.5-.49-.7-.9-.81l-.6-.17c-.76-.22-1.38-.72-1.38-1.57 0-1.06.9-1.72 1.91-1.72.99 0 1.86.65 1.88 1.68h-.91ZM8 30v-1h5v1h-2v5h-1v-5H8ZM24 30v-1h5v1h-2v5h-1v-5h-2ZM20.08 35H19l1.9-6h1.2l1.9 6h-1l-1.5-5-1.42 5Zm0-2h2.84v1h-2.84v-1ZM38.96 31a1.4 1.4 0 0 0-1.37-1C36.5 30 36 31.03 36 32c0 .98.48 2 1.61 2 .83 0 1.4-.39 1.4-1.21l.23.04h-1.52V32H40v.7c0 1.4-.98 2.3-2.4 2.3-1.68 0-2.6-1.42-2.6-3 0-1.5.91-3 2.58-3 1.16 0 2.25.82 2.42 2h-1.04Z"/></svg>