<!-- by TradingView --><svg width="56" height="56" viewBox="0 0 56 56" xmlns="http://www.w3.org/2000/svg"><path fill="#F0F3FA" d="M0 0h56v56H0z"/><path d="M6 33v-9h1.5l1 4 1-4H11v9h-1v-7l-1 4H8l-1-4v7H6ZM12 33l1.7-9h1.6l1.7 9h-1.2l-.3-2h-2l-.3 2H12Zm1.7-3h1.6l-.81-4.23L13.7 30ZM19 33v-8h-1.5v-1h4v1H20v8h-1ZM30 33v-8h-1.5v-1h4v1H31v8h-1ZM22 33v-9h2.3c1.2 0 1.2 1.16 1.2 2.38 0 .7 0 1.12-.5 1.62.5.5.5.96.5 1.5V33h-1v-3.5c0-.56 0-1-.5-1h-1V33h-1Zm1-5.5h1c.55 0 .5-.62.5-1.12 0-.58 0-1.38-.67-1.38H23v2.5ZM27 33v-9h1v9h-1ZM33 33v-9h3v1h-2v3h2v1h-2v3h2v1h-3ZM47 33v-9h3v1h-2v3h2v1h-2v3h2v1h-3ZM37 33v-9h1l2 6v-6h1v9h-1l-2-6v6h-1ZM44 33c-1.57 0-1.99-1.18-1.99-2.57V30H43v.53c0 .97.33 1.47 1 1.47.82 0 1-.5 1-1.5 0-.66-.4-.91-1-1.5-.84-.81-2-1.73-2-3 0-1.32.61-2 1.99-2 1.48 0 2.01 1.1 2.01 2.42v.6h-1v-.69c0-.8-.27-1.33-1.01-1.33-.75 0-.99.5-.99 1s.63 1.13 1 1.5c.91.92 2 1.62 2 3.03 0 1.34-.52 2.47-2 2.47Z"/></svg>