<!-- by TradingView --><svg width="56" height="56" fill="none" xmlns="http://www.w3.org/2000/svg"><path fill="#F0F3FA" d="M0 0h56v56H0z"/><path d="M21.517 12.792 10.546 31.374l.829 1.287h10.142l6.74-11.534-3.767-8.335h-2.973Z" fill="url(#a)"/><path d="M36.224 32H30v9.426c0 .304 0 .574.536.574h8.292l1.127-1.305L36.224 32Z" fill="url(#b)"/><path d="m21.45 12.92-.438.744c.144-.245.602-.736 1.275-.736.673 0 1.044.49 1.146.736l14.994 25.208c.32.482.962 1.568.962 2.052s-.641.92-.962 1.076h.938c.656 0 1.264-.334 1.605-.882l4.756-7.643c.355-.57.366-1.285.027-1.866L34.861 12.927A1.887 1.887 0 0 0 33.23 12h-10.15c-.672 0-1.293.35-1.629.92Z" fill="url(#c)"/><path d="m10.122 32.096.955-1.648c-.55 1.459.386 1.499.923 1.552h14v9.055c0 .507-.472.945-.991.945h-8.615a.97.97 0 0 1-.796-.457l-5.454-8.506a.901.901 0 0 1-.022-.941Z" fill="url(#d)"/><defs><linearGradient id="a" x1="14.117" y1="33.017" x2="25.628" y2="16.427" gradientUnits="userSpaceOnUse"><stop stop-color="#0054A6"/><stop offset="1" stop-color="#0086C6"/></linearGradient><linearGradient id="b" x1="30.572" y1="37.48" x2="38.551" y2="37.48" gradientUnits="userSpaceOnUse"><stop stop-color="#0085C5"/><stop offset="1" stop-color="#0054A6"/></linearGradient><linearGradient id="c" x1="26.323" y1="13.406" x2="44.988" y2="37.844" gradientUnits="userSpaceOnUse"><stop stop-color="#55BA47"/><stop offset="1" stop-color="#0E9057"/></linearGradient><linearGradient id="d" x1="12.002" y1="35.084" x2="24.854" y2="35.084" gradientUnits="userSpaceOnUse"><stop stop-color="#0E9057"/><stop offset="1" stop-color="#55BA47"/></linearGradient></defs></svg>