<!-- by TradingView --><svg width="56" height="56" viewBox="0 0 56 56" xmlns="http://www.w3.org/2000/svg"><path fill="#F0F3FA" d="M0 0h56v56H0z"/><path d="M50.4 21.52h-3.35c-.01 0-.02 0-.03-.02 0 0-.02-.01-.02-.03v-1.43l.01-.03.03-.01h4.92a.04.04 0 0 1 .04.04v4.92l-.01.03-.03.01H50.5l-.03-.02-.01-.03v-3.4c0-.05-.05-.03-.08-.03Z" fill="#E8DD73"/><path d="M38.64 29.43v4.51c0 .04-.02.06-.05.06h-1.54c-.03 0-.05-.02-.05-.06v-8.1c0-1.78.96-3.17 2.93-2.77 1.14.23 1.71 1.23 1.72 2.39v8.49c0 .03-.02.05-.05.05h-1.54c-.04 0-.06-.02-.06-.06v-4.5c0-.04-.01-.06-.04-.06h-1.27c-.03 0-.05.02-.05.05Zm.05-1.67h1.27s.02 0 .03-.02l.01-.03v-2.26c0-.41-.2-.87-.65-.87-.46 0-.7.38-.7.86l-.01 2.27.01.03.04.02ZM6.66 24.58l-.02.01-.01.03v9.32c0 .04-.02.06-.06.06H5.05c-.03 0-.05-.02-.05-.06V23.06c0-.03.02-.06.05-.06H7.7c1.6.02 2.3 1.12 2.3 2.73v8.21c0 .04-.02.06-.06.06H8.41c-.03 0-.05-.02-.05-.05v-8.32c.01-1.27-.9-1.05-1.7-1.05ZM14.04 27.63h2.51c.01 0 .02 0 .03.02l.01.02v1.52l-.04.01h-2.5c-.02 0-.03 0-.03.02l-.02.02v3.14l.01.03.03.01h2.92a.04.04 0 0 1 .03.02.04.04 0 0 1 0 .03v1.52l-.03.01h-4.54l-.03-.01-.01-.03V23.04l.01-.03h.03l4.54-.01.03.01v1.55l-.03.01h-2.92l-.02.01-.02.03v2.98a.04.04 0 0 0 .01.03.04.04 0 0 0 .03.01ZM22.96 33.53c-1.13.74-3.03.69-3.68-.74-.19-.4-.28-.9-.28-1.46v-8.27c0-.04.03-.06.06-.06h1.52c.03 0 .04.02.04.05v8.01c0 .46.04.76.1.91.23.55 1.11.62 1.37 0 .08-.2.12-.48.12-.84a2915.99 2915.99 0 0 1-.02-8.12l.02-.01h1.54c.04 0 .06.02.06.06v8.26c0 .62.16 1.09.83 1.08.59 0 .73-.55.73-1.07v-8.28c0-.03 0-.05.04-.05h1.54l.02.01.03.02v8.25c0 .6-.1 1.13-.33 1.6-.62 1.3-2.62 1.4-3.63.65-.03-.02-.05-.02-.08 0ZM34.63 31.32c0 1.4-.6 2.62-2.06 2.68h-3.12c-.03 0-.04-.04-.04-.07V23.05c0-.03.01-.05.04-.05h2.7c1.67 0 2.48.95 2.48 2.68v5.64ZM33 25.63c0-1.27-1.08-1.05-1.92-1.05l-.03.01c0 .01-.05.02-.05.04v7.74l.08.04c.96.03 1.92.2 1.92-1.16v-5.62ZM45.92 27.34l1.2-4.3c.01-.02.03-.04.07-.04H48.82a.03.03 0 0 1 .02.03v.01l-2.18 6.71a.37.37 0 0 0-.02.12v4.1c0 .02-.01.03-.03.03h-1.58c-.03 0-.03-.01-.03-.04v-3.83c0-.22-.05-.44-.11-.65A3947.55 3947.55 0 0 1 42.94 23h1.65c.03 0 .05.02.06.04l1.2 4.3c.03.08.05.08.07 0Z" fill="#3C3B3F"/></svg>