<!-- by TradingView --><svg xmlns="http://www.w3.org/2000/svg" width="56" height="56" viewBox="0 0 56 56"><path fill="#006CAC" d="M0 0h56v56H0z"/><path d="M25.72 39.93l-.19-.37c-.34-.67-1.59-2.93-3.24-4.96-1.93-2.36-2.54-4.5-2.54-6.57 0-1.57.33-3.12.67-4.69.1-.49.22-.98.31-1.48.09-.42 0-.89-.14-1.32-.15-.43-.34-.8-.46-1l-.23-.42.47.13c.87.26 2.19.87 3.32 1.86a6.08 6.08 0 0 1 2.19 4.22c.13 2.22-.24 3.97-.56 5.49-.33 1.52-.6 2.78-.3 4.07.25 1.07.47 1.74.65 2.13.08.18.15.3.2.37 1.16-1.21 3.13-4.26 2.6-7.74-.25-1.6-.63-3.03-1-4.4l-.45-1.76c-.46-1.92-.75-3.8-.39-5.93.72-4.25 3.33-7.39 6.93-8.4l.58-.16-.36.47c-.3.37-.73 1.03-1.06 1.79a4.69 4.69 0 0 0-.5 2.3c.05.45.23 1.16.48 2.03l.47 1.56.4 1.37c.61 2.07 1.2 4.31 1.2 5.8-.04 2.99-1.28 6.1-4.49 9.4a25.16 25.16 0 0 0-4.39 5.84l-.17.37zm.22-2.46zm-.05.18c-.15 0-.57-.56-1.07-2.71-.3-1.35-.03-2.64.3-4.15.32-1.52.7-3.25.56-5.45-.2-3.34-3.32-5.2-5.1-5.81l-.27-.09.13.25c.27.52.64 1.42.49 2.2-.1.51-.2 1.01-.32 1.5-.79 3.63-1.52 6.98 1.83 11.1a31.65 31.65 0 0 1 3.27 4.98l.11-.22a26.43 26.43 0 0 1 4.32-5.67c3.18-3.27 4.4-6.33 4.42-9.25.02-1.79-.85-4.7-1.58-7.12-.47-1.55-.88-2.9-.96-3.64-.14-1.37.78-3.07 1.4-3.96l.2-.26-.32.1c-3.35 1.07-5.78 4.08-6.47 8.14-.46 2.73.16 5.04.84 7.6.36 1.37.74 2.81.99 4.43.57 3.7-1.61 6.9-2.77 8.03z" fill="#fff"/><path d="M22.44 34.48a31.46 31.46 0 0 1 3.27 5c.41-.88 1.88-3.29 4.43-5.9 3.18-3.27 4.4-6.33 4.42-9.25.03-2.92-2.33-8.85-2.54-10.76-.16-1.53 1-3.45 1.6-4.22-3.51.98-6.08 4.05-6.79 8.24-.7 4.2 1.12 7.4 1.83 12.03.57 3.7-1.61 6.9-2.77 8.03-.15 0-.57-.56-1.07-2.71-.62-2.7 1.13-5.2.86-9.6-.21-3.52-3.67-5.4-5.37-5.9.24.42.8 1.52.62 2.46-.83 4.22-2.3 7.91 1.51 12.58z" fill="#DE261A"/><path fill-rule="evenodd" d="M10.07 36H9v5h1v-2h.07c.67 0 1.2-.53 1.2-1.19v-.62a1.2 1.2 0 0 0-1.2-1.19zm.1.85H10v1.25h.18c.17 0 .32-.18.32-.4v-.45c0-.22-.15-.4-.32-.4zM12 36h2v1h-1v1h1v1h-1v1h1v1h-2v-5zm20 0h-1v5h2v-1h-1v-1h1v-1h-1v-1h1v-1h-1zm-17 0h1.5v1H16v4h-1v-4h-.5v-1h.5zm18.5 0v1h.5v4h1v-4h.5v-1h-2zM30 36h-1v5h1v-5zm6 5v-5h1.06l.94 2.43V36h1v5h-1.06L37 38.57V41h-1zm-19-5h1.07c.67 0 1.2.52 1.2 1.16v.61c0 .32-.13.61-.35.82a.8.8 0 0 1 .28.61v.8c0 .44.08.83.12.98h-.9v-1.65c0-.22-.17-.33-.4-.33H18v2h-1v-5zm1 .85h.18c.17 0 .32.18.32.4v.45c0 .22-.15.4-.32.4H18v-1.25zm3.5-.85c-.83 0-1.5.52-1.5 1.16v2.68c0 .64.67 1.16 1.5 1.16s1.5-.52 1.5-1.16v-2.68c0-.64-.67-1.16-1.5-1.16zm0 .8c-.28 0-.5.16-.5.36v2.77c0 .2.22.37.5.37s.5-.17.5-.37v-2.77c0-.2-.22-.36-.5-.36zm18.68-.8l-.8 5h.96l.12-1h.69l.12 1h.98l-.88-5h-1.2zm.85 3h-.46l.23-1.93.23 1.93zm1.47-3v5h1v-3.57l.6 3.57h.8l.6-3.57V41h1v-5h-1.6l-.4 2.3-.4-2.3h-1.6zm-19.35 0h.38l2.25 3.74 1.32-2.4L28.13 36h.56l-2.43 5h-1.03l-2.08-5z" fill="#fff"/></svg>