<!-- by TradingView --><svg width="56" height="56" viewBox="0 0 56 56" xmlns="http://www.w3.org/2000/svg"><path fill="#F0F3FA" d="M0 0h56v56H0z"/><path d="M18.88 29.89c1.23-3.43 2.44-6.88 3.61-10.33.22-.65.44-1.1.65-1.35a2.3 2.3 0 0 1 2.85-.62c.72.37 1.05.96 1.34 1.8 1.7 4.96 3.43 9.9 5.18 14.85.02.07.05.07.07 0 2.34-6.61 4.57-13.27 6.96-19.85.11-.32.33-.6.64-.85 1.76-1.41 4.17.14 3.78 2.4-.02.1-.23.72-.62 1.85A42958.43 42958.43 0 0 1 34.9 41.9c-.2.6-.4 1.02-.59 1.26a2.34 2.34 0 0 1-2.74.64c-1-.43-1.25-1.4-1.6-2.4a66014.93 66014.93 0 0 1-5.04-14.42h-.02V27c-1.25 3.55-2.48 7.1-3.7 10.67-.2.57-.38.97-.56 1.19-.89 1.11-2.7 1.04-3.56 0-.2-.25-.41-.67-.61-1.25l-4.3-12.38c-1.17-3.4 3.24-5.03 4.39-1.76.94 2.67 1.7 4.81 2.25 6.43.01.05.03.05.05 0Z" fill="#F2BB27"/></svg>