<!-- by TradingView --><svg width="56" height="56" viewBox="0 0 56 56" xmlns="http://www.w3.org/2000/svg"><path fill="#F0F3FA" d="M0 0h56v56H0z"/><path d="M50.42 26.6a6.88 6.88 0 0 0-.48-1.2c-.07-.15-.17-.3-.27-.42s-.21-.24-.35-.37a3.52 3.52 0 0 0-2.46-.98c-.6 0-1.14.11-1.63.33-1.75.81-2.23 2.65-2.23 4.42 0 2.58 1.09 4.92 4.02 4.92a4.7 4.7 0 0 0 1.9-.38 6.6 6.6 0 0 0 1.8-1.23l.28.28a5.03 5.03 0 0 1-1.92 1.5 6.1 6.1 0 0 1-2.58.53c-.82 0-1.57-.13-2.24-.4a5.12 5.12 0 0 1-1.74-1.08 5.03 5.03 0 0 1-1.13-1.7c-.26-.67-.39-1.4-.39-2.22 0-.92.16-1.75.5-2.48.32-.75.8-1.37 1.44-1.88.5-.39 1.07-.69 1.7-.9a5.6 5.6 0 0 1 1.89-.34c.82 0 1.63.13 2.43.4.27.08.49.13.65.13.16 0 .3-.05.42-.14.13-.1.21-.22.26-.39h.35l.16 3.6h-.38ZM32.45 34l-7.19-8.72v6.3c0 .43.02.77.06 1.04.05.26.13.46.24.61.12.16.27.27.47.33.2.07.46.11.77.13V34h-3.81v-.3c.33-.04.6-.08.8-.14.2-.06.36-.17.46-.33.12-.15.2-.35.23-.61.04-.27.06-.61.06-1.03v-7.36c-.16-.2-.3-.34-.42-.46a1.22 1.22 0 0 0-.7-.4 1.97 1.97 0 0 0-.43-.04V23h2.77L32 30.69V25.4c0-.99-.15-1.6-.46-1.83a1.2 1.2 0 0 0-.42-.16 3.74 3.74 0 0 0-.66-.08V23h3.8v.33c-.3.02-.54.05-.69.1-.14.05-.26.1-.37.19-.32.2-.48.8-.48 1.78V34h-.27ZM16.59 23a5.56 5.56 0 0 1 4.11 1.79c.42.47.73 1.03.96 1.66.23.64.34 1.32.34 2.04a5.9 5.9 0 0 1-.41 2.24 4.97 4.97 0 0 1-2.88 2.86c-.67.27-1.4.41-2.21.41a6 6 0 0 1-2.24-.4 5.06 5.06 0 0 1-1.74-1.14 5.2 5.2 0 0 1-1.12-1.76 6.14 6.14 0 0 1-.4-2.25c0-.8.14-1.54.41-2.2a5 5 0 0 1 2.9-2.84c.7-.27 1.45-.41 2.28-.41Zm-.15.56a3.35 3.35 0 0 0-2.89 1.83 6.85 6.85 0 0 0-.56 1.97 8.55 8.55 0 0 0 .32 3.68 3.24 3.24 0 0 0 3.2 2.39 3.2 3.2 0 0 0 2.2-.86c.92-.84 1.37-2.23 1.37-4.16 0-.92-.13-1.74-.41-2.46a3.76 3.76 0 0 0-1.12-1.66 3.33 3.33 0 0 0-2.1-.73ZM6.5 24.82c0-1.2-.36-1.42-1.5-1.49V23h5v.33c-1.13.04-1.5.3-1.5 1.49v7.39c0 1.18.38 1.45 1.5 1.48V34H5v-.3c1.14-.04 1.5-.3 1.5-1.49v-7.4ZM37 24.82c0-1.2-.36-1.42-1.5-1.49V23h5v.33c-1.13.04-1.5.3-1.5 1.49v7.39c0 1.18.38 1.45 1.5 1.48V34h-5v-.3c1.14-.04 1.5-.3 1.5-1.49v-7.4Z" fill="#032B55"/></svg>