<!-- by TradingView --><svg width="56" height="56" viewBox="0 0 56 56" xmlns="http://www.w3.org/2000/svg"><path fill="#F0F3FA" d="M0 0h56v56H0z"/><path d="M31.32 11h.01L34 13.66a.01.01 0 0 1 0 .02l-1.37 1.37h-.02l-1.26-1.26h-.02l-5.2 5.22h-.01l-1.38-1.38v-.02l6.6-6.61Z" fill="#056839"/><path d="M19.5 17.74 12.03 25H9.28L19.5 14.96a.01.01 0 0 1 .01 0l7.86 7.88a.01.01 0 0 0 .02 0l7.86-7.88a.01.01 0 0 1 .02 0l1.37 1.37a.01.01 0 0 1 0 .02l-9.25 9.27a.01.01 0 0 1-.02 0l-7.86-7.88a.01.01 0 0 0-.02 0Z" fill="#8CC63F"/><path d="m37.86 20.26-4.87 4.73-.01.01h-2.75v-.01h-.01v-.01l7.64-7.42h.01l7.64 7.42V25h-2.76v-.01l-4.88-4.73h-.01ZM17.16 25l3.62-3.65a.01.01 0 0 1 .02 0l1.37 1.38a.01.01 0 0 1 0 .02L19.9 25h-2.74Z" fill="#056839"/><path d="M8 34v-1c0-.82.03-1.64.36-2.37.55-1.23 1.75-1.48 2.98-1.57.43-.03.85-.05 1.28-.05h1.91c.94 0 1.73.02 2.36.08.37.03.73.1 1.09.21.82.26 1.2.84 1.35 1.65A5.19 5.19 0 0 1 19.4 32h-2.89c-.05-.83-.57-1-1.3-1h-2.28c-1.51 0-1.95.52-1.96 2.17 0 .43 0 .86.04 1.3.06.84.4 1.49 1.19 1.53h2.92c.44 0 1.1-.27 1.32-.74.1-.2.13-.49.12-.72H19.55c.02.31.01.68-.02 1.1-.09 1.12-.49 2.02-1.77 2.16-1.21.13-2.44.21-3.66.2a71.72 71.72 0 0 1-3.7-.14c-1.53-.15-2.12-1.3-2.3-2.62-.05-.43-.08-.85-.09-1.23ZM29.5 34.55l.72.15c.87.17 1.07.84 1.07 1.62a200.26 200.26 0 0 1 0 1.68H28.3v-1.32c0-.24-.08-.56-.24-.74-.19-.2-.57-.25-.87-.25l-3.17-.01-.02.01V38L24 38h-2.97c-.02 0-.02 0-.02-.02v-8.96c0-.01 0-.02.02-.02h7.57c.8 0 1.77.15 2.3.82.28.35.41.8.46 1.23.07.54.07 1.08.01 1.62-.08.7-.35 1.33-1.06 1.6a11.75 11.75 0 0 1-.8.28Zm-1.06-2.52c-.04-.8-.57-1.03-1.22-1.03H24v2.5h2.63s.7.01 1.05-.03c.38-.04.7-.19.74-.6.03-.28.04-.56.02-.84ZM36 29h-3v9h3v-9ZM44 31v7h-3v-7h-4v-2h11v2h-4Z" fill="#0C233F"/></svg>