<!-- by TradingView --><svg width="56" height="56" viewBox="0 0 56 56" xmlns="http://www.w3.org/2000/svg"><path fill="#117FA1" d="M0 0h56v56H0z"/><path d="M14 30.55V33H6V22h8v2.43H8.5v1.94H13v2.06H8.5v2.12H14ZM23.5 33v-6.58L21.18 31h-1.34l-2.34-4.58V33H15V22h2.7l2.8 5.55L23.31 22H26v11h-2.5ZM35.55 32.31a5.63 5.63 0 0 1-2.63.69 5.07 5.07 0 0 1-3.88-1.7 5.65 5.65 0 0 1 .06-7.63A5.4 5.4 0 0 1 32.97 22c.8 0 1.53.16 2.19.48a5.43 5.43 0 0 1 2.77 3.03 5.6 5.6 0 0 1-1.03 5.7L38.46 33H36.1l-.56-.69Zm-2.61-1.54c.4 0 .76-.07 1.06-.2l-1.73-1.93h2.34l.67.75a3.63 3.63 0 0 0 .49-1.9c0-.42-.07-.83-.19-1.22a3.1 3.1 0 0 0-.54-1.04c-.25-.3-.54-.54-.9-.73a2.56 2.56 0 0 0-1.2-.27 2.57 2.57 0 0 0-2.12 1.03c-.24.31-.42.66-.54 1.05a4.22 4.22 0 0 0 0 2.42c.13.39.3.74.55 1.04.23.3.53.54.89.72.35.19.76.28 1.22.28ZM47.1 32.31a5.63 5.63 0 0 1-2.64.69 5.07 5.07 0 0 1-3.87-1.7 5.65 5.65 0 0 1 .05-7.63A5.4 5.4 0 0 1 44.5 22c.8 0 1.53.16 2.2.48a5.43 5.43 0 0 1 2.76 3.03 5.6 5.6 0 0 1-1.02 5.7L50 33h-2.34l-.56-.69Zm-2.62-1.54c.4 0 .76-.07 1.06-.2l-1.73-1.93h2.34l.67.75a3.64 3.64 0 0 0 .49-1.9c0-.42-.06-.83-.18-1.22a3.1 3.1 0 0 0-.55-1.04 2.58 2.58 0 0 0-2.1-1 2.57 2.57 0 0 0-2.12 1.03c-.24.31-.42.66-.53 1.05a4.22 4.22 0 0 0 0 2.42c.12.39.3.74.54 1.04.24.3.54.54.9.72.35.19.75.28 1.21.28Z" fill="#DFB723"/></svg>