<!-- by TradingView --><svg width="56" height="56" fill="none" xmlns="http://www.w3.org/2000/svg"><path fill="#F0F3FA" d="M0 0h56v56H0z"/><path fill-rule="evenodd" clip-rule="evenodd" d="M29.418 20.522 33.39 16l-4.424 25 .452-20.478Zm10.447 2.369-3.804-4.144-5.237 21.052 9.04-16.908Zm1.872 2.208 2.166 2.087-9.744 9.134L41.737 25.1Zm-5.042 11.175L48 31.002l-2.212-2.096-9.093 7.368ZM26.582 20.522 22.61 16l4.424 25-.452-20.478ZM16.135 22.89l3.804-4.144 5.237 21.052-9.04-16.908Zm-1.873 2.208-2.165 2.087 9.744 9.134L14.262 25.1Zm5.043 11.175L8 31.002l2.212-2.096 9.093 7.368Z" fill="#ED1C24"/></svg>