<!-- by TradingView --><svg width="56" height="56" viewBox="0 0 56 56" xmlns="http://www.w3.org/2000/svg"><path fill="#F0F3FA" d="M0 0h56v56H0z"/><path d="M18.85 13h.3c.98.03 1.87.26 2.7.69a5.65 5.65 0 0 1 .98 9.48A6.18 6.18 0 0 1 19 24.52v15.6c0 1.98-2.01 3.35-3.97 2.73A2.9 2.9 0 0 1 13 39.93V18.8c0-1.4.55-2.76 1.5-3.81A6.07 6.07 0 0 1 18.84 13Zm18.25 0h.3c1.36.05 2.55.5 3.57 1.36a5.8 5.8 0 0 1 .2 8.6L28.02 36.12h-.03a24694.78 24694.78 0 0 1-4.26-4.26 5.76 5.76 0 0 1 .27-7.99 60286.87 60286.87 0 0 0 9.41-9.4 5.7 5.7 0 0 1 3.28-1.44l.28-.02.13-.01Zm.14 16.12-8.12 8.12v.02l4.04 4.03a5.76 5.76 0 1 0 8.08-8.18 24952.64 24952.64 0 0 1-4-3.99Z" fill="url(#abmaxswp5)"/><defs><linearGradient id="abmaxswp5" x1="14.5" y1="14.36" x2="39.4" y2="42.99" gradientUnits="userSpaceOnUse"><stop stop-color="#F300A1"/><stop offset="1" stop-color="#6E00FA"/></linearGradient></defs></svg>