<!-- by TradingView --><svg xmlns="http://www.w3.org/2000/svg" width="56" height="56" viewBox="0 0 56 56"><path fill="#F0F3FA" d="M0 0h56v56H0z"/><path fill-rule="evenodd" d="M6 29v-3.46c0-.3.26-.54.59-.54h3.53c.49 0 .88.36.88.8v1.02c0 .45-.4.8-.88.8H7V29H6Zm1.13-3.5a.13.13 0 0 0-.13.14v1.22c0 .08.06.14.13.14h2.22c.36 0 .65-.3.65-.68v-.14a.66.66 0 0 0-.65-.68H7.13ZM12 25h1v4h-1v-4Zm8 0h5v.5h-2V29h-1v-3.5h-2V25Zm6 0h1v1.5h3V25h1v4h-1v-2h-3v2h-1v-4Zm-11 0h-1v4h1v-2.82L18 29h1v-4h-1v2.71L15 25Zm17 .8c0-.44.4-.8.91-.8h4.18c.5 0 .91.36.91.8v2.4c0 .44-.4.8-.91.8H32.9c-.5 0-.91-.36-.91-.8v-2.4Zm1 .3c0-.33.27-.6.6-.6h2.8c.33 0 .6.27.6.6v1.8a.6.6 0 0 1-.6.6h-2.8a.6.6 0 0 1-.6-.6v-1.8Zm12 2.1v-2.39c0-.44.34-.8.76-.8h3.48c.31 0 .58.2.7.49h-3.48c-.26 0-.46.27-.46.6v1.8c0 .33.2.6.46.6h2.08c.26 0 .46-.27.46-.6V27h1v1.2c0 .44-.34.8-.76.8h-3.48a.78.78 0 0 1-.76-.8Z" fill="#FF4E02"/><path d="M39 25h1l3 2.71V25h1v4h-1l-3-2.82V29h-1v-4Z" fill="#FF4E02"/><path fill-rule="evenodd" d="M5.74 22C4.78 22 4 22.81 4 23.81v8.38c0 1 .78 1.81 1.74 1.81h44.52c.96 0 1.74-.81 1.74-1.81V23.8c0-1-.78-1.81-1.74-1.81H5.74Zm.4 1C5.51 23 5 23.5 5 24.12V31h46v-6.88c0-.62-.51-1.12-1.14-1.12H6.14Z" fill="#FF4E02"/></svg>