<!-- by TradingView --><svg width="56" height="56" viewBox="0 0 56 56" xmlns="http://www.w3.org/2000/svg"><path fill="#AC3232" d="M0 0h56v56H0z"/><path fill-rule="evenodd" d="M14 37.63V21.2c0-.96.49-1.85 1.3-2.38l11.31-7.36a2.88 2.88 0 0 1 3.18.03l10.95 7.33A2.84 2.84 0 0 1 42 21.18v16.47c0 1.24-.8 2.33-1.99 2.71l-10.94 3.5c-.56.18-1.17.19-1.73.01L16 40.35A2.85 2.85 0 0 1 14 37.63ZM17 36V22.22c0-.68.34-1.32.9-1.7l9.15-6.18a1.95 1.95 0 0 1 2.21.01l8.87 6.17c.54.38.87 1 .87 1.68v13.82c0 .88-.56 1.66-1.38 1.94l-8.85 2.94c-.4.13-.82.13-1.21 0l-9.17-2.95A2.03 2.03 0 0 1 17 36Zm10-9.17-3-.64V22.5l-3 1.53v3.72l6 1.8v9.12l-9-2.56v-3.56l3 .7v.84l3 .96v-3.33l-6-1.67v-7.94l9-4.87v9.58ZM29 17v21.67l3-1.08v-4.77l3-.82v4.8l3-1.1V22.03l-3-1.57v8.11l-3 .92V19.03L29 17Z" fill="#fff"/></svg>