<!-- by TradingView --><svg width="56" height="56" viewBox="0 0 56 56" xmlns="http://www.w3.org/2000/svg"><path fill="#F0F3FA" d="M0 0h56v56H0z"/><path d="M6.03 30.74c0-.02-.03-.05-.03-.1v-.13c0-.1.02-.2.14-.2.08 0 .2.13.3.38l.26.57c.49.83 1.4 1.25 2.36 1.25 1.13 0 2.24-.63 2.24-1.87 0-2.7-5.05-1.29-5.05-4.36 0-1.57 1.6-2.28 2.97-2.28.65 0 1.25.38 1.85.38.14 0 .25-.1.37-.15.03 0 .06.03.06.05.02.03.02.08.02.13l.2 1.51c0 .12.05.36-.14.36-.11 0-.2-.1-.25-.28-.09-.18-.14-.33-.26-.46a2.45 2.45 0 0 0-2.13-1.13c-.91 0-1.99.49-1.99 1.54 0 1.09 1.13 1.38 2 1.64.74.22 1.55.4 2.18.9.3.25.5.54.65.84.14.31.22.67.22 1.08 0 .8-.3 1.41-.9 1.9-.59.46-1.4.69-2.44.69a5 5 0 0 1-1.62-.23c-.83-.44-.82-1.17-1.01-2.03ZM14 29h1.8c.44 0 .72-.03.83-.06.11-.02.17-.1.17-.22 0-.36-.14-.68-.45-.96-.3-.28-.64-.42-1.03-.42-.4 0-.7.14-.92.45-.25.28-.34.68-.4 1.21Zm0 .34c0 .87.12 1.59.5 2.12.4.53.93.78 1.6.78.5 0 1-.17 1.54-.53.14-.08.22-.14.25-.14s.05 0 .08.03c0 0 .03.03.03.08 0 .06-.03.11-.06.2A3.26 3.26 0 0 1 15.57 33c-.73 0-1.34-.28-1.82-.84a2.92 2.92 0 0 1-.75-2.02c0-.84.25-1.6.75-2.21.5-.62 1.12-.93 1.8-.93.97 0 1.96.61 2.31 1.54.08.2.14.4.14.6 0 .1-.03.16-.06.19a.93.93 0 0 1-.39.05L14 29.34ZM20 31.43v-2.86a.8.8 0 0 0-.16-.5c-.09-.1-.25-.16-.48-.16-.28 0-.36-.03-.36-.14 0-.05.03-.08.06-.11.15-.15.68-.2.86-.27.26-.1.65-.39.94-.39.06 0 .08.03.11.06.03.02.03.13.03.27v.58c.46-.5.92-.91 1.63-.91.34 0 .67.08.95.28.28.19.5.46.64.82l.25-.22c.48-.43 1-.88 1.68-.88.57 0 1.08.33 1.4.8.14.22.31.47.37.74.05.3.08.96.08 1.63v1.29c0 .36.03.6.08.74.06.14.14.22.31.33.2.1.61.01.61.3 0 .06-.03.09-.06.12-.02.02-.08.05-.16.05h-2.25c-.06 0-.09 0-.12-.05-.02-.03-.05-.06-.05-.12 0-.08.05-.13.2-.22.13-.08.19-.13.24-.19.06-.1.12-.22.14-.33.03-.14.06-.33.06-.6V30c0-.8-.12-1.54-.32-1.87-.39-.66-1.45-.64-1.95-.14-.23.25-.23.58-.23 1v2.52c0 .39.03.64.08.75.06.1.14.22.26.3.12.06.25.08.39.08.16.03.25.11.25.2 0 .05-.03.08-.06.1a.22.22 0 0 1-.14.06h-2.25c-.09 0-.17-.08-.17-.17 0-.08.05-.13.2-.22.2-.14.33-.26.38-.52.03-.14.06-.33.06-.6V30c0-.8-.14-1.57-.34-1.9-.2-.33-.53-.5-.98-.5-.39 0-.72.12-.95.36-.22.25-.23.77-.23 1.19v2.36c0 .36.03.6.08.75.06.13.14.24.31.33.13.06.46.04.56.13a.2.2 0 0 1 .06.14c0 .11-.09.14-.2.14h-2.36c-.09 0-.17-.08-.17-.17 0-.05 0-.08.03-.1.12-.12.27-.19.39-.3.23-.31.3-.62.3-1ZM30 31.6v-2.7c0-.41-.03-.7-.1-.83-.1-.13-.23-.18-.45-.18-.13 0-.21 0-.27-.03-.05-.03-.08-.05-.08-.1 0-.08.1-.16.33-.21.37-.1.7-.25 1.06-.4.2-.1.3-.15.37-.15.06 0 .09 0 .11.03.03.02.03.07.03.15v4.41c0 .51.09.78.45 1.12a.2.2 0 0 1 .05.13c0 .06-.03.08-.05.1a.4.4 0 0 1-.17.06H29.6c-.07 0-.18.02-.22-.05-.02-.03-.05-.05-.05-.1 0-.06 0-.08.03-.11.22-.21.48-.28.57-.6.05-.1.08-.29.08-.55ZM30.5 25c-.23 0-.5.36-.5.53 0 .19.23.47.48.47.24 0 .52-.33.52-.51 0-.17-.26-.49-.5-.49ZM33 31.44v-2.83a.96.96 0 0 0-.12-.53c-.07-.1-.22-.16-.4-.16-.13 0-.2 0-.25-.03-.05-.03-.07-.06-.07-.11 0-.06.02-.11.05-.14.07-.08.28-.06.38-.11.24-.09.64-.2.88-.34.22-.13.39-.19.41-.19.05 0 .07.03.1.06.02.02.02.1.02.25V28c.37-.4 1.17-1 1.75-1 .57 0 1.05.4 1.37.86.4.63.38 1.57.38 2.28v1.3c0 .37.02.62.07.75.05.14.12.23.27.34.16.1.36.04.52.14.05.02.05.08.05.16 0 .06-.02.09-.05.11a.17.17 0 0 1-.12.06H36.12c-.03 0-.08 0-.1-.06-.02-.02-.05-.05-.05-.1 0-.06.05-.15.15-.23.1-.08.16-.14.21-.2.05-.08.1-.19.12-.33.03-.14.05-.33.05-.64v-1.5c0-.7.01-2.3-1-2.3-.73 0-1.5.73-1.5 1.42v2.41c0 .36.02.61.07.75s.15.25.29.34c.15.08.45.02.55.13.03.03.05.09.05.14 0 .1-.1.17-.2.17H32.5c-.07 0-.14-.09-.14-.17 0-.05 0-.08.03-.1.2-.23.37-.34.5-.65.12-.16.12-.36.12-.64ZM40 30.01A3.08 3.08 0 0 1 43.08 27 2.87 2.87 0 0 1 46 29.93c0 1.7-1.35 3.07-3.06 3.07A2.93 2.93 0 0 1 40 30.01Zm3.08 2.66c1.36 0 1.92-1.2 1.92-2.4 0-1.26-.57-3-2.08-3-1.43 0-1.92 1.23-1.92 2.74 0 1.49.78 2.66 2.08 2.66Z" fill="#003164"/><path d="m43 19 1.82 6L43 26l-1.85-1L43 19Zm2.3 6h2.37l-2.98 2a3.95 3.95 0 0 0-3.46 0l-2.93-2h2.37L43 26.45 45.3 25Zm3.04 0H51l-5 3a4.4 4.4 0 0 0-.91-.82L48.34 25Zm-7.46 2.18c-.34.22-.61.52-.88.82l-5-3h2.66c-.02 0 3.22 2.18 3.22 2.18Z" fill="#003164"/><path d="M42.68 31.98c.22-.11.24-.52.04-.91-.2-.4-.53-.63-.75-.53-.22.11-.24.52-.04.92.2.4.53.63.75.52ZM44.06 31.46c.2-.4.18-.8-.04-.91-.22-.11-.56.12-.75.52-.2.4-.18.8.04.9.22.12.55-.12.75-.51ZM42.68 30.4c.22-.1.24-.49.04-.87-.2-.38-.53-.6-.75-.5-.22.1-.24.5-.04.88.2.38.53.6.75.5ZM44.07 29.9c.2-.38.18-.78-.04-.88-.22-.1-.55.12-.75.5-.2.38-.18.77.04.87.22.1.56-.12.75-.5ZM42.7 28.72c.21-.1.23-.48.05-.85-.19-.37-.5-.6-.7-.49-.21.1-.23.48-.05.85s.5.6.7.49ZM43.99 28.24c.18-.37.16-.75-.04-.85-.21-.1-.52.11-.7.48-.2.37-.17.76.03.86.2.1.52-.12.7-.49ZM42.74 26.98c.19-.1.21-.44.05-.77-.16-.33-.44-.52-.63-.43-.19.1-.21.44-.05.77.16.33.44.52.63.43ZM43.9 26.54c.16-.33.14-.67-.05-.77-.2-.1-.47.1-.63.43-.16.32-.14.67.05.76.19.1.47-.1.63-.42ZM42.74 25.45c.18-.09.2-.42.04-.73-.16-.32-.44-.5-.63-.41-.18.09-.2.41-.04.73.16.31.44.5.63.4ZM43.9 25.03c.16-.32.14-.65-.05-.73-.18-.1-.46.1-.62.4-.16.32-.15.65.04.74.18.09.46-.1.63-.41ZM43.44 23.2c0-.45-.2-.8-.44-.8-.24-.01-.44.35-.44.79 0 .44.2.8.44.81.24 0 .44-.36.44-.8Z" fill="#FBC142"/></svg>