<!-- by TradingView --><svg width="56" height="56" viewBox="0 0 56 56" xmlns="http://www.w3.org/2000/svg"><path fill="#F0F3FA" d="M0 0h56v56H0z"/><path d="M15 22H5v3.42h3V35h4v-9.58h3V22ZM33 22h-4v13h9v-3.55h-5V22ZM40 22h6.2a4.8 4.8 0 0 1 2.36 8.98L51 35h-4.15l-2.06-3.4H44V35h-4V22Zm4 6.5h1.7a1.5 1.5 0 1 0 0-2.98H44v2.98ZM23 31.51V28h4v5h-.05a7.23 7.23 0 0 1-5.03 2c-3.86 0-6.99-2.91-6.99-6.5s3.13-6.5 6.99-6.5c2.24 0 4.23.98 5.51 2.5l-2.57 2.3a3.23 3.23 0 0 0-2.7-1.42c-1.76 0-3.2 1.4-3.2 3.12a3.16 3.16 0 0 0 3.2 3.12c.3 0 .57-.04.84-.1Z" fill="#14366A"/></svg>