<!-- by TradingView --><svg width="56" height="56" viewBox="0 0 56 56" xmlns="http://www.w3.org/2000/svg"><path fill="#5B274B" d="M0 0h56v56H0z"/><path d="M34.9 31c-.74 0-1.47-.12-2.16-.37A5.1 5.1 0 0 1 29.89 28a4.86 4.86 0 0 1 2.87-6.63c1.4-.5 2.94-.5 4.35.01a4.5 4.5 0 0 1 1.7 1.14l-.95.88a3.82 3.82 0 0 0-1.32-.87 4.51 4.51 0 0 0-3.17 0 3.53 3.53 0 0 0-2.13 1.98 3.9 3.9 0 0 0 0 2.99c.2.45.48.85.84 1.2.37.33.8.6 1.29.77a4.5 4.5 0 0 0 3.17 0c.5-.2.95-.5 1.32-.89l.95.88c-.47.5-1.05.9-1.7 1.15-.7.26-1.46.4-2.21.39M47.5 21H49v10h-1.5V21Zm.14 5.54h-6.3V25.3h6.3v1.24ZM41.49 31H40V21h1.5v10ZM26.17 27.65l.28-.1c.6-.25 1.11-.67 1.47-1.2.35-.56.53-1.2.51-1.86.02-.66-.16-1.31-.51-1.87a3.24 3.24 0 0 0-1.47-1.2 5.76 5.76 0 0 0-2.3-.42H20v1.24h4.1c.95 0 1.66.2 2.14.6a2.3 2.3 0 0 1 .73 1.65 2.25 2.25 0 0 1-.73 1.66c-.48.4-1.2.6-2.13.6H20V28h4.15c.23 0 .44-.05.65-.07L27.01 31h1.6l-2.44-3.35ZM17.66 21.25c.83.43 1.32 1.36 1.34 2.56v.01L18.98 31H17.6l.02-7.17c-.01-.68-.22-1.15-.6-1.34-.37-.2-.92-.09-1.46.3-1.4.98-5.02 4.55-8.62 8.21H5c3.94-4.03 8.17-8.23 9.78-9.36.96-.68 2.04-.83 2.88-.4ZM15.16 27A345.34 345.34 0 0 1 11 31H9.05c1.3-1.22 2.74-2.6 4.18-4h1.93ZM18 32h-.5v5h.5v-5ZM20 37v-5h.42l3.08 4.06V32h.5v5h-.42l-3.07-4.07V37H20ZM26.5 36.54h1.38c.37.01.74-.08 1.07-.26.3-.16.55-.41.71-.72a2.34 2.34 0 0 0 0-2.12c-.17-.3-.41-.56-.7-.72-.34-.18-.71-.27-1.08-.26h-1.39v4.08ZM26 37v-5h1.9c.46-.01.9.1 1.31.32.37.2.67.5.88.88a2.83 2.83 0 0 1 0 2.6c-.21.38-.51.68-.88.88-.4.22-.85.33-1.3.32H26ZM33 32h-.5v5h.5v-5ZM37.33 37a2.5 2.5 0 0 1-.98-.19 2.4 2.4 0 0 1-1.29-1.32 2.8 2.8 0 0 1 .01-1.99 2.4 2.4 0 0 1 1.3-1.31 2.54 2.54 0 0 1 1.93 0c.28.1.54.29.74.53l-.31.33c-.18-.2-.4-.35-.63-.45-.24-.1-.5-.14-.75-.14a2 2 0 0 0-.78.15c-.24.1-.45.25-.63.43-.18.19-.32.4-.42.65-.2.52-.2 1.1 0 1.62.1.24.24.46.42.64.18.19.4.34.63.43a2 2 0 0 0 .78.15 1.78 1.78 0 0 0 1.38-.59l.31.33c-.2.24-.46.43-.75.54-.3.13-.63.19-.96.19M41.24 34.24h2.47v.45h-2.47v-.45Zm.05 2.3h2.81V37h-3.3v-5H44v.46h-2.7v4.08ZM47.25 37c-.34 0-.68-.06-1-.18-.27-.1-.52-.25-.73-.46l.2-.4a2.28 2.28 0 0 0 2.26.48c.15-.06.3-.17.4-.31a.77.77 0 0 0 .13-.44.67.67 0 0 0-.16-.46 1.08 1.08 0 0 0-.41-.28 4.42 4.42 0 0 0-.56-.18l-.61-.16c-.2-.06-.39-.13-.57-.24-.16-.09-.3-.22-.41-.39a1.15 1.15 0 0 1-.16-.63c0-.24.06-.47.18-.67.14-.22.34-.39.57-.5a2.71 2.71 0 0 1 2.42.25l-.17.42a2.16 2.16 0 0 0-1.28-.4c-.24-.02-.48.02-.7.11a.89.89 0 0 0-.4.32.81.81 0 0 0-.13.45c-.01.17.05.34.15.47.12.12.26.22.42.27.18.07.37.13.56.18l.61.16c.2.06.38.14.56.24.17.1.31.22.42.38.1.19.16.4.15.63a1.25 1.25 0 0 1-.75 1.15c-.32.14-.65.2-.99.19" fill="#fff"/></svg>