<!-- by TradingView --><svg width="56" height="56" viewBox="0 0 56 56" xmlns="http://www.w3.org/2000/svg"><path fill="#01538D" d="M0 0h56v56H0z"/><path d="M5.92 31H4.58l.18-1.2h1.19c.98 0 1.48-.82 1.6-1.68l.03-.26c.1-.68.03-1.62-.87-1.66H5.37l.2-1.2h1.2c1.54.04 2.37 1.43 2.21 2.86l-.03.26c-.2 1.56-1.4 2.9-3.03 2.88Zm.47-6-1.02 6H4l1.01-6H6.4ZM10.27 30.08 11.75 27H13l-2.18 4.09c-.07.13-.14.26-.23.37-.08.11-.17.2-.28.29-.1.08-.22.14-.36.18a1.44 1.44 0 0 1-.7.05 3.28 3.28 0 0 1-.25-.05l.09-.8h.13c.1 0 .18 0 .26-.02a.52.52 0 0 0 .2-.1.6.6 0 0 0 .17-.19l.42-.74ZM10.6 27l.26 2.54-.08 1.12h-.74L9.41 27h1.18ZM14.78 27.98 14.23 31H13l.7-4h1.16l-.08.98Zm-.3.92-.26.02c.02-.24.07-.47.15-.7.07-.23.18-.44.32-.63a1.5 1.5 0 0 1 1.8-.45c.16.09.27.2.35.35.07.14.12.3.14.49.02.17.03.36 0 .55L16.57 31h-1.24l.43-2.48a.9.9 0 0 0-.01-.3.32.32 0 0 0-.13-.2.5.5 0 0 0-.3-.08.72.72 0 0 0-.36.08.72.72 0 0 0-.25.23c-.06.1-.1.2-.15.31l-.08.34ZM19.01 29.95l.22-1.6v-.24a.34.34 0 0 0-.08-.2c-.04-.05-.1-.08-.2-.08a.34.34 0 0 0-.2.05.38.38 0 0 0-.12.15.78.78 0 0 0-.07.22h-1c0-.21.06-.4.15-.57.1-.16.21-.3.36-.4a1.74 1.74 0 0 1 .99-.29c.22.01.43.07.62.18.18.1.33.26.43.47.1.2.14.44.12.73L20 29.95l-.05.46c0 .16.01.3.07.44V31h-.97a2.3 2.3 0 0 1-.08-.55c0-.16.01-.33.03-.49Zm.33-1.38-.1.64h-.38a.64.64 0 0 0-.4.16.62.62 0 0 0-.14.18.8.8 0 0 0-.07.25l.01.18c.02.05.05.09.08.12.04.03.09.05.14.05.1 0 .18-.02.26-.06.08-.04.15-.1.2-.17.07-.07.1-.16.13-.26l.17.5c-.05.13-.1.24-.18.34-.06.1-.14.2-.22.27a.88.88 0 0 1-.62.23.95.95 0 0 1-.5-.15c-.15-.1-.27-.23-.36-.4a1.16 1.16 0 0 1-.12-.59c0-.25.06-.47.16-.63.1-.17.22-.3.38-.4.16-.1.33-.16.52-.2.18-.05.37-.07.55-.07h.49ZM22.32 27.97 21.79 31h-1.2l.68-4h1.12l-.07.97Zm-.3.93-.26.02c.02-.24.07-.47.15-.7.08-.23.18-.44.32-.62.14-.2.3-.34.5-.45a1.4 1.4 0 0 1 1.21-.02c.14.07.24.18.31.3.08.14.13.28.15.45.02.16.03.33 0 .5L23.98 31h-1.2l.41-2.47c.01-.1.01-.2 0-.28a.35.35 0 0 0-.08-.22c-.05-.06-.14-.09-.26-.09a.58.58 0 0 0-.34.08.78.78 0 0 0-.24.24 1.53 1.53 0 0 0-.24.64Zm2.19 0-.32.02c.02-.24.07-.47.15-.7.07-.23.17-.43.3-.62a1.4 1.4 0 0 1 1.75-.46c.15.09.26.2.33.35.08.15.12.3.15.49.02.17.02.36 0 .55L26.15 31h-1.2l.41-2.47c.02-.1.02-.2.01-.28a.35.35 0 0 0-.09-.22c-.05-.06-.13-.09-.25-.09a.63.63 0 0 0-.59.31c-.06.1-.11.2-.15.32-.04.11-.06.22-.08.33ZM28.68 27l-.54 4H27l.55-4h1.13Zm-.93-1.33a.63.63 0 0 1 .62-.67c.17 0 .31.05.44.17.12.1.19.26.19.46s-.06.36-.18.48a.63.63 0 0 1-.44.19.63.63 0 0 1-.44-.16.62.62 0 0 1-.2-.47ZM30.34 30c.25 0 .49-.1.53-.45h.96a1.46 1.46 0 0 1-1.5 1.45c-.83-.02-1.41-.82-1.32-1.95v-.09c.12-1.18.85-1.98 1.73-1.96.7.01 1.28.58 1.26 1.55h-.96c.01-.31-.07-.54-.38-.55-.45-.02-.58.48-.62.97v.08c-.04.4-.12.93.3.95ZM34.73 25l-.88 6H33l.88-6h.85Zm1.48 3-.05.5h-2.21L34 28h2.21Zm.79-3-.05.5h-2.5l.06-.5H37ZM38.97 29.95l.57-2.95h.95l-.76 4h-.9l.14-1.05Zm.26-.77h.32c-.03.23-.1.46-.18.68-.09.22-.2.42-.35.6-.15.17-.33.3-.55.4-.22.1-.48.15-.78.14-.24 0-.44-.05-.6-.13a.99.99 0 0 1-.39-.32c-.1-.14-.16-.29-.19-.46a1.98 1.98 0 0 1-.01-.56l.47-2.53h.95l-.48 2.55v.27c.01.08.03.16.07.23.04.07.1.13.17.17.07.04.17.07.3.07.25 0 .46-.04.64-.13.17-.1.3-.24.4-.4.11-.18.18-.37.21-.58ZM42.07 27.96 41.48 31h-.95l.76-4h.9l-.12.96Zm-.34.93h-.29c.04-.23.1-.46.2-.69.09-.23.22-.43.38-.61.15-.19.35-.33.57-.44.23-.1.5-.16.8-.15.23 0 .43.05.58.13a.9.9 0 0 1 .37.32c.09.14.14.3.17.47.03.17.03.35 0 .54L44.06 31h-.96l.48-2.55c.01-.14 0-.26-.02-.38a.44.44 0 0 0-.18-.26.67.67 0 0 0-.4-.1 1.08 1.08 0 0 0-.85.36c-.1.12-.19.25-.25.4-.06.14-.1.28-.14.42ZM51.05 29.86c.01-.13-.01-.23-.08-.3a.65.65 0 0 0-.26-.17 3.6 3.6 0 0 0-.28-.1 3.2 3.2 0 0 1-.4-.13 1.61 1.61 0 0 1-.35-.21.93.93 0 0 1-.25-.31 1.14 1.14 0 0 1 .39-1.35 1.64 1.64 0 0 1 .94-.29c.22 0 .42.05.61.15.2.09.35.23.46.4.12.19.17.41.17.68h-.75a.63.63 0 0 0-.06-.31.45.45 0 0 0-.18-.2.57.57 0 0 0-.29-.08c-.1 0-.19.01-.28.05-.1.04-.17.1-.24.17a.53.53 0 0 0-.12.3c-.02.08 0 .16.03.22.04.05.09.1.15.14a1.22 1.22 0 0 0 .4.14c.18.05.36.12.54.2.18.1.32.2.43.36a.9.9 0 0 1 .15.6 1.1 1.1 0 0 1-.5.9c-.14.1-.3.17-.47.22-.17.04-.34.06-.5.06a1.5 1.5 0 0 1-.65-.16c-.2-.1-.36-.24-.48-.43a1.28 1.28 0 0 1-.18-.7l.73.01c0 .14.02.25.07.35.06.1.13.17.22.22.09.04.2.07.32.07.1 0 .2-.01.3-.04.1-.04.2-.1.26-.16a.5.5 0 0 0 .15-.3ZM47.13 30.09 48.2 25h.8l-1.21 6h-.71l.05-.91Zm-2.12-1 .01-.07c.03-.23.08-.47.16-.7.08-.24.18-.45.31-.65.14-.2.3-.35.5-.46.19-.11.42-.17.68-.16.22 0 .41.07.57.18.15.12.27.27.35.46.09.18.15.38.18.6.03.21.04.42.03.62l-.03.24c-.03.22-.1.44-.18.66-.08.22-.2.42-.33.6-.13.19-.3.33-.48.44-.19.1-.4.16-.64.15-.24-.01-.44-.07-.6-.2a1.18 1.18 0 0 1-.36-.45c-.08-.2-.14-.4-.16-.61a3.1 3.1 0 0 1 0-.65Zm.8-.08v.08a3.1 3.1 0 0 0-.02.39c0 .14.02.27.06.4.03.12.1.22.18.3.08.09.2.13.35.14.18 0 .33-.04.47-.13.14-.1.26-.21.35-.36.09-.15.15-.3.2-.47l.09-.64c0-.12 0-.24-.03-.35a.95.95 0 0 0-.1-.31.66.66 0 0 0-.22-.23.56.56 0 0 0-.32-.1c-.17 0-.31.03-.43.1a.95.95 0 0 0-.3.32c-.07.13-.13.27-.18.42l-.1.44Z" fill="#FAFDFC"/></svg>